<svg width="153" height="79" viewBox="0 0 153 79" fill="none" xmlns="http://www.w3.org/2000/svg">
<path d="M134.934 77.9756L134.524 77.4754L134.476 77.4693C133.801 77.457 132.752 77.3968 131.547 77.1739C127.13 76.1916 123.116 73.986 119.928 70.8041C119.187 70.0387 118.379 69.1166 117.451 67.9836C111.075 60.1372 106.634 41.8832 115.095 16.2589L115.143 16.1264L113.751 16.1023L113.323 16.1085C106.411 16.1085 99.9324 18.7481 95.0752 23.5511C89.6875 28.5169 85.7523 34.8989 83.2453 39.7622L81.7146 40.0093C82.2208 36.749 82.6487 32.7715 82.6487 28.9628C82.6487 24.2261 81.9858 19.7485 79.973 17.2053C78.1108 14.867 74.9951 14.4753 70.9755 16.0784C62.418 19.9774 53.3302 29.6679 46.5806 42.0221C46.7734 40.5034 46.8879 38.9366 46.8879 37.2251C46.8879 24.7865 40.7169 13.1435 30.3876 6.08053C21.5589 0.457887 15.1649 0.614567 15.1046 0.620599L14.9419 0.626766L15.2432 1.24146L15.2975 1.24763C16.4425 1.38015 26.6874 2.88078 33.5575 14.1984C36.7937 19.5679 38.4329 26.6731 38.4329 35.321C38.4028 45.5599 36.0585 58.3058 31.84 71.2143L30.6528 74.788H39.9817L41.0544 71.2806C44.9535 58.354 51.3415 39.7263 61.6949 27.1914C65.359 22.7619 70.849 18.2843 73.1812 18.6881C73.6513 18.7665 74.0611 19.0738 74.3865 19.586C76.8875 23.5574 74.8144 40.0638 69.2279 61.8975H78.1832C78.8943 59.5351 79.7802 56.8534 80.8709 53.9969C82.6728 49.2782 87.717 38.5451 93.9483 31.663C99.5348 25.4859 103.217 24.0275 103.994 23.7684C103.693 24.9977 101.885 32.814 101.885 41.926C101.885 47.2955 102.518 53.111 104.452 58.2877C105.519 61.1382 107.188 64.8565 110.593 68.3458C116.391 74.5108 124.255 78.0182 132.734 78.217L135.073 78.1447L134.934 77.9756Z" fill="#D8D8D8"/>
<path d="M98.9619 38.6641V50.277C98.9619 52.3802 99.6489 54.2725 102.927 54.2725C106.941 54.2725 108.261 50.9519 108.261 47.993V38.6641H112.865V56.2853H108.707L108.604 53.0371C107.188 55.4296 104.494 56.6409 101.312 56.6409C97.3468 56.6409 94.3638 54.4593 94.3638 50.8977V38.6641H98.9619Z" fill="white"/>
<path d="M70.728 38.6268C69.812 38.4219 69.1551 38.2954 68.1789 38.3074C66.7626 38.3255 63.7735 39.1029 61.9596 43.237L62.0077 38.663H57.8013V56.2782H62.4055V48.697C62.4055 43.6408 64.4123 41.5255 68.1486 41.7365C70.7822 41.881 70.6015 39.5911 70.728 38.6268Z" fill="white"/>
<path d="M132.167 38.6268C131.245 38.4219 130.588 38.2954 129.612 38.3074C128.202 38.3255 125.207 39.1029 123.393 43.237L123.447 38.663H119.234V56.2782H123.839V48.697C123.839 43.6408 125.851 41.5255 129.582 41.7365C132.221 41.881 132.041 39.5911 132.167 38.6268Z" fill="white"/>
<path d="M77.4659 47.4024C77.4659 42.0147 81.1481 40.3032 84.33 40.3032C85.2641 40.3032 86.2163 40.4961 87.06 40.6769C88.0483 40.8878 89.1029 40.4479 89.796 39.345C89.8022 39.327 89.82 39.315 89.8261 39.2969C86.9033 38.3086 84.6253 38.3086 83.884 38.3086C78.8037 38.3086 72.3374 40.7674 72.3374 47.5832C72.3977 53.224 77.3634 56.641 83.1066 56.641C85.9209 56.641 88.5907 55.9539 91.2423 54.6522C90.3745 53.4228 88.9763 53.3566 88.0543 53.7483C86.9635 54.1581 85.71 54.6402 83.884 54.6402C81.4373 54.6402 77.49 53.4168 77.4599 47.4025L77.4659 47.4024Z" fill="white"/>
<path d="M13.7363 55.9783H14.7789C14.9296 55.677 22.8121 40.1891 22.8121 40.1891L22.7998 56.2555H27.3075V34.5664H21.8476C21.6909 34.8557 13.736 49.6626 13.736 49.6626C13.736 49.6626 5.78117 34.8557 5.62449 34.5664H0.164551V56.2555H4.67231L4.65998 40.1891C4.65998 40.1891 12.5365 55.677 12.6932 55.9783H13.7363Z" fill="white"/>
<path d="M43.3023 40.0924C46.0383 40.0924 47.6594 41.5568 47.6594 44.9377H38.0654C38.4993 41.7316 40.6567 40.0924 43.3023 40.0924ZM52.2576 46.8119V45.8356C52.2576 43.4069 51.1307 38.3086 43.447 38.3086C36.4925 38.3086 32.8706 42.9791 32.8706 47.4748C32.8706 53.1758 37.8665 56.641 43.6398 56.641C46.183 56.641 48.9491 56.0443 51.7815 54.6462C51.3054 53.9773 50.522 53.5313 49.6421 53.5313C49.3408 53.5313 48.9852 53.6097 48.7141 53.7061C47.2617 54.2304 46.2071 54.6402 44.4594 54.6402C41.9163 54.6402 37.6194 53.3204 37.9147 46.8119H52.2576Z" fill="white"/>
<path d="M143.853 40.0924C146.595 40.0924 148.21 41.5568 148.21 44.9377H138.622C139.062 41.7316 141.213 40.0924 143.853 40.0924ZM152.814 46.8119V45.8356C152.814 43.4069 151.687 38.3086 144.004 38.3086C137.049 38.3086 133.427 42.9791 133.427 47.4748C133.427 53.1758 138.423 56.641 144.196 56.641C146.74 56.641 149.506 56.0443 152.338 54.6462C151.862 53.9773 151.079 53.5313 150.193 53.5313C149.897 53.5313 149.536 53.6097 149.271 53.7061C147.818 54.2304 146.77 54.6402 145.016 54.6402C142.467 54.6402 138.176 53.3204 138.471 46.8119H152.814Z" fill="white"/>
<path d="M56.3974 67.0801C56.4818 67.0801 56.5361 67.1525 56.5361 67.2308V74.6132C56.5361 74.6916 56.4818 74.7517 56.3974 74.7517H55.4211C55.3428 74.7517 55.2706 74.6914 55.2706 74.6132V71.4614H51.2329V74.6132C51.2329 74.6916 51.1605 74.7517 51.0942 74.7517H50.0998C50.0335 74.7517 49.9673 74.6914 49.9673 74.6132V67.2308C49.9673 67.1525 50.0336 67.0801 50.0998 67.0801H51.0942C51.1605 67.0801 51.2329 67.1525 51.2329 67.2308V70.3344H55.2706V67.2308C55.2706 67.1525 55.3429 67.0801 55.4211 67.0801H56.3974Z" fill="white"/>
<path d="M64.1349 68.1638C62.5921 68.1638 61.4109 69.3871 61.4109 70.9299C61.4109 72.4727 62.5921 73.69 64.1349 73.69C65.6776 73.69 66.8468 72.4727 66.8468 70.9299C66.8468 69.3871 65.6776 68.1638 64.1349 68.1638ZM64.1349 74.8651C61.9292 74.8651 60.0791 73.2079 60.0791 70.9299C60.0791 68.6459 61.9292 66.9766 64.1349 66.9766C66.3285 66.9766 68.1907 68.6459 68.1907 70.9299C68.1907 73.2199 66.3285 74.8651 64.1349 74.8651Z" fill="white"/>
<path d="M76.9834 67.0801C77.0618 67.0801 77.1221 67.1525 77.1221 67.2308V68.0625C77.1221 68.1409 77.0618 68.195 76.9834 68.195H74.5487V74.6131C74.5487 74.6915 74.4824 74.7516 74.4042 74.7516H73.4279C73.3435 74.7516 73.2892 74.6913 73.2892 74.6131V68.195H70.8485C70.7641 68.195 70.71 68.1407 70.71 68.0625V67.2308C70.71 67.1525 70.7641 67.0801 70.8485 67.0801H76.9834Z" fill="white"/>
<path d="M85.7343 67.0802C85.8127 67.0802 85.8669 67.1526 85.8669 67.2309V68.0626C85.8669 68.1409 85.8125 68.1951 85.7343 68.1951H81.4978V70.3465H85.1498C85.2281 70.3465 85.2823 70.4068 85.2823 70.4852V71.3289C85.2823 71.3952 85.228 71.4614 85.1498 71.4614H81.4978V73.6369H85.7343C85.8127 73.6369 85.8669 73.7032 85.8669 73.7694V74.6132C85.8669 74.6916 85.8125 74.7517 85.7343 74.7517H80.3708C80.3045 74.7517 80.2383 74.6914 80.2383 74.6132V67.2307C80.2383 67.1524 80.3046 67.0801 80.3708 67.0801L85.7343 67.0802Z" fill="white"/>
<path d="M90.4648 67.0802C90.5312 67.0802 90.5974 67.1526 90.5974 67.2309V73.637H94.1891C94.2675 73.637 94.3277 73.7033 94.3277 73.7695V74.6132C94.3277 74.6916 94.2673 74.7517 94.1891 74.7517H89.4704C89.4041 74.7517 89.3379 74.6914 89.3379 74.6132V67.2308C89.3379 67.1525 89.4042 67.0801 89.4704 67.0801L90.4648 67.0802Z" fill="white"/>
<path d="M97.3225 74.1419C97.2441 74.0998 97.2201 74.0274 97.2622 73.949L97.6599 73.1174C97.69 73.051 97.7503 73.015 97.8407 73.0693C98.3349 73.3766 99.0099 73.7804 99.9681 73.7804C100.438 73.7804 100.8 73.6719 101.035 73.4911C101.33 73.2742 101.457 72.9608 101.457 72.6233C101.457 72.1051 101.035 71.8098 100.486 71.5988C99.8415 71.3397 99.0882 71.2131 98.3711 70.8094C97.7503 70.4598 97.3104 69.9777 97.3104 69.1099C97.3104 68.4771 97.5575 67.9348 98.0456 67.5672C98.5157 67.1935 99.2148 66.9766 100.137 66.9766C101.185 66.9766 101.975 67.2598 102.481 67.543C102.559 67.5852 102.565 67.6575 102.535 67.7359L102.137 68.5555C102.095 68.6339 102.029 68.6579 101.951 68.6096C101.408 68.2963 100.745 68.0733 100.07 68.0733C99.5642 68.0733 99.1906 68.1817 98.9616 68.3746C98.7506 68.5433 98.6361 68.7723 98.6361 69.0496C98.6361 69.5498 99.0519 69.8089 99.6847 70.0198C100.408 70.2789 101.215 70.4055 101.878 70.8334C102.397 71.1588 102.824 71.6831 102.824 72.5208C102.824 73.2741 102.511 73.8587 101.993 74.2624C101.499 74.6602 100.788 74.865 99.98 74.865C98.7627 74.865 97.883 74.4914 97.3225 74.1419Z" fill="white"/>
</svg>
