<svg width="287" height="105" viewBox="0 0 287 105" fill="none" xmlns="http://www.w3.org/2000/svg">
<path d="M57.3286 6.05925C41.8346 9.17049 32.7497 22.1755 40.7145 29.8291C47.8704 36.7361 63.2399 34.1227 72.4492 24.4778L75.1249 21.7399L71.4536 24.6645C67.0979 28.1491 62.6799 30.5136 58.3242 31.6337C46.937 34.6827 37.3544 29.2691 39.4078 20.931C40.7767 15.5174 47.1237 10.415 55.8352 7.86377C63.4888 5.56145 75.8716 6.74372 78.8584 10.0416C79.7917 11.1617 79.7917 11.4106 78.6095 13.7751C76.9916 16.9486 76.9916 18.2553 78.6095 20.2465C81.2851 23.7311 87.7565 23.7311 96.1569 20.371C98.0858 19.562 99.7037 19.002 99.7037 19.0642C99.7037 19.1887 97.5258 20.931 94.9124 22.86C87.072 28.7091 76.6805 39.4118 64.8578 53.6613C48.1815 73.8221 40.9012 80.5424 32.0653 83.6537C27.4606 85.2715 19.9314 85.7693 15.8246 84.7737C11.4066 83.7781 7.42423 81.0402 6.1175 78.2401C4.93523 75.7511 5.49526 74.0088 6.98865 75.7511C8.23315 77.2445 11.1577 76.9334 12.34 75.1288C13.5223 73.3243 13.0245 71.3954 10.971 70.0886C8.8554 68.6575 5.93083 69.902 4.74856 72.6399C2.75736 77.4312 6.8642 82.907 14.0823 85.2715C23.7271 88.445 36.1099 85.7693 48.0571 77.8045C57.3286 71.6443 65.1067 63.4306 74.1915 50.2389C82.343 38.4162 87.0098 32.6915 94.3524 25.349C100.139 19.562 109.1 12.1573 112.771 10.1039C113.269 9.79274 113.518 9.41939 113.269 9.17049C113.082 8.92159 110.655 10.2905 107.98 12.2195C98.957 18.5042 89.001 22.4866 84.8942 21.3043C83.1519 20.8688 83.0897 20.6199 83.8364 16.0152C84.2097 13.8374 84.023 13.2151 82.5919 11.4728C78.1117 6.12147 67.9068 3.9436 57.3286 6.05925Z" fill="white"/>
<path d="M147.804 6.05917C139.839 8.23704 134.052 12.4683 119.305 26.9045C107.544 38.4161 102.753 42.3985 97.3393 44.8875L94.1036 46.4431L92.3613 44.8253C88.6901 41.3407 84.2721 40.7184 82.592 43.3319C80.4142 46.5676 84.3966 49.0565 90.059 47.9987C93.2947 47.3765 94.1036 47.6254 94.1036 49.181C94.1036 51.0477 91.988 53.7856 84.2099 61.9371C74.9384 71.7064 72.2627 75.5643 71.8271 79.7956C71.5782 82.5958 71.7027 83.0313 73.5072 84.8359C75.3117 86.6404 75.7473 86.7648 78.7963 86.5159C84.9566 86.0181 93.0458 81.3513 104.246 71.8308L110.593 66.4173L106.797 70.773C98.0238 80.7912 96.5926 86.6404 102.94 86.6404C105.989 86.6404 113.829 81.2268 124.78 71.3953C130.381 66.4173 131.127 65.9817 133.679 65.8573C135.172 65.8573 136.417 66.0439 136.417 66.2928C136.417 66.604 133.928 69.4663 130.816 72.6398C127.767 75.8132 124.967 79.1734 124.594 80.1068C121.918 87.1382 127.581 88.756 135.732 83.3424C138.097 81.7868 143.884 77.3066 148.675 73.3242C158.382 65.3595 161.058 63.5549 162.302 64.0527C164.231 64.7994 163.111 67.164 158.755 71.3953C153.777 76.311 150.728 80.6046 150.728 82.7202C150.728 83.5291 151.351 84.7736 152.035 85.4581C155.084 88.5071 161.68 85.4581 171.449 76.6844C173.751 74.5687 175.618 73.1376 175.618 73.5109C175.618 73.822 175.307 74.3198 174.996 74.5065C173.876 75.191 170.64 81.289 170.64 82.7202C170.64 85.0225 172.756 86.6404 175.805 86.6404C179.103 86.6404 183.707 84.5247 189.992 80.1068C192.668 78.24 195.157 76.6844 195.468 76.6844C195.779 76.6844 196.215 77.12 196.401 77.68C196.775 78.6756 198.89 78.6756 201.193 77.68C202.064 77.3066 202.126 77.7422 201.877 80.729C201.628 83.4669 201.815 84.4625 202.686 85.3959C205.113 88.0715 211.273 86.2048 217.558 81.0401C219.238 79.6712 220.669 78.6134 220.793 78.6756C220.856 78.8 220.607 80.0445 220.233 81.5379C219.362 84.7736 220.047 86.2048 222.536 86.5159C224.776 86.7648 226.456 85.6448 239.399 74.8799C250.475 65.7328 255.515 62.3727 256.635 63.4927C257.942 64.7994 256.137 67.2262 246.99 76.4977L237.656 86.0181H240.83C242.634 86.0181 244.066 85.7692 244.066 85.5203C244.066 84.7736 261.053 69.9019 265.409 66.8529C270.076 63.6172 273.685 62.4971 275.054 63.8661C275.489 64.3016 275.614 64.7372 275.614 64.7372C275.738 65.5461 274.742 66.2928 274.369 66.604C272.751 67.9107 271.693 69.7774 270.138 71.0842C266.155 74.4443 260.617 82.7202 262.982 85.3959C264.662 87.2626 266.529 86.8893 271.071 83.8402C276.174 80.4801 283.329 74.6932 282.894 74.3198C282.769 74.1954 281.152 75.3154 279.347 76.8711C274.618 80.8535 266.964 86.0181 265.72 86.0181C265.16 86.0181 264.351 85.5825 263.915 85.0847C263.729 84.8981 263.666 84.6492 263.604 84.4625C263.293 83.0313 266.964 79.8579 269.827 76.9333C272.502 74.1954 271.133 75.0665 274.991 70.7108C276.609 68.9063 277.729 67.7862 277.605 66.2306C277.418 64.6128 275.862 63.4305 275.676 63.306C275.676 63.306 274.618 62.5593 273.249 62.3727C271.382 62.1238 268.707 63.1194 260.555 69.5285C258.191 71.3953 256.199 72.9509 256.075 72.9509C256.013 72.9509 256.573 71.7686 257.382 70.3375C259.373 66.9151 259.373 64.5505 257.444 63.306C254.83 61.5637 252.341 63.1194 238.403 74.8176C225.771 85.3959 222.536 87.3248 221.789 85.0225C221.353 83.778 226.456 76.9955 232.803 70.2752L239.15 63.6172H236.412C234.047 63.6172 233.425 63.8661 232.243 65.5461C231.185 66.9773 230.687 67.2884 230.314 66.6662C229.94 66.1684 229.505 66.6662 228.758 68.284C226.829 72.9509 213.264 84.5247 208.411 85.707C205.673 86.3915 203.557 85.5825 203.557 83.9647C203.557 80.169 214.82 68.3463 221.665 64.9239C224.651 63.4305 225.896 62.9327 226.891 63.1816C227.825 63.4305 228.447 64.2394 228.447 64.2394C228.634 64.4883 229.194 65.1106 229.38 65.7328C229.629 66.4173 229.443 67.1018 229.505 67.1018C229.505 67.1018 229.505 66.9151 229.629 66.7906C229.692 66.6662 229.878 66.5417 230.003 66.5417C230.065 66.5417 230.127 66.604 230.127 66.604C230.252 66.5417 229.816 64.4261 228.074 63.1816C227.514 62.746 226.954 62.5593 226.767 62.5593C225.958 62.3727 225.025 62.4971 223.034 62.9327C216.002 64.4883 210.775 67.5373 204.553 73.6354C200.757 77.4311 198.517 78.4889 197.024 77.2444C195.655 76.1244 195.779 75.6888 199.139 72.2042C203.059 68.0974 205.424 63.9283 204.366 62.8705C202.686 61.1904 197.77 67.0395 196.028 72.5775C195.406 74.5687 194.286 75.8132 190.926 78.4889C185.45 82.7202 179.041 85.9559 176.116 85.9559C173.938 85.9559 172.445 85.0847 172.445 83.7158C172.445 83.3425 176.365 78.5511 181.094 73.1376L189.743 63.2438L186.881 63.0571C184.081 62.8705 184.019 62.8705 179.849 67.4129C174.56 73.262 166.036 80.6046 161.058 83.6536C156.515 86.4537 153.591 86.6404 153.279 84.1514C153.093 82.9069 154.151 81.6002 158.631 77.3066C166.284 70.0263 167.902 65.7328 164.044 63.1816C162.613 62.2482 162.364 62.2482 159.875 63.7416C158.382 64.6128 153.404 68.4707 148.799 72.3286C140.088 79.5467 132.185 85.0847 129.758 85.707C129.012 85.8937 127.83 85.9559 127.207 85.8314C124.656 85.3336 125.776 83.4047 133.181 75.8132C137.35 71.5819 140.71 67.8485 140.71 67.5996C140.71 67.2884 140.15 66.4173 139.403 65.6706C138.283 64.4883 137.848 64.4261 136.043 64.9239C133.928 65.6084 130.754 65.1728 130.754 64.2394C130.754 63.9283 131.314 63.5549 132.061 63.3683C133.056 63.1194 133.305 62.6216 133.119 61.2526C132.932 59.7592 132.621 59.5103 131.065 59.5103C129.385 59.5103 129.198 59.7592 129.012 61.5637C128.887 62.6838 129.074 63.9905 129.447 64.4261C130.007 65.0483 129.074 66.2306 125.652 69.5285C116.069 78.6134 105.926 85.9559 102.877 85.9559C101.135 85.9559 100.575 84.6492 101.508 82.8446C102.068 81.7246 110.344 71.9553 116.629 64.9239L117.874 63.5549H115.136C112.584 63.5549 111.962 63.9283 105.242 69.8397C96.9037 77.12 91.0546 81.1646 85.7033 83.3424C78.6096 86.267 73.445 85.707 74.3161 82.098C74.8139 80.169 76.9918 77.4311 85.2055 68.4707C93.1703 59.697 95.6593 55.2168 95.0992 50.301L94.6637 47.0031L99.0816 45.5097C107.669 42.5852 112.522 38.9761 126.398 25.1C140.088 11.3483 144.381 8.05036 149.857 6.93031C155.208 5.81027 159.502 7.05476 156.328 8.79706C153.342 10.3527 154.648 15.0195 158.133 15.0195C160.311 15.0195 161.867 13.5884 161.867 11.535C161.867 9.04596 160.746 7.55256 157.946 6.24584C154.96 4.93912 152.284 4.87689 147.804 6.05917ZM90.7435 44.6386C91.5524 45.1364 92.2369 45.8831 92.2369 46.1942C92.2369 46.8787 86.1389 47.0654 84.521 46.4431C83.3387 46.0075 83.2143 43.9541 84.3343 43.4563C85.5166 42.8963 89.1256 43.5808 90.7435 44.6386Z" fill="white"/>
<path d="M122.851 50.7386C121.109 52.5431 121.109 53.1032 122.914 54.7832L124.345 56.1522L126.149 54.2854L127.954 52.4187L126.46 50.8631C124.656 48.9341 124.531 48.9341 122.851 50.7386Z" fill="white"/>
<path d="M150.542 39.415C150.231 40.4728 149.671 41.9662 149.36 42.6507C148.738 42.7752 147.058 43.1485 145.44 43.1485C140.338 43.1485 137.724 39.7261 137.724 35.9926C137.724 31.6369 141.022 28.5879 145.813 28.5879C147.68 28.5879 149.173 28.9612 149.858 29.0857C149.92 30.0191 150.107 31.3258 150.294 32.3836L149.609 32.5081C149.173 31.0769 148.676 30.2057 147.556 29.7702C146.996 29.5213 146.124 29.3346 145.316 29.3346C141.769 29.3346 139.902 31.948 139.902 35.4948C139.902 39.6017 142.018 42.2774 145.502 42.2774C147.68 42.2774 148.738 41.2818 149.858 39.1039L150.542 39.415Z" fill="white"/>
<path d="M167.281 29.5226C165.477 29.7093 165.352 29.7715 165.352 31.5761V40.1631C165.352 41.9676 165.539 42.0298 167.281 42.2165V42.8388H161.556V42.2165C163.361 42.0298 163.485 41.9676 163.485 40.1631V35.8696H156.143V40.1631C156.143 41.9676 156.33 42.0298 158.072 42.2165V42.8388H152.347V42.2165C154.089 42.0298 154.276 41.9676 154.276 40.1631V31.5761C154.276 29.7715 154.089 29.6471 152.347 29.5226V28.9004H158.072V29.5226C156.33 29.6471 156.143 29.8338 156.143 31.5761V34.9984H163.485V31.5761C163.485 29.7715 163.237 29.6471 161.556 29.5226V28.9004H167.281V29.5226Z" fill="white"/>
<path d="M176.428 42.8379V42.2157C177.797 42.029 177.983 41.8423 177.672 41.0334C177.423 40.2245 176.988 39.1044 176.49 37.7977H171.885C171.512 38.7311 171.201 39.6022 170.952 40.4734C170.454 41.8423 170.765 42.029 172.508 42.2779V42.9001H167.592V42.2779C168.961 42.0912 169.272 41.9668 170.019 40.0378L174.437 28.7751L175.121 28.6506C176.49 32.3219 177.921 36.3665 179.29 40.0378C179.975 41.9045 180.161 42.0912 181.717 42.2157V42.8379H176.428ZM177.921 27.7795L174.81 26.4105L171.699 27.7795L171.388 27.2195C172.383 26.4728 173.939 25.2905 174.561 24.7305H175.059C175.743 25.3527 177.237 26.4728 178.232 27.2195L177.921 27.7795ZM174.25 31.4508C173.565 33.3175 172.819 35.2465 172.196 36.9265H176.179L174.25 31.4508Z" fill="white"/>
<path d="M193.54 32.2603C193.353 31.5758 193.104 30.8913 192.855 30.4558C192.482 29.8957 192.295 29.7091 191.113 29.7091H188.998V40.1628C188.998 41.8429 189.184 42.0918 191.175 42.2163V42.8385H184.953V42.2163C186.944 42.0918 187.131 41.8429 187.131 40.1628V29.7713H185.202C184.02 29.7713 183.708 29.8957 183.335 30.518C183.086 30.9536 182.899 31.4514 182.651 32.2603H182.028C182.153 30.9536 182.277 29.5846 182.339 28.4023H182.837C183.148 28.9001 183.397 28.9001 184.02 28.9001H192.482C193.104 28.9001 193.229 28.8379 193.602 28.4023H194.1C194.1 29.3979 194.162 30.9536 194.287 32.1981L193.54 32.2603Z" fill="white"/>
<path d="M206.918 39.4142C206.794 39.9742 206.234 42.1521 205.985 42.8365H195.593V42.2143C197.584 42.0898 197.709 41.8409 197.709 40.0986V31.6983C197.709 29.7693 197.46 29.7071 195.842 29.5204V28.8982H202.376C204.367 28.8982 205.238 28.8982 205.487 28.8359C205.487 29.396 205.611 30.9516 205.674 32.1339L205.051 32.2583C204.865 31.5116 204.616 31.076 204.429 30.6405C204.056 29.956 203.62 29.7693 202.314 29.7693H200.26C199.576 29.7693 199.576 29.8315 199.576 30.4538V35.1829H201.94C203.558 35.1829 203.682 34.8718 203.931 33.3784H204.616V37.7963H203.931C203.682 36.2407 203.496 36.054 201.94 36.054H199.576V40.2853C199.576 41.7787 200.073 41.9032 201.131 41.9032H203.122C204.429 41.9032 204.616 41.7165 205.114 41.1565C205.549 40.7209 205.985 39.8497 206.296 39.1653L206.918 39.4142Z" fill="white"/>
<path d="M215.63 42.8377V42.2154C216.999 42.0287 217.185 41.8421 216.874 41.0331C216.625 40.2242 216.19 39.1042 215.692 37.7974H211.087C210.714 38.7308 210.403 39.602 210.154 40.4731C209.656 41.8421 209.967 42.0287 211.71 42.2776V42.8999H206.794V42.2776C208.163 42.091 208.474 41.9665 209.221 40.0375L213.639 28.7748L214.323 28.6504C215.692 32.3217 217.123 36.3663 218.492 40.0375C219.177 41.9043 219.363 42.091 220.919 42.2154V42.8377H215.63ZM213.452 31.4505C212.768 33.3173 212.021 35.2462 211.399 36.9263H215.381L213.452 31.4505Z" fill="white"/>
<path d="M236.039 29.5226C234.67 29.5849 234.173 29.9582 234.173 30.9538C234.173 31.4516 234.11 32.3228 234.11 34.314V36.6163C234.11 38.7941 233.861 40.4742 232.617 41.7809C231.621 42.8388 230.128 43.1499 228.697 43.1499C227.452 43.1499 226.146 42.901 225.212 42.1543C223.906 41.1587 223.283 39.6653 223.283 37.1763V31.7005C223.283 29.7715 223.097 29.6471 221.417 29.5226V28.9004H227.017V29.5226C225.274 29.6471 225.15 29.7715 225.15 31.7005V37.0518C225.15 40.1631 226.643 41.9054 229.195 41.9054C232.244 41.9054 233.177 40.0386 233.177 36.4918V34.314C233.177 32.3228 233.115 31.5138 233.053 30.9538C232.99 30.0204 232.493 29.6471 230.937 29.5226V28.9004H236.102V29.5226H236.039Z" fill="white"/>
</svg>
