<svg width="157" height="51" viewBox="0 0 157 51" fill="none" xmlns="http://www.w3.org/2000/svg">
<g clip-path="url(#clip0_915_1410)">
<path d="M110.443 0.562029C103.445 1.60654 97.665 6.4809 95.3323 13.2702C90.5972 27.0577 103.305 40.9844 117.545 37.642C126.528 35.5182 132.969 26.7095 132.099 17.6223C131.124 6.86389 121.062 -1.03955 110.443 0.562029ZM117.824 9.40552C120.122 10.45 122.002 12.365 123.151 14.8021C124.404 17.483 124.404 21.1736 123.186 23.7153C122.106 25.9087 119.983 28.0325 117.789 29.1467C115.213 30.4001 111.209 30.3653 108.493 29.0074C104.628 27.1273 102.505 23.7153 102.505 19.3631C102.47 17.2393 102.644 16.3689 103.375 14.8021C106.021 9.19662 112.253 6.86388 117.824 9.40552Z" fill="white"/>
<path d="M40.6702 1.36134C34.6121 3.41553 30.1207 8.08099 28.3451 14.1043C27.6487 16.437 27.6139 21.6596 28.2754 24.0619C30.0163 30.5379 35.6566 36.1086 42.0977 37.6405C46.5543 38.685 51.4983 38.0931 55.3978 35.9693C56.5467 35.3774 58.6706 33.741 60.1329 32.3484L62.7789 29.8415L59.924 26.9866L57.069 24.0968L54.8059 26.2554C51.7768 29.18 50.0012 29.9808 46.415 29.9808C44.0475 29.9808 43.3511 29.8067 41.8192 29.0059C38.0242 27.0214 36.0744 23.9575 35.8655 19.6402C35.7262 17.3771 35.8655 16.6808 36.5967 15.0792C38.7901 10.2745 43.4208 7.73282 48.3299 8.63806C50.9412 9.1255 52.6472 10.0656 55.0496 12.3287L57.069 14.2784L59.8891 11.4234L62.7441 8.60325L60.3766 6.40978C55.5022 1.91841 52.2643 0.560547 46.4498 0.560547C43.7341 0.560547 42.4111 0.769448 40.6702 1.36134Z" fill="white"/>
<path d="M140.872 1.01362C139.936 1.33046 136.395 2.57342 134.33 6.15608C133.408 7.76114 132.934 9.6308 132.934 11.7372C132.934 14.0003 133.073 14.6967 134.014 16.5071C135.789 20.0585 138.958 22.2519 143.31 22.9134C144.598 23.0875 145.956 23.3312 146.374 23.4009C146.757 23.4705 147.522 23.9579 148.01 24.4454C149.333 25.7684 149.298 27.6485 147.94 29.1805C147.752 29.3929 147.425 29.7967 146.847 30.1066C146.701 30.1867 146.06 30.514 145.169 30.514C144.991 30.514 144.152 30.5 143.25 29.9813C142.808 29.7271 142.234 29.3929 140.904 27.1263C140.312 26.1166 139.79 25.281 139.685 25.281C139.476 25.281 133.592 28.2752 133 28.693C132.652 28.9368 132.826 29.4938 133.871 31.2347C135.612 34.1593 137.422 35.935 139.859 37.0491C140.691 37.4286 141.356 37.6479 141.562 37.7106C142.018 37.8499 143.303 38.212 145.016 38.2259C146.638 38.2398 147.923 37.9404 148.671 37.7211C149.068 37.6027 149.685 37.4077 150.374 37.0839C153.02 35.8305 155.005 33.9504 156.154 31.6177C156.989 29.9116 157.128 29.2153 157.128 26.6737C157.128 24.2713 156.989 23.4357 156.328 22.2171C154.273 18.3524 150.931 16.1241 146.266 15.4974C143.341 15.1145 142.088 14.4529 141.356 12.9558C139.755 9.71784 144.56 6.61914 147.449 9.05632L148.424 9.89193L152.01 8.08145L155.631 6.27097L154.448 4.73903C153.751 3.79897 152.428 2.75447 151.036 1.9885C149.942 1.38616 149.072 1.06237 148.842 0.98577C148.403 0.836058 147.153 0.442627 145.482 0.36603C144.535 0.32425 142.815 0.352103 140.869 1.01362H140.872Z" fill="white"/>
<path d="M0.978516 19.7108V38.1637H28.1357V30.504L18.4914 30.4344L8.81231 30.3299V23.7147L14.6615 23.6103L20.476 23.5406V15.8809H8.63823V9.26569H28.1357V1.25781H0.978516V19.7108Z" fill="white"/>
<path d="M63.3003 19.7104V38.1634H71.3082V22.8439H84.8868V38.1634H92.8946V1.22266L88.9952 1.32711L85.0608 1.43156L84.9564 8.98682L84.8868 16.5769H71.3082L71.2385 8.98682L71.1341 1.43156L67.2346 1.32711L63.3003 1.22266V19.7104Z" fill="white"/>
<path d="M44.4996 41.6387H0.978516V42.6693H44.4996V41.6387Z" fill="white"/>
<path d="M156.958 41.6387H113.437V42.6693H156.958V41.6387Z" fill="white"/>
<path d="M54.0385 40.8403H54.4064V43.0124C54.4064 43.2063 54.3708 43.371 54.2996 43.5065C54.2284 43.642 54.128 43.7449 53.9984 43.8151C53.8688 43.8853 53.716 43.9204 53.54 43.9204C53.3738 43.9204 53.2259 43.8903 53.0963 43.8299C52.9668 43.7686 52.8649 43.6816 52.7907 43.5688C52.7165 43.4561 52.6794 43.322 52.6794 43.1667H53.0414C53.0414 43.2528 53.0627 43.328 53.1052 43.3923C53.1488 43.4556 53.2081 43.505 53.2833 43.5406C53.3585 43.5762 53.444 43.594 53.54 43.594C53.6458 43.594 53.7358 43.5718 53.81 43.5273C53.8842 43.4828 53.9406 43.4175 53.9791 43.3314C54.0187 43.2444 54.0385 43.1381 54.0385 43.0124V40.8403ZM57.1379 40.8403H57.5058V42.8522C57.5058 43.0599 57.4569 43.2454 57.3589 43.4086C57.262 43.5708 57.125 43.6989 56.948 43.7929C56.7709 43.8858 56.5632 43.9323 56.3248 43.9323C56.0864 43.9323 55.8787 43.8858 55.7017 43.7929C55.5246 43.6989 55.3871 43.5708 55.2892 43.4086C55.1923 43.2454 55.1438 43.0599 55.1438 42.8522V40.8403H55.5118V42.8225C55.5118 42.9709 55.5444 43.1029 55.6097 43.2187C55.675 43.3334 55.7679 43.4239 55.8886 43.4902C56.0103 43.5555 56.1557 43.5881 56.3248 43.5881C56.494 43.5881 56.6394 43.5555 56.761 43.4902C56.8827 43.4239 56.9757 43.3334 57.0399 43.2187C57.1052 43.1029 57.1379 42.9709 57.1379 42.8225V40.8403ZM59.1783 43.8789H58.2406V40.8403H59.2198C59.5146 40.8403 59.7668 40.9012 59.9765 41.0228C60.1862 41.1435 60.3469 41.3171 60.4587 41.5436C60.5705 41.7691 60.6264 42.0392 60.6264 42.3537C60.6264 42.6702 60.57 42.9427 60.4572 43.1712C60.3445 43.3987 60.1803 43.5738 59.9646 43.6964C59.749 43.8181 59.4869 43.8789 59.1783 43.8789ZM58.6086 43.5525H59.1546C59.4058 43.5525 59.614 43.504 59.7792 43.4071C59.9444 43.3102 60.0675 43.1722 60.1486 42.9932C60.2297 42.8141 60.2703 42.601 60.2703 42.3537C60.2703 42.1084 60.2302 41.8972 60.1501 41.7202C60.07 41.5421 59.9503 41.4056 59.7911 41.3107C59.6318 41.2147 59.4335 41.1668 59.1961 41.1668H58.6086V43.5525ZM61.6115 40.8403V43.8789H61.2436V40.8403H61.6115ZM64.7944 41.7899H64.4264C64.4047 41.6841 64.3666 41.5911 64.3122 41.511C64.2588 41.4308 64.1935 41.3636 64.1163 41.3092C64.0402 41.2538 63.9556 41.2122 63.8626 41.1846C63.7696 41.1569 63.6727 41.143 63.5718 41.143C63.3878 41.143 63.2212 41.1895 63.0718 41.2825C62.9235 41.3755 62.8053 41.5124 62.7172 41.6935C62.6302 41.8745 62.5867 42.0965 62.5867 42.3596C62.5867 42.6227 62.6302 42.8448 62.7172 43.0258C62.8053 43.2068 62.9235 43.3438 63.0718 43.4368C63.2212 43.5297 63.3878 43.5762 63.5718 43.5762C63.6727 43.5762 63.7696 43.5624 63.8626 43.5347C63.9556 43.507 64.0402 43.466 64.1163 43.4115C64.1935 43.3562 64.2588 43.2884 64.3122 43.2083C64.3666 43.1272 64.4047 43.0342 64.4264 42.9294H64.7944C64.7667 43.0846 64.7162 43.2236 64.643 43.3463C64.5698 43.4689 64.4788 43.5733 64.37 43.6593C64.2612 43.7444 64.1391 43.8092 64.0036 43.8537C63.8691 43.8982 63.7251 43.9204 63.5718 43.9204C63.3127 43.9204 63.0822 43.8571 62.8804 43.7305C62.6787 43.6039 62.5199 43.4239 62.4042 43.1905C62.2884 42.9571 62.2306 42.6801 62.2306 42.3596C62.2306 42.0392 62.2884 41.7622 62.4042 41.5288C62.5199 41.2953 62.6787 41.1153 62.8804 40.9887C63.0822 40.8621 63.3127 40.7988 63.5718 40.7988C63.7251 40.7988 63.8691 40.8211 64.0036 40.8656C64.1391 40.9101 64.2612 40.9754 64.37 41.0614C64.4788 41.1465 64.5698 41.2503 64.643 41.373C64.7162 41.4946 64.7667 41.6336 64.7944 41.7899ZM65.7569 40.8403V43.8789H65.389V40.8403H65.7569ZM66.6193 43.8789H66.2335L67.3493 40.8403H67.7291L68.8448 43.8789H68.459L67.551 41.3211H67.5273L66.6193 43.8789ZM66.7617 42.692H68.3166V43.0184H66.7617V42.692ZM69.686 40.8403V43.8789H69.3181V40.8403H69.686ZM70.4238 43.8789V40.8403H71.4505C71.6879 40.8403 71.8827 40.8809 72.0351 40.962C72.1874 41.0421 72.3002 41.1524 72.3733 41.2929C72.4465 41.4333 72.4831 41.5931 72.4831 41.7721C72.4831 41.9511 72.4465 42.1099 72.3733 42.2483C72.3002 42.3868 72.1879 42.4956 72.0366 42.5748C71.8852 42.6529 71.6918 42.692 71.4564 42.692H70.6256V42.3596H71.4446C71.6068 42.3596 71.7373 42.3359 71.8363 42.2884C71.9362 42.2409 72.0084 42.1737 72.0529 42.0866C72.0984 41.9986 72.1211 41.8938 72.1211 41.7721C72.1211 41.6504 72.0984 41.5441 72.0529 41.4531C72.0074 41.3621 71.9347 41.2919 71.8348 41.2424C71.7349 41.192 71.6028 41.1668 71.4386 41.1668H70.7918V43.8789H70.4238ZM71.8541 42.5139L72.6018 43.8789H72.1745L71.4386 42.5139H71.8541ZM73.0963 43.8789V40.8403H74.9301V41.1668H73.4642V42.1935H74.8351V42.5199H73.4642V43.5525H74.9538V43.8789H73.0963ZM77.255 41.6C77.2372 41.4496 77.165 41.3329 77.0384 41.2498C76.9118 41.1668 76.7565 41.1252 76.5725 41.1252C76.438 41.1252 76.3203 41.147 76.2194 41.1905C76.1195 41.234 76.0414 41.2939 75.985 41.37C75.9296 41.4462 75.9019 41.5327 75.9019 41.6297C75.9019 41.7108 75.9212 41.7805 75.9598 41.8389C75.9993 41.8962 76.0498 41.9442 76.1111 41.9828C76.1724 42.0204 76.2367 42.0515 76.304 42.0762C76.3712 42.1 76.4331 42.1193 76.4894 42.1341L76.798 42.2172C76.8772 42.238 76.9652 42.2666 77.0621 42.3032C77.1601 42.3398 77.2535 42.3898 77.3425 42.4531C77.4326 42.5154 77.5067 42.5955 77.5651 42.6935C77.6235 42.7914 77.6526 42.9116 77.6526 43.054C77.6526 43.2182 77.6096 43.3665 77.5236 43.4991C77.4385 43.6316 77.3139 43.737 77.1497 43.8151C76.9865 43.8932 76.7881 43.9323 76.5547 43.9323C76.3371 43.9323 76.1487 43.8972 75.9894 43.827C75.8312 43.7568 75.7065 43.6588 75.6155 43.5332C75.5255 43.4076 75.4746 43.2617 75.4627 43.0955H75.8425C75.8524 43.2103 75.891 43.3052 75.9583 43.3804C76.0265 43.4546 76.1126 43.51 76.2164 43.5466C76.3213 43.5822 76.434 43.6 76.5547 43.6C76.6952 43.6 76.8213 43.5772 76.933 43.5317C77.0448 43.4852 77.1333 43.4209 77.1986 43.3388C77.2639 43.2558 77.2965 43.1588 77.2965 43.048C77.2965 42.9472 77.2684 42.8651 77.212 42.8018C77.1556 42.7385 77.0814 42.687 76.9894 42.6475C76.8974 42.6079 76.798 42.5733 76.6912 42.5436L76.3173 42.4368C76.0799 42.3685 75.892 42.2711 75.7535 42.1445C75.6151 42.0179 75.5458 41.8522 75.5458 41.6475C75.5458 41.4773 75.5918 41.329 75.6838 41.2024C75.7768 41.0748 75.9014 40.9759 76.0577 40.9056C76.215 40.8344 76.3905 40.7988 76.5844 40.7988C76.7802 40.7988 76.9543 40.8339 77.1066 40.9041C77.259 40.9734 77.3796 41.0683 77.4687 41.189C77.5587 41.3097 77.6061 41.4467 77.6111 41.6H77.255ZM80.6908 42.1964V42.5228H79.3615V42.1964H80.6908ZM84.6066 41.7899C84.574 41.69 84.5309 41.6005 84.4775 41.5213C84.4251 41.4412 84.3623 41.373 84.2891 41.3166C84.2169 41.2602 84.1348 41.2172 84.0428 41.1875C83.9508 41.1578 83.8499 41.143 83.7401 41.143C83.5601 41.143 83.3964 41.1895 83.249 41.2825C83.1017 41.3755 82.9845 41.5124 82.8974 41.6935C82.8104 41.8745 82.7669 42.0965 82.7669 42.3596C82.7669 42.6227 82.8109 42.8448 82.8989 43.0258C82.9869 43.2068 83.1061 43.3438 83.2565 43.4368C83.4068 43.5297 83.576 43.5762 83.7639 43.5762C83.938 43.5762 84.0913 43.5391 84.2238 43.465C84.3574 43.3898 84.4612 43.284 84.5354 43.1475C84.6106 43.01 84.6482 42.8482 84.6482 42.6623L84.7609 42.686H83.847V42.3596H85.0042V42.686C85.0042 42.9363 84.9508 43.1539 84.844 43.3388C84.7382 43.5238 84.5918 43.6672 84.4048 43.7691C84.2189 43.87 84.0052 43.9204 83.7639 43.9204C83.4948 43.9204 83.2584 43.8571 83.0547 43.7305C82.8519 43.6039 82.6937 43.4239 82.5799 43.1905C82.4672 42.9571 82.4108 42.6801 82.4108 42.3596C82.4108 42.1193 82.4429 41.9031 82.5072 41.7113C82.5725 41.5184 82.6645 41.3542 82.7832 41.2187C82.9019 41.0832 83.0423 40.9793 83.2045 40.9071C83.3668 40.8349 83.5453 40.7988 83.7401 40.7988C83.9004 40.7988 84.0497 40.823 84.1882 40.8715C84.3277 40.919 84.4518 40.9867 84.5606 41.0748C84.6704 41.1618 84.7619 41.2662 84.8351 41.3878C84.9083 41.5085 84.9587 41.6425 84.9864 41.7899H84.6066ZM86.0024 40.8403V43.8789H85.6344V40.8403H86.0024ZM86.7401 43.8789V40.8403H87.7668C88.0042 40.8403 88.1991 40.8809 88.3514 40.962C88.5037 41.0421 88.6165 41.1524 88.6897 41.2929C88.7629 41.4333 88.7995 41.5931 88.7995 41.7721C88.7995 41.9511 88.7629 42.1099 88.6897 42.2483C88.6165 42.3868 88.5042 42.4956 88.3529 42.5748C88.2016 42.6529 88.0082 42.692 87.7728 42.692H86.9419V42.3596H87.7609C87.9231 42.3596 88.0537 42.3359 88.1526 42.2884C88.2525 42.2409 88.3247 42.1737 88.3692 42.0866C88.4147 41.9986 88.4375 41.8938 88.4375 41.7721C88.4375 41.6504 88.4147 41.5441 88.3692 41.4531C88.3237 41.3621 88.251 41.2919 88.1511 41.2424C88.0512 41.192 87.9192 41.1668 87.755 41.1668H87.1081V43.8789H86.7401ZM88.1704 42.5139L88.9182 43.8789H88.4909L87.755 42.5139H88.1704ZM91.9764 42.3596C91.9764 42.6801 91.9185 42.9571 91.8028 43.1905C91.6871 43.4239 91.5283 43.6039 91.3265 43.7305C91.1248 43.8571 90.8943 43.9204 90.6351 43.9204C90.376 43.9204 90.1455 43.8571 89.9438 43.7305C89.742 43.6039 89.5832 43.4239 89.4675 43.1905C89.3518 42.9571 89.2939 42.6801 89.2939 42.3596C89.2939 42.0392 89.3518 41.7622 89.4675 41.5288C89.5832 41.2953 89.742 41.1153 89.9438 40.9887C90.1455 40.8621 90.376 40.7988 90.6351 40.7988C90.8943 40.7988 91.1248 40.8621 91.3265 40.9887C91.5283 41.1153 91.6871 41.2953 91.8028 41.5288C91.9185 41.7622 91.9764 42.0392 91.9764 42.3596ZM91.6203 42.3596C91.6203 42.0965 91.5763 41.8745 91.4883 41.6935C91.4012 41.5124 91.283 41.3755 91.1337 41.2825C90.9853 41.1895 90.8191 41.143 90.6351 41.143C90.4512 41.143 90.2845 41.1895 90.1351 41.2825C89.9868 41.3755 89.8686 41.5124 89.7805 41.6935C89.6935 41.8745 89.65 42.0965 89.65 42.3596C89.65 42.6227 89.6935 42.8448 89.7805 43.0258C89.8686 43.2068 89.9868 43.3438 90.1351 43.4368C90.2845 43.5297 90.4512 43.5762 90.6351 43.5762C90.8191 43.5762 90.9853 43.5297 91.1337 43.4368C91.283 43.3438 91.4012 43.2068 91.4883 43.0258C91.5763 42.8448 91.6203 42.6227 91.6203 42.3596ZM95.0046 40.8403V43.8789H94.6485L92.9927 41.4932H92.963V43.8789H92.5951V40.8403H92.9512L94.6129 43.232H94.6426V40.8403H95.0046ZM96.6785 43.8789H95.7408V40.8403H96.7201C97.0148 40.8403 97.267 40.9012 97.4767 41.0228C97.6864 41.1435 97.8472 41.3171 97.9589 41.5436C98.0707 41.7691 98.1266 42.0392 98.1266 42.3537C98.1266 42.6702 98.0702 42.9427 97.9575 43.1712C97.8447 43.3987 97.6805 43.5738 97.4649 43.6964C97.2492 43.8181 96.9871 43.8789 96.6785 43.8789ZM96.1088 43.5525H96.6548C96.906 43.5525 97.1142 43.504 97.2794 43.4071C97.4446 43.3102 97.5677 43.1722 97.6488 42.9932C97.73 42.8141 97.7705 42.601 97.7705 42.3537C97.7705 42.1084 97.7304 41.8972 97.6503 41.7202C97.5702 41.5421 97.4505 41.4056 97.2913 41.3107C97.132 41.2147 96.9337 41.1668 96.6963 41.1668H96.1088V43.5525ZM99.1117 40.8403V43.8789H98.7438V40.8403H99.1117ZM102.259 40.8403V43.8789H101.903L100.247 41.4932H100.217V43.8789H99.8495V40.8403H100.206L101.867 43.232H101.897V40.8403H102.259ZM104.657 41.6C104.639 41.4496 104.567 41.3329 104.44 41.2498C104.314 41.1668 104.158 41.1252 103.974 41.1252C103.84 41.1252 103.722 41.147 103.621 41.1905C103.521 41.234 103.443 41.2939 103.387 41.37C103.332 41.4462 103.304 41.5327 103.304 41.6297C103.304 41.7108 103.323 41.7805 103.362 41.8389C103.401 41.8962 103.452 41.9442 103.513 41.9828C103.574 42.0204 103.639 42.0515 103.706 42.0762C103.773 42.1 103.835 42.1193 103.891 42.1341L104.2 42.2172C104.279 42.238 104.367 42.2666 104.464 42.3032C104.562 42.3398 104.655 42.3898 104.745 42.4531C104.835 42.5154 104.909 42.5955 104.967 42.6935C105.025 42.7914 105.055 42.9116 105.055 43.054C105.055 43.2182 105.012 43.3665 104.926 43.4991C104.84 43.6316 104.716 43.737 104.552 43.8151C104.388 43.8932 104.19 43.9323 103.957 43.9323C103.739 43.9323 103.551 43.8972 103.391 43.827C103.233 43.7568 103.109 43.6588 103.018 43.5332C102.928 43.4076 102.877 43.2617 102.865 43.0955H103.245C103.254 43.2103 103.293 43.3052 103.36 43.3804C103.428 43.4546 103.515 43.51 103.618 43.5466C103.723 43.5822 103.836 43.6 103.957 43.6C104.097 43.6 104.223 43.5772 104.335 43.5317C104.447 43.4852 104.535 43.4209 104.601 43.3388C104.666 43.2558 104.699 43.1588 104.699 43.048C104.699 42.9472 104.67 42.8651 104.614 42.8018C104.558 42.7385 104.483 42.687 104.391 42.6475C104.299 42.6079 104.2 42.5733 104.093 42.5436L103.719 42.4368C103.482 42.3685 103.294 42.2711 103.155 42.1445C103.017 42.0179 102.948 41.8522 102.948 41.6475C102.948 41.4773 102.994 41.329 103.086 41.2024C103.179 41.0748 103.303 40.9759 103.46 40.9056C103.617 40.8344 103.792 40.7988 103.986 40.7988C104.182 40.7988 104.356 40.8339 104.509 40.9041C104.661 40.9734 104.782 41.0683 104.871 41.189C104.961 41.3097 105.008 41.4467 105.013 41.6H104.657Z" fill="white"/>
</g>
<defs>
<clipPath id="clip0_915_1410">
<rect width="155.98" height="50.1363" fill="white" transform="translate(0.978516 0.349609)"/>
</clipPath>
</defs>
</svg>
