<svg width="169" height="169" viewBox="0 0 169 169" fill="none" xmlns="http://www.w3.org/2000/svg">
<g clip-path="url(#clip0_915_1312)">
<path d="M103.476 38.0289C103.458 38.029 103.441 38.0358 103.428 38.0479L84.6304 55.1741C84.6171 55.1861 84.5998 55.1927 84.5819 55.1927C84.564 55.1927 84.5467 55.1861 84.5333 55.1741L65.7361 38.0479C65.7228 38.0358 65.7055 38.029 65.6876 38.0289L64.7515 38.0254C64.7322 38.0254 64.7137 38.0331 64.7 38.0467C64.6864 38.0604 64.6787 38.0789 64.6787 38.0982V44.3611C64.6788 44.3708 64.6808 44.3804 64.6847 44.3893C64.6886 44.3983 64.6942 44.4063 64.7012 44.4131L84.5316 62.822C84.5452 62.8349 84.5632 62.8422 84.5819 62.8422C84.6006 62.8422 84.6186 62.8349 84.6322 62.822L104.463 44.4131C104.47 44.4063 104.475 44.3983 104.479 44.3893C104.483 44.3804 104.485 44.3708 104.485 44.3611L104.483 38.0999C104.483 38.0806 104.476 38.0621 104.462 38.0484C104.448 38.0348 104.43 38.0271 104.411 38.0271L103.476 38.0289Z" stroke="#B92727" stroke-width="1.53487"/>
<path d="M70.6816 55.0413C70.6815 55.0331 70.6799 55.0251 70.6766 55.0176C70.6733 55.0101 70.6685 55.0034 70.6625 54.9979L64.7775 49.5273C64.7691 49.5195 64.7586 49.5144 64.7473 49.5125C64.736 49.5106 64.7244 49.5121 64.714 49.5167C64.7035 49.5213 64.6946 49.5288 64.6883 49.5384C64.6821 49.548 64.6787 49.5591 64.6787 49.5706V81.1882C64.6787 81.2039 64.6849 81.2189 64.696 81.2299C64.707 81.241 64.722 81.2472 64.7376 81.2472H70.6226C70.6383 81.2472 70.6532 81.241 70.6643 81.2299C70.6753 81.2189 70.6816 81.2039 70.6816 81.1882V55.0413Z" stroke="#B92727" stroke-width="1.53487"/>
<path d="M104.483 49.5679C104.483 49.5569 104.48 49.5463 104.474 49.5372C104.468 49.528 104.459 49.5209 104.449 49.5165C104.439 49.5121 104.428 49.5107 104.417 49.5124C104.406 49.5142 104.396 49.519 104.388 49.5263L98.4995 54.9987C98.4937 55.004 98.4889 55.0104 98.4857 55.0175C98.4824 55.0247 98.4806 55.0324 98.4805 55.0403V81.189C98.4805 81.1965 98.482 81.204 98.4848 81.2109C98.4877 81.2178 98.4919 81.2241 98.4972 81.2295C98.5025 81.2348 98.5088 81.239 98.5158 81.2419C98.5227 81.2447 98.5302 81.2462 98.5377 81.2462H104.426C104.441 81.2462 104.456 81.2402 104.467 81.2295C104.477 81.2187 104.483 81.2042 104.483 81.189V49.5679Z" stroke="#B92727" stroke-width="1.53487"/>
<path d="M40.0018 94.1947C39.992 94.1947 39.9824 94.1975 39.9742 94.2027C39.9659 94.2079 39.9592 94.2153 39.955 94.2242L37.9529 98.296C37.9491 98.3039 37.9473 98.3126 37.9478 98.3214C37.9483 98.3302 37.951 98.3387 37.9557 98.3462C37.9604 98.3536 37.9669 98.3597 37.9746 98.364C37.9823 98.3683 37.9909 98.3705 37.9997 98.3705H39.4714C39.4794 98.3705 39.4874 98.3686 39.4946 98.365C39.5018 98.3614 39.5081 98.3562 39.513 98.3497L42.4581 94.2727C42.464 94.2648 42.4675 94.2555 42.4683 94.2457C42.4691 94.2359 42.4671 94.2261 42.4626 94.2174C42.4581 94.2087 42.4512 94.2015 42.4427 94.1966C42.4342 94.1916 42.4245 94.1892 42.4147 94.1895L40.0018 94.1947Z" stroke="#B92727" stroke-width="1.53487"/>
<path d="M85.6848 113.471L87.2709 116.883C87.2975 116.942 87.3431 116.971 87.4078 116.971L89.6041 116.969C89.6734 116.969 89.6931 116.938 89.663 116.876C86.8711 111.139 84.0779 105.403 81.2837 99.6681C81.227 99.5514 81.1473 99.5127 81.0444 99.552C81.0043 99.5675 80.9714 99.5986 80.9526 99.6386L72.5264 116.879C72.4975 116.938 72.516 116.968 72.5819 116.968L74.7348 116.975C74.7972 116.976 74.8417 116.949 74.8682 116.893L76.5237 113.487C76.5526 113.429 76.5988 113.4 76.6623 113.4L85.5756 113.402C85.6265 113.402 85.6629 113.425 85.6848 113.471Z" stroke="#B92727" stroke-width="1.53487"/>
<path d="M14.6285 104.031L20.2743 109.386C20.3228 109.433 20.3719 109.433 20.4216 109.386L26.0986 103.976C26.105 103.97 26.1131 103.966 26.1218 103.964C26.1305 103.962 26.1395 103.963 26.1477 103.967C26.1558 103.971 26.1627 103.976 26.1676 103.984C26.1724 103.991 26.1749 104 26.1749 104.009L26.1766 116.885C26.1766 116.942 26.2049 116.971 26.2615 116.971L28.203 116.975C28.2688 116.975 28.3018 116.942 28.3018 116.876V99.7186C28.3015 99.6912 28.2933 99.6644 28.2782 99.6416C28.2631 99.6187 28.2417 99.6007 28.2167 99.5898C28.1916 99.5788 28.1638 99.5753 28.1368 99.5797C28.1098 99.5841 28.0846 99.5962 28.0643 99.6145L20.4771 106.638C20.4251 106.687 20.3725 106.687 20.3194 106.64L12.5831 99.592C12.5662 99.5771 12.5454 99.5673 12.5231 99.5639C12.5008 99.5604 12.478 99.5635 12.4574 99.5726C12.4368 99.5817 12.4192 99.5965 12.4067 99.6154C12.3943 99.6342 12.3875 99.6561 12.3872 99.6787V116.881C12.3872 116.942 12.4173 116.973 12.4773 116.973H14.417C14.4783 116.973 14.5089 116.942 14.5089 116.881V104.082C14.5089 103.973 14.5488 103.956 14.6285 104.031Z" stroke="#B92727" stroke-width="1.53487"/>
<path d="M138.705 114.908C134.822 115.646 130.317 114.031 129.489 109.711C128.381 103.942 133.567 101.065 138.558 101.919C138.57 101.921 138.583 101.921 138.595 101.918C138.607 101.914 138.618 101.909 138.627 101.901C138.637 101.893 138.644 101.883 138.649 101.872C138.654 101.861 138.657 101.848 138.657 101.836L138.653 99.9728C138.653 99.9035 138.619 99.8636 138.549 99.8532C133.573 99.113 127.805 101.517 127.207 107.135C126.46 114.156 132.189 117.971 138.698 116.971C138.758 116.962 138.788 116.927 138.788 116.867L138.79 114.979C138.79 114.92 138.762 114.896 138.705 114.908Z" stroke="#B92727" stroke-width="1.53487"/>
<path d="M36.3741 106.309C36.357 106.309 36.3407 106.302 36.3287 106.29C36.3167 106.278 36.3099 106.262 36.3099 106.245V101.918C36.3099 101.901 36.3167 101.885 36.3287 101.873C36.3407 101.861 36.357 101.854 36.3741 101.854H44.6928C44.7098 101.854 44.7261 101.847 44.7381 101.835C44.7501 101.823 44.7569 101.807 44.7569 101.79L44.7552 99.9177C44.7552 99.9006 44.7484 99.8843 44.7364 99.8723C44.7243 99.8603 44.708 99.8535 44.691 99.8535L34.2541 99.8553C34.2371 99.8553 34.2208 99.862 34.2087 99.874C34.1967 99.8861 34.1899 99.9024 34.1899 99.9194V116.909C34.1899 116.926 34.1967 116.942 34.2087 116.954C34.2208 116.966 34.2371 116.973 34.2541 116.973H44.847C44.864 116.973 44.8804 116.966 44.8924 116.954C44.9044 116.942 44.9112 116.926 44.9112 116.909L44.9094 115.04C44.9094 115.023 44.9027 115.007 44.8907 114.995C44.8786 114.983 44.8623 114.976 44.8453 114.976H36.3741C36.357 114.976 36.3407 114.969 36.3287 114.957C36.3167 114.945 36.3099 114.929 36.3099 114.912V108.359C36.3099 108.342 36.3167 108.326 36.3287 108.314C36.3407 108.302 36.357 108.295 36.3741 108.295H41.4114C41.4198 108.295 41.4281 108.294 41.4359 108.29C41.4437 108.287 41.4508 108.282 41.4567 108.277C41.4627 108.271 41.4674 108.263 41.4706 108.256C41.4739 108.248 41.4755 108.24 41.4755 108.231L41.4773 106.373C41.4773 106.356 41.4705 106.34 41.4585 106.328C41.4464 106.316 41.4301 106.309 41.4131 106.309H36.3741Z" stroke="#B92727" stroke-width="1.53487"/>
<path d="M51.8567 110.752L56.2128 109.492C56.2729 109.474 56.3145 109.495 56.3376 109.554L59.222 116.897C59.2417 116.948 59.2792 116.973 59.3347 116.973L61.4755 116.971C61.5587 116.971 61.5841 116.933 61.5518 116.857L58.2114 108.748C58.2005 108.721 58.1999 108.692 58.2099 108.665C58.2198 108.638 58.2396 108.615 58.2652 108.602C60.0939 107.654 61.0352 105.948 60.8896 103.891C60.6764 100.838 57.9688 99.8746 55.2872 99.8624C53.4278 99.8555 51.5753 99.8526 49.7298 99.8538C49.71 99.8538 49.6911 99.8618 49.6771 99.8761C49.6631 99.8904 49.6553 99.9098 49.6553 99.93V116.881C49.6553 116.941 49.6853 116.971 49.7454 116.971L51.6834 116.975C51.6956 116.975 51.7077 116.973 51.7191 116.968C51.7304 116.964 51.7407 116.957 51.7495 116.949C51.7582 116.94 51.7651 116.93 51.7698 116.918C51.7745 116.907 51.777 116.895 51.777 116.883V110.858C51.7769 110.834 51.7846 110.81 51.799 110.791C51.8134 110.772 51.8337 110.758 51.8567 110.752Z" stroke="#B92727" stroke-width="1.53487"/>
<path d="M68.3902 99.9003C68.3902 99.8879 68.3852 99.876 68.3765 99.8672C68.3677 99.8585 68.3558 99.8535 68.3434 99.8535H66.3222C66.3098 99.8535 66.2979 99.8585 66.2891 99.8672C66.2803 99.876 66.2754 99.8879 66.2754 99.9003V116.926C66.2754 116.938 66.2803 116.95 66.2891 116.959C66.2979 116.968 66.3098 116.973 66.3222 116.973H68.3434C68.3558 116.973 68.3677 116.968 68.3765 116.959C68.3852 116.95 68.3902 116.938 68.3902 116.926V99.9003Z" stroke="#B92727" stroke-width="1.53487"/>
<path d="M93.7485 99.9338L93.8075 116.925C93.8075 116.936 93.8119 116.946 93.8197 116.954C93.8275 116.962 93.838 116.966 93.8491 116.966L99.3891 116.947C101.651 116.939 103.817 116.092 105.411 114.591C107.006 113.091 107.897 111.06 107.89 108.946L107.886 107.816C107.883 106.769 107.659 105.733 107.227 104.767C106.795 103.801 106.163 102.925 105.369 102.187C104.574 101.45 103.632 100.866 102.596 100.469C101.56 100.072 100.45 99.8692 99.3302 99.8731L93.7901 99.8922C93.7791 99.8922 93.7685 99.8966 93.7607 99.9044C93.7529 99.9122 93.7485 99.9227 93.7485 99.9338Z" stroke="#B92727" stroke-width="1.53487"/>
<path d="M115.09 108.356C115.09 108.348 115.092 108.34 115.095 108.333C115.098 108.325 115.102 108.319 115.108 108.313C115.114 108.307 115.12 108.303 115.128 108.3C115.135 108.297 115.143 108.295 115.151 108.295H120.195C120.211 108.295 120.227 108.289 120.238 108.278C120.249 108.266 120.256 108.251 120.256 108.235L120.258 106.369C120.258 106.353 120.251 106.338 120.24 106.327C120.228 106.315 120.213 106.309 120.197 106.309H115.153C115.137 106.309 115.121 106.302 115.11 106.291C115.098 106.28 115.092 106.264 115.092 106.248L115.09 101.913C115.09 101.897 115.097 101.881 115.108 101.87C115.119 101.859 115.135 101.852 115.151 101.852L123.473 101.854C123.481 101.854 123.489 101.852 123.496 101.849C123.504 101.846 123.51 101.842 123.516 101.836C123.522 101.83 123.526 101.824 123.529 101.816C123.532 101.809 123.534 101.801 123.534 101.793L123.535 99.9142C123.535 99.9062 123.534 99.8983 123.531 99.891C123.528 99.8836 123.523 99.8769 123.518 99.8713C123.512 99.8657 123.505 99.8612 123.498 99.8581C123.491 99.8551 123.483 99.8535 123.475 99.8535L113.029 99.8553C113.013 99.8553 112.998 99.8616 112.986 99.873C112.975 99.8844 112.969 99.8998 112.969 99.9159L112.967 116.912C112.967 116.92 112.968 116.928 112.971 116.935C112.974 116.943 112.979 116.949 112.985 116.955C112.99 116.961 112.997 116.965 113.004 116.968C113.012 116.971 113.019 116.973 113.027 116.973H123.613C123.63 116.973 123.645 116.966 123.656 116.955C123.668 116.944 123.674 116.928 123.674 116.912V115.037C123.674 115.02 123.668 115.005 123.656 114.994C123.645 114.982 123.63 114.976 123.613 114.976H115.151C115.143 114.976 115.135 114.974 115.128 114.971C115.12 114.968 115.114 114.964 115.108 114.958C115.102 114.953 115.098 114.946 115.095 114.938C115.092 114.931 115.09 114.923 115.09 114.915V108.356Z" stroke="#B92727" stroke-width="1.53487"/>
<path d="M146.013 108.295C146.005 108.304 145.994 108.31 145.983 108.313C145.971 108.316 145.959 108.314 145.948 108.31C145.937 108.305 145.927 108.298 145.921 108.288C145.914 108.278 145.911 108.266 145.911 108.254L145.913 99.9142C145.913 99.8986 145.907 99.8836 145.895 99.8725C145.884 99.8615 145.869 99.8553 145.854 99.8553H143.85C143.834 99.8553 143.819 99.8615 143.808 99.8725C143.797 99.8836 143.791 99.8986 143.791 99.9142V116.914C143.791 116.929 143.797 116.944 143.808 116.956C143.819 116.967 143.834 116.973 143.85 116.973L145.854 116.975C145.869 116.975 145.884 116.968 145.895 116.957C145.907 116.946 145.913 116.931 145.913 116.916V111.039C145.913 111.024 145.919 111.009 145.93 110.998L149.383 107.505C149.39 107.498 149.398 107.494 149.407 107.491C149.415 107.488 149.425 107.487 149.434 107.489C149.443 107.491 149.452 107.494 149.459 107.5C149.466 107.505 149.472 107.512 149.477 107.52L154.334 116.942C154.339 116.951 154.346 116.959 154.355 116.964C154.365 116.97 154.375 116.973 154.386 116.973H156.676C156.686 116.973 156.696 116.97 156.705 116.965C156.713 116.96 156.721 116.953 156.726 116.944C156.731 116.935 156.734 116.926 156.734 116.915C156.735 116.905 156.732 116.895 156.728 116.886L151.016 105.952C151.01 105.941 151.008 105.928 151.01 105.916C151.012 105.904 151.018 105.893 151.026 105.884L156.608 99.9523C156.616 99.9439 156.621 99.9334 156.623 99.9221C156.625 99.9108 156.623 99.8993 156.619 99.8888C156.614 99.8783 156.606 99.8694 156.597 99.8631C156.587 99.8569 156.576 99.8535 156.565 99.8535H154.013C154.005 99.8535 153.997 99.8552 153.989 99.8585C153.982 99.8618 153.975 99.8666 153.97 99.8726L146.013 108.295Z" stroke="#B92727" stroke-width="1.53487"/>
<path d="M41.3819 130.194C40.4372 130.196 39.6138 129.515 39.6069 128.532C39.5988 127.307 39.5965 126.08 39.6 124.852C39.6 124.792 39.5699 124.762 39.5098 124.762L39.0401 124.763C38.9846 124.763 38.9563 124.792 38.9551 124.848C38.9436 126.05 38.9447 127.247 38.9586 128.44C38.9811 130.371 40.6504 131.149 42.318 130.706C43.365 130.428 43.963 129.636 44.0029 128.574C44.0329 127.753 44.0352 126.51 44.0098 124.843C44.0087 124.789 43.9815 124.762 43.9283 124.762L43.4603 124.763C43.4014 124.763 43.3719 124.793 43.3719 124.852C43.3777 125.937 43.3875 127.017 43.4014 128.093C43.421 129.492 42.7479 130.192 41.3819 130.194Z" stroke="#B92727" stroke-width="1.53487"/>
<path d="M48.8375 128.312C49.7851 128.02 50.2346 127.416 50.1861 126.502C50.1393 125.618 49.6574 124.895 48.7387 124.802C48.132 124.741 47.085 124.734 45.5977 124.781C45.5492 124.782 45.5249 124.807 45.5249 124.856V130.621C45.5249 130.694 45.5613 130.73 45.6341 130.73L46.0484 130.728C46.12 130.728 46.1559 130.693 46.1559 130.621L46.1576 128.454C46.1576 128.382 46.1934 128.347 46.2651 128.347L47.9361 128.343C47.9648 128.343 47.9932 128.351 48.0186 128.365C48.044 128.378 48.0657 128.398 48.0817 128.423L49.5222 130.643C49.5382 130.669 49.5602 130.689 49.5862 130.704C49.6123 130.718 49.6415 130.726 49.6713 130.727L50.2658 130.728C50.3294 130.73 50.3432 130.704 50.3074 130.65L48.7976 128.425C48.7606 128.369 48.7739 128.332 48.8375 128.312Z" stroke="#B92727" stroke-width="1.53487"/>
<path d="M55.294 127.636C56.0278 127.113 56.2249 126.458 55.8851 125.672C55.6806 125.199 55.164 124.851 54.6787 124.804C54.0338 124.744 53.0319 124.736 51.6729 124.78C51.6244 124.782 51.6001 124.807 51.6001 124.854V130.649C51.6001 130.697 51.6238 130.721 51.6712 130.722C52.7684 130.736 54.6873 130.904 55.5298 130.429C56.5334 129.862 56.5161 128.144 55.3062 127.723C55.2461 127.702 55.242 127.673 55.294 127.636Z" stroke="#B92727" stroke-width="1.53487"/>
<path d="M58.2947 129.368L61.5865 129.366C61.6593 129.366 61.7101 129.399 61.739 129.465L62.2764 130.649C62.2983 130.697 62.3359 130.721 62.389 130.721L62.916 130.728C62.9969 130.73 63.02 130.694 62.9853 130.621L60.3679 124.979C60.3313 124.9 60.2729 124.833 60.1996 124.786C60.1264 124.74 60.0413 124.715 59.9544 124.715C59.8676 124.715 59.7825 124.74 59.7093 124.786C59.636 124.833 59.5776 124.9 59.541 124.979L56.9166 130.633C56.8889 130.692 56.908 130.722 56.9738 130.723L57.4557 130.73C57.4877 130.731 57.5191 130.722 57.5462 130.704C57.5733 130.687 57.5948 130.662 57.6083 130.633L58.1439 129.465C58.1728 129.4 58.223 129.368 58.2947 129.368Z" stroke="#B92727" stroke-width="1.53487"/>
<path d="M64.769 124.831C64.769 124.814 64.762 124.797 64.7497 124.785C64.7373 124.773 64.7206 124.766 64.7031 124.766H64.1831C64.1656 124.766 64.1488 124.773 64.1365 124.785C64.1241 124.797 64.1172 124.814 64.1172 124.831V130.663C64.1172 130.68 64.1241 130.697 64.1365 130.709C64.1488 130.722 64.1656 130.729 64.1831 130.729H64.7031C64.7206 130.729 64.7373 130.722 64.7497 130.709C64.762 130.697 64.769 130.68 64.769 130.663V124.831Z" stroke="#B92727" stroke-width="1.53487"/>
<path d="M67.0069 130.725C67.0221 130.725 67.0367 130.719 67.0474 130.708C67.0581 130.697 67.0641 130.683 67.0641 130.667V125.578C67.0641 125.566 67.068 125.554 67.0752 125.544C67.0824 125.535 67.0925 125.527 67.1041 125.524C67.1157 125.52 67.1281 125.52 67.1397 125.524C67.1512 125.528 67.1612 125.535 67.1681 125.545L70.7667 130.702C70.772 130.71 70.779 130.716 70.7872 130.72C70.7953 130.724 70.8044 130.726 70.8135 130.726L71.5329 130.719C71.5481 130.719 71.5626 130.713 71.5734 130.703C71.5841 130.692 71.5901 130.677 71.5901 130.662V124.819C71.5901 124.804 71.5841 124.789 71.5734 124.778C71.5626 124.768 71.5481 124.762 71.5329 124.762L71.0146 124.763C70.9994 124.763 70.9849 124.769 70.9742 124.78C70.9634 124.791 70.9574 124.805 70.9574 124.821L70.9557 129.702C70.9557 129.714 70.9518 129.726 70.9446 129.736C70.9375 129.746 70.9273 129.753 70.9157 129.757C70.9042 129.76 70.8917 129.76 70.8802 129.756C70.8686 129.752 70.8587 129.745 70.8517 129.735L67.3779 124.788C67.3726 124.78 67.3656 124.774 67.3575 124.77C67.3493 124.766 67.3403 124.763 67.3311 124.763L66.4696 124.762C66.4544 124.762 66.4399 124.768 66.4291 124.778C66.4184 124.789 66.4124 124.804 66.4124 124.819L66.4106 130.667C66.4106 130.683 66.4167 130.697 66.4274 130.708C66.4381 130.719 66.4527 130.725 66.4678 130.725H67.0069Z" stroke="#B92727" stroke-width="1.53487"/>
<path d="M76.1419 128.435C77.5824 128.435 80.075 128.81 80.0196 126.61C79.9953 125.705 79.5481 124.916 78.5964 124.807C77.9967 124.737 76.952 124.729 75.4624 124.785C75.4162 124.786 75.3931 124.81 75.3931 124.856V130.626C75.3931 130.693 75.4272 130.727 75.4953 130.727H75.9443C76.0113 130.727 76.0448 130.693 76.0448 130.626V128.532C76.0448 128.468 76.0772 128.435 76.1419 128.435Z" stroke="#B92727" stroke-width="1.53487"/>
<path d="M81.2574 129.368H84.5509C84.6214 129.368 84.6711 129.4 84.7 129.465L85.2322 130.631C85.2622 130.696 85.3119 130.728 85.3812 130.728L85.8701 130.73C85.9544 130.73 85.9787 130.692 85.9429 130.616L83.3306 124.98C83.2942 124.901 83.2358 124.834 83.1624 124.787C83.0889 124.74 83.0035 124.715 82.9163 124.715C82.8291 124.715 82.7437 124.74 82.6702 124.787C82.5968 124.834 82.5384 124.901 82.502 124.98L79.8863 130.618C79.8505 130.694 79.8742 130.731 79.9574 130.73L80.4375 130.725C80.4999 130.725 80.5438 130.697 80.5693 130.64L81.1032 129.467C81.1332 129.401 81.1846 129.368 81.2574 129.368Z" stroke="#B92727" stroke-width="1.53487"/>
<path d="M87.8337 128.349L89.4978 128.342C89.527 128.342 89.5558 128.349 89.5815 128.363C89.6073 128.378 89.6292 128.398 89.6451 128.423L91.0717 130.621C91.1156 130.689 91.1781 130.724 91.2589 130.725L91.7824 130.73C91.8818 130.732 91.9038 130.692 91.8483 130.611L90.3662 128.43C90.3269 128.373 90.3402 128.335 90.4061 128.314C91.3237 128.029 91.7732 127.444 91.7547 126.56C91.7356 125.676 91.2607 124.911 90.342 124.806C89.7503 124.737 88.6906 124.73 87.1629 124.783C87.1155 124.785 87.0918 124.81 87.0918 124.856V130.623C87.0918 130.689 87.1253 130.722 87.1923 130.723L87.6378 130.729C87.7037 130.73 87.7366 130.697 87.7366 130.632V128.444C87.7366 128.38 87.769 128.349 87.8337 128.349Z" stroke="#B92727" stroke-width="1.53487"/>
<path d="M99.8488 129.69C99.8488 129.702 99.8449 129.714 99.8377 129.724C99.8306 129.733 99.8204 129.741 99.8088 129.744C99.7972 129.748 99.7848 129.748 99.7733 129.744C99.7617 129.74 99.7518 129.733 99.7448 129.723L96.2779 124.786C96.2726 124.778 96.2656 124.772 96.2575 124.768C96.2493 124.764 96.2403 124.762 96.2311 124.762H95.3783C95.3631 124.762 95.3485 124.768 95.3378 124.778C95.3271 124.789 95.3211 124.804 95.3211 124.819L95.3193 130.664C95.3193 130.679 95.3254 130.694 95.3361 130.704C95.3468 130.715 95.3614 130.721 95.3765 130.721L95.8983 130.728C95.9135 130.728 95.928 130.722 95.9388 130.711C95.9495 130.701 95.9555 130.686 95.9555 130.671L95.9503 125.559C95.9503 125.547 95.9542 125.535 95.9613 125.525C95.9685 125.515 95.9786 125.508 95.9902 125.505C96.0018 125.501 96.0143 125.501 96.0258 125.505C96.0373 125.509 96.0473 125.516 96.0543 125.526L99.6702 130.704C99.6755 130.711 99.6825 130.718 99.6907 130.722C99.6988 130.726 99.7079 130.728 99.717 130.728L100.429 130.725C100.445 130.725 100.459 130.719 100.47 130.708C100.481 130.697 100.487 130.683 100.487 130.667V124.819C100.487 124.804 100.481 124.789 100.47 124.778C100.459 124.768 100.445 124.762 100.429 124.762H99.9025C99.8873 124.762 99.8728 124.768 99.8621 124.778C99.8513 124.789 99.8453 124.804 99.8453 124.819L99.8488 129.69Z" stroke="#B92727" stroke-width="1.53487"/>
<path d="M106.441 129.465L106.969 130.628C106.997 130.689 107.045 130.721 107.113 130.722L107.621 130.73C107.7 130.732 107.722 130.696 107.689 130.625L105.068 124.977C105.032 124.898 104.973 124.831 104.9 124.785C104.827 124.738 104.742 124.713 104.655 124.713C104.568 124.713 104.483 124.738 104.41 124.785C104.337 124.831 104.279 124.898 104.243 124.977L101.617 130.635C101.588 130.7 101.609 130.732 101.679 130.732L102.182 130.73C102.238 130.73 102.279 130.704 102.303 130.652L102.847 129.463C102.876 129.4 102.925 129.368 102.995 129.368L106.286 129.366C106.359 129.366 106.411 129.399 106.441 129.465Z" stroke="#B92727" stroke-width="1.53487"/>
<path d="M109.512 125.351C109.529 125.351 109.545 125.358 109.556 125.369C109.568 125.381 109.575 125.397 109.575 125.413V130.661C109.575 130.677 109.581 130.693 109.593 130.705C109.605 130.716 109.621 130.723 109.637 130.723L110.175 130.726C110.191 130.726 110.207 130.72 110.219 130.708C110.23 130.696 110.237 130.681 110.237 130.664V125.41C110.237 125.393 110.243 125.378 110.255 125.366C110.267 125.354 110.283 125.348 110.299 125.348L112.206 125.355C112.223 125.355 112.238 125.348 112.25 125.336C112.262 125.325 112.268 125.309 112.268 125.292L112.267 124.824C112.267 124.808 112.26 124.792 112.248 124.78C112.237 124.768 112.221 124.762 112.204 124.762H107.592C107.575 124.762 107.559 124.768 107.548 124.78C107.536 124.792 107.529 124.808 107.529 124.824V125.29C107.529 125.307 107.536 125.323 107.548 125.335C107.559 125.346 107.575 125.353 107.592 125.353L109.512 125.351Z" stroke="#B92727" stroke-width="1.53487"/>
<path d="M117.678 128.322C117.664 129.468 116.987 130.238 115.78 130.205C114.21 130.163 113.932 129.227 113.919 127.806C113.908 126.822 113.908 125.837 113.917 124.85C113.918 124.791 113.889 124.762 113.83 124.762L113.36 124.763C113.301 124.763 113.272 124.792 113.272 124.85C113.265 125.963 113.257 127.074 113.248 128.183C113.234 129.895 114.079 130.768 115.782 130.803C116.958 130.827 117.726 130.406 118.084 129.539C118.239 129.165 118.316 128.398 118.316 127.239C118.315 126.447 118.314 125.655 118.313 124.862C118.313 124.795 118.279 124.762 118.212 124.762L117.779 124.763C117.716 124.763 117.686 124.794 117.687 124.855C117.695 126.012 117.692 127.168 117.678 128.322Z" stroke="#B92727" stroke-width="1.53487"/>
<path d="M120.559 128.348L122.241 128.343C122.307 128.342 122.357 128.369 122.393 128.425L123.828 130.642C123.862 130.694 123.911 130.72 123.974 130.721L124.531 130.732C124.629 130.734 124.65 130.694 124.595 130.612L123.099 128.413C123.061 128.356 123.074 128.32 123.139 128.303C124.108 128.051 124.554 127.405 124.475 126.365C124.406 125.44 123.949 124.921 123.104 124.811C122.496 124.73 121.424 124.723 119.887 124.79C119.843 124.791 119.821 124.813 119.821 124.857V130.628C119.821 130.691 119.853 130.723 119.916 130.723L120.367 130.727C120.438 130.728 120.474 130.693 120.474 130.623L120.471 128.437C120.471 128.379 120.5 128.35 120.559 128.348Z" stroke="#B92727" stroke-width="1.53487"/>
<path d="M126.632 130.134C126.615 130.134 126.598 130.127 126.586 130.115C126.574 130.103 126.568 130.086 126.568 130.069L126.564 128.062C126.564 128.045 126.571 128.029 126.583 128.017C126.595 128.005 126.611 127.998 126.628 127.998H129.504C129.521 127.998 129.537 127.991 129.549 127.979C129.561 127.967 129.568 127.951 129.568 127.934L129.57 127.469C129.57 127.452 129.563 127.436 129.551 127.424C129.539 127.412 129.523 127.405 129.506 127.405H126.627C126.61 127.405 126.593 127.398 126.581 127.386C126.569 127.374 126.562 127.358 126.562 127.341L126.569 125.415C126.569 125.398 126.576 125.382 126.588 125.37C126.6 125.358 126.617 125.351 126.634 125.351L130.151 125.355C130.168 125.355 130.184 125.348 130.196 125.336C130.208 125.324 130.215 125.307 130.215 125.29V124.826C130.215 124.809 130.208 124.793 130.196 124.781C130.184 124.768 130.168 124.762 130.151 124.762H125.971C125.954 124.762 125.938 124.768 125.926 124.781C125.914 124.793 125.907 124.809 125.907 124.826L125.909 130.659C125.909 130.676 125.916 130.692 125.928 130.704C125.94 130.716 125.956 130.723 125.973 130.723L130.149 130.725C130.166 130.725 130.182 130.718 130.194 130.706C130.206 130.694 130.213 130.678 130.213 130.661L130.215 130.198C130.215 130.181 130.208 130.164 130.196 130.152C130.184 130.14 130.168 130.134 130.151 130.134H126.632Z" stroke="#B92727" stroke-width="1.53487"/>
<path d="M77.5441 111.363C77.539 111.373 77.5366 111.385 77.5372 111.396C77.5378 111.407 77.5413 111.418 77.5474 111.428C77.5535 111.438 77.562 111.445 77.5721 111.451C77.5821 111.456 77.5934 111.459 77.6047 111.459L84.6026 111.445C84.6137 111.445 84.6247 111.442 84.6346 111.437C84.6444 111.432 84.6527 111.424 84.6588 111.415C84.6648 111.405 84.6684 111.395 84.6692 111.383C84.67 111.372 84.6679 111.361 84.6633 111.351L81.1496 103.878C81.1441 103.867 81.1357 103.858 81.1253 103.852C81.1149 103.845 81.1029 103.842 81.0907 103.842C81.0784 103.842 81.0664 103.845 81.056 103.852C81.0456 103.858 81.0372 103.867 81.0317 103.878L77.5441 111.363Z" stroke="#B92727" stroke-width="1.53487"/>
<path d="M56.6876 107.235C58.5961 106.46 59.5963 103.898 57.823 102.539C57.1175 101.999 56.1364 101.822 55.2402 101.811C54.1378 101.8 53.0197 101.8 51.8861 101.811C51.8133 101.811 51.7769 101.848 51.7769 101.921V108.599C51.7769 108.669 51.8104 108.697 51.8774 108.683C53.5334 108.348 55.1368 107.865 56.6876 107.235Z" stroke="#B92727" stroke-width="1.53487"/>
<path d="M95.8804 101.948L95.9254 114.897C95.9254 114.916 95.9331 114.935 95.9468 114.948C95.9604 114.962 95.9789 114.97 95.9982 114.97L99.2033 114.958C100.057 114.955 100.901 114.791 101.689 114.474C102.476 114.158 103.191 113.696 103.793 113.115C104.394 112.533 104.871 111.844 105.195 111.086C105.519 110.328 105.684 109.516 105.681 108.696L105.678 108.079C105.672 106.425 104.982 104.841 103.759 103.675C102.537 102.509 100.882 101.858 99.1583 101.863L95.9532 101.875C95.9339 101.875 95.9154 101.883 95.9017 101.897C95.888 101.91 95.8804 101.929 95.8804 101.948Z" stroke="#B92727" stroke-width="1.53487"/>
<path d="M46.1539 125.415L46.1504 127.682C46.1504 127.701 46.1579 127.719 46.1712 127.732C46.1845 127.746 46.2026 127.753 46.2215 127.753L48.305 127.757C48.627 127.757 48.936 127.639 49.1642 127.427C49.3923 127.215 49.521 126.928 49.5219 126.628V126.483C49.5223 126.334 49.4913 126.186 49.4305 126.049C49.3698 125.911 49.2805 125.786 49.1678 125.681C49.0551 125.575 48.9212 125.491 48.7738 125.434C48.6263 125.377 48.4682 125.347 48.3085 125.347L46.2249 125.344C46.2061 125.344 46.188 125.351 46.1747 125.365C46.1613 125.378 46.1539 125.396 46.1539 125.415Z" stroke="#B92727" stroke-width="1.53487"/>
<path d="M52.256 125.403L52.249 127.338C52.249 127.352 52.2549 127.366 52.2653 127.377C52.2757 127.387 52.2898 127.393 52.3045 127.393L54.1939 127.4C54.3488 127.401 54.5023 127.377 54.6455 127.33C54.7887 127.283 54.919 127.214 55.0288 127.127C55.1386 127.04 55.2258 126.936 55.2854 126.822C55.345 126.708 55.3758 126.586 55.3761 126.462V126.299C55.3768 126.05 55.2534 125.81 55.033 125.633C54.8126 125.456 54.5133 125.356 54.2009 125.355L52.3114 125.348C52.2967 125.348 52.2826 125.354 52.2722 125.364C52.2618 125.374 52.256 125.388 52.256 125.403Z" stroke="#B92727" stroke-width="1.53487"/>
<path d="M52.2437 128.09L52.2506 130.028C52.2506 130.058 52.2625 130.087 52.2836 130.108C52.3047 130.129 52.3334 130.141 52.3633 130.141L54.3064 130.134C54.6455 130.133 54.9703 130.027 55.2095 129.839C55.4488 129.651 55.5828 129.397 55.5822 129.132V128.966C55.5819 128.834 55.5485 128.705 55.4839 128.584C55.4192 128.463 55.3247 128.353 55.2055 128.26C55.0864 128.168 54.9451 128.095 54.7896 128.045C54.6341 127.995 54.4676 127.97 54.2995 127.971L52.3563 127.978C52.3264 127.978 52.2978 127.99 52.2767 128.011C52.2555 128.032 52.2437 128.06 52.2437 128.09Z" stroke="#B92727" stroke-width="1.53487"/>
<path d="M58.4925 128.695C58.4882 128.704 58.4863 128.715 58.4869 128.725C58.4876 128.735 58.4909 128.745 58.4964 128.754C58.5019 128.763 58.5095 128.77 58.5185 128.775C58.5275 128.78 58.5376 128.783 58.548 128.783H61.3388C61.3491 128.783 61.3593 128.78 61.3683 128.775C61.3773 128.77 61.3849 128.763 61.3904 128.754C61.3959 128.745 61.3991 128.735 61.3998 128.725C61.4005 128.715 61.3986 128.704 61.3942 128.695L60.0006 125.621C59.9957 125.61 59.9877 125.601 59.9776 125.594C59.9674 125.588 59.9555 125.584 59.9434 125.584C59.9312 125.584 59.9193 125.588 59.9092 125.594C59.899 125.601 59.891 125.61 59.8862 125.621L58.4925 128.695Z" stroke="#B92727" stroke-width="1.53487"/>
<path d="M76.0454 125.402V127.787C76.0454 127.8 76.0507 127.813 76.0601 127.823C76.0696 127.832 76.0823 127.837 76.0957 127.837H78.1394C78.4594 127.837 78.7662 127.721 78.9925 127.514C79.2187 127.307 79.3459 127.026 79.3459 126.733V126.456C79.3459 126.163 79.2187 125.882 78.9925 125.675C78.7662 125.468 78.4594 125.352 78.1394 125.352H76.0957C76.0823 125.352 76.0696 125.357 76.0601 125.366C76.0507 125.376 76.0454 125.388 76.0454 125.402Z" stroke="#B92727" stroke-width="1.53487"/>
<path d="M81.4518 128.692C81.4475 128.701 81.4456 128.712 81.4465 128.723C81.4474 128.734 81.4509 128.744 81.4567 128.753C81.4626 128.762 81.4706 128.769 81.48 128.774C81.4895 128.779 81.5 128.782 81.5107 128.782L84.2946 128.787C84.3053 128.787 84.3159 128.784 84.3253 128.779C84.3347 128.774 84.3427 128.767 84.3486 128.758C84.3545 128.749 84.358 128.739 84.3588 128.728C84.3597 128.717 84.3579 128.707 84.3535 128.697L82.9668 125.629C82.9619 125.617 82.9536 125.607 82.9432 125.6C82.9327 125.594 82.9204 125.59 82.9079 125.59C82.8953 125.59 82.8831 125.594 82.8726 125.6C82.8621 125.607 82.8539 125.617 82.8489 125.629L81.4518 128.692Z" stroke="#B92727" stroke-width="1.53487"/>
<path d="M87.73 125.422V127.679C87.73 127.699 87.7378 127.718 87.7518 127.732C87.7658 127.746 87.7847 127.754 87.8045 127.754H89.8656C90.1892 127.754 90.4996 127.637 90.7285 127.428C90.9573 127.22 91.0859 126.937 91.0859 126.643V126.459C91.0859 126.164 90.9573 125.881 90.7285 125.673C90.4996 125.465 90.1892 125.348 89.8656 125.348H87.8045C87.7847 125.348 87.7658 125.356 87.7518 125.369C87.7378 125.383 87.73 125.402 87.73 125.422Z" stroke="#B92727" stroke-width="1.53487"/>
<path d="M103.194 128.695C103.19 128.704 103.188 128.715 103.189 128.725C103.189 128.736 103.193 128.746 103.198 128.755C103.204 128.764 103.212 128.771 103.221 128.776C103.231 128.781 103.241 128.783 103.251 128.783H106.039C106.049 128.783 106.06 128.781 106.069 128.776C106.078 128.771 106.086 128.764 106.092 128.755C106.097 128.746 106.101 128.736 106.101 128.725C106.102 128.715 106.1 128.704 106.096 128.695L104.702 125.621C104.697 125.61 104.689 125.601 104.679 125.594C104.669 125.588 104.657 125.584 104.645 125.584C104.633 125.584 104.621 125.588 104.611 125.594C104.601 125.601 104.593 125.61 104.588 125.621L103.194 128.695Z" stroke="#B92727" stroke-width="1.53487"/>
<path d="M120.473 125.422L120.469 127.676C120.469 127.685 120.471 127.695 120.475 127.704C120.478 127.713 120.484 127.721 120.491 127.727C120.497 127.734 120.505 127.739 120.514 127.743C120.523 127.747 120.532 127.749 120.542 127.749L122.643 127.752C122.958 127.753 123.26 127.635 123.484 127.425C123.707 127.214 123.833 126.929 123.834 126.631V126.482C123.834 126.334 123.804 126.187 123.744 126.05C123.685 125.914 123.598 125.789 123.487 125.684C123.377 125.58 123.246 125.496 123.102 125.44C122.957 125.383 122.803 125.353 122.646 125.353L120.545 125.35C120.526 125.35 120.508 125.357 120.494 125.371C120.48 125.385 120.473 125.403 120.473 125.422Z" stroke="#B92727" stroke-width="1.53487"/>
<path d="M0.164551 0H169V168.835H0.164551V0ZM103.477 38.0296C103.459 38.0297 103.441 38.0365 103.428 38.0486L84.6308 55.1749C84.6175 55.1868 84.6002 55.1934 84.5823 55.1934C84.5644 55.1934 84.5471 55.1868 84.5337 55.1749L65.7365 38.0486C65.7232 38.0365 65.7059 38.0297 65.688 38.0296L64.7519 38.0261C64.7326 38.0261 64.7141 38.0338 64.7004 38.0474C64.6868 38.0611 64.6791 38.0796 64.6791 38.0989V44.3618C64.6792 44.3715 64.6812 44.3811 64.6851 44.3901C64.689 44.399 64.6946 44.4071 64.7016 44.4138L84.532 62.8227C84.5455 62.8357 84.5636 62.8429 84.5823 62.8429C84.601 62.8429 84.619 62.8357 84.6325 62.8227L104.463 44.4138C104.47 44.4071 104.476 44.399 104.479 44.3901C104.483 44.3811 104.485 44.3715 104.485 44.3618L104.484 38.1006C104.484 38.0813 104.476 38.0628 104.462 38.0492C104.449 38.0355 104.43 38.0278 104.411 38.0278L103.477 38.0296ZM70.682 55.0414C70.6819 55.0332 70.6802 55.0252 70.677 55.0177C70.6737 55.0103 70.6689 55.0036 70.6629 54.9981L64.7779 49.5274C64.7695 49.5196 64.759 49.5145 64.7477 49.5126C64.7364 49.5108 64.7248 49.5122 64.7144 49.5168C64.7039 49.5214 64.695 49.5289 64.6887 49.5385C64.6825 49.5481 64.6791 49.5593 64.6791 49.5707V81.1884C64.6791 81.204 64.6853 81.219 64.6964 81.23C64.7074 81.2411 64.7224 81.2473 64.738 81.2473H70.623C70.6386 81.2473 70.6536 81.2411 70.6647 81.23C70.6757 81.219 70.682 81.204 70.682 81.1884V55.0414ZM104.484 49.569C104.484 49.558 104.48 49.5474 104.474 49.5382C104.468 49.5291 104.459 49.522 104.449 49.5176C104.439 49.5132 104.428 49.5118 104.417 49.5135C104.407 49.5153 104.397 49.5201 104.388 49.5274L98.4999 54.9998C98.4941 55.005 98.4893 55.0114 98.4861 55.0186C98.4828 55.0258 98.481 55.0335 98.4809 55.0414V81.1901C98.4809 81.1976 98.4823 81.205 98.4852 81.212C98.4881 81.2189 98.4923 81.2252 98.4976 81.2305C98.5029 81.2358 98.5092 81.2401 98.5162 81.2429C98.5231 81.2458 98.5306 81.2473 98.5381 81.2473H104.427C104.442 81.2473 104.456 81.2413 104.467 81.2305C104.478 81.2198 104.484 81.2053 104.484 81.1901V49.569ZM40.0021 94.1942C39.9923 94.1942 39.9827 94.197 39.9744 94.2022C39.9662 94.2074 39.9595 94.2149 39.9553 94.2237L37.9532 98.2955C37.9494 98.3034 37.9476 98.3122 37.9481 98.321C37.9486 98.3297 37.9513 98.3383 37.956 98.3457C37.9607 98.3531 37.9672 98.3593 37.9749 98.3635C37.9825 98.3678 37.9912 98.37 38 98.37H39.4717C39.4797 98.37 39.4877 98.3682 39.4949 98.3646C39.5021 98.3609 39.5084 98.3557 39.5133 98.3492L42.4584 94.2722C42.4642 94.2644 42.4678 94.255 42.4686 94.2453C42.4694 94.2355 42.4674 94.2257 42.4629 94.217C42.4584 94.2083 42.4515 94.201 42.443 94.1961C42.4345 94.1912 42.4248 94.1887 42.415 94.189L40.0021 94.1942ZM85.6847 113.473L87.2708 116.885C87.2974 116.944 87.343 116.973 87.4078 116.973L89.604 116.971C89.6733 116.971 89.693 116.94 89.6629 116.878C86.871 111.141 84.0778 105.405 81.2836 99.6701C81.2269 99.5534 81.1472 99.5147 81.0444 99.554C81.0042 99.5695 80.9713 99.6006 80.9525 99.6406L72.5263 116.881C72.4974 116.94 72.5159 116.97 72.5818 116.97L74.7347 116.977C74.7971 116.978 74.8416 116.951 74.8682 116.895L76.5236 113.489C76.5525 113.431 76.5987 113.402 76.6623 113.402L85.5755 113.404C85.6264 113.404 85.6628 113.427 85.6847 113.473ZM14.6282 104.031L20.274 109.386C20.3225 109.433 20.3716 109.433 20.4213 109.386L26.0983 103.976C26.1047 103.97 26.1128 103.966 26.1215 103.964C26.1302 103.963 26.1392 103.964 26.1474 103.967C26.1555 103.971 26.1624 103.976 26.1673 103.984C26.1721 103.991 26.1747 104 26.1746 104.009L26.1763 116.885C26.1763 116.943 26.2046 116.971 26.2612 116.971L28.2027 116.975C28.2685 116.975 28.3015 116.942 28.3015 116.876V99.7187C28.3012 99.6913 28.293 99.6645 28.2779 99.6417C28.2628 99.6188 28.2415 99.6009 28.2164 99.5899C28.1913 99.5789 28.1636 99.5754 28.1365 99.5798C28.1095 99.5842 28.0843 99.5963 28.064 99.6146L20.4768 106.638C20.4248 106.687 20.3722 106.688 20.3191 106.64L12.5828 99.5921C12.5659 99.5772 12.5451 99.5674 12.5228 99.564C12.5005 99.5605 12.4777 99.5636 12.4571 99.5727C12.4365 99.5818 12.4189 99.5967 12.4065 99.6155C12.394 99.6343 12.3872 99.6562 12.3869 99.6788V116.881C12.3869 116.943 12.417 116.973 12.4771 116.973H14.4168C14.478 116.973 14.5086 116.943 14.5086 116.881V104.082C14.5086 103.973 14.5485 103.956 14.6282 104.031ZM138.705 114.909C134.822 115.647 130.317 114.032 129.488 109.712C128.381 103.943 133.567 101.066 138.558 101.92C138.57 101.922 138.582 101.922 138.594 101.918C138.606 101.915 138.618 101.909 138.627 101.901C138.636 101.893 138.644 101.883 138.649 101.872C138.654 101.861 138.657 101.849 138.656 101.837L138.653 99.9735C138.653 99.9041 138.618 99.8643 138.549 99.8539C133.572 99.1137 127.805 101.518 127.207 107.136C126.46 114.156 132.189 117.972 138.698 116.971C138.758 116.962 138.788 116.928 138.788 116.867L138.79 114.98C138.79 114.921 138.762 114.897 138.705 114.909ZM36.374 106.309C36.357 106.309 36.3407 106.302 36.3287 106.29C36.3167 106.278 36.3099 106.262 36.3099 106.245V101.918C36.3099 101.901 36.3167 101.885 36.3287 101.873C36.3407 101.861 36.357 101.854 36.374 101.854H44.6927C44.7097 101.854 44.7261 101.847 44.7381 101.835C44.7501 101.823 44.7569 101.807 44.7569 101.79L44.7551 99.918C44.7551 99.901 44.7484 99.8847 44.7363 99.8726C44.7243 99.8606 44.708 99.8539 44.691 99.8539L34.2541 99.8556C34.237 99.8556 34.2207 99.8624 34.2087 99.8744C34.1967 99.8864 34.1899 99.9027 34.1899 99.9197V116.909C34.1899 116.926 34.1967 116.942 34.2087 116.954C34.2207 116.966 34.237 116.973 34.2541 116.973H44.847C44.864 116.973 44.8803 116.966 44.8924 116.954C44.9044 116.942 44.9111 116.926 44.9111 116.909L44.9094 115.04C44.9094 115.023 44.9027 115.007 44.8906 114.995C44.8786 114.983 44.8623 114.976 44.8453 114.976H36.374C36.357 114.976 36.3407 114.969 36.3287 114.957C36.3167 114.945 36.3099 114.929 36.3099 114.912V108.36C36.3099 108.343 36.3167 108.326 36.3287 108.314C36.3407 108.302 36.357 108.296 36.374 108.296H41.4114C41.4198 108.296 41.4281 108.294 41.4359 108.291C41.4437 108.288 41.4508 108.283 41.4567 108.277C41.4627 108.271 41.4674 108.264 41.4706 108.256C41.4738 108.248 41.4755 108.24 41.4755 108.231L41.4772 106.373C41.4772 106.356 41.4705 106.34 41.4584 106.328C41.4464 106.316 41.4301 106.309 41.4131 106.309H36.374ZM51.857 110.752L56.2131 109.492C56.2732 109.474 56.3148 109.495 56.3379 109.554L59.2223 116.897C59.2419 116.948 59.2795 116.973 59.335 116.973L61.4757 116.971C61.5589 116.971 61.5844 116.933 61.552 116.857L58.2117 108.748C58.2007 108.721 58.2001 108.692 58.2101 108.665C58.2201 108.638 58.2398 108.616 58.2654 108.602C60.0942 107.654 61.0355 105.949 60.8898 103.891C60.6766 100.838 57.969 99.8747 55.2874 99.8625C53.428 99.8556 51.5756 99.8527 49.7301 99.8539C49.7103 99.8539 49.6913 99.8619 49.6774 99.8762C49.6634 99.8905 49.6555 99.9099 49.6555 99.9301V116.881C49.6555 116.941 49.6856 116.971 49.7457 116.971L51.6836 116.975C51.6958 116.975 51.708 116.973 51.7193 116.968C51.7307 116.964 51.741 116.957 51.7497 116.949C51.7584 116.94 51.7654 116.93 51.7701 116.919C51.7748 116.907 51.7772 116.895 51.7772 116.883V110.858C51.7771 110.834 51.7848 110.81 51.7992 110.791C51.8137 110.772 51.8339 110.758 51.857 110.752ZM68.3904 99.9007C68.3904 99.8882 68.3854 99.8763 68.3767 99.8676C68.3679 99.8588 68.356 99.8539 68.3436 99.8539H66.3224C66.31 99.8539 66.2981 99.8588 66.2893 99.8676C66.2805 99.8763 66.2756 99.8882 66.2756 99.9007V116.926C66.2756 116.939 66.2805 116.951 66.2893 116.959C66.2981 116.968 66.31 116.973 66.3224 116.973H68.3436C68.356 116.973 68.3679 116.968 68.3767 116.959C68.3854 116.951 68.3904 116.939 68.3904 116.926V99.9007ZM93.7486 99.9336L93.8075 116.925C93.8075 116.936 93.8119 116.946 93.8197 116.954C93.8275 116.962 93.8381 116.966 93.8492 116.966L99.3892 116.947C101.651 116.939 103.817 116.092 105.412 114.591C107.006 113.091 107.897 111.06 107.89 108.946L107.886 107.815C107.883 106.769 107.659 105.733 107.227 104.767C106.795 103.801 106.163 102.924 105.369 102.187C104.574 101.449 103.632 100.865 102.596 100.468C101.56 100.071 100.45 99.869 99.3302 99.8729L93.7902 99.892C93.7792 99.892 93.7686 99.8964 93.7608 99.9042C93.753 99.912 93.7486 99.9226 93.7486 99.9336ZM115.091 108.356C115.091 108.348 115.092 108.34 115.095 108.333C115.098 108.326 115.103 108.319 115.108 108.313C115.114 108.308 115.121 108.303 115.128 108.3C115.135 108.297 115.143 108.296 115.151 108.296H120.195C120.212 108.296 120.227 108.289 120.238 108.278C120.25 108.266 120.256 108.251 120.256 108.235L120.258 106.37C120.258 106.354 120.251 106.338 120.24 106.327C120.229 106.316 120.213 106.309 120.197 106.309H115.153C115.137 106.309 115.121 106.303 115.11 106.291C115.099 106.28 115.092 106.265 115.092 106.248L115.091 101.913C115.091 101.897 115.097 101.882 115.108 101.87C115.12 101.859 115.135 101.852 115.151 101.852L123.473 101.854C123.481 101.854 123.489 101.853 123.497 101.85C123.504 101.847 123.511 101.842 123.516 101.836C123.522 101.831 123.526 101.824 123.529 101.817C123.532 101.809 123.534 101.802 123.534 101.794L123.536 99.9145C123.536 99.9066 123.534 99.8987 123.531 99.8913C123.528 99.8839 123.524 99.8773 123.518 99.8716C123.512 99.866 123.506 99.8615 123.498 99.8585C123.491 99.8554 123.483 99.8539 123.475 99.8539L113.029 99.8556C113.013 99.8556 112.998 99.862 112.987 99.8734C112.975 99.8847 112.969 99.9002 112.969 99.9163L112.967 116.912C112.967 116.92 112.969 116.928 112.972 116.936C112.975 116.943 112.979 116.95 112.985 116.955C112.99 116.961 112.997 116.965 113.005 116.969C113.012 116.972 113.02 116.973 113.028 116.973H123.614C123.63 116.973 123.645 116.967 123.657 116.955C123.668 116.944 123.674 116.929 123.674 116.912V115.037C123.674 115.021 123.668 115.005 123.657 114.994C123.645 114.983 123.63 114.976 123.614 114.976H115.151C115.143 114.976 115.135 114.975 115.128 114.972C115.121 114.969 115.114 114.964 115.108 114.958C115.103 114.953 115.098 114.946 115.095 114.939C115.092 114.931 115.091 114.924 115.091 114.916V108.356ZM146.013 108.296C146.005 108.304 145.994 108.311 145.983 108.313C145.971 108.316 145.959 108.315 145.948 108.31C145.936 108.306 145.927 108.298 145.92 108.288C145.914 108.278 145.91 108.266 145.911 108.254L145.913 99.9145C145.913 99.8989 145.906 99.8839 145.895 99.8729C145.884 99.8618 145.869 99.8556 145.854 99.8556H143.85C143.834 99.8556 143.819 99.8618 143.808 99.8729C143.797 99.8839 143.791 99.8989 143.791 99.9145V116.914C143.791 116.93 143.797 116.945 143.808 116.956C143.819 116.967 143.834 116.973 143.85 116.973L145.854 116.975C145.869 116.975 145.884 116.969 145.895 116.958C145.906 116.947 145.913 116.932 145.913 116.916V111.04C145.913 111.024 145.919 111.009 145.93 110.998L149.383 107.505C149.389 107.499 149.398 107.494 149.406 107.491C149.415 107.488 149.424 107.488 149.434 107.489C149.443 107.491 149.451 107.494 149.459 107.5C149.466 107.505 149.472 107.513 149.476 107.521L154.334 116.942C154.339 116.951 154.346 116.959 154.355 116.965C154.364 116.97 154.375 116.973 154.386 116.973H156.675C156.686 116.973 156.696 116.971 156.704 116.965C156.713 116.96 156.721 116.953 156.726 116.945C156.731 116.936 156.734 116.926 156.734 116.916C156.735 116.906 156.732 116.895 156.727 116.886L151.016 105.952C151.01 105.941 151.008 105.929 151.01 105.917C151.012 105.904 151.018 105.893 151.026 105.884L156.608 99.9527C156.615 99.9442 156.621 99.9338 156.622 99.9225C156.624 99.9112 156.623 99.8996 156.618 99.8891C156.614 99.8786 156.606 99.8697 156.597 99.8635C156.587 99.8572 156.576 99.8539 156.564 99.8539H154.013C154.005 99.8539 153.997 99.8556 153.989 99.8589C153.982 99.8621 153.975 99.8669 153.969 99.8729L146.013 108.296ZM41.3819 130.196C40.4372 130.197 39.6138 129.516 39.6069 128.533C39.5988 127.308 39.5965 126.082 39.5999 124.853C39.5999 124.793 39.5699 124.763 39.5098 124.763L39.04 124.765C38.9846 124.765 38.9563 124.793 38.9551 124.85C38.9435 126.052 38.9447 127.249 38.9586 128.441C38.9811 130.373 40.6504 131.151 42.3179 130.707C43.3649 130.43 43.963 129.638 44.0028 128.575C44.0329 127.754 44.0352 126.511 44.0098 124.845C44.0086 124.79 43.9815 124.763 43.9283 124.763L43.4603 124.765C43.4013 124.765 43.3719 124.794 43.3719 124.853C43.3776 125.938 43.3875 127.019 43.4013 128.095C43.421 129.493 42.7478 130.193 41.3819 130.196ZM48.8373 128.313C49.785 128.021 50.2345 127.418 50.186 126.504C50.1392 125.619 49.6573 124.897 48.7385 124.803C48.1318 124.742 47.0849 124.735 45.5976 124.782C45.549 124.783 45.5248 124.808 45.5248 124.857V130.622C45.5248 130.695 45.5612 130.731 45.634 130.731L46.0483 130.73C46.1199 130.73 46.1557 130.694 46.1557 130.622L46.1575 128.455C46.1575 128.384 46.1933 128.348 46.265 128.348L47.936 128.344C47.9647 128.344 47.993 128.352 48.0185 128.366C48.0439 128.38 48.0656 128.4 48.0816 128.424L49.522 130.645C49.5381 130.67 49.5601 130.691 49.5861 130.705C49.6121 130.72 49.6413 130.727 49.6711 130.728L50.2657 130.73C50.3292 130.731 50.3431 130.705 50.3073 130.652L48.7975 128.426C48.7605 128.37 48.7738 128.333 48.8373 128.313ZM55.2944 127.637C56.0282 127.114 56.2252 126.459 55.8855 125.673C55.6809 125.2 55.1643 124.852 54.679 124.805C54.0342 124.745 53.0322 124.737 51.6732 124.78C51.6247 124.783 51.6004 124.808 51.6004 124.855V130.65C51.6004 130.697 51.6241 130.722 51.6715 130.723C52.7688 130.737 54.6877 130.905 55.5301 130.43C56.5337 129.863 56.5164 128.145 55.3065 127.724C55.2464 127.703 55.2423 127.674 55.2944 127.637ZM58.2949 129.369L61.5867 129.367C61.6595 129.367 61.7103 129.4 61.7392 129.466L62.2766 130.65C62.2985 130.698 62.3361 130.723 62.3893 130.723L62.9162 130.73C62.9971 130.731 63.0202 130.695 62.9856 130.622L60.3681 124.98C60.3315 124.901 60.2731 124.834 60.1999 124.788C60.1266 124.741 60.0415 124.716 59.9547 124.716C59.8678 124.716 59.7827 124.741 59.7095 124.788C59.6362 124.834 59.5779 124.901 59.5412 124.98L56.9168 130.634C56.8891 130.693 56.9082 130.723 56.974 130.724L57.4559 130.731C57.4879 130.732 57.5193 130.723 57.5464 130.706C57.5735 130.688 57.595 130.664 57.6085 130.634L58.1441 129.466C58.173 129.401 58.2233 129.369 58.2949 129.369ZM64.7692 124.831C64.7692 124.813 64.7623 124.797 64.75 124.784C64.7376 124.772 64.7208 124.765 64.7034 124.765H64.1833C64.1659 124.765 64.1491 124.772 64.1368 124.784C64.1244 124.797 64.1175 124.813 64.1175 124.831V130.662C64.1175 130.679 64.1244 130.696 64.1368 130.709C64.1491 130.721 64.1659 130.728 64.1833 130.728H64.7034C64.7208 130.728 64.7376 130.721 64.75 130.709C64.7623 130.696 64.7692 130.679 64.7692 130.662V124.831ZM67.0071 130.726C67.0223 130.726 67.0368 130.72 67.0475 130.709C67.0583 130.699 67.0643 130.684 67.0643 130.669V125.58C67.0643 125.567 67.0682 125.556 67.0753 125.546C67.0825 125.536 67.0926 125.529 67.1042 125.525C67.1158 125.521 67.1283 125.521 67.1398 125.525C67.1513 125.529 67.1613 125.537 67.1683 125.547L70.7669 130.704C70.7722 130.711 70.7792 130.717 70.7873 130.721C70.7955 130.726 70.8045 130.728 70.8137 130.728L71.5331 130.721C71.5482 130.721 71.5628 130.715 71.5735 130.704C71.5842 130.693 71.5903 130.679 71.5903 130.664V124.82C71.5903 124.805 71.5842 124.791 71.5735 124.78C71.5628 124.769 71.5482 124.763 71.5331 124.763L71.0148 124.765C70.9996 124.765 70.985 124.771 70.9743 124.782C70.9636 124.792 70.9576 124.807 70.9576 124.822L70.9558 129.703C70.9558 129.716 70.952 129.727 70.9448 129.737C70.9376 129.747 70.9275 129.754 70.9159 129.758C70.9043 129.762 70.8918 129.762 70.8803 129.758C70.8688 129.754 70.8588 129.746 70.8518 129.736L67.378 124.789C67.3728 124.782 67.3658 124.776 67.3576 124.771C67.3495 124.767 67.3404 124.765 67.3312 124.765L66.4697 124.763C66.4546 124.763 66.44 124.769 66.4293 124.78C66.4186 124.791 66.4125 124.805 66.4125 124.82L66.4108 130.669C66.4108 130.684 66.4168 130.699 66.4276 130.709C66.4383 130.72 66.4528 130.726 66.468 130.726H67.0071ZM76.1422 128.436C77.5827 128.436 80.0754 128.811 80.0199 126.611C79.9956 125.706 79.5484 124.917 78.5968 124.808C77.997 124.738 76.9523 124.73 75.4627 124.786C75.4165 124.787 75.3934 124.811 75.3934 124.857V130.627C75.3934 130.694 75.4275 130.728 75.4957 130.728H75.9446C76.0117 130.728 76.0452 130.694 76.0452 130.627V128.533C76.0452 128.469 76.0775 128.436 76.1422 128.436ZM81.2576 129.367H84.5511C84.6216 129.367 84.6713 129.399 84.7001 129.464L85.2323 130.631C85.2624 130.696 85.312 130.728 85.3814 130.728L85.8702 130.73C85.9546 130.73 85.9788 130.691 85.943 130.615L83.3307 124.98C83.2943 124.901 83.236 124.833 83.1625 124.786C83.0891 124.739 83.0037 124.714 82.9165 124.714C82.8292 124.714 82.7438 124.739 82.6704 124.786C82.597 124.833 82.5386 124.901 82.5022 124.98L79.8864 130.617C79.8506 130.693 79.8743 130.731 79.9575 130.73L80.4377 130.724C80.5001 130.724 80.544 130.696 80.5694 130.639L81.1033 129.466C81.1333 129.4 81.1848 129.367 81.2576 129.367ZM87.8342 128.35L89.4983 128.343C89.5274 128.343 89.5562 128.35 89.582 128.364C89.6077 128.379 89.6296 128.399 89.6456 128.424L91.0722 130.622C91.1161 130.69 91.1785 130.725 91.2594 130.726L91.7829 130.731C91.8823 130.732 91.9043 130.693 91.8488 130.612L90.3667 128.431C90.3274 128.374 90.3407 128.336 90.4066 128.315C91.3241 128.03 91.7737 127.445 91.7552 126.561C91.7361 125.677 91.2612 124.912 90.3424 124.806C89.7508 124.738 88.6911 124.731 87.1633 124.784C87.116 124.786 87.0923 124.811 87.0923 124.857V130.624C87.0923 130.69 87.1258 130.723 87.1928 130.724L87.6383 130.73C87.7042 130.731 87.7371 130.698 87.7371 130.633V128.445C87.7371 128.381 87.7695 128.35 87.8342 128.35ZM99.8485 129.691C99.8485 129.703 99.8447 129.715 99.8375 129.725C99.8303 129.735 99.8202 129.742 99.8086 129.746C99.797 129.75 99.7845 129.749 99.773 129.746C99.7615 129.742 99.7515 129.734 99.7445 129.724L96.2777 124.787C96.2724 124.78 96.2654 124.774 96.2572 124.77C96.2491 124.765 96.2401 124.763 96.2309 124.763H95.378C95.3629 124.763 95.3483 124.769 95.3376 124.78C95.3269 124.791 95.3208 124.805 95.3208 124.82L95.3191 130.665C95.3191 130.681 95.3251 130.695 95.3359 130.706C95.3466 130.717 95.3611 130.723 95.3763 130.723L95.8981 130.73C95.9132 130.73 95.9278 130.724 95.9385 130.713C95.9492 130.702 95.9553 130.688 95.9553 130.672L95.9501 125.561C95.9501 125.548 95.9539 125.537 95.9611 125.527C95.9683 125.517 95.9784 125.51 95.99 125.506C96.0016 125.502 96.0141 125.502 96.0256 125.506C96.0371 125.51 96.0471 125.518 96.0541 125.528L99.67 130.705C99.6753 130.713 99.6823 130.719 99.6904 130.723C99.6986 130.727 99.7076 130.73 99.7168 130.73L100.429 130.726C100.444 130.726 100.459 130.72 100.47 130.709C100.48 130.699 100.486 130.684 100.486 130.669V124.82C100.486 124.805 100.48 124.791 100.47 124.78C100.459 124.769 100.444 124.763 100.429 124.763H99.9023C99.8871 124.763 99.8726 124.769 99.8618 124.78C99.8511 124.791 99.8451 124.805 99.8451 124.82L99.8485 129.691ZM106.441 129.466L106.969 130.629C106.997 130.69 107.045 130.722 107.113 130.723L107.621 130.731C107.7 130.732 107.722 130.697 107.689 130.626L105.068 124.978C105.032 124.899 104.973 124.832 104.9 124.786C104.827 124.739 104.742 124.714 104.655 124.714C104.568 124.714 104.483 124.739 104.41 124.786C104.337 124.832 104.279 124.899 104.243 124.978L101.617 130.636C101.588 130.701 101.609 130.733 101.679 130.733L102.182 130.731C102.238 130.731 102.279 130.705 102.303 130.653L102.847 129.464C102.876 129.401 102.925 129.369 102.995 129.369L106.286 129.367C106.359 129.367 106.411 129.4 106.441 129.466ZM109.512 125.353C109.529 125.353 109.545 125.359 109.557 125.371C109.568 125.382 109.575 125.398 109.575 125.415V130.662C109.575 130.679 109.581 130.694 109.593 130.706C109.605 130.718 109.621 130.724 109.637 130.724L110.175 130.728C110.191 130.728 110.207 130.721 110.219 130.71C110.23 130.698 110.237 130.682 110.237 130.665V125.411C110.237 125.395 110.244 125.379 110.255 125.367C110.267 125.356 110.283 125.349 110.299 125.349L112.206 125.356C112.223 125.356 112.239 125.349 112.25 125.338C112.262 125.326 112.269 125.31 112.269 125.294L112.267 124.826C112.267 124.809 112.26 124.793 112.249 124.781C112.237 124.77 112.221 124.763 112.204 124.763H107.592C107.575 124.763 107.559 124.77 107.548 124.781C107.536 124.793 107.529 124.809 107.529 124.826V125.292C107.529 125.308 107.536 125.324 107.548 125.336C107.559 125.348 107.575 125.354 107.592 125.354L109.512 125.353ZM117.679 128.324C117.665 129.469 116.987 130.239 115.78 130.206C114.21 130.165 113.933 129.228 113.919 127.807C113.908 126.824 113.908 125.838 113.917 124.852C113.918 124.793 113.889 124.763 113.83 124.763L113.361 124.765C113.302 124.765 113.272 124.794 113.272 124.852C113.265 125.964 113.257 127.076 113.248 128.185C113.234 129.896 114.079 130.769 115.782 130.804C116.959 130.828 117.726 130.407 118.084 129.54C118.239 129.166 118.316 128.399 118.316 127.24C118.315 126.449 118.314 125.656 118.313 124.864C118.313 124.797 118.279 124.763 118.212 124.763L117.779 124.765C117.717 124.765 117.686 124.796 117.687 124.857C117.695 126.014 117.692 127.169 117.679 128.324ZM120.559 128.35L122.241 128.344C122.307 128.343 122.358 128.37 122.393 128.426L123.829 130.643C123.862 130.695 123.911 130.722 123.974 130.723L124.531 130.733C124.629 130.735 124.65 130.696 124.595 130.613L123.099 128.414C123.061 128.357 123.074 128.321 123.139 128.305C124.108 128.053 124.554 127.407 124.475 126.367C124.406 125.441 123.949 124.923 123.104 124.812C122.496 124.731 121.424 124.724 119.887 124.791C119.843 124.792 119.821 124.815 119.821 124.858V130.629C119.821 130.693 119.853 130.724 119.916 130.724L120.367 130.728C120.439 130.729 120.475 130.694 120.475 130.624L120.471 128.438C120.471 128.38 120.501 128.351 120.559 128.35ZM126.632 130.135C126.615 130.135 126.598 130.128 126.586 130.116C126.574 130.104 126.568 130.088 126.568 130.071L126.564 128.064C126.564 128.047 126.571 128.03 126.583 128.018C126.595 128.006 126.611 127.999 126.628 127.999H129.504C129.521 127.999 129.537 127.993 129.549 127.981C129.561 127.969 129.568 127.952 129.568 127.935L129.57 127.471C129.57 127.454 129.563 127.437 129.551 127.425C129.539 127.413 129.523 127.407 129.506 127.407H126.626C126.609 127.407 126.593 127.4 126.581 127.388C126.569 127.376 126.562 127.359 126.562 127.342L126.569 125.417C126.569 125.4 126.576 125.383 126.588 125.371C126.6 125.359 126.616 125.353 126.633 125.353L130.151 125.356C130.168 125.356 130.184 125.349 130.196 125.337C130.208 125.325 130.215 125.309 130.215 125.292V124.827C130.215 124.81 130.208 124.794 130.196 124.782C130.184 124.77 130.168 124.763 130.151 124.763H125.971C125.954 124.763 125.938 124.77 125.926 124.782C125.914 124.794 125.907 124.81 125.907 124.827L125.909 130.66C125.909 130.677 125.916 130.694 125.928 130.706C125.94 130.718 125.956 130.724 125.973 130.724L130.149 130.726C130.166 130.726 130.182 130.719 130.194 130.707C130.206 130.695 130.213 130.679 130.213 130.662L130.215 130.199C130.215 130.182 130.208 130.166 130.196 130.154C130.184 130.142 130.168 130.135 130.151 130.135H126.632Z" fill="#B92727"/>
<path d="M103.476 38.0289L104.411 38.0271C104.43 38.0271 104.448 38.0348 104.462 38.0484C104.476 38.0621 104.483 38.0806 104.483 38.0999L104.485 44.3611C104.485 44.3708 104.483 44.3804 104.479 44.3893C104.475 44.3983 104.47 44.4063 104.463 44.4131L84.6322 62.822C84.6186 62.8349 84.6006 62.8422 84.5819 62.8422C84.5632 62.8422 84.5452 62.8349 84.5316 62.822L64.7012 44.4131C64.6942 44.4063 64.6886 44.3983 64.6847 44.3893C64.6808 44.3804 64.6788 44.3708 64.6787 44.3611V38.0982C64.6787 38.0789 64.6864 38.0604 64.7 38.0467C64.7137 38.0331 64.7322 38.0254 64.7515 38.0254L65.6876 38.0289C65.7055 38.029 65.7228 38.0358 65.7361 38.0479L84.5333 55.1741C84.5467 55.1861 84.564 55.1927 84.5819 55.1927C84.5998 55.1927 84.6171 55.1861 84.6304 55.1741L103.428 38.0479C103.441 38.0358 103.458 38.029 103.476 38.0289Z" fill="#EDEDED"/>
<path d="M70.6816 55.0413V81.1882C70.6816 81.2039 70.6753 81.2189 70.6643 81.2299C70.6532 81.241 70.6383 81.2472 70.6226 81.2472H64.7376C64.722 81.2472 64.707 81.241 64.696 81.2299C64.6849 81.2189 64.6787 81.2039 64.6787 81.1882V49.5706C64.6787 49.5591 64.6821 49.548 64.6883 49.5384C64.6946 49.5288 64.7035 49.5213 64.714 49.5167C64.7244 49.5121 64.736 49.5106 64.7473 49.5125C64.7586 49.5144 64.7691 49.5195 64.7775 49.5273L70.6625 54.9979C70.6685 55.0034 70.6733 55.0101 70.6766 55.0176C70.6799 55.0251 70.6815 55.0331 70.6816 55.0413Z" fill="#EDEDED"/>
<path d="M104.483 49.5698V81.191C104.483 81.2061 104.477 81.2207 104.467 81.2314C104.456 81.2421 104.441 81.2482 104.426 81.2482H98.5377C98.5302 81.2482 98.5227 81.2467 98.5158 81.2438C98.5088 81.2409 98.5025 81.2367 98.4972 81.2314C98.4919 81.2261 98.4877 81.2198 98.4848 81.2129C98.482 81.2059 98.4805 81.1985 98.4805 81.191V55.0423C98.4806 55.0344 98.4824 55.0266 98.4857 55.0195C98.4889 55.0123 98.4937 55.0059 98.4995 55.0007L104.388 49.5282C104.396 49.5209 104.406 49.5161 104.417 49.5144C104.428 49.5127 104.439 49.5141 104.449 49.5184C104.459 49.5228 104.468 49.53 104.474 49.5391C104.48 49.5482 104.483 49.5589 104.483 49.5698Z" fill="#EDEDED"/>
<path d="M40.0018 94.1947L42.4147 94.1895C42.4245 94.1892 42.4342 94.1916 42.4427 94.1966C42.4512 94.2015 42.4581 94.2087 42.4626 94.2174C42.4671 94.2261 42.4691 94.2359 42.4683 94.2457C42.4675 94.2555 42.464 94.2648 42.4581 94.2727L39.513 98.3497C39.5081 98.3562 39.5018 98.3614 39.4946 98.365C39.4874 98.3686 39.4794 98.3705 39.4714 98.3705H37.9997C37.9909 98.3705 37.9823 98.3683 37.9746 98.364C37.9669 98.3597 37.9604 98.3536 37.9557 98.3462C37.951 98.3387 37.9483 98.3302 37.9478 98.3214C37.9473 98.3126 37.9491 98.3039 37.9529 98.296L39.955 94.2242C39.9592 94.2153 39.9659 94.2079 39.9742 94.2027C39.9824 94.1975 39.992 94.1947 40.0018 94.1947Z" fill="#EDEDED"/>
<path d="M85.5756 113.402L76.6623 113.4C76.5988 113.4 76.5526 113.429 76.5237 113.487L74.8682 116.893C74.8417 116.949 74.7972 116.976 74.7348 116.975L72.5819 116.968C72.516 116.968 72.4975 116.938 72.5264 116.879L80.9526 99.6386C80.9714 99.5986 81.0043 99.5675 81.0444 99.552C81.1473 99.5127 81.227 99.5514 81.2837 99.6681C84.0779 105.403 86.8711 111.139 89.663 116.876C89.6931 116.938 89.6734 116.969 89.6041 116.969L87.4078 116.971C87.3431 116.971 87.2975 116.942 87.2709 116.883L85.6848 113.471C85.6629 113.425 85.6265 113.402 85.5756 113.402ZM77.5447 111.36C77.5396 111.37 77.5372 111.382 77.5378 111.393C77.5384 111.404 77.5419 111.415 77.548 111.425C77.5541 111.434 77.5626 111.442 77.5726 111.448C77.5827 111.453 77.5939 111.456 77.6053 111.455L84.6032 111.441C84.6143 111.442 84.6253 111.439 84.6351 111.434C84.645 111.428 84.6533 111.421 84.6594 111.411C84.6654 111.402 84.669 111.391 84.6698 111.38C84.6706 111.369 84.6685 111.358 84.6638 111.348L81.1502 103.875C81.1447 103.864 81.1363 103.855 81.1259 103.849C81.1155 103.842 81.1035 103.839 81.0912 103.839C81.079 103.839 81.067 103.842 81.0566 103.849C81.0462 103.855 81.0378 103.864 81.0323 103.875L77.5447 111.36Z" fill="#EDEDED"/>
<path d="M14.5089 104.082V116.881C14.5089 116.942 14.4783 116.973 14.417 116.973H12.4773C12.4173 116.973 12.3872 116.942 12.3872 116.881V99.6787C12.3875 99.6561 12.3943 99.6342 12.4067 99.6154C12.4192 99.5965 12.4368 99.5817 12.4574 99.5726C12.478 99.5635 12.5008 99.5604 12.5231 99.5639C12.5454 99.5673 12.5662 99.5771 12.5831 99.592L20.3194 106.64C20.3725 106.687 20.4251 106.687 20.4771 106.638L28.0643 99.6145C28.0846 99.5962 28.1098 99.5841 28.1368 99.5797C28.1638 99.5753 28.1916 99.5788 28.2167 99.5898C28.2417 99.6007 28.2631 99.6187 28.2782 99.6416C28.2933 99.6644 28.3015 99.6912 28.3018 99.7186V116.876C28.3018 116.942 28.2688 116.975 28.203 116.975L26.2615 116.971C26.2049 116.971 26.1766 116.942 26.1766 116.885L26.1749 104.009C26.1749 104 26.1724 103.991 26.1676 103.984C26.1627 103.976 26.1558 103.971 26.1477 103.967C26.1395 103.963 26.1305 103.962 26.1218 103.964C26.1131 103.966 26.105 103.97 26.0986 103.976L20.4216 109.386C20.3719 109.433 20.3228 109.433 20.2743 109.386L14.6285 104.031C14.5488 103.956 14.5089 103.973 14.5089 104.082Z" fill="#EDEDED"/>
<path d="M129.489 109.711C130.317 114.031 134.822 115.646 138.705 114.908C138.762 114.896 138.79 114.92 138.79 114.979L138.788 116.867C138.788 116.927 138.758 116.962 138.698 116.971C132.189 117.971 126.46 114.156 127.207 107.135C127.805 101.517 133.573 99.113 138.549 99.8532C138.619 99.8636 138.653 99.9035 138.653 99.9728L138.657 101.836C138.657 101.848 138.654 101.861 138.649 101.872C138.644 101.883 138.637 101.893 138.627 101.901C138.618 101.909 138.607 101.914 138.595 101.918C138.583 101.921 138.57 101.921 138.558 101.919C133.567 101.065 128.381 103.942 129.489 109.711Z" fill="#EDEDED"/>
<path d="M36.3741 106.309H41.4131C41.4301 106.309 41.4464 106.316 41.4585 106.328C41.4705 106.34 41.4773 106.356 41.4773 106.373L41.4755 108.231C41.4755 108.24 41.4739 108.248 41.4706 108.256C41.4674 108.263 41.4627 108.271 41.4567 108.277C41.4508 108.282 41.4437 108.287 41.4359 108.29C41.4281 108.294 41.4198 108.295 41.4114 108.295H36.3741C36.357 108.295 36.3407 108.302 36.3287 108.314C36.3167 108.326 36.3099 108.342 36.3099 108.359V114.912C36.3099 114.929 36.3167 114.945 36.3287 114.957C36.3407 114.969 36.357 114.976 36.3741 114.976H44.8453C44.8623 114.976 44.8786 114.983 44.8907 114.995C44.9027 115.007 44.9094 115.023 44.9094 115.04L44.9112 116.909C44.9112 116.926 44.9044 116.942 44.8924 116.954C44.8804 116.966 44.864 116.973 44.847 116.973H34.2541C34.2371 116.973 34.2208 116.966 34.2087 116.954C34.1967 116.942 34.1899 116.926 34.1899 116.909V99.9194C34.1899 99.9024 34.1967 99.8861 34.2087 99.874C34.2208 99.862 34.2371 99.8553 34.2541 99.8553L44.691 99.8535C44.708 99.8535 44.7243 99.8603 44.7364 99.8723C44.7484 99.8843 44.7552 99.9006 44.7552 99.9177L44.7569 101.79C44.7569 101.807 44.7501 101.823 44.7381 101.835C44.7261 101.847 44.7098 101.854 44.6928 101.854H36.3741C36.357 101.854 36.3407 101.861 36.3287 101.873C36.3167 101.885 36.3099 101.901 36.3099 101.918V106.245C36.3099 106.262 36.3167 106.278 36.3287 106.29C36.3407 106.302 36.357 106.309 36.3741 106.309Z" fill="#EDEDED"/>
<path d="M51.777 110.858V116.883C51.777 116.895 51.7745 116.907 51.7698 116.918C51.7651 116.93 51.7582 116.94 51.7495 116.949C51.7407 116.957 51.7304 116.964 51.7191 116.968C51.7077 116.973 51.6956 116.975 51.6834 116.975L49.7454 116.971C49.6853 116.971 49.6553 116.941 49.6553 116.881V99.93C49.6553 99.9098 49.6631 99.8904 49.6771 99.8761C49.6911 99.8618 49.71 99.8538 49.7298 99.8538C51.5753 99.8526 53.4278 99.8555 55.2872 99.8624C57.9688 99.8746 60.6764 100.838 60.8896 103.891C61.0352 105.948 60.0939 107.654 58.2652 108.602C58.2396 108.615 58.2198 108.638 58.2099 108.665C58.1999 108.692 58.2005 108.721 58.2114 108.748L61.5518 116.857C61.5841 116.933 61.5587 116.971 61.4755 116.971L59.3347 116.973C59.2792 116.973 59.2417 116.948 59.222 116.897L56.3376 109.554C56.3145 109.495 56.2729 109.474 56.2128 109.492L51.8567 110.752C51.8337 110.758 51.8134 110.772 51.799 110.791C51.7846 110.81 51.7769 110.834 51.777 110.858ZM56.6878 107.236C58.5963 106.462 59.5965 103.9 57.8232 102.541C57.1177 102 56.1365 101.823 55.2404 101.813C54.1379 101.801 53.0198 101.801 51.8862 101.813C51.8134 101.813 51.777 101.849 51.777 101.922V108.601C51.777 108.67 51.8105 108.698 51.8775 108.684C53.5335 108.349 55.1369 107.866 56.6878 107.236Z" fill="#EDEDED"/>
<path d="M68.3434 99.8535H66.3222C66.2963 99.8535 66.2754 99.8745 66.2754 99.9003V116.926C66.2754 116.952 66.2963 116.973 66.3222 116.973H68.3434C68.3692 116.973 68.3902 116.952 68.3902 116.926V99.9003C68.3902 99.8745 68.3692 99.8535 68.3434 99.8535Z" fill="#EDEDED"/>
<path d="M93.7485 99.9338C93.7485 99.9227 93.7529 99.9122 93.7607 99.9044C93.7685 99.8966 93.7791 99.8922 93.7901 99.8922L99.3302 99.8731C100.45 99.8692 101.56 100.072 102.596 100.469C103.632 100.866 104.574 101.45 105.369 102.187C106.163 102.925 106.795 103.801 107.227 104.767C107.659 105.733 107.883 106.769 107.886 107.816L107.89 108.946C107.897 111.06 107.006 113.091 105.411 114.591C103.817 116.092 101.651 116.939 99.3891 116.947L93.8491 116.966C93.838 116.966 93.8275 116.962 93.8197 116.954C93.8119 116.946 93.8075 116.936 93.8075 116.925L93.7485 99.9338ZM95.8806 101.95L95.9257 114.898C95.9257 114.918 95.9334 114.936 95.947 114.95C95.9607 114.964 95.9792 114.971 95.9985 114.971L99.2036 114.959C100.057 114.956 100.902 114.792 101.689 114.476C102.477 114.16 103.192 113.698 103.793 113.116C104.395 112.535 104.871 111.845 105.195 111.087C105.519 110.329 105.684 109.517 105.681 108.698L105.678 108.081C105.672 106.426 104.982 104.842 103.76 103.676C102.537 102.511 100.882 101.859 99.1586 101.865L95.9534 101.877C95.9341 101.877 95.9156 101.885 95.902 101.898C95.8883 101.912 95.8806 101.93 95.8806 101.95Z" fill="#EDEDED"/>
<path d="M115.091 108.356V114.915C115.091 114.923 115.092 114.931 115.095 114.938C115.098 114.946 115.103 114.953 115.109 114.958C115.114 114.964 115.121 114.968 115.128 114.971C115.136 114.974 115.143 114.976 115.151 114.976H123.614C123.63 114.976 123.645 114.982 123.657 114.994C123.668 115.005 123.675 115.02 123.675 115.037V116.912C123.675 116.928 123.668 116.944 123.657 116.955C123.645 116.966 123.63 116.973 123.614 116.973H113.028C113.02 116.973 113.012 116.971 113.005 116.968C112.997 116.965 112.991 116.961 112.985 116.955C112.979 116.949 112.975 116.943 112.972 116.935C112.969 116.928 112.967 116.92 112.967 116.912L112.969 99.9159C112.969 99.8998 112.975 99.8844 112.987 99.873C112.998 99.8616 113.014 99.8553 113.03 99.8553L123.475 99.8535C123.483 99.8535 123.491 99.8551 123.499 99.8581C123.506 99.8612 123.513 99.8657 123.518 99.8713C123.524 99.8769 123.528 99.8836 123.531 99.891C123.534 99.8983 123.536 99.9062 123.536 99.9142L123.534 101.793C123.534 101.801 123.533 101.809 123.53 101.816C123.527 101.824 123.522 101.83 123.516 101.836C123.511 101.842 123.504 101.846 123.497 101.849C123.489 101.852 123.482 101.854 123.474 101.854L115.151 101.852C115.135 101.852 115.12 101.859 115.109 101.87C115.097 101.881 115.091 101.897 115.091 101.913L115.092 106.248C115.092 106.264 115.099 106.28 115.11 106.291C115.122 106.302 115.137 106.309 115.153 106.309H120.197C120.213 106.309 120.229 106.315 120.24 106.327C120.252 106.338 120.258 106.353 120.258 106.369L120.256 108.235C120.256 108.251 120.25 108.266 120.239 108.278C120.227 108.289 120.212 108.295 120.196 108.295H115.151C115.143 108.295 115.136 108.297 115.128 108.3C115.121 108.303 115.114 108.307 115.109 108.313C115.103 108.319 115.098 108.325 115.095 108.333C115.092 108.34 115.091 108.348 115.091 108.356Z" fill="#EDEDED"/>
<path d="M146.013 108.295L153.97 99.8726C153.975 99.8666 153.982 99.8618 153.989 99.8585C153.997 99.8552 154.005 99.8535 154.013 99.8535H156.565C156.576 99.8535 156.587 99.8569 156.597 99.8631C156.606 99.8694 156.614 99.8783 156.619 99.8888C156.623 99.8993 156.625 99.9108 156.623 99.9221C156.621 99.9334 156.616 99.9439 156.608 99.9523L151.026 105.884C151.018 105.893 151.012 105.904 151.01 105.916C151.008 105.928 151.01 105.941 151.016 105.952L156.728 116.886C156.732 116.895 156.735 116.905 156.734 116.915C156.734 116.926 156.731 116.935 156.726 116.944C156.721 116.953 156.713 116.96 156.705 116.965C156.696 116.97 156.686 116.973 156.676 116.973H154.386C154.375 116.973 154.365 116.97 154.355 116.964C154.346 116.959 154.339 116.951 154.334 116.942L149.477 107.52C149.472 107.512 149.466 107.505 149.459 107.5C149.452 107.494 149.443 107.491 149.434 107.489C149.425 107.487 149.415 107.488 149.407 107.491C149.398 107.494 149.39 107.498 149.383 107.505L145.93 110.998C145.919 111.009 145.913 111.024 145.913 111.039V116.916C145.913 116.931 145.907 116.946 145.895 116.957C145.884 116.968 145.869 116.975 145.854 116.975L143.85 116.973C143.834 116.973 143.819 116.967 143.808 116.956C143.797 116.944 143.791 116.929 143.791 116.914V99.9142C143.791 99.8986 143.797 99.8836 143.808 99.8725C143.819 99.8615 143.834 99.8553 143.85 99.8553H145.854C145.869 99.8553 145.884 99.8615 145.895 99.8725C145.907 99.8836 145.913 99.8986 145.913 99.9142L145.911 108.254C145.911 108.266 145.914 108.278 145.921 108.288C145.927 108.298 145.937 108.305 145.948 108.31C145.959 108.314 145.971 108.316 145.983 108.313C145.994 108.31 146.005 108.304 146.013 108.295Z" fill="#EDEDED"/>
<path d="M56.6876 107.235C55.1368 107.865 53.5334 108.348 51.8774 108.683C51.8104 108.697 51.7769 108.669 51.7769 108.599V101.921C51.7769 101.848 51.8133 101.811 51.8861 101.811C53.0197 101.8 54.1378 101.8 55.2402 101.811C56.1364 101.822 57.1175 101.999 57.823 102.539C59.5963 103.898 58.5961 106.46 56.6876 107.235Z" fill="#B92727"/>
<path d="M95.8804 101.95C95.8804 101.931 95.888 101.912 95.9017 101.899C95.9154 101.885 95.9339 101.877 95.9532 101.877L99.1583 101.865C100.882 101.859 102.537 102.511 103.759 103.677C104.982 104.843 105.672 106.427 105.678 108.081L105.681 108.698C105.684 109.518 105.519 110.33 105.195 111.088C104.871 111.846 104.394 112.535 103.793 113.117C103.191 113.698 102.476 114.16 101.689 114.476C100.901 114.792 100.057 114.957 99.2033 114.96L95.9982 114.972C95.9789 114.972 95.9604 114.964 95.9468 114.95C95.9331 114.937 95.9254 114.918 95.9254 114.899L95.8804 101.95Z" fill="#B92727"/>
<path d="M77.5441 111.363L81.0317 103.878C81.0372 103.867 81.0456 103.858 81.056 103.852C81.0664 103.845 81.0784 103.842 81.0907 103.842C81.1029 103.842 81.1149 103.845 81.1253 103.852C81.1357 103.858 81.1441 103.867 81.1496 103.878L84.6633 111.351C84.6679 111.361 84.67 111.372 84.6692 111.383C84.6684 111.395 84.6648 111.405 84.6588 111.415C84.6527 111.424 84.6444 111.432 84.6346 111.437C84.6247 111.442 84.6137 111.445 84.6026 111.445L77.6047 111.459C77.5934 111.459 77.5821 111.456 77.5721 111.451C77.562 111.445 77.5535 111.438 77.5474 111.428C77.5413 111.418 77.5378 111.407 77.5372 111.396C77.5366 111.385 77.539 111.373 77.5441 111.363Z" fill="#B92727"/>
<path d="M39.6069 128.534C39.6138 129.517 40.4372 130.198 41.3819 130.196C42.7479 130.194 43.421 129.494 43.4014 128.095C43.3875 127.019 43.3777 125.939 43.3719 124.854C43.3719 124.795 43.4014 124.765 43.4603 124.765L43.9283 124.764C43.9815 124.764 44.0087 124.791 44.0098 124.845C44.0352 126.512 44.0329 127.755 44.0029 128.575C43.963 129.638 43.365 130.43 42.318 130.708C40.6504 131.151 38.9811 130.373 38.9586 128.442C38.9447 127.249 38.9436 126.052 38.9551 124.85C38.9563 124.794 38.9846 124.765 39.0401 124.765L39.5098 124.764C39.5699 124.764 39.6 124.794 39.6 124.854C39.5965 126.082 39.5988 127.309 39.6069 128.534Z" fill="#EDEDED"/>
<path d="M48.7976 128.427L50.3074 130.652C50.3432 130.705 50.3294 130.731 50.2658 130.73L49.6713 130.729C49.6415 130.728 49.6123 130.72 49.5862 130.706C49.5602 130.691 49.5382 130.67 49.5222 130.645L48.0817 128.425C48.0657 128.4 48.044 128.38 48.0186 128.366C47.9932 128.353 47.9648 128.345 47.9361 128.345L46.2651 128.349C46.1934 128.349 46.1576 128.384 46.1576 128.456L46.1559 130.623C46.1559 130.695 46.12 130.73 46.0484 130.73L45.6341 130.732C45.5613 130.732 45.5249 130.696 45.5249 130.623V124.857C45.5249 124.809 45.5492 124.784 45.5977 124.783C47.085 124.736 48.132 124.743 48.7387 124.804C49.6574 124.897 50.1393 125.62 50.1861 126.504C50.2346 127.418 49.7851 128.022 48.8375 128.314C48.7739 128.334 48.7606 128.371 48.7976 128.427ZM46.1541 125.416L46.1507 127.683C46.1507 127.702 46.1582 127.72 46.1715 127.733C46.1848 127.747 46.2029 127.754 46.2217 127.754L48.3053 127.758C48.6273 127.758 48.9363 127.639 49.1645 127.428C49.3926 127.216 49.5213 126.929 49.5222 126.629V126.483C49.5226 126.335 49.4916 126.187 49.4308 126.05C49.3701 125.912 49.2808 125.787 49.1681 125.681C49.0554 125.576 48.9215 125.492 48.7741 125.435C48.6266 125.378 48.4685 125.348 48.3088 125.348L46.2252 125.345C46.2064 125.345 46.1883 125.352 46.175 125.365C46.1616 125.379 46.1541 125.397 46.1541 125.416Z" fill="#EDEDED"/>
<path d="M55.3066 127.725C56.5166 128.146 56.5339 129.864 55.5303 130.431C54.6878 130.906 52.7689 130.738 51.6717 130.724C51.6243 130.723 51.6006 130.698 51.6006 130.651V124.856C51.6006 124.809 51.6249 124.784 51.6734 124.782C53.0324 124.738 54.0343 124.746 54.6791 124.806C55.1645 124.853 55.6811 125.201 55.8856 125.674C56.2254 126.46 56.0283 127.115 55.2945 127.638C55.2425 127.675 55.2465 127.704 55.3066 127.725ZM52.2558 125.406L52.2489 127.34C52.2489 127.355 52.2547 127.369 52.2651 127.379C52.2755 127.39 52.2896 127.396 52.3044 127.396L54.1938 127.403C54.3487 127.403 54.5021 127.379 54.6454 127.333C54.7886 127.286 54.9189 127.217 55.0286 127.13C55.1384 127.043 55.2256 126.939 55.2852 126.825C55.3448 126.711 55.3757 126.589 55.376 126.465V126.302C55.3766 126.052 55.2532 125.813 55.0328 125.636C54.8125 125.458 54.5132 125.358 54.2007 125.357L52.3113 125.35C52.2966 125.35 52.2825 125.356 52.2721 125.367C52.2617 125.377 52.2558 125.391 52.2558 125.406ZM52.2437 128.093L52.2506 130.031C52.2506 130.06 52.2625 130.089 52.2836 130.11C52.3047 130.131 52.3334 130.143 52.3633 130.143L54.3065 130.136C54.6455 130.135 54.9704 130.029 55.2096 129.841C55.4488 129.653 55.5828 129.399 55.5823 129.134V128.968C55.582 128.837 55.5485 128.707 55.4839 128.586C55.4193 128.465 55.3247 128.355 55.2056 128.263C55.0864 128.17 54.9451 128.097 54.7896 128.047C54.6342 127.998 54.4676 127.972 54.2995 127.973L52.3564 127.98C52.3265 127.98 52.2978 127.992 52.2767 128.013C52.2556 128.034 52.2437 128.063 52.2437 128.093Z" fill="#EDEDED"/>
<path d="M58.1439 129.465L57.6083 130.633C57.5948 130.662 57.5733 130.687 57.5462 130.704C57.5191 130.722 57.4877 130.731 57.4557 130.73L56.9738 130.723C56.908 130.722 56.8889 130.692 56.9166 130.633L59.541 124.979C59.5776 124.9 59.636 124.833 59.7093 124.786C59.7825 124.74 59.8676 124.715 59.9544 124.715C60.0413 124.715 60.1264 124.74 60.1996 124.786C60.2729 124.833 60.3313 124.9 60.3679 124.979L62.9853 130.621C63.02 130.694 62.9969 130.73 62.916 130.728L62.389 130.721C62.3359 130.721 62.2983 130.697 62.2764 130.649L61.739 129.465C61.7101 129.399 61.6593 129.366 61.5865 129.366L58.2947 129.368C58.223 129.368 58.1728 129.4 58.1439 129.465ZM58.4923 128.695C58.488 128.704 58.4861 128.715 58.4868 128.725C58.4874 128.735 58.4907 128.745 58.4962 128.754C58.5017 128.763 58.5093 128.77 58.5183 128.775C58.5273 128.78 58.5374 128.783 58.5478 128.783H61.3386C61.3489 128.783 61.3591 128.78 61.3681 128.775C61.3771 128.77 61.3847 128.763 61.3902 128.754C61.3957 128.745 61.3989 128.735 61.3996 128.725C61.4003 128.715 61.3984 128.704 61.3941 128.695L60.0004 125.622C59.9955 125.611 59.9875 125.601 59.9774 125.594C59.9672 125.588 59.9553 125.584 59.9432 125.584C59.931 125.584 59.9192 125.588 59.909 125.594C59.8988 125.601 59.8908 125.611 59.886 125.622L58.4923 128.695Z" fill="#EDEDED"/>
<path d="M64.7031 124.766H64.1831C64.1467 124.766 64.1172 124.795 64.1172 124.831V130.663C64.1172 130.699 64.1467 130.729 64.1831 130.729H64.7031C64.7395 130.729 64.769 130.699 64.769 130.663V124.831C64.769 124.795 64.7395 124.766 64.7031 124.766Z" fill="#EDEDED"/>
<path d="M67.0069 130.727H66.4678C66.4527 130.727 66.4381 130.721 66.4274 130.71C66.4167 130.699 66.4106 130.685 66.4106 130.669L66.4124 124.821C66.4124 124.806 66.4184 124.791 66.4291 124.78C66.4399 124.77 66.4544 124.764 66.4696 124.764L67.3311 124.765C67.3403 124.765 67.3493 124.768 67.3575 124.772C67.3656 124.776 67.3726 124.782 67.3779 124.79L70.8517 129.737C70.8587 129.747 70.8686 129.754 70.8802 129.758C70.8917 129.762 70.9042 129.762 70.9157 129.759C70.9273 129.755 70.9375 129.748 70.9446 129.738C70.9518 129.728 70.9557 129.716 70.9557 129.704L70.9574 124.823C70.9574 124.807 70.9634 124.793 70.9742 124.782C70.9849 124.771 70.9994 124.765 71.0146 124.765L71.5329 124.764C71.5481 124.764 71.5626 124.77 71.5734 124.78C71.5841 124.791 71.5901 124.806 71.5901 124.821V130.664C71.5901 130.679 71.5841 130.694 71.5734 130.705C71.5626 130.715 71.5481 130.721 71.5329 130.721L70.8135 130.728C70.8044 130.728 70.7953 130.726 70.7872 130.722C70.779 130.718 70.772 130.712 70.7667 130.704L67.1681 125.547C67.1612 125.537 67.1512 125.53 67.1397 125.526C67.1281 125.522 67.1157 125.522 67.1041 125.526C67.0925 125.529 67.0824 125.536 67.0752 125.546C67.068 125.556 67.0641 125.568 67.0641 125.58V130.669C67.0641 130.685 67.0581 130.699 67.0474 130.71C67.0367 130.721 67.0221 130.727 67.0069 130.727Z" fill="#EDEDED"/>
<path d="M76.0448 128.532V130.626C76.0448 130.693 76.0113 130.727 75.9443 130.727H75.4953C75.4272 130.727 75.3931 130.693 75.3931 130.626V124.856C75.3931 124.81 75.4162 124.786 75.4624 124.785C76.952 124.729 77.9967 124.737 78.5964 124.807C79.5481 124.916 79.9953 125.705 80.0196 126.61C80.075 128.81 77.5824 128.435 76.1419 128.435C76.0772 128.435 76.0448 128.468 76.0448 128.532ZM76.0448 125.402V127.787C76.0448 127.8 76.0501 127.813 76.0596 127.823C76.069 127.832 76.0818 127.837 76.0951 127.837H78.1388C78.4588 127.837 78.7657 127.721 78.9919 127.514C79.2182 127.307 79.3453 127.026 79.3453 126.733V126.456C79.3453 126.163 79.2182 125.882 78.9919 125.675C78.7657 125.468 78.4588 125.352 78.1388 125.352H76.0951C76.0818 125.352 76.069 125.357 76.0596 125.366C76.0501 125.376 76.0448 125.388 76.0448 125.402Z" fill="#EDEDED"/>
<path d="M81.1032 129.467L80.5693 130.64C80.5438 130.697 80.4999 130.725 80.4375 130.725L79.9574 130.73C79.8742 130.731 79.8505 130.694 79.8863 130.618L82.502 124.98C82.5384 124.901 82.5968 124.834 82.6702 124.787C82.7437 124.74 82.8291 124.715 82.9163 124.715C83.0035 124.715 83.0889 124.74 83.1624 124.787C83.2358 124.834 83.2942 124.901 83.3306 124.98L85.9429 130.616C85.9787 130.692 85.9544 130.73 85.8701 130.73L85.3812 130.728C85.3119 130.728 85.2622 130.696 85.2322 130.631L84.7 129.465C84.6711 129.4 84.6214 129.368 84.5509 129.368H81.2574C81.1846 129.368 81.1332 129.401 81.1032 129.467ZM81.4516 128.692C81.4472 128.702 81.4454 128.712 81.4463 128.723C81.4471 128.734 81.4507 128.744 81.4565 128.753C81.4624 128.762 81.4704 128.769 81.4798 128.774C81.4892 128.779 81.4998 128.782 81.5105 128.782L84.2944 128.787C84.3051 128.787 84.3156 128.784 84.3251 128.779C84.3345 128.774 84.3425 128.767 84.3484 128.758C84.3542 128.749 84.3578 128.739 84.3586 128.728C84.3595 128.717 84.3577 128.707 84.3533 128.697L82.9666 125.629C82.9616 125.617 82.9534 125.607 82.9429 125.601C82.9325 125.594 82.9202 125.59 82.9076 125.59C82.8951 125.59 82.8828 125.594 82.8724 125.601C82.8619 125.607 82.8537 125.617 82.8487 125.629L81.4516 128.692Z" fill="#EDEDED"/>
<path d="M87.7366 128.444V130.632C87.7366 130.697 87.7037 130.73 87.6378 130.729L87.1923 130.723C87.1253 130.722 87.0918 130.689 87.0918 130.623V124.856C87.0918 124.81 87.1155 124.785 87.1629 124.783C88.6906 124.73 89.7503 124.737 90.342 124.806C91.2607 124.911 91.7356 125.676 91.7547 126.56C91.7732 127.444 91.3237 128.029 90.4061 128.314C90.3402 128.335 90.3269 128.373 90.3662 128.43L91.8483 130.611C91.9038 130.692 91.8818 130.732 91.7824 130.73L91.2589 130.725C91.1781 130.724 91.1156 130.689 91.0717 130.621L89.6451 128.423C89.6292 128.398 89.6073 128.378 89.5815 128.363C89.5558 128.349 89.527 128.342 89.4978 128.342L87.8337 128.349C87.769 128.349 87.7366 128.38 87.7366 128.444ZM87.7297 125.423V127.68C87.7297 127.699 87.7375 127.718 87.7515 127.732C87.7655 127.746 87.7845 127.754 87.8042 127.754H89.8653C90.1889 127.754 90.4993 127.637 90.7282 127.429C90.957 127.22 91.0856 126.938 91.0856 126.643V126.459C91.0856 126.165 90.957 125.882 90.7282 125.674C90.4993 125.465 90.1889 125.348 89.8653 125.348H87.8042C87.7845 125.348 87.7655 125.356 87.7515 125.37C87.7375 125.384 87.7297 125.403 87.7297 125.423Z" fill="#EDEDED"/>
<path d="M99.8488 129.692L99.8453 124.821C99.8453 124.806 99.8513 124.791 99.8621 124.78C99.8728 124.77 99.8873 124.764 99.9025 124.764H100.429C100.445 124.764 100.459 124.77 100.47 124.78C100.481 124.791 100.487 124.806 100.487 124.821V130.669C100.487 130.685 100.481 130.699 100.47 130.71C100.459 130.721 100.445 130.727 100.429 130.727L99.717 130.73C99.7079 130.73 99.6988 130.728 99.6907 130.724C99.6825 130.719 99.6755 130.713 99.6702 130.706L96.0543 125.528C96.0473 125.518 96.0373 125.511 96.0258 125.507C96.0143 125.503 96.0018 125.503 95.9902 125.506C95.9786 125.51 95.9685 125.517 95.9613 125.527C95.9542 125.537 95.9503 125.549 95.9503 125.561L95.9555 130.673C95.9555 130.688 95.9495 130.703 95.9388 130.713C95.928 130.724 95.9135 130.73 95.8983 130.73L95.3765 130.723C95.3614 130.723 95.3468 130.717 95.3361 130.706C95.3254 130.696 95.3193 130.681 95.3193 130.666L95.3211 124.821C95.3211 124.806 95.3271 124.791 95.3378 124.78C95.3485 124.77 95.3631 124.764 95.3783 124.764H96.2311C96.2403 124.764 96.2493 124.766 96.2575 124.77C96.2656 124.774 96.2726 124.78 96.2779 124.788L99.7448 129.725C99.7518 129.735 99.7617 129.742 99.7733 129.746C99.7848 129.75 99.7972 129.75 99.8088 129.746C99.8204 129.743 99.8306 129.735 99.8377 129.726C99.8449 129.716 99.8488 129.704 99.8488 129.692Z" fill="#EDEDED"/>
<path d="M106.286 129.368L102.995 129.37C102.925 129.37 102.876 129.402 102.847 129.465L102.303 130.654C102.279 130.706 102.238 130.732 102.182 130.732L101.679 130.734C101.609 130.734 101.588 130.702 101.617 130.637L104.243 124.979C104.279 124.9 104.337 124.833 104.41 124.787C104.483 124.74 104.568 124.715 104.655 124.715C104.742 124.715 104.827 124.74 104.9 124.787C104.973 124.833 105.032 124.9 105.068 124.979L107.689 130.627C107.722 130.698 107.7 130.733 107.621 130.732L107.113 130.724C107.045 130.723 106.997 130.691 106.969 130.63L106.441 129.467C106.411 129.401 106.359 129.368 106.286 129.368ZM103.194 128.697C103.19 128.707 103.188 128.717 103.189 128.728C103.189 128.738 103.193 128.748 103.198 128.757C103.204 128.766 103.212 128.773 103.221 128.778C103.23 128.783 103.241 128.786 103.251 128.786H106.039C106.049 128.786 106.059 128.783 106.069 128.778C106.078 128.773 106.086 128.766 106.091 128.757C106.097 128.748 106.101 128.738 106.101 128.728C106.102 128.717 106.1 128.707 106.096 128.697L104.702 125.624C104.697 125.613 104.689 125.603 104.679 125.597C104.669 125.59 104.657 125.586 104.645 125.586C104.633 125.586 104.621 125.59 104.611 125.597C104.601 125.603 104.593 125.613 104.588 125.624L103.194 128.697Z" fill="#EDEDED"/>
<path d="M109.512 125.353L107.592 125.355C107.575 125.355 107.559 125.348 107.548 125.336C107.536 125.325 107.529 125.309 107.529 125.292V124.826C107.529 124.81 107.536 124.794 107.548 124.782C107.559 124.77 107.575 124.764 107.592 124.764H112.204C112.221 124.764 112.237 124.77 112.248 124.782C112.26 124.794 112.267 124.81 112.267 124.826L112.268 125.294C112.268 125.311 112.262 125.327 112.25 125.338C112.238 125.35 112.223 125.356 112.206 125.356L110.299 125.35C110.283 125.35 110.267 125.356 110.255 125.368C110.243 125.38 110.237 125.395 110.237 125.412V130.666C110.237 130.683 110.23 130.698 110.219 130.71C110.207 130.722 110.191 130.728 110.175 130.728L109.637 130.725C109.621 130.725 109.605 130.718 109.593 130.707C109.581 130.695 109.575 130.679 109.575 130.663V125.415C109.575 125.399 109.568 125.383 109.556 125.371C109.545 125.36 109.529 125.353 109.512 125.353Z" fill="#EDEDED"/>
<path d="M115.78 130.207C116.987 130.24 117.664 129.47 117.678 128.324C117.692 127.17 117.695 126.014 117.687 124.857C117.686 124.796 117.716 124.765 117.779 124.765L118.212 124.764C118.279 124.764 118.313 124.797 118.313 124.864C118.314 125.657 118.315 126.449 118.316 127.241C118.316 128.4 118.239 129.167 118.084 129.541C117.726 130.408 116.958 130.829 115.782 130.805C114.079 130.77 113.234 129.897 113.248 128.185C113.257 127.076 113.265 125.965 113.272 124.852C113.272 124.794 113.301 124.765 113.36 124.765L113.83 124.764C113.889 124.764 113.918 124.793 113.917 124.852C113.908 125.839 113.908 126.824 113.919 127.808C113.932 129.229 114.21 130.165 115.78 130.207Z" fill="#EDEDED"/>
<path d="M120.471 128.439L120.474 130.625C120.474 130.695 120.438 130.73 120.367 130.729L119.916 130.725C119.853 130.725 119.821 130.693 119.821 130.63V124.859C119.821 124.815 119.843 124.793 119.887 124.792C121.424 124.725 122.496 124.732 123.104 124.812C123.949 124.923 124.406 125.442 124.475 126.367C124.554 127.407 124.108 128.053 123.139 128.305C123.074 128.321 123.061 128.358 123.099 128.415L124.595 130.614C124.65 130.696 124.629 130.736 124.531 130.734L123.974 130.723C123.911 130.722 123.862 130.696 123.828 130.644L122.393 128.427C122.357 128.371 122.307 128.344 122.241 128.345L120.559 128.35C120.5 128.352 120.471 128.381 120.471 128.439ZM120.473 125.424L120.469 127.678C120.469 127.687 120.471 127.697 120.475 127.706C120.478 127.714 120.484 127.723 120.49 127.729C120.497 127.736 120.505 127.741 120.514 127.745C120.523 127.749 120.532 127.751 120.542 127.751L122.643 127.754C122.958 127.755 123.26 127.637 123.484 127.426C123.707 127.216 123.833 126.931 123.834 126.633V126.483C123.834 126.336 123.804 126.189 123.744 126.052C123.685 125.916 123.597 125.791 123.487 125.686C123.377 125.582 123.246 125.498 123.102 125.442C122.957 125.385 122.803 125.355 122.646 125.355L120.545 125.352C120.526 125.352 120.508 125.359 120.494 125.373C120.48 125.387 120.473 125.405 120.473 125.424Z" fill="#EDEDED"/>
<path d="M126.632 130.136H130.151C130.168 130.136 130.184 130.142 130.196 130.154C130.208 130.166 130.215 130.183 130.215 130.2L130.213 130.663C130.213 130.68 130.206 130.696 130.194 130.708C130.182 130.72 130.166 130.727 130.149 130.727L125.973 130.725C125.956 130.725 125.94 130.718 125.928 130.706C125.916 130.694 125.909 130.678 125.909 130.661L125.907 124.828C125.907 124.811 125.914 124.794 125.926 124.782C125.938 124.77 125.954 124.764 125.971 124.764H130.151C130.168 124.764 130.184 124.77 130.196 124.782C130.208 124.794 130.215 124.811 130.215 124.828V125.292C130.215 125.309 130.208 125.326 130.196 125.338C130.184 125.35 130.168 125.356 130.151 125.356L126.634 125.353C126.617 125.353 126.6 125.36 126.588 125.372C126.576 125.384 126.569 125.4 126.569 125.417L126.562 127.343C126.562 127.36 126.569 127.376 126.581 127.388C126.593 127.4 126.61 127.407 126.627 127.407H129.506C129.523 127.407 129.539 127.414 129.551 127.426C129.563 127.438 129.57 127.454 129.57 127.471L129.568 127.936C129.568 127.953 129.561 127.969 129.549 127.981C129.537 127.993 129.521 128 129.504 128H126.628C126.611 128 126.595 128.007 126.583 128.019C126.571 128.031 126.564 128.047 126.564 128.064L126.568 130.071C126.568 130.088 126.574 130.105 126.586 130.117C126.598 130.129 126.615 130.136 126.632 130.136Z" fill="#EDEDED"/>
<path d="M46.1539 125.415C46.1539 125.396 46.1613 125.378 46.1747 125.365C46.188 125.351 46.2061 125.344 46.2249 125.344L48.3085 125.347C48.4682 125.347 48.6263 125.377 48.7738 125.434C48.9212 125.491 49.0551 125.575 49.1678 125.681C49.2805 125.786 49.3698 125.911 49.4305 126.049C49.4913 126.186 49.5223 126.334 49.5219 126.483V126.628C49.521 126.928 49.3923 127.215 49.1642 127.427C48.936 127.639 48.627 127.757 48.305 127.757L46.2215 127.753C46.2026 127.753 46.1845 127.746 46.1712 127.732C46.1579 127.719 46.1504 127.701 46.1504 127.682L46.1539 125.415Z" fill="#B92727"/>
<path d="M52.256 125.405C52.256 125.39 52.2618 125.376 52.2722 125.366C52.2826 125.355 52.2967 125.35 52.3114 125.35L54.2009 125.357C54.5133 125.358 54.8126 125.458 55.033 125.635C55.2534 125.812 55.3768 126.052 55.3761 126.301V126.464C55.3758 126.588 55.345 126.71 55.2854 126.824C55.2258 126.938 55.1386 127.042 55.0288 127.129C54.919 127.216 54.7887 127.285 54.6455 127.332C54.5023 127.379 54.3488 127.403 54.1939 127.402L52.3045 127.395C52.2898 127.395 52.2757 127.389 52.2653 127.379C52.2549 127.368 52.249 127.354 52.249 127.34L52.256 125.405Z" fill="#B92727"/>
<path d="M76.0454 125.402C76.0454 125.388 76.0507 125.376 76.0601 125.366C76.0696 125.357 76.0823 125.352 76.0957 125.352H78.1394C78.4594 125.352 78.7662 125.468 78.9925 125.675C79.2187 125.882 79.3459 126.163 79.3459 126.456V126.733C79.3459 127.026 79.2187 127.307 78.9925 127.514C78.7662 127.721 78.4594 127.837 78.1394 127.837H76.0957C76.0823 127.837 76.0696 127.832 76.0601 127.823C76.0507 127.813 76.0454 127.8 76.0454 127.787V125.402Z" fill="#B92727"/>
<path d="M87.73 125.424C87.73 125.404 87.7378 125.385 87.7518 125.371C87.7658 125.357 87.7847 125.35 87.8045 125.35H89.8656C90.1892 125.35 90.4996 125.467 90.7285 125.675C90.9573 125.883 91.0859 126.166 91.0859 126.461V126.644C91.0859 126.939 90.9573 127.222 90.7285 127.43C90.4996 127.639 90.1892 127.756 89.8656 127.756H87.8045C87.7847 127.756 87.7658 127.748 87.7518 127.734C87.7378 127.72 87.73 127.701 87.73 127.681V125.424Z" fill="#B92727"/>
<path d="M120.473 125.424C120.473 125.405 120.48 125.387 120.494 125.373C120.508 125.359 120.526 125.352 120.545 125.352L122.646 125.355C122.803 125.355 122.957 125.385 123.102 125.442C123.246 125.498 123.377 125.582 123.487 125.686C123.598 125.791 123.685 125.916 123.744 126.052C123.804 126.189 123.834 126.336 123.834 126.483V126.633C123.833 126.931 123.707 127.216 123.484 127.426C123.26 127.637 122.958 127.755 122.643 127.754L120.542 127.751C120.532 127.751 120.523 127.749 120.514 127.745C120.505 127.741 120.497 127.736 120.491 127.729C120.484 127.723 120.478 127.715 120.475 127.706C120.471 127.697 120.469 127.687 120.469 127.678L120.473 125.424Z" fill="#B92727"/>
<path d="M58.4925 128.695L59.8862 125.621C59.891 125.61 59.899 125.601 59.9092 125.594C59.9193 125.588 59.9312 125.584 59.9434 125.584C59.9555 125.584 59.9674 125.588 59.9776 125.594C59.9877 125.601 59.9957 125.61 60.0006 125.621L61.3942 128.695C61.3986 128.704 61.4005 128.715 61.3998 128.725C61.3991 128.735 61.3959 128.745 61.3904 128.754C61.3849 128.763 61.3773 128.77 61.3683 128.775C61.3593 128.78 61.3491 128.783 61.3388 128.783H58.548C58.5376 128.783 58.5275 128.78 58.5185 128.775C58.5095 128.77 58.5019 128.763 58.4964 128.754C58.4909 128.745 58.4876 128.735 58.4869 128.725C58.4863 128.715 58.4882 128.704 58.4925 128.695Z" fill="#B92727"/>
<path d="M81.4518 128.692L82.8489 125.629C82.8539 125.617 82.8621 125.607 82.8726 125.6C82.8831 125.594 82.8953 125.59 82.9079 125.59C82.9204 125.59 82.9327 125.594 82.9432 125.6C82.9536 125.607 82.9619 125.617 82.9668 125.629L84.3535 128.697C84.3579 128.707 84.3597 128.717 84.3588 128.728C84.358 128.739 84.3545 128.749 84.3486 128.758C84.3427 128.767 84.3347 128.774 84.3253 128.779C84.3159 128.784 84.3053 128.787 84.2946 128.787L81.5107 128.782C81.5 128.782 81.4895 128.779 81.48 128.774C81.4706 128.769 81.4626 128.762 81.4567 128.753C81.4509 128.744 81.4474 128.734 81.4465 128.723C81.4456 128.712 81.4475 128.701 81.4518 128.692Z" fill="#B92727"/>
<path d="M103.194 128.695L104.588 125.621C104.593 125.61 104.601 125.601 104.611 125.594C104.621 125.588 104.633 125.584 104.645 125.584C104.657 125.584 104.669 125.588 104.679 125.594C104.689 125.601 104.697 125.61 104.702 125.621L106.096 128.695C106.1 128.704 106.102 128.715 106.101 128.725C106.101 128.736 106.097 128.746 106.092 128.755C106.086 128.764 106.078 128.771 106.069 128.776C106.06 128.781 106.049 128.783 106.039 128.783H103.251C103.241 128.783 103.231 128.781 103.221 128.776C103.212 128.771 103.204 128.764 103.198 128.755C103.193 128.746 103.189 128.736 103.189 128.725C103.188 128.715 103.19 128.704 103.194 128.695Z" fill="#B92727"/>
<path d="M52.2437 128.09C52.2437 128.06 52.2555 128.032 52.2767 128.011C52.2978 127.99 52.3264 127.978 52.3563 127.978L54.2995 127.971C54.4676 127.97 54.6341 127.995 54.7896 128.045C54.9451 128.095 55.0864 128.168 55.2055 128.26C55.3247 128.353 55.4192 128.463 55.4839 128.584C55.5485 128.705 55.5819 128.834 55.5822 128.966V129.132C55.5828 129.397 55.4488 129.651 55.2095 129.839C54.9703 130.027 54.6455 130.133 54.3064 130.134L52.3633 130.141C52.3334 130.141 52.3047 130.129 52.2836 130.108C52.2625 130.087 52.2506 130.058 52.2506 130.028L52.2437 128.09Z" fill="#B92727"/>
</g>
<defs>
<clipPath id="clip0_915_1312">
<rect width="168.835" height="168.835" fill="white" transform="translate(0.164551)"/>
</clipPath>
</defs>
</svg>
