<svg width="310" height="149" viewBox="0 0 310 149" fill="none" xmlns="http://www.w3.org/2000/svg">
<g clip-path="url(#clip0_915_1529)">
<path d="M151.265 30.147C151.265 32.6373 151.173 35.1275 150.988 38.2633C149.052 41.4914 147.391 44.0739 145.639 46.7485C145.362 47.1175 145.086 47.4864 144.532 48.2242C144.256 48.9621 144.163 49.2388 144.071 49.5155C143.794 50.2533 143.518 50.9911 142.78 51.9135C141.581 52.3746 140.935 52.6513 139.829 53.0202C134.756 52.928 138.445 56.3405 137.431 57.724C137.431 57.724 137.338 57.724 137.154 57.9084C136.785 58.6463 136.6 59.1074 136.232 59.7531C135.955 60.2142 135.863 60.5831 135.678 61.0443C135.494 61.4132 135.309 61.5977 134.756 61.6899C131.067 60.5831 127.839 59.6608 124.518 58.6463C124.518 58.6463 124.518 58.5541 124.426 58.2774C122.489 56.3405 120.552 54.6804 118.616 52.928C118.523 52.7435 118.431 52.2824 118.892 52.2824C120.737 51.3601 122.212 50.4378 123.873 49.331C133.003 44.9962 133.372 44.3505 130.144 39.0934C131.251 36.2343 132.266 33.6518 133.188 31.1616C130.605 31.0693 128.023 30.9771 125.441 30.6082C127.746 27.6568 130.144 25.0744 124.61 23.0453C124.242 21.8463 123.873 20.8317 123.504 19.725C123.227 19.3561 122.95 19.1716 122.397 18.9871C120.46 18.8949 118.8 18.9871 116.955 19.0794C116.494 19.3561 116.218 19.5405 115.664 19.725C115.019 20.0017 114.557 20.2784 113.912 20.6473C113.266 21.3851 112.897 22.0307 112.436 22.8608C112.067 23.5064 111.79 23.8754 111.329 24.4287C110.96 24.7977 110.776 25.0744 110.407 25.351C110.223 25.351 109.946 25.4433 109.577 25.4433C108.47 25.4433 107.732 25.4433 106.994 25.4433C106.994 25.4433 106.902 25.1666 106.902 24.7054C106.626 24.0598 106.441 23.7831 105.98 23.5064C105.795 23.5064 105.427 23.4142 105.427 23.4142C105.334 22.123 105.242 20.924 105.15 18.9871C105.15 17.8804 105.058 17.5114 105.058 17.1425C105.15 16.7736 105.242 16.3124 105.519 15.3901C106.902 12.2543 108.009 9.67185 109.024 6.99716C109.3 6.90493 109.577 6.8127 110.13 6.25931C112.436 4.4147 114.373 2.93901 116.31 1.37109C121.567 1.37109 126.824 1.37109 132.635 1.64779C136.416 4.23024 139.736 6.53601 142.964 8.934C143.057 9.21069 143.149 9.48739 143.702 9.94854C146.1 12.2543 148.222 14.1911 150.343 16.2202C150.343 16.2202 150.343 16.128 150.343 16.4969C153.571 21.2007 151.081 25.8122 151.265 30.147Z" fill="white"/>
<path d="M119.446 149.124C119.63 147.925 120.184 146.726 120.737 145.527C121.659 146.542 122.674 147.464 123.688 148.755C122.397 149.124 121.106 149.124 119.446 149.124Z" fill="#F7F9F9"/>
<path d="M115.941 1.55469C114.373 3.12261 112.436 4.69053 110.223 6.25845C111.053 4.96722 112.159 3.49153 113.358 1.83138C114.189 1.55469 114.926 1.55469 115.941 1.55469Z" fill="#FDF9E8"/>
<path d="M125.718 149.125C125.625 148.756 125.81 148.295 125.902 147.926C126.086 148.202 126.179 148.387 126.363 148.94C126.455 149.125 125.994 149.125 125.718 149.125Z" fill="#F7F9F9"/>
<path d="M118.524 52.3744C118.524 52.3744 118.524 52.8356 118.708 53.389C118.616 56.7093 119.815 58.4617 122.766 59.1995C122.766 60.0296 122.674 60.3985 122.305 60.7674C118.247 60.0296 114.465 59.384 110.684 58.8306C104.689 58.6461 104.228 58.0005 106.718 52.7434C107.087 51.9133 106.257 50.5298 106.072 49.4231C105.98 48.9619 106.257 48.4085 106.902 48.0396C107.825 47.7629 108.378 47.3018 108.839 46.8406C108.747 45.2727 108.563 43.7048 108.378 41.8602C110.038 41.3068 111.975 40.7534 113.912 40.2C113.912 39.8311 113.912 39.4622 113.912 39.001C112.713 38.8166 111.606 38.7243 109.946 38.2632C109.208 37.2486 109.024 36.5108 108.747 35.7729C108.747 35.1273 108.747 34.4817 109.024 33.2827C111.237 32.0837 113.082 31.3459 115.48 30.4236C113.266 28.579 111.606 27.1033 109.854 25.6276C109.854 25.6276 110.131 25.5354 110.592 25.4431C111.145 25.0742 111.33 24.7053 111.422 24.4286C111.698 24.0597 111.975 23.5985 112.621 22.9529C113.451 22.0306 113.728 21.2927 114.096 20.6471C114.465 20.3704 114.927 20.0937 115.849 19.8171C116.587 19.5404 116.863 19.3559 117.048 19.0792C118.708 19.0792 120.276 18.987 122.397 19.2637C122.951 19.8171 123.227 20.0015 123.504 20.0937C123.873 21.0161 124.15 21.9384 124.519 23.5985C122.674 26.181 120.922 28.21 119.077 30.1469C119.261 30.7003 119.446 31.2536 119.538 31.7148C121.475 31.5303 123.504 31.2536 125.441 31.0692C128.023 31.1614 130.606 31.2536 133.188 31.2536C132.174 33.7439 131.251 36.3263 130.145 39.1855C133.28 44.4426 133.004 45.0882 123.504 49.4231C121.567 50.4376 119.999 51.3599 118.524 52.3744Z" fill="white"/>
<path d="M122.674 60.7682C122.674 60.3071 122.767 59.8459 123.043 59.0158C123.781 58.6469 124.15 58.6469 124.611 58.5547C124.611 58.5547 124.611 58.6469 124.703 58.9236C125.718 60.4915 126.64 61.875 127.194 63.2584C123.043 64.1808 119.815 68.5156 115.388 65.1031C115.388 65.1031 115.388 65.1031 115.388 64.7341C114.742 63.7196 114.189 62.9818 113.543 62.2439C113.543 62.2439 113.543 61.7828 113.912 61.5983C115.941 61.5983 117.509 62.0594 119.17 62.0594C120.276 62.0594 121.475 61.3216 122.674 60.7682Z" fill="white"/>
<path d="M109.577 25.6289C111.698 27.1046 113.451 28.5803 115.572 30.4249C113.174 31.3472 111.329 31.9928 109.116 32.9151C108.839 33.0996 108.47 33.0074 108.194 32.5462C107.548 30.6094 107.179 28.9492 106.81 27.3813C106.81 27.0124 106.81 26.5512 106.81 25.9056C107.732 25.6289 108.47 25.6289 109.577 25.6289Z" fill="white"/>
<path d="M122.305 60.6758C121.475 61.2292 120.276 62.0592 119.169 62.1515C117.601 62.2437 115.941 61.6903 113.912 61.5059C113.082 61.3214 112.621 61.0447 111.883 60.4913C111.33 59.9379 111.053 59.7535 110.869 59.569C110.869 59.569 110.869 59.2001 110.776 59.0156C114.466 59.3845 118.247 59.9379 122.305 60.6758Z" fill="white"/>
<path d="M106.718 27.6562C107.363 28.9475 107.732 30.6076 108.101 32.4522C107.548 31.161 106.994 29.5931 106.718 27.6562Z" fill="white"/>
<path d="M108.563 35.7734C109.116 36.4191 109.301 37.1569 109.669 38.1714C108.932 38.0792 108.102 37.7103 107.271 37.4336C107.64 36.8802 107.917 36.3268 108.563 35.7734Z" fill="#F7F9F9"/>
<path d="M113.543 62.7051C114.189 63.074 114.742 63.8118 115.388 64.8264C114.927 64.9186 114.466 64.6419 113.82 64.3652C113.543 63.9041 113.543 63.4429 113.543 62.7051Z" fill="white"/>
<path d="M105.15 23.6919C105.335 23.5996 105.703 23.5996 105.888 23.9686C106.072 24.5219 106.072 24.7064 106.072 24.8909C105.611 24.8909 105.15 24.8909 104.597 24.9831C104.781 24.6142 104.873 24.2452 105.15 23.6919Z" fill="white"/>
<path d="M108.655 46.748C108.378 47.2092 107.917 47.6704 107.271 47.8548C107.456 47.3937 107.917 47.117 108.655 46.748Z" fill="#F7F9F9"/>
<path d="M104.873 17.4199C105.058 17.6966 105.15 18.0655 105.15 18.8034C104.873 18.5267 104.781 18.0655 104.873 17.4199Z" fill="#FDF9E8"/>
<path d="M106.257 24.8899C106.072 24.7052 106.072 24.5206 106.072 23.9667C106.349 23.8744 106.534 24.1513 106.811 24.7052C106.811 24.9822 106.442 24.8899 106.257 24.8899Z" fill="white"/>
<path d="M110.868 59.7539C111.053 59.7539 111.237 59.9385 111.607 60.3078C111.422 60.4001 111.237 60.2155 110.868 59.7539Z" fill="#FCFAEE"/>
<path d="M115.388 65.5647C119.815 68.6083 123.043 64.2734 127.47 63.4434C128.761 64.089 129.499 64.6424 130.237 65.3802C130.237 65.5647 130.329 65.9336 130.237 66.3025C131.436 67.4093 132.635 68.1471 133.834 68.885C133.834 68.885 133.834 68.885 134.018 69.1617C135.402 69.5306 136.508 69.6228 137.892 69.715C138.538 69.8073 138.906 69.8073 139.275 70.1762C135.863 75.5256 130.975 69.715 126.732 72.2053C128.761 73.0353 130.421 73.681 131.989 74.3266C132.266 74.88 132.45 75.3411 132.45 76.079C130.237 75.8945 128.392 75.5256 126.455 74.7877C125.164 74.4188 123.965 74.4188 122.766 74.3266C121.936 73.312 121.198 72.2053 120.276 71.1907C118.708 69.4383 117.048 67.686 115.388 65.5647Z" fill="white"/>
<path d="M143.979 55.1426C144.348 55.1426 144.717 55.1426 145.455 55.4193C146.377 55.7882 147.023 55.9727 147.668 56.0649C147.668 56.0649 148.129 56.0649 148.683 56.1571C151.726 57.0794 154.309 57.9095 156.891 58.7396C155.784 60.123 154.585 61.4143 153.294 63.0744C152.095 63.5356 150.988 63.6278 149.328 64.0889C145.916 64.6423 143.057 65.0113 139.736 65.2879C137.523 65.2879 135.586 65.2879 133.926 65.0113C134.571 64.2734 135.033 63.9045 135.586 63.4433C135.678 63.4433 136.139 63.4433 136.416 63.6278C137.246 63.9967 137.799 64.1812 138.722 64.3656C140.105 63.1666 141.028 61.8754 142.042 60.6764C142.042 60.6764 142.042 60.6764 142.319 60.6764C143.241 60.3997 143.887 60.2153 144.44 59.8463C144.532 59.7541 144.256 59.1085 144.071 58.7396C143.426 59.1085 142.688 59.4774 141.673 59.7541C140.013 59.3852 138.722 59.0163 137.431 58.5551C137.431 58.3706 137.431 57.9095 137.431 57.9095C137.431 57.9095 137.523 57.9095 137.799 57.9095C140.105 56.895 142.042 55.9727 143.979 55.1426Z" fill="white"/>
<path d="M140.198 65.1938C143.057 64.9171 146.008 64.5482 149.144 64.2715C149.421 65.0093 149.421 65.7472 148.96 66.7617C143.61 67.684 138.722 68.2374 133.742 68.883C132.543 68.1452 131.344 67.4073 130.329 66.3006C130.606 65.9316 130.975 65.7472 131.251 65.7472C132.266 65.8394 132.912 65.8394 134.018 65.9316C136.416 65.7472 138.261 65.4705 140.198 65.1938Z" fill="white"/>
<path d="M126.456 75.1562C128.393 75.6174 130.237 75.9863 132.543 76.4475C133.742 77.1853 134.664 77.8309 135.494 78.5688C132.912 82.0735 130.514 82.3502 128.024 79.2144C127.101 78.0154 125.902 77.0009 125.072 75.7096C125.626 75.2485 125.995 75.2485 126.456 75.1562Z" fill="white"/>
<path d="M132.358 74.4173C130.329 73.7717 128.761 73.1261 126.64 72.296C130.974 69.8058 135.77 75.6163 139.552 70.267C140.659 69.9903 141.397 69.9903 142.134 70.0825C142.411 73.3106 141.028 74.7863 137.707 74.5096C136.047 74.3251 134.479 74.4173 132.358 74.4173Z" fill="white"/>
<path d="M142.504 69.992C141.397 69.992 140.659 69.8997 139.644 69.8997C138.907 69.8997 138.538 69.8075 137.615 69.5308C135.955 69.1619 134.848 69.0697 133.742 68.8852C138.63 68.3318 143.61 67.6862 148.868 67.1328C148.499 71.0065 145.178 69.3463 142.504 69.992Z" fill="white"/>
<path d="M126.363 74.8798C125.994 75.2488 125.625 75.2488 124.887 75.341C124.057 75.1565 123.504 75.0643 122.858 74.6954C123.965 74.5109 125.164 74.5109 126.363 74.8798Z" fill="#FAF7DE"/>
<path d="M143.887 54.8652C142.042 55.9719 140.105 56.802 137.892 57.7243C138.537 56.3409 134.94 52.9283 139.921 53.2972C141.212 53.6662 142.042 53.8506 142.964 54.0351C143.241 54.3118 143.518 54.4962 143.887 54.8652Z" fill="#F7F9F9"/>
<path d="M142.965 53.7578C142.042 53.9423 141.212 53.7578 140.29 53.2044C140.936 52.651 141.673 52.3743 142.596 52.0977C142.965 52.5588 142.965 53.02 142.965 53.7578Z" fill="white"/>
<path d="M147.484 55.7874C147.023 55.8796 146.377 55.7874 145.731 55.3262C146.285 55.234 146.838 55.4185 147.484 55.7874Z" fill="#F7F9F9"/>
<path d="M144.348 49.3314C144.256 49.1467 144.348 48.8698 144.625 48.4082C144.625 48.5005 144.625 48.8698 144.348 49.3314Z" fill="#F7F9F9"/>
<path d="M125.533 30.6067C123.504 31.1601 121.567 31.3446 119.63 31.5291C119.446 30.9757 119.261 30.4223 119.169 29.9611C121.014 28.0243 122.858 25.9952 124.703 23.6895C130.237 25.0729 127.839 27.7476 125.533 30.6067Z" fill="white"/>
<path d="M133.741 65.8407C133.096 65.8407 132.358 65.8407 131.251 65.6562C130.605 65.2873 130.421 65.1951 130.144 65.1951C129.406 64.6417 128.761 64.0883 127.746 63.4427C126.639 61.967 125.717 60.6758 124.703 59.0156C127.838 59.7535 131.067 60.6758 134.664 62.0592C135.125 62.7048 135.217 63.0738 135.401 63.4427C134.94 63.8116 134.479 64.2728 133.833 65.1028C133.741 65.564 133.741 65.8407 133.741 65.8407Z" fill="white"/>
<path d="M124.518 58.3687C124.15 58.7376 123.781 58.7376 123.043 58.7376C119.815 58.3687 118.708 56.7085 118.8 53.4805C120.737 54.7717 122.582 56.4318 124.518 58.3687Z" fill="white"/>
<path d="M118.985 52.283C120.092 51.3607 121.567 50.4384 123.412 49.4238C122.213 50.4384 120.737 51.3607 118.985 52.283Z" fill="white"/>
<path d="M135.586 63.3497C135.31 62.9807 135.217 62.7041 135.217 62.0584C135.494 61.5973 135.586 61.4128 136.047 60.9517C136.416 60.3061 136.509 60.0294 136.601 59.6604C136.785 59.1993 136.97 58.6459 137.339 58.0003C137.523 57.8158 137.523 58.277 137.523 58.8304C137.062 60.7672 136.601 62.0584 136.232 63.4419C136.14 63.3497 135.678 63.3497 135.586 63.3497Z" fill="white"/>
<path d="M113.912 20.7402C113.82 21.2936 113.543 22.0315 112.805 22.7693C112.897 22.1237 113.266 21.4781 113.912 20.7402Z" fill="white"/>
<path d="M111.33 24.5215C111.422 24.7061 111.238 24.9831 110.868 25.3523C110.776 25.1677 110.961 24.8907 111.33 24.5215Z" fill="white"/>
<path d="M123.597 19.8171C123.32 20.0018 123.135 19.8171 122.858 19.3556C122.951 19.2632 123.228 19.4479 123.597 19.8171Z" fill="white"/>
<path d="M116.956 19.0781C116.956 19.2628 116.679 19.5397 116.218 19.7243C116.218 19.5397 116.495 19.3551 116.956 19.0781Z" fill="white"/>
<path d="M136.324 59.8457C136.417 60.0303 136.324 60.3073 136.047 60.7689C135.955 60.5842 136.047 60.3073 136.324 59.8457Z" fill="white"/>
<path d="M134.018 69.1622C134.94 69.0699 136.047 69.1622 137.338 69.5311C136.508 69.6233 135.402 69.5311 134.018 69.1622Z" fill="white"/>
<path d="M130.145 65.3793C130.329 65.1946 130.606 65.2869 130.883 65.5639C130.975 65.6562 130.606 65.9332 130.421 65.9332C130.237 65.9332 130.145 65.5639 130.145 65.3793Z" fill="white"/>
<path d="M142.042 60.4902C141.028 61.7815 140.013 62.9805 138.722 63.9028C137.707 60.3058 140.566 61.3203 142.042 60.4902Z" fill="#FDF9E8"/>
<path d="M142.042 60.4913C140.566 61.2292 137.707 60.3069 138.353 63.9038C137.707 64.0883 137.154 63.9038 136.416 63.5349C136.6 61.967 137.062 60.6758 137.523 59.0156C138.814 59.0156 140.105 59.2923 141.765 59.9379C142.042 60.1224 142.042 60.5835 142.042 60.4913C142.042 60.5835 142.042 60.5835 142.042 60.4913Z" fill="white"/>
<path d="M134.111 65.9312C133.742 65.839 133.742 65.47 133.834 65.3778C135.679 65.1934 137.615 65.1934 139.829 65.1934C138.261 65.4701 136.416 65.7467 134.111 65.9312Z" fill="white"/>
<path d="M142.319 60.5833C142.042 60.5833 142.042 60.1222 142.042 59.9377C142.78 59.3843 143.426 59.0154 144.072 58.6465C144.164 59.0154 144.533 59.7532 144.44 59.7532C143.979 60.1222 143.241 60.3066 142.319 60.5833Z" fill="#FDF9E8"/>
<path d="M148.96 98.5837L138.907 88.5306L142.135 85.3025C143.334 84.1035 144.257 83.2735 144.718 83.089C145.456 82.6278 146.286 82.5356 147.116 82.6278C148.038 82.7201 148.868 83.1812 149.606 84.0113C150.252 84.6569 150.621 85.3025 150.805 85.8559C150.989 86.5015 151.082 87.1471 150.897 87.7005C150.805 88.2539 150.621 88.8073 150.344 89.2684C149.975 89.8218 149.329 90.5597 148.407 91.482L147.116 92.7732L150.897 96.5547L148.96 98.5837ZM142.689 88.2539L145.548 91.1131L146.655 90.0063C147.485 89.1762 147.946 88.6228 148.13 88.2539C148.315 87.885 148.315 87.5161 148.315 87.1471C148.223 86.7782 148.038 86.4093 147.761 86.1326C147.392 85.7637 147.024 85.5792 146.562 85.5792C146.101 85.5792 145.732 85.6715 145.271 85.9481C144.994 86.1326 144.441 86.5938 143.703 87.3316L142.689 88.2539Z" fill="white"/>
<path d="M158.276 89.2686L148.223 79.2155L150.252 77.1864L154.218 81.1523L158.184 77.1864L154.218 73.2205L156.247 71.1914L166.3 81.2445L164.271 83.2736L159.844 78.8465L155.878 82.8125L160.305 87.2395L158.276 89.2686Z" fill="white"/>
<path d="M168.329 79.215L158.276 69.1619L160.305 67.1328L170.358 77.1859L168.329 79.215Z" fill="white"/>
<path d="M172.387 75.1579L162.426 65.197L164.455 63.168L172.756 71.4687L177.828 66.396L179.488 68.0562L172.387 75.1579Z" fill="white"/>
<path d="M180.78 66.7638L170.727 56.7107L172.756 54.6816L182.809 64.7348L180.78 66.7638Z" fill="white"/>
<path d="M184.746 62.8005L174.692 52.7474L177.92 49.5193C179.119 48.3203 180.042 47.4903 180.503 47.3058C181.241 46.8446 182.071 46.7524 182.901 46.8446C183.823 46.9369 184.653 47.398 185.391 48.2281C186.037 48.8737 186.406 49.5193 186.59 50.0727C186.775 50.6261 186.867 51.3639 186.682 51.9173C186.59 52.4707 186.406 53.0241 186.129 53.4852C185.76 54.0386 185.114 54.7765 184.192 55.6988L182.901 56.99L186.682 60.7715L184.746 62.8005ZM178.474 52.3785L181.333 55.2376L182.44 54.1309C183.27 53.3008 183.731 52.7474 183.915 52.3785C184.1 52.0096 184.1 51.6406 184.1 51.2717C184.008 50.9028 183.823 50.5339 183.547 50.2572C183.178 49.8882 182.809 49.7038 182.348 49.7038C181.886 49.7038 181.517 49.796 181.056 50.0727C180.78 50.2572 180.226 50.7183 179.488 51.4562L178.474 52.3785Z" fill="white"/>
<path d="M194.153 53.3904L184.1 43.3372L187.328 40.1092C188.527 38.9102 189.449 38.0801 189.911 37.8956C190.648 37.4345 191.479 37.3423 192.309 37.4345C193.231 37.5267 194.061 37.9879 194.799 38.8179C195.444 39.4636 195.813 40.1092 195.998 40.6626C196.182 41.2159 196.275 41.9538 196.09 42.5072C195.998 43.0605 195.813 43.6139 195.537 44.0751C195.168 44.6285 194.522 45.3663 193.6 46.2886L192.309 47.5798L196.09 51.3613L194.153 53.3904ZM187.789 43.0605L190.648 45.9197L191.755 44.8129C192.585 43.9829 193.046 43.4295 193.231 43.0605C193.415 42.6916 193.415 42.3227 193.415 41.9538C193.323 41.5849 193.139 41.2159 192.862 40.9392C192.493 40.5703 192.124 40.3859 191.663 40.3859C191.202 40.3859 190.833 40.4781 190.372 40.7548C190.095 40.9392 189.542 41.4004 188.804 42.1382L187.789 43.0605Z" fill="white"/>
<path d="M203.376 44.1681L193.323 34.115L195.352 32.0859L205.405 42.1391L203.376 44.1681Z" fill="white"/>
<path d="M207.342 40.2018L197.381 30.1486L199.318 28.2118L210.109 30.7942L203.376 24.0614L205.221 22.2168L215.274 32.2699L213.245 34.299L202.639 31.8088L209.187 38.3571L207.342 40.2018Z" fill="white"/>
<path d="M217.488 30.057L207.435 20.0039L214.905 12.5332L216.565 14.1934L211.124 19.635L213.337 21.8485L218.41 16.7758L220.07 18.436L214.997 23.5086L217.764 26.2756L223.39 20.6495L225.051 22.3096L217.488 30.057Z" fill="white"/>
<path d="M155.324 105.499L158.737 102.086C159.475 101.348 160.12 100.795 160.674 100.518C161.411 100.149 162.149 99.9648 162.887 99.9648C163.717 99.9648 164.455 100.149 165.285 100.61C166.115 100.979 166.945 101.625 167.775 102.455C168.513 103.193 169.067 103.931 169.436 104.669C169.897 105.591 170.081 106.421 170.081 107.343C170.081 107.989 169.897 108.635 169.528 109.372C169.251 109.926 168.79 110.571 168.052 111.217L164.547 114.722L155.324 105.499ZM158.737 105.222L164.916 111.401L166.3 110.018C166.853 109.465 167.13 109.096 167.314 108.819C167.499 108.45 167.683 108.081 167.683 107.712C167.683 107.343 167.591 106.882 167.314 106.329C167.038 105.775 166.484 105.13 165.838 104.484C165.101 103.746 164.547 103.285 163.994 103.008C163.441 102.732 162.979 102.64 162.61 102.64C162.149 102.64 161.688 102.824 161.319 103.101C161.043 103.285 160.489 103.746 159.659 104.576L158.737 105.222Z" fill="white"/>
<path d="M173.955 105.407L164.732 96.1844L171.557 89.3594L173.125 90.9273L168.144 95.9078L170.174 97.9368L174.785 93.3253L176.353 94.8932L171.741 99.5047L174.232 101.995L179.397 96.8301L180.965 98.398L173.955 105.407Z" fill="white"/>
<path d="M186.129 93.1406L176.906 83.9176L180.872 79.9516C181.887 78.9371 182.625 78.2915 183.27 78.0148C183.916 77.7381 184.561 77.6459 185.207 77.8303C185.853 78.0148 186.498 78.2915 187.052 78.8449C187.789 79.5827 188.158 80.3206 188.158 81.1506C188.158 81.9807 187.882 82.903 187.144 83.8253C187.789 83.6409 188.343 83.5486 188.896 83.6409C189.45 83.6409 190.28 83.8253 191.479 84.102L194.43 84.7476L192.217 86.9612L188.804 86.3156C187.605 86.0389 186.775 85.9466 186.498 85.9466C186.129 85.9466 185.853 86.0389 185.576 86.1311C185.299 86.2233 184.93 86.5 184.561 86.9612L184.192 87.3301L188.066 91.2038L186.129 93.1406ZM182.717 85.9466L184.1 84.5632C185.023 83.6409 185.484 83.0875 185.668 82.8108C185.853 82.5341 185.853 82.1652 185.76 81.8885C185.668 81.6118 185.576 81.2429 185.299 80.9662C185.023 80.6895 184.654 80.505 184.285 80.505C183.916 80.505 183.547 80.5973 183.178 80.874C182.993 80.9662 182.532 81.4273 181.794 82.1652L180.319 83.6409L182.717 85.9466Z" fill="white"/>
<path d="M190.556 79.6764C189.634 78.7541 188.988 77.8318 188.619 76.9095C188.343 76.2639 188.25 75.526 188.25 74.7882C188.25 74.0503 188.343 73.4047 188.619 72.7591C188.988 71.929 189.449 71.1912 190.28 70.3611C191.663 68.9776 193.139 68.332 194.799 68.332C196.459 68.332 198.027 69.1621 199.595 70.6378C201.071 72.1135 201.808 73.6814 201.901 75.3416C201.993 77.0017 201.255 78.4774 199.872 79.8609C198.488 81.2443 197.012 81.8899 195.352 81.8899C193.6 81.8899 192.032 81.1521 190.556 79.6764ZM192.401 77.6473C193.415 78.6619 194.522 79.2152 195.537 79.3075C196.551 79.3997 197.474 79.0308 198.211 78.2929C198.949 77.5551 199.318 76.6328 199.226 75.6182C199.134 74.6037 198.58 73.5892 197.566 72.4824C196.459 71.3756 195.444 70.8223 194.522 70.8223C193.508 70.73 192.678 71.099 191.847 71.929C191.11 72.6669 190.741 73.5892 190.741 74.6037C190.741 75.6182 191.386 76.5406 192.401 77.6473Z" fill="white"/>
<path d="M207.619 71.651L199.964 63.9959L197.197 66.7628L195.629 65.1949L203.008 57.8164L204.576 59.3843L201.809 62.1512L209.464 69.8064L207.619 71.651Z" fill="white"/>
<path d="M213.522 65.8398L204.299 56.6167L206.143 54.7721L209.833 58.4613L213.522 54.7721L209.833 51.0829L211.677 49.2383L220.9 58.4613L219.056 60.3059L214.998 56.2478L211.308 59.937L215.366 63.9952L213.522 65.8398Z" fill="white"/>
<path d="M219.333 53.9437L220.993 51.9146C221.731 52.3758 222.376 52.6525 223.022 52.5602C223.667 52.468 224.221 52.1913 224.774 51.6379C225.42 50.9923 225.697 50.4389 225.789 49.8856C225.881 49.3322 225.697 48.871 225.328 48.5021C225.143 48.3176 224.866 48.1332 224.59 48.1332C224.313 48.1332 223.944 48.2254 223.483 48.4099C223.206 48.5943 222.561 48.9632 221.546 49.5166C220.255 50.2545 219.24 50.6234 218.503 50.7156C217.396 50.8079 216.473 50.4389 215.828 49.7011C215.367 49.2399 215.09 48.6866 214.906 47.9487C214.721 47.3031 214.813 46.5652 215.09 45.8274C215.367 45.0896 215.92 44.3517 216.566 43.7061C217.765 42.5071 218.871 41.9537 219.978 41.8615C221.085 41.7693 222.1 42.1382 222.93 42.9683L221.177 44.9051C220.624 44.5362 220.07 44.3517 219.609 44.3517C219.148 44.4439 218.595 44.7206 218.134 45.1818C217.58 45.7352 217.304 46.2886 217.211 46.7497C217.119 47.1186 217.211 47.3953 217.488 47.5798C217.672 47.7642 217.949 47.8565 218.318 47.8565C218.779 47.8565 219.517 47.4876 220.624 46.7497C221.731 46.0119 222.653 45.6429 223.299 45.3663C223.944 45.1818 224.59 45.0896 225.235 45.274C225.881 45.4585 226.527 45.8274 227.08 46.3808C227.633 46.9342 228.002 47.5798 228.095 48.3176C228.279 49.0555 228.187 49.7933 227.91 50.6234C227.633 51.3612 227.08 52.1913 226.25 53.0214C225.051 54.2204 223.944 54.866 222.745 54.866C221.638 55.3272 220.532 54.866 219.333 53.9437Z" fill="white"/>
<path d="M233.997 38.541L236.395 37.342C237.133 38.6332 237.41 39.8322 237.225 40.939C237.041 42.0458 236.487 43.1525 235.473 44.1671C234.274 45.3661 232.798 46.0117 231.138 45.9194C229.478 45.8272 228.002 45.0894 226.526 43.7059C224.958 42.138 224.221 40.5701 224.128 38.9099C224.036 37.2498 224.682 35.7741 225.973 34.4829C227.08 33.3761 228.371 32.7305 229.754 32.7305C230.584 32.7305 231.415 32.9149 232.429 33.4683L231.046 35.7741C230.492 35.4052 229.847 35.2207 229.201 35.3129C228.555 35.4052 228.002 35.6818 227.541 36.143C226.895 36.7886 226.526 37.6187 226.619 38.541C226.711 39.4633 227.264 40.4778 228.371 41.5846C229.57 42.7836 230.584 43.337 231.507 43.4292C232.429 43.5214 233.259 43.2448 233.905 42.5069C234.366 42.0458 234.643 41.4001 234.735 40.7545C234.735 40.1089 234.458 39.3711 233.997 38.541Z" fill="white"/>
<path d="M240.822 38.541L231.599 29.3179L233.444 27.4733L237.133 31.1625L240.822 27.4733L237.133 23.7841L238.978 21.9395L248.201 31.1625L246.356 33.0071L242.298 28.949L238.609 32.6382L242.667 36.6963L240.822 38.541Z" fill="white"/>
<path d="M250.045 29.2259L240.822 20.0028L242.667 18.1582L251.89 27.3813L250.045 29.2259Z" fill="white"/>
<path d="M253.826 25.5364L244.603 16.3134L246.448 14.4688L254.103 22.1239L258.714 17.5124L260.282 19.0803L253.826 25.5364Z" fill="white"/>
<path d="M252.351 8.47329L255.764 5.06076C256.501 4.32291 257.147 3.76953 257.7 3.49284C258.438 3.12391 259.176 2.93945 259.914 2.93945C260.744 2.93945 261.482 3.12391 262.312 3.58507C263.142 3.95399 263.972 4.5996 264.802 5.42968C265.54 6.16752 266.093 6.90537 266.462 7.64321C266.923 8.56552 267.108 9.39559 267.108 10.2257C267.108 10.8713 266.924 11.5169 266.555 12.2547C266.278 12.8081 265.817 13.4537 265.079 14.0994L261.574 17.6041L252.351 8.47329ZM255.856 8.10437L262.035 14.2838L263.419 12.9004C263.972 12.347 264.249 11.9781 264.433 11.7014C264.618 11.3324 264.802 10.9635 264.802 10.5946C264.802 10.2257 264.71 9.76452 264.433 9.21113C264.157 8.65775 263.603 8.01214 262.958 7.36652C262.22 6.62868 261.666 6.16752 261.113 5.89083C260.56 5.61414 260.098 5.52191 259.73 5.52191C259.361 5.52191 258.807 5.70637 258.438 5.98306C258.162 6.16752 257.608 6.62868 256.778 7.45875L255.856 8.10437Z" fill="white"/>
<path d="M70.1025 54.5889L79.879 44.8125L86.6118 51.5453L84.9517 53.1133L80.2479 48.4095L77.9421 50.7153L82.0003 54.7734L80.3401 56.4336L76.282 52.3754L72.0394 56.5258L70.1025 54.5889Z" fill="white"/>
<path d="M82.9223 57.6328C83.9368 56.6183 84.9514 55.9727 85.8737 55.6037C86.6115 55.327 87.3494 55.1426 88.0872 55.1426C88.8251 55.1426 89.5629 55.2348 90.2085 55.5115C91.0386 55.8804 91.8687 56.4338 92.6987 57.2639C94.1744 58.7396 94.82 60.3075 94.82 62.0599C94.82 63.8123 93.99 65.4724 92.422 67.1326C90.8541 68.7005 89.194 69.5305 87.4416 69.5305C85.6892 69.5305 84.1213 68.8849 82.6456 67.4092C81.1699 65.9336 80.4321 64.3656 80.5243 62.6133C80.5243 60.8609 81.3544 59.2007 82.9223 57.6328ZM84.9514 59.6619C83.8446 60.7686 83.2912 61.8754 83.199 62.9822C83.1068 64.0889 83.4757 65.0113 84.3058 65.7491C85.1358 66.4869 86.0581 66.8559 87.0727 66.8559C88.1794 66.7636 89.2862 66.2103 90.393 65.1035C91.4997 63.9967 92.1454 62.8899 92.1454 61.8754C92.2376 60.8609 91.8687 59.9386 91.0386 59.1085C90.2085 58.2784 89.2862 57.9095 88.2717 58.0017C87.1649 57.9095 86.1504 58.4629 84.9514 59.6619Z" fill="white"/>
<path d="M89.1021 73.5889L98.8785 63.8125L100.815 65.7493L98.3251 76.2636L104.873 69.7153L106.718 71.5599L96.9417 81.3363L94.9126 79.3072L97.3106 68.9774L90.9467 75.3413L89.1021 73.5889Z" fill="white"/>
<path d="M108.747 73.5879L112.344 77.1849C113.174 78.015 113.728 78.6606 114.004 79.214C114.373 79.9518 114.558 80.7819 114.558 81.612C114.558 82.442 114.281 83.2721 113.912 84.1022C113.543 84.9323 112.805 85.8546 111.883 86.7769C111.053 87.6069 110.315 88.1603 109.485 88.5292C108.563 88.9904 107.64 89.2671 106.718 89.1749C106.072 89.1749 105.335 88.9904 104.504 88.5292C103.951 88.2526 103.305 87.6992 102.568 86.9613L98.8784 83.2721L108.747 73.5879ZM109.116 77.2771L102.66 83.7333L104.136 85.2089C104.689 85.7623 105.15 86.1313 105.427 86.3157C105.796 86.5924 106.257 86.6846 106.626 86.6846C106.995 86.6846 107.548 86.5924 108.101 86.2235C108.655 85.8546 109.3 85.3934 110.131 84.6556C110.868 83.9177 111.422 83.2721 111.698 82.7187C111.975 82.1653 112.067 81.7042 112.067 81.243C112.067 80.7819 111.883 80.3207 111.606 79.8596C111.422 79.4907 110.868 78.9373 110.038 78.1072L109.116 77.2771Z" fill="white"/>
<path d="M117.693 102.18L115.572 100.058L116.956 97.0147L113.082 93.141L110.038 94.5245L107.917 92.4032L121.567 86.4082L123.688 88.5295L117.693 102.18ZM117.878 94.6167L120.184 89.6363L115.203 91.942L117.878 94.6167Z" fill="white"/>
<path d="M119.907 104.394L128.024 96.2775L125.072 93.3262L126.732 91.666L134.48 99.4134L132.912 101.166L130.053 98.3066L121.936 106.423L119.907 104.394Z" fill="white"/>
<path d="M125.994 110.48L135.771 100.703L137.707 102.64L127.931 112.416L125.994 110.48Z" fill="white"/>
<path d="M134.295 109.098C135.309 108.083 136.324 107.437 137.246 107.069C137.984 106.792 138.722 106.607 139.46 106.607C140.198 106.607 140.935 106.7 141.581 106.976C142.411 107.345 143.241 107.899 144.071 108.729C145.547 110.204 146.193 111.772 146.193 113.525C146.193 115.277 145.363 116.937 143.795 118.597C142.227 120.165 140.567 120.995 138.814 120.995C137.062 120.995 135.494 120.35 134.018 118.874C132.542 117.398 131.805 115.83 131.897 114.078C131.989 112.326 132.727 110.666 134.295 109.098ZM136.416 111.034C135.309 112.141 134.756 113.248 134.664 114.355C134.572 115.462 134.94 116.384 135.771 117.122C136.601 117.952 137.523 118.228 138.537 118.228C139.644 118.136 140.751 117.583 141.858 116.476C142.965 115.369 143.61 114.263 143.61 113.248C143.702 112.233 143.333 111.311 142.503 110.481C141.673 109.651 140.751 109.282 139.736 109.374C138.63 109.374 137.523 109.928 136.416 111.034Z" fill="white"/>
<path d="M140.566 124.962L150.343 115.186L152.28 117.122L149.789 127.637L156.338 121.088L158.182 122.933L148.406 132.709L146.377 130.68L148.775 120.35L142.411 126.714L140.566 124.962Z" fill="white"/>
<path d="M44.9243 61.5968L54.7008 51.8203L57.6521 54.7717C58.39 55.5095 58.8511 56.1552 59.1278 56.6163C59.4967 57.2619 59.589 57.9998 59.589 58.7376C59.4967 59.4755 59.3123 60.3055 58.8511 61.1356C58.39 61.9657 57.7444 62.7958 56.9143 63.7181C55.8075 64.8248 54.7008 65.5627 53.594 66.0238C52.4872 66.485 51.4727 66.5772 50.6426 66.3005C49.8125 66.116 48.8902 65.5627 47.9679 64.6404L44.9243 61.5968ZM47.1379 61.5045L48.9825 63.3491C49.7203 64.087 50.3659 64.5481 51.0115 64.7326C51.6572 64.9171 52.3028 64.8248 52.9484 64.5481C53.8707 64.1792 54.793 63.5336 55.7153 62.6113C56.7298 61.5968 57.3754 60.6744 57.6521 59.8444C57.9288 59.0143 57.9288 58.2765 57.6521 57.6308C57.4677 57.1697 57.0988 56.6163 56.3609 55.9707L54.5163 54.1261L47.1379 61.5045Z" fill="white"/>
<path d="M61.8022 61.6881L63.1856 60.3047L64.2924 61.4115L63.1856 62.5182C62.54 63.1638 61.9866 63.5328 61.5255 63.7172C61.0643 63.9017 60.6032 63.8095 60.0498 63.7172L60.2343 62.9794C60.8799 63.1638 61.5255 62.9794 62.2633 62.3338L61.8022 61.6881Z" fill="white"/>
<path d="M56.2686 72.9425L66.045 63.166L72.3167 69.4377L71.1177 70.5445L66.045 65.4718L63.0936 68.4232L67.8896 73.2191L66.6906 74.4181L61.8946 69.6222L58.5743 72.9425L63.8315 78.1996L62.6325 79.3986L56.2686 72.9425Z" fill="white"/>
<path d="M64.293 80.9659L74.0694 71.1895L75.2684 72.3885L72.0403 84.5629L79.7877 76.8155L80.8945 77.9223L71.0258 87.6987L69.8268 86.4997L73.0549 74.2331L65.3075 81.9804L64.293 80.9659Z" fill="white"/>
<path d="M75.1758 91.8489L83.8455 83.1792L80.9863 80.3201L82.1853 79.1211L89.0104 85.9462L87.8114 87.1452L84.9522 84.3782L76.2825 93.0479L75.1758 91.8489Z" fill="white"/>
<path d="M80.3408 97.0128L90.1173 87.2363L93.8987 91.0178C94.7288 91.8479 95.1899 92.4935 95.3744 93.0469C95.5589 93.6002 95.5589 94.2458 95.3744 94.8915C95.1899 95.5371 94.821 96.1827 94.2676 96.7361C93.5298 97.4739 92.6997 97.8428 91.8696 97.9351C91.0396 97.9351 90.1173 97.6584 89.195 97.0128C89.3794 97.4739 89.3794 97.9351 89.3794 98.304C89.3794 99.0418 89.195 99.6875 89.0105 100.425L87.8115 104.576L86.3358 103.1L87.2581 99.8719C87.627 98.6729 87.8115 97.7506 87.9037 97.2895C87.996 96.8283 87.9037 96.3672 87.8115 96.0905C87.7193 95.8138 87.4426 95.4449 87.0737 95.0759L85.7824 93.7847L81.4476 98.1195L80.3408 97.0128ZM86.9814 92.6779L89.4716 95.1682C90.025 95.7215 90.4862 96.0905 90.8551 96.1827C91.224 96.2749 91.6852 96.3672 92.0541 96.2749C92.5153 96.1827 92.8842 95.9982 93.1609 95.6293C93.622 95.1682 93.8987 94.6148 93.8987 93.9692C93.8987 93.4158 93.5298 92.7702 92.9764 92.1245L90.2095 89.3576L86.9814 92.6779Z" fill="white"/>
<path d="M89.0103 105.685L98.7867 95.9082L105.058 102.18L103.859 103.379L98.7867 98.3062L95.8353 101.258L100.631 106.054L99.4323 107.253L94.6363 102.457L91.316 105.777L96.5732 111.034L95.3742 112.233L89.0103 105.685Z" fill="white"/>
<path d="M97.0347 113.706L106.811 103.93L110.039 107.158C110.777 107.896 111.33 108.541 111.515 109.002C111.884 109.648 111.884 110.386 111.792 111.124C111.607 111.862 111.238 112.599 110.5 113.245C109.578 114.167 108.656 114.628 107.641 114.721C106.627 114.813 105.52 114.26 104.321 113.061L102.107 110.847L98.1414 114.813L97.0347 113.706ZM103.306 109.74L105.52 111.954C106.258 112.692 106.903 113.061 107.549 113.061C108.195 113.061 108.748 112.784 109.394 112.23C109.762 111.862 110.039 111.4 110.131 111.031C110.224 110.57 110.224 110.201 110.131 109.925C110.039 109.556 109.67 109.095 109.025 108.541L106.811 106.328L103.306 109.74Z" fill="white"/>
<path d="M105.059 121.73L114.835 111.953L118.616 115.735C119.447 116.565 119.908 117.21 120.092 117.764C120.277 118.317 120.277 118.963 120.092 119.608C119.908 120.254 119.539 120.899 118.985 121.453C118.248 122.191 117.417 122.56 116.587 122.652C115.757 122.652 114.835 122.375 113.913 121.73C114.097 122.191 114.097 122.652 114.097 123.021C114.097 123.759 113.913 124.404 113.728 125.142L112.529 129.292L111.054 127.817L111.976 124.589C112.345 123.39 112.529 122.467 112.621 122.006C112.714 121.545 112.622 121.084 112.529 120.807C112.437 120.531 112.16 120.162 111.791 119.793L110.5 118.502L106.165 122.836L105.059 121.73ZM111.699 117.395L114.189 119.885C114.743 120.438 115.204 120.807 115.573 120.899C115.942 121.084 116.403 121.084 116.772 120.992C117.233 120.899 117.602 120.715 117.879 120.346C118.34 119.885 118.616 119.332 118.616 118.686C118.616 118.133 118.248 117.487 117.694 116.841L114.927 114.074L111.699 117.395Z" fill="white"/>
<path d="M114.005 130.679L123.781 120.902L124.888 122.009L115.112 131.786L114.005 130.679Z" fill="white"/>
<path d="M119.908 130.217L121.107 131.139C120.646 131.692 120.369 132.246 120.277 132.799C120.184 133.26 120.184 133.814 120.461 134.367C120.646 134.92 121.014 135.474 121.476 135.935C122.121 136.58 122.859 136.949 123.505 137.042C124.15 137.134 124.796 136.857 125.257 136.396C125.534 136.119 125.718 135.75 125.81 135.474C125.903 135.105 125.903 134.736 125.718 134.367C125.534 133.998 125.165 133.168 124.519 131.969C123.966 130.954 123.597 130.124 123.505 129.571C123.412 129.018 123.412 128.464 123.597 127.911C123.781 127.357 124.058 126.896 124.519 126.435C125.349 125.605 126.272 125.236 127.286 125.328C128.301 125.328 129.315 125.882 130.238 126.804C130.883 127.45 131.344 128.095 131.529 128.833C131.805 129.571 131.805 130.217 131.621 130.954C131.437 131.692 131.068 132.338 130.514 132.983L129.315 131.969C129.869 131.231 130.145 130.585 130.145 129.94C130.145 129.294 129.776 128.649 129.131 128.003C128.485 127.357 127.84 126.988 127.286 126.896C126.641 126.804 126.179 126.988 125.718 127.45C125.349 127.819 125.165 128.28 125.165 128.741C125.165 129.202 125.534 130.032 126.179 131.047C126.825 132.153 127.194 132.891 127.378 133.445C127.655 134.182 127.747 134.92 127.563 135.658C127.378 136.304 127.102 136.949 126.548 137.503C125.995 138.056 125.349 138.425 124.611 138.61C123.874 138.794 123.136 138.794 122.398 138.517C121.66 138.241 121.014 137.779 120.277 137.134C119.17 136.027 118.616 134.92 118.616 133.721C118.432 132.43 118.893 131.323 119.908 130.217Z" fill="white"/>
<path d="M125.165 141.837L134.941 132.061L141.213 138.332L140.014 139.531L134.941 134.459L131.99 137.41L136.786 142.206L135.587 143.405L130.791 138.609L127.471 141.929L132.728 147.186L131.529 148.385L125.165 141.837Z" fill="white"/>
</g>
<defs>
<clipPath id="clip0_915_1529">
<rect width="309.803" height="147.569" fill="white" transform="translate(0.0996094 0.632812)"/>
</clipPath>
</defs>
</svg>
