<svg width="463" height="117" viewBox="0 0 463 117" fill="none" xmlns="http://www.w3.org/2000/svg">
<path d="M2.70459 72.8054V16.1758C2.70459 15.7146 2.88905 15.3457 3.16574 14.9768C3.44243 14.7001 3.90359 14.5156 4.36474 14.5156H28.8058C33.9708 14.5156 38.3056 16.268 41.9948 19.865C45.684 23.462 47.4364 27.7968 47.4364 32.8695C47.4364 36.7432 46.2374 40.248 43.9317 43.2916C41.6259 46.3352 38.5823 48.6409 34.7086 50.2089L46.4219 71.9753C46.7908 72.5287 46.7908 73.082 46.4219 73.6354C46.1452 74.1888 45.5918 74.4655 44.9462 74.4655H36.0921C35.4464 74.4655 34.9853 74.1888 34.7086 73.7277L23.272 51.0389H13.7723V72.8976C13.7723 73.2665 13.5878 73.6354 13.3111 74.0044C13.0344 74.3733 12.5733 74.5577 12.1121 74.5577H4.27251C3.81136 74.5577 3.44243 74.3733 3.07351 74.0966C2.88905 73.7277 2.70459 73.2665 2.70459 72.8054ZM13.8645 41.8159H27.7913C30.0971 41.8159 32.0339 40.9858 33.6941 39.2334C35.3542 37.481 36.1843 35.452 36.1843 33.054C36.1843 30.7482 35.3542 28.8114 33.6941 27.1512C32.0339 25.4911 30.0048 24.7532 27.7913 24.7532H13.8645V41.8159Z" fill="white"/>
<path d="M62.562 72.8054V16.1758C62.562 15.7146 62.7465 15.3457 63.0232 14.9768C63.2999 14.7001 63.761 14.5156 64.2222 14.5156H99.0853C99.5465 14.5156 99.9154 14.7001 100.284 14.9768C100.561 15.2535 100.745 15.7146 100.745 16.1758V23.1853C100.745 23.6465 100.561 24.0154 100.284 24.3843C100.008 24.661 99.5465 24.8455 99.0853 24.8455H73.7219V38.8645H94.8427C95.3039 38.8645 95.6728 39.049 96.0417 39.4179C96.3184 39.7868 96.5029 40.1557 96.5029 40.5246V47.6264C96.5029 48.0876 96.3184 48.4565 96.0417 48.8254C95.765 49.1021 95.3039 49.2866 94.8427 49.2866H73.7219V64.2279H99.0853C99.5465 64.2279 99.9154 64.4124 100.284 64.6891C100.561 64.9658 100.745 65.4269 100.745 65.8881V72.8976C100.745 73.3587 100.561 73.7277 100.284 74.0966C100.008 74.3733 99.5465 74.5577 99.0853 74.5577H64.2222C63.761 74.5577 63.3921 74.3733 63.0232 74.0966C62.7465 73.7277 62.562 73.2665 62.562 72.8054Z" fill="white"/>
<path d="M115.318 72.8053V15.2535C115.318 14.8845 115.503 14.5156 115.78 14.1467C116.056 13.87 116.517 13.6855 116.979 13.6855H118.27C118.823 13.6855 119.284 13.87 119.745 14.2389L154.609 51.5001H154.793V16.1758C154.793 15.7146 154.978 15.3457 155.254 14.9768C155.531 14.7001 155.992 14.5156 156.453 14.5156H164.293C164.662 14.5156 165.031 14.7001 165.4 15.069C165.768 15.4379 165.953 15.8069 165.953 16.1758V73.7277C165.953 74.0966 165.768 74.4655 165.492 74.8344C165.215 75.1111 164.754 75.2956 164.293 75.2956H163.094C162.54 75.2956 162.079 75.1111 161.618 74.7422L126.57 36.0976H126.386V72.8976C126.386 73.3587 126.202 73.7277 125.925 74.0966C125.648 74.3733 125.187 74.5577 124.726 74.5577H116.979C116.517 74.5577 116.148 74.3733 115.78 74.0043C115.503 73.6354 115.318 73.2665 115.318 72.8053Z" fill="white"/>
<path d="M178.22 74.4655C177.574 74.4655 177.113 74.281 176.836 73.8199C176.559 73.3587 176.467 72.8053 176.836 72.252L203.398 14.6079C203.675 13.9622 204.136 13.6855 204.874 13.6855H205.704C206.35 13.6855 206.903 13.9622 207.18 14.6079L233.466 72.252C233.742 72.8053 233.742 73.3587 233.466 73.8199C233.189 74.281 232.636 74.4655 232.082 74.4655H224.612C223.505 74.4655 222.675 73.9121 222.121 72.7131L217.971 63.4901H192.423L188.273 72.7131C187.812 73.8199 186.981 74.4655 185.782 74.4655H178.22ZM196.481 53.9903H213.636L205.059 35.1753H204.874L196.481 53.9903Z" fill="white"/>
<path d="M242.228 52.5146V16.1758C242.228 15.8069 242.412 15.4379 242.781 15.069C243.15 14.7001 243.519 14.5156 243.888 14.5156H252.004C252.465 14.5156 252.834 14.7001 253.203 14.9768C253.48 15.2535 253.664 15.7146 253.664 16.1758V51.869C253.664 55.5582 254.771 58.5096 257.077 60.8154C259.382 63.1211 262.334 64.2279 266.023 64.2279C269.712 64.2279 272.756 63.1211 275.062 60.8154C277.367 58.5096 278.566 55.5582 278.566 51.9612V16.1758C278.566 15.7146 278.751 15.3457 279.028 14.9768C279.304 14.7001 279.765 14.5156 280.227 14.5156H288.343C288.804 14.5156 289.173 14.7001 289.542 15.069C289.819 15.4379 290.003 15.8069 290.003 16.1758V52.4224C290.003 58.9708 287.697 64.3201 283.178 68.7472C278.659 73.082 272.94 75.2956 266.115 75.2956C259.382 75.2956 253.756 73.082 249.145 68.7472C244.533 64.4124 242.228 58.9708 242.228 52.5146Z" fill="white"/>
<path d="M307.25 72.8054V16.1758C307.25 15.7146 307.434 15.3457 307.711 14.9768C307.988 14.7001 308.449 14.5156 308.91 14.5156H316.75C317.211 14.5156 317.58 14.7001 317.949 15.069C318.225 15.4379 318.41 15.8069 318.41 16.1758V64.2279H340.269C340.73 64.2279 341.099 64.4124 341.468 64.6891C341.744 64.9658 341.929 65.4269 341.929 65.8881V72.8976C341.929 73.3587 341.744 73.7277 341.468 74.0966C341.191 74.3733 340.73 74.5577 340.269 74.5577H308.91C308.449 74.5577 308.08 74.3733 307.711 74.0966C307.434 73.7277 307.25 73.2665 307.25 72.8054Z" fill="white"/>
<path d="M348.2 74.4655C347.554 74.4655 347.093 74.281 346.817 73.8199C346.54 73.3587 346.448 72.8053 346.817 72.252L373.379 14.6079C373.656 13.9622 374.117 13.6855 374.855 13.6855H375.685C376.33 13.6855 376.884 13.9622 377.16 14.6079L403.538 72.1597C403.815 72.7131 403.815 73.2665 403.538 73.7277C403.262 74.1888 402.708 74.3733 402.155 74.3733H394.684C393.577 74.3733 392.747 73.8199 392.194 72.6209L388.044 63.3978H362.496L358.345 72.6209C357.884 73.7277 357.054 74.3733 355.855 74.3733H348.2V74.4655ZM366.554 53.9903H383.801L375.224 35.1753H374.947L366.554 53.9903Z" fill="white"/>
<path d="M418.572 66.3492C412.577 60.3542 409.534 53.1602 409.534 44.5828C409.534 36.0053 412.577 28.7191 418.572 22.7241C424.567 16.7292 431.853 13.6855 440.431 13.6855C448.271 13.6855 455.188 16.3602 461.183 21.6174C462.013 22.4475 462.105 23.1853 461.275 24.0154L456.018 29.3647C455.372 30.1026 454.634 30.1026 453.897 29.3647C450.115 26.0444 445.688 24.2921 440.708 24.2921C435.266 24.2921 430.747 26.2289 427.058 30.1948C423.368 34.0685 421.616 38.7723 421.616 44.3061C421.616 49.7477 423.461 54.3592 427.15 58.2329C430.839 62.1066 435.358 64.0434 440.8 64.0434C445.504 64.0434 449.931 62.3833 453.897 59.1552C454.634 58.5096 455.372 58.5096 456.018 59.1552L461.367 64.5968C461.736 64.9657 461.828 65.3347 461.828 65.7958C461.828 66.257 461.644 66.6259 461.275 66.9948C455.557 72.5287 448.639 75.2956 440.523 75.2956C431.853 75.2956 424.567 72.3442 418.572 66.3492Z" fill="white"/>
<path d="M34.8012 102.782L36.6458 103.243C36.2769 104.811 35.5391 106.01 34.5245 106.84C33.51 107.671 32.2188 108.132 30.7431 108.132C29.1752 108.132 27.9762 107.855 26.9616 107.209C26.0393 106.564 25.3015 105.641 24.7481 104.442C24.2869 103.243 24.0103 101.952 24.0103 100.477C24.0103 98.9086 24.2869 97.6174 24.8403 96.5106C25.3937 95.4039 26.2238 94.4815 27.2383 93.9282C28.2529 93.3748 29.4519 93.0059 30.7431 93.0059C32.1265 93.0059 33.4178 93.3748 34.3401 94.1126C35.3546 94.8505 36.0002 95.865 36.3692 97.2485L34.5245 97.7096C34.1556 96.6029 33.6945 95.865 33.0489 95.4039C32.4032 94.9427 31.6654 94.666 30.6509 94.666C29.5441 94.666 28.6218 94.9427 27.8839 95.4961C27.1461 96.0495 26.5927 96.7873 26.316 97.7096C26.0393 98.6319 25.8549 99.5542 25.8549 100.477C25.8549 101.676 26.0393 102.782 26.4082 103.705C26.7772 104.627 27.3306 105.365 28.0684 105.826C28.8062 106.287 29.6363 106.472 30.4664 106.472C31.4809 106.472 32.4032 106.195 33.1411 105.549C34.0634 104.904 34.5245 103.981 34.8012 102.782Z" fill="white"/>
<path d="M39.7817 107.856V93.1914H46.1456C47.4369 93.1914 48.3592 93.2836 49.0048 93.5603C49.6504 93.837 50.2038 94.2982 50.5727 94.9438C50.9416 95.5894 51.1261 96.3272 51.1261 97.1573C51.1261 98.1719 50.7572 99.0942 50.1116 99.7398C49.466 100.385 48.4514 100.939 47.068 101.123C47.5291 101.4 47.9903 101.584 48.1747 101.861C48.7281 102.414 49.2815 103.06 49.7426 103.798L52.2329 107.764H49.8349L47.9903 104.72C47.4369 103.798 46.9757 103.152 46.6068 102.691C46.2379 102.23 45.9612 101.861 45.6845 101.677C45.4078 101.492 45.1311 101.4 44.8544 101.308C44.67 101.215 44.301 101.215 43.8399 101.215H41.6263V107.672H39.7817V107.856ZM41.7186 99.7398H45.7767C46.6068 99.7398 47.3446 99.6475 47.8058 99.4631C48.267 99.2786 48.6359 99.0019 48.9126 98.5408C49.1893 98.0796 49.2815 97.7107 49.2815 97.2496C49.2815 96.5117 49.0048 95.9583 48.5436 95.4972C48.0825 95.036 47.2524 94.8516 46.2379 94.8516H41.7186V99.7398Z" fill="white"/>
<path d="M55 107.856V93.1914H65.3298V94.9438H56.9368V99.4631H64.8687V101.215H56.9368V106.196H65.6987V107.948H55V107.856Z" fill="white"/>
<path d="M67.5435 107.856L72.9851 93.1914H75.0141L80.8247 107.856H78.7034L77.0432 103.429H71.1405L69.5725 107.856H67.5435ZM71.6938 101.861H76.4898L75.0141 97.8029C74.553 96.6039 74.1841 95.5894 73.9996 94.7593C73.8151 95.6816 73.5384 96.6039 73.2618 97.5262L71.6938 101.861Z" fill="white"/>
<path d="M85.3434 107.856V94.9438H80.6396V93.1914H91.984V94.9438H87.2802V107.856H85.3434Z" fill="white"/>
<path d="M94.7515 107.856V93.1914H105.081V94.9438H96.6883V99.4631H104.62V101.215H96.6883V106.196H105.45V107.948H94.7515V107.856Z" fill="white"/>
<path d="M118.178 93.2832H120.022V101.768C120.022 103.244 119.838 104.443 119.561 105.273C119.284 106.103 118.639 106.841 117.809 107.394C116.979 107.948 115.872 108.225 114.488 108.225C113.105 108.225 112.09 107.948 111.168 107.487C110.338 107.026 109.692 106.288 109.323 105.458C108.954 104.628 108.77 103.336 108.77 101.768V93.2832H110.615V101.768C110.615 103.06 110.707 103.982 110.984 104.535C111.26 105.089 111.629 105.642 112.183 105.919C112.736 106.288 113.474 106.38 114.212 106.38C115.595 106.38 116.61 106.103 117.163 105.365C117.716 104.72 118.085 103.521 118.085 101.676V93.2832H118.178Z" fill="white"/>
<path d="M124.081 107.856V93.1914H130.444C131.736 93.1914 132.658 93.2836 133.304 93.5603C133.949 93.837 134.503 94.2982 134.872 94.9438C135.24 95.5894 135.425 96.3272 135.425 97.1573C135.425 98.1719 135.056 99.0942 134.41 99.7398C133.765 100.385 132.75 100.939 131.367 101.123C131.828 101.4 132.289 101.584 132.474 101.861C133.027 102.414 133.58 103.06 134.041 103.798L136.532 107.764H134.134L132.289 104.72C131.736 103.798 131.275 103.152 130.906 102.691C130.537 102.23 130.26 101.861 129.983 101.677C129.707 101.492 129.43 101.4 129.153 101.308C128.969 101.215 128.6 101.215 128.139 101.215H125.925V107.672H124.081V107.856ZM125.925 99.7398H129.983C130.813 99.7398 131.551 99.6475 132.012 99.4631C132.474 99.2786 132.842 99.0019 133.119 98.5408C133.396 98.0796 133.488 97.7107 133.488 97.2496C133.488 96.5117 133.211 95.9583 132.75 95.4972C132.289 95.036 131.459 94.8516 130.444 94.8516H125.925V99.7398Z" fill="white"/>
<path d="M145.57 107.856V93.1914H150.458C151.565 93.1914 152.395 93.2836 153.041 93.3759C153.871 93.5603 154.516 93.9293 155.162 94.3904C155.9 95.036 156.453 95.8661 156.822 96.8806C157.191 97.8952 157.375 99.0942 157.375 100.385C157.375 101.492 157.283 102.507 157.006 103.337C156.73 104.167 156.453 104.905 155.992 105.458C155.623 106.011 155.162 106.473 154.701 106.749C154.24 107.026 153.686 107.303 153.041 107.487C152.395 107.672 151.565 107.764 150.735 107.764H145.57V107.856ZM147.507 106.196H150.55C151.473 106.196 152.21 106.104 152.764 105.919C153.317 105.735 153.686 105.458 154.055 105.181C154.516 104.72 154.885 104.075 155.07 103.337C155.346 102.599 155.438 101.584 155.438 100.478C155.438 98.9097 155.162 97.8029 154.701 96.9729C154.24 96.1428 153.594 95.5894 152.948 95.3127C152.487 95.1283 151.657 95.036 150.458 95.036H147.414V106.196H147.507Z" fill="white"/>
<path d="M160.788 107.856V93.1914H171.118V94.9438H162.725V99.4631H170.657V101.215H162.725V106.196H171.487V107.948H160.788V107.856Z" fill="white"/>
<path d="M181.263 107.856V93.1914H186.613C187.535 93.1914 188.273 93.2836 188.826 93.3759C189.564 93.4681 190.117 93.7448 190.578 94.0215C191.04 94.3904 191.409 94.8516 191.685 95.4049C191.962 96.0506 192.146 96.6962 192.146 97.434C192.146 98.633 191.777 99.7398 190.947 100.57C190.21 101.4 188.734 101.861 186.797 101.861H183.108V107.856H181.263ZM183.108 100.201H186.797C187.996 100.201 188.918 99.9242 189.379 99.4631C189.933 99.0019 190.117 98.3563 190.117 97.5262C190.117 96.8806 189.933 96.4195 189.656 95.9583C189.379 95.4972 188.918 95.2205 188.457 95.1283C188.18 95.036 187.535 95.036 186.705 95.036H183.016V100.201H183.108Z" fill="white"/>
<path d="M195.375 107.856V93.1914H205.704V94.9438H197.311V99.4631H205.243V101.215H197.311V106.196H206.073V107.948H195.375V107.856Z" fill="white"/>
<path d="M209.763 107.856V93.1914H211.607V107.856H209.763Z" fill="white"/>
<path d="M215.757 107.856V93.1914H217.694L225.165 104.72V93.1914H227.009V107.856H225.073L217.602 96.3272V107.856H215.757Z" fill="white"/>
<path d="M234.665 107.856V94.9438H229.961V93.1914H241.305V94.9438H236.602V107.856H234.665Z" fill="white"/>
<path d="M253.388 93.2832H255.232V101.768C255.232 103.244 255.048 104.443 254.771 105.273C254.402 106.103 253.849 106.841 253.019 107.394C252.189 107.948 251.082 108.225 249.698 108.225C248.315 108.225 247.3 107.948 246.378 107.487C245.456 107.026 244.902 106.288 244.533 105.458C244.164 104.628 243.98 103.336 243.98 101.768V93.2832H245.825V101.768C245.825 103.06 245.917 103.982 246.194 104.535C246.47 105.089 246.839 105.642 247.393 105.919C247.946 106.288 248.684 106.38 249.422 106.38C250.805 106.38 251.82 106.103 252.373 105.365C252.926 104.72 253.295 103.521 253.295 101.676V93.2832H253.388Z" fill="white"/>
<path d="M259.198 107.856V93.1914H265.562C266.853 93.1914 267.776 93.2836 268.421 93.5603C269.067 93.837 269.62 94.2982 269.989 94.9438C270.358 95.5894 270.543 96.3272 270.543 97.1573C270.543 98.1719 270.174 99.0942 269.528 99.7398C268.882 100.385 267.868 100.939 266.484 101.123C266.946 101.4 267.407 101.584 267.591 101.861C268.145 102.414 268.698 103.06 269.159 103.798L271.649 107.764H269.436L267.591 104.72C267.038 103.798 266.577 103.152 266.208 102.691C265.839 102.23 265.562 101.861 265.285 101.677C265.009 101.492 264.732 101.4 264.455 101.308C264.271 101.215 263.902 101.215 263.441 101.215H261.135V107.672H259.198V107.856ZM261.135 99.7398H265.193C266.023 99.7398 266.761 99.6475 267.222 99.4631C267.683 99.2786 268.052 99.0019 268.329 98.5408C268.606 98.1719 268.698 97.7107 268.698 97.2496C268.698 96.5117 268.421 95.9583 267.96 95.4972C267.499 95.036 266.669 94.8516 265.654 94.8516H261.135V99.7398Z" fill="white"/>
<path d="M274.417 107.856V93.1914H284.746V94.9438H276.353V99.4631H284.285V101.215H276.353V106.196H285.115V107.948H274.417V107.856Z" fill="white"/>
<path d="M287.882 103.152L289.634 102.967C289.726 103.705 289.911 104.258 290.188 104.812C290.464 105.273 291.018 105.642 291.663 105.919C292.309 106.195 293.047 106.38 293.877 106.38C294.615 106.38 295.26 106.287 295.814 106.011C296.367 105.734 296.736 105.457 297.013 105.088C297.289 104.72 297.382 104.258 297.382 103.797C297.382 103.336 297.289 102.967 297.013 102.598C296.736 102.229 296.367 101.953 295.721 101.768C295.353 101.584 294.522 101.399 293.139 101.03C291.848 100.661 290.925 100.385 290.372 100.108C289.726 99.7391 289.173 99.278 288.804 98.7246C288.435 98.1712 288.343 97.6178 288.343 96.88C288.343 96.1421 288.527 95.4965 288.989 94.8509C289.358 94.2053 290.003 93.7441 290.741 93.3752C291.571 93.0063 292.401 92.9141 293.323 92.9141C294.338 92.9141 295.353 93.0985 296.09 93.4674C296.828 93.8364 297.566 94.2975 297.935 95.0354C298.396 95.681 298.581 96.5111 298.673 97.3411L296.828 97.5256C296.736 96.6033 296.367 95.8654 295.814 95.4043C295.26 94.9431 294.43 94.6664 293.323 94.6664C292.217 94.6664 291.387 94.8509 290.833 95.3121C290.28 95.7732 290.095 96.2344 290.095 96.88C290.095 97.4334 290.28 97.8023 290.649 98.1712C291.018 98.5401 291.94 98.8168 293.508 99.1857C295.076 99.5547 296.09 99.8314 296.644 100.108C297.474 100.477 298.119 101.03 298.488 101.584C298.857 102.229 299.042 102.875 299.042 103.705C299.042 104.443 298.857 105.181 298.396 105.919C297.935 106.564 297.289 107.118 296.552 107.486C295.814 107.855 294.799 108.04 293.785 108.04C292.493 108.04 291.387 107.855 290.557 107.486C289.726 107.118 288.989 106.564 288.527 105.734C288.159 104.996 287.882 104.166 287.882 103.152Z" fill="white"/>
<path d="M309.003 107.856V93.1914H313.891C314.998 93.1914 315.828 93.2836 316.474 93.3759C317.304 93.5603 317.949 93.9293 318.595 94.3904C319.333 95.036 319.886 95.8661 320.255 96.8806C320.624 97.8952 320.808 99.0942 320.808 100.385C320.808 101.492 320.716 102.507 320.44 103.337C320.163 104.167 319.886 104.905 319.425 105.458C319.056 106.011 318.595 106.473 318.134 106.749C317.673 107.026 317.119 107.303 316.474 107.487C315.828 107.672 314.998 107.764 314.168 107.764H309.003V107.856ZM310.848 106.196H313.891C314.813 106.196 315.551 106.104 316.105 105.919C316.658 105.735 317.027 105.458 317.396 105.181C317.857 104.72 318.226 104.075 318.41 103.337C318.595 102.599 318.779 101.584 318.779 100.478C318.779 98.9097 318.503 97.8029 318.042 96.9729C317.58 96.1428 316.935 95.5894 316.289 95.3127C315.828 95.1283 314.998 95.036 313.799 95.036H310.755V106.196H310.848Z" fill="white"/>
<path d="M324.221 107.856V93.1914H334.551V94.9438H326.158V99.4631H334.089V101.215H326.158V106.196H334.919V107.948H324.221V107.856Z" fill="white"/>
<path d="M338.24 107.856V93.1914H343.59C344.512 93.1914 345.25 93.2836 345.803 93.3759C346.541 93.4681 347.094 93.7448 347.556 94.0215C348.017 94.3904 348.386 94.8516 348.662 95.4049C348.939 96.0506 349.123 96.6962 349.123 97.434C349.123 98.633 348.755 99.7398 347.924 100.57C347.187 101.4 345.711 101.861 343.774 101.861H340.085V107.856H338.24ZM340.177 100.201H343.866C345.065 100.201 345.988 99.9242 346.449 99.4631C346.91 99.0019 347.187 98.3563 347.187 97.5262C347.187 96.8806 347.002 96.4195 346.725 95.9583C346.449 95.4972 345.988 95.2205 345.526 95.1283C345.25 95.036 344.604 95.036 343.774 95.036H340.085V100.201H340.177Z" fill="white"/>
<path d="M361.759 93.2832H363.603V101.768C363.603 103.244 363.419 104.443 363.142 105.273C362.773 106.103 362.22 106.841 361.39 107.394C360.56 107.948 359.453 108.225 358.069 108.225C356.686 108.225 355.671 107.948 354.749 107.487C353.827 107.026 353.273 106.288 352.904 105.458C352.536 104.628 352.351 103.336 352.351 101.768V93.2832H354.196V101.768C354.196 103.06 354.288 103.982 354.565 104.535C354.841 105.089 355.21 105.642 355.764 105.919C356.317 106.288 357.055 106.38 357.793 106.38C359.176 106.38 360.191 106.103 360.744 105.365C361.297 104.72 361.666 103.521 361.666 101.676V93.2832H361.759Z" fill="white"/>
<path d="M367.938 107.856V93.1914H369.783V107.856H367.938Z" fill="white"/>
<path d="M373.288 103.152L375.04 102.967C375.132 103.705 375.317 104.258 375.593 104.812C375.87 105.273 376.423 105.642 377.069 105.919C377.715 106.195 378.453 106.38 379.283 106.38C380.02 106.38 380.666 106.287 381.219 106.011C381.773 105.734 382.142 105.457 382.418 105.088C382.695 104.72 382.787 104.258 382.787 103.797C382.787 103.336 382.695 102.967 382.418 102.598C382.142 102.229 381.773 101.953 381.127 101.768C380.758 101.584 379.928 101.399 378.545 101.03C377.253 100.661 376.331 100.385 375.778 100.108C375.132 99.7391 374.579 99.278 374.21 98.7246C373.841 98.1712 373.749 97.6178 373.749 96.88C373.749 96.1421 373.933 95.4965 374.394 94.8509C374.763 94.2053 375.409 93.7441 376.147 93.3752C376.977 93.0063 377.807 92.9141 378.729 92.9141C379.744 92.9141 380.758 93.0985 381.496 93.4674C382.234 93.8364 382.972 94.2975 383.341 95.0354C383.802 95.681 383.986 96.5111 384.079 97.3411L382.234 97.5256C382.142 96.6033 381.773 95.8654 381.219 95.4043C380.666 94.9431 379.836 94.6664 378.729 94.6664C377.622 94.6664 376.792 94.8509 376.239 95.3121C375.686 95.7732 375.501 96.2344 375.501 96.88C375.501 97.4334 375.686 97.8023 376.055 98.1712C376.423 98.5401 377.346 98.8168 378.914 99.1857C380.482 99.5547 381.496 99.8314 382.05 100.108C382.88 100.477 383.525 101.03 383.894 101.584C384.263 102.229 384.448 102.875 384.448 103.705C384.448 104.443 384.263 105.181 383.802 105.919C383.341 106.564 382.695 107.118 381.957 107.486C381.219 107.855 380.205 108.04 379.19 108.04C377.899 108.04 376.792 107.855 375.962 107.486C375.132 107.118 374.394 106.564 373.933 105.734C373.564 104.996 373.288 104.166 373.288 103.152Z" fill="white"/>
<path d="M400.311 107.855H398.558V96.418C398.097 96.7869 397.544 97.248 396.898 97.617C396.253 97.9859 395.607 98.3548 395.054 98.5393V96.7869C396.068 96.3257 396.898 95.7723 397.636 95.0345C398.374 94.3889 398.927 93.7433 399.204 93.0977H400.311V107.855Z" fill="white"/>
<path d="M408.243 99.9227C407.505 99.646 406.952 99.2771 406.583 98.7237C406.214 98.2626 406.029 97.617 406.029 96.8791C406.029 95.7723 406.398 94.9423 407.136 94.2044C407.874 93.4666 408.889 93.0977 410.088 93.0977C411.379 93.0977 412.301 93.4666 413.131 94.2044C413.961 94.9423 414.238 95.8646 414.238 96.8791C414.238 97.5247 414.053 98.1703 413.685 98.6315C413.316 99.0926 412.854 99.5538 412.117 99.8305C413.039 100.107 413.685 100.568 414.146 101.214C414.607 101.86 414.791 102.69 414.791 103.52C414.791 104.811 414.33 105.825 413.5 106.656C412.67 107.486 411.471 107.947 410.088 107.947C408.704 107.947 407.505 107.486 406.675 106.656C405.845 105.825 405.384 104.719 405.384 103.427C405.384 102.505 405.66 101.675 406.122 101.029C406.675 100.568 407.413 100.199 408.243 99.9227ZM407.321 103.612C407.321 104.165 407.413 104.626 407.69 105.088C407.966 105.549 408.243 105.918 408.704 106.194C409.165 106.471 409.719 106.563 410.18 106.563C411.01 106.563 411.748 106.287 412.209 105.733C412.762 105.18 413.039 104.442 413.039 103.612C413.039 102.782 412.762 102.044 412.209 101.491C411.655 100.937 410.918 100.661 410.088 100.661C409.257 100.661 408.612 100.937 408.058 101.491C407.505 102.044 407.321 102.782 407.321 103.612ZM407.874 96.8791C407.874 97.617 408.058 98.1703 408.52 98.5393C408.981 98.9082 409.534 99.1849 410.18 99.1849C410.825 99.1849 411.379 99.0004 411.84 98.5393C412.301 98.0781 412.486 97.5247 412.486 96.9713C412.486 96.3257 412.301 95.7723 411.84 95.3112C411.379 94.85 410.825 94.6656 410.18 94.6656C409.534 94.6656 408.981 94.85 408.52 95.3112C408.151 95.7723 407.874 96.3257 407.874 96.8791Z" fill="white"/>
<path d="M426.689 106.194V107.947H417.281C417.281 107.486 417.373 107.117 417.466 106.656C417.742 106.01 418.111 105.364 418.665 104.719C419.218 104.073 419.956 103.335 420.97 102.505C422.538 101.214 423.553 100.199 424.106 99.3693C424.66 98.6315 424.936 97.8936 424.936 97.248C424.936 96.5102 424.66 95.9568 424.199 95.4034C423.737 94.9423 423.092 94.6656 422.262 94.6656C421.432 94.6656 420.786 94.9423 420.233 95.4034C419.771 95.9568 419.495 96.6024 419.495 97.5247L417.65 97.3403C417.742 95.9568 418.204 94.9423 419.034 94.2044C419.864 93.4666 420.878 93.0977 422.262 93.0977C423.645 93.0977 424.752 93.4666 425.49 94.2967C426.228 95.1267 426.689 96.049 426.689 97.1558C426.689 97.7092 426.597 98.3548 426.32 98.9082C426.043 99.4616 425.674 100.107 425.121 100.661C424.567 101.214 423.645 102.136 422.446 103.243C421.432 104.165 420.694 104.719 420.417 105.088C420.14 105.457 419.864 105.733 419.679 106.102H426.689V106.194Z" fill="white"/>
<path d="M429.456 95.1274V93.375H438.679V94.7585C437.757 95.773 436.835 97.0642 436.004 98.7244C435.082 100.385 434.437 102.045 433.975 103.797C433.606 104.996 433.422 106.38 433.33 107.855H431.485C431.485 106.748 431.762 105.273 432.131 103.705C432.5 102.137 433.145 100.477 433.975 99.0011C434.805 97.5254 435.636 96.2341 436.466 95.1274H429.456Z" fill="white"/>
</svg>
