<svg width="108" height="128" viewBox="0 0 108 128" fill="none" xmlns="http://www.w3.org/2000/svg">
<g clip-path="url(#clip0_915_367)">
<path d="M0 127.358H106.536V20.8125H0V127.358Z" fill="#D30039"/>
<path d="M9.10059 97.5317C9.10059 100.042 9.3215 102.496 9.71729 104.898C13.2304 84.0225 31.3787 68.0864 53.2793 68.0864C75.1524 68.0864 93.3191 84.0225 96.8199 104.898C97.228 102.496 97.4335 100.042 97.4335 97.5317C97.4335 73.1397 77.6653 53.3714 53.2793 53.3714C28.872 53.3714 9.10059 73.1397 9.10059 97.5317Z" fill="white"/>
<path d="M60.0475 32.7257C57.8783 31.477 55.6416 30.4399 53.3681 29.587C69.6755 43.09 74.3361 66.7672 63.3826 85.7009C52.4139 104.629 29.5314 112.345 9.71094 104.923C11.5795 106.466 13.5922 107.89 15.7614 109.136C36.8582 121.375 63.8705 114.186 76.1003 93.086C88.3392 71.9892 81.1536 44.9616 60.0475 32.7257Z" fill="white"/>
<path d="M46.4986 32.7257C48.6678 31.477 50.8953 30.4399 53.178 29.587C36.8645 43.09 32.2009 66.7672 43.1696 85.7009C54.1445 104.629 77.027 112.345 96.8413 104.923C94.9667 106.466 92.9509 107.89 90.7725 109.136C69.694 121.375 42.6542 114.186 30.4428 93.086C18.2069 71.9892 25.3926 44.9616 46.4986 32.7257Z" fill="white"/>
<path d="M0 20.8114H106.536V0H0V20.8114Z" fill="#004B9D"/>
<path d="M8.00802 14.8992C9.312 14.8992 9.86427 14.2487 9.86427 13.1073C9.86427 12.1715 9.41632 11.2818 8.20745 11.2818H7.03234V14.8992H8.00802ZM7.67052 9.1187C8.83336 9.1187 9.41632 8.59404 9.41632 7.4987C9.41632 6.43711 8.87018 5.90938 7.67052 5.90938H7.03234V9.1187H7.67052ZM4.00098 3.73404H8.52041C11.245 3.73404 12.4385 5.46756 12.4385 7.10904C12.4385 8.30256 11.8218 9.2537 10.6375 9.83359C12.1255 10.5147 12.8987 11.6254 12.8987 13.1411C12.8987 15.2765 11.3063 17.0684 8.55109 17.0684H4.00098V3.73404Z" fill="white"/>
<path d="M21.312 14.6337C22.7265 14.6337 23.4751 13.5997 23.4751 10.3904C23.4751 8.09232 23.113 6.16857 21.312 6.16857C19.6797 6.16857 19.1397 7.78243 19.1397 10.3904C19.1397 13.0566 19.6552 14.6337 21.312 14.6337ZM21.312 3.56061C23.788 3.56061 26.5647 5.40766 26.5647 10.4119C26.5647 15.6247 23.5763 17.2539 21.312 17.2539C18.7286 17.2539 16.0654 15.278 16.0654 10.2799C16.0654 5.74209 18.7102 3.56061 21.312 3.56061Z" fill="white"/>
<path d="M34.1982 9.14325C35.226 9.14325 35.8427 8.59404 35.8427 7.54779C35.8427 6.48006 35.2812 6.03518 34.1644 6.03518H33.247V9.14325H34.1982ZM30.2188 3.73404H34.5725C37.3124 3.73404 38.8741 5.2804 38.8741 7.46188C38.8741 8.96836 38.2052 9.92563 36.6251 10.5945C37.8217 11.2511 38.2758 14.2487 39.4172 17.0684H36.2753L35.5482 14.577C34.7136 11.6806 34.5142 11.4444 33.247 11.4444V17.0684H30.2188V3.73404Z" fill="white"/>
<path d="M46.3452 14.8317C48.545 14.8317 49.22 13.1165 49.22 10.4564C49.22 7.94359 48.6003 5.97381 46.5108 5.97381H45.6241V14.8317H46.3452ZM42.5928 3.73404H46.5507C50.7296 3.73404 52.3097 7.05688 52.3097 10.2907C52.3097 13.3589 50.8278 17.0684 46.7072 17.0684H42.5928V3.73404Z" fill="white"/>
<path d="M55.9971 3.73404H63.778V6.03518H59.0284V9.14325H63.4435V11.4444H59.0284V14.7703H63.9529V17.0684H55.9971V3.73404Z" fill="white"/>
<path d="M72.5285 12.1286L71.4945 7.28086H71.4485L70.3961 12.1286H72.5285ZM69.893 3.65427H73.0378L76.5294 17.0684H73.6085L72.9765 14.3009H69.9697L69.3161 17.0684H66.4014L69.893 3.65427Z" fill="white"/>
<path d="M82.4058 3.7355V12.9186C82.4058 13.9802 82.9796 14.7319 84.0473 14.7319C85.2255 14.7319 85.698 13.9802 85.698 12.756V3.7355H88.7232V12.5105C88.7232 15.4406 87.2198 17.2539 84.0473 17.2539C81.2798 17.2539 79.3867 15.8671 79.3867 12.5442V3.7355H82.4058Z" fill="white"/>
<path d="M95.6907 10.0023L92.1776 3.73404H95.4974L97.3966 7.40359L99.3142 3.73404H102.609L99.0994 10.0023L103.002 17.0684H99.7008L97.3966 12.7085L95.0954 17.0684H91.791L95.6907 10.0023Z" fill="white"/>
</g>
<defs>
<clipPath id="clip0_915_367">
<rect width="108" height="127.636" fill="white"/>
</clipPath>
</defs>
</svg>
