<svg width="247" height="40" viewBox="0 0 247 40" fill="none" xmlns="http://www.w3.org/2000/svg">
<path d="M29.4263 0.968815C27.7241 1.40342 26.0219 2.27263 24.7362 3.35914C22.7624 5.04323 21.6397 6.65489 20.4264 9.58846C20.0642 10.4758 19.6658 11.2182 19.5572 11.2182C19.4485 11.2182 19.0864 10.5301 18.7785 9.67901C17.1488 5.36918 14.7946 2.77967 11.2997 1.49396C10.3218 1.13179 9.83292 1.09558 5.1066 1.02314L0 0.950706L0.036217 5.73135L0.0905425 10.4939L4.8893 10.5844L9.68805 10.675L9.72427 24.6185L9.76048 38.5621L14.8309 38.6164L19.9012 38.6526L19.9737 28.204C20.028 18.9687 20.0823 17.5924 20.354 16.4697C21.1326 13.4094 22.7986 11.0553 24.9535 10.005C25.9857 9.49792 26.3841 9.38927 27.7603 9.33495C29.7342 9.26251 30.6939 9.58846 31.5631 10.6025C32.885 12.1418 32.8488 11.7434 32.9575 25.8861L33.048 38.5621L38.1727 38.6164L43.2793 38.6526V28.9283C43.2793 19.9827 43.3155 19.0411 43.6415 17.4838C44.728 12.178 47.5348 9.31684 51.5911 9.31684C53.8728 9.31684 54.8326 10.005 55.6293 12.1599C56.0096 13.1739 56.0277 13.5904 56.1364 22.355C56.245 31.0289 56.2631 31.5541 56.6253 32.4957C57.2953 34.3066 57.8023 35.1033 59.0156 36.2985C60.7721 38.0369 62.1665 38.6345 65.8787 39.2683L66.4763 39.377L66.422 24.7453L66.3677 10.1317L65.8787 8.35709C64.4482 3.12373 61.2611 0.624756 56.0458 0.624756C50.9392 0.642864 47.0097 3.21427 44.5831 8.13978C44.1666 8.95467 43.7864 9.84198 43.732 10.0955C43.5872 10.6206 43.1888 11.0371 43.0258 10.8017C42.9715 10.7112 42.7723 9.89631 42.5731 8.97277C41.6315 4.64484 39.1506 1.87424 35.384 0.91449C33.8991 0.534214 31.0561 0.552322 29.4263 0.968815Z" fill="white"/>
<path d="M87.0292 1.00589C82.9005 1.47671 78.8623 3.28756 76.1822 5.85897C75.2044 6.80061 73.5203 9.06417 73.5203 9.44445C73.5203 9.535 73.8643 9.78852 74.2989 10.0058C75.0776 10.4042 76.8703 11.364 79.3512 12.7221C80.1118 13.1386 80.818 13.4826 80.8904 13.4826C80.981 13.4826 81.3069 13.048 81.6329 12.5048C82.3391 11.3277 83.9327 9.82473 85.164 9.20904C86.8843 8.32173 89.3652 8.03199 91.5382 8.43038C92.8058 8.66579 93.3853 8.93742 94.2545 9.71608C95.2867 10.6034 95.6489 11.5088 95.7394 13.4283L95.8299 15.0762L94.9607 15.5289C94.0915 15.9635 91.9728 16.5249 88.4598 17.2854C82.9729 18.4444 81.2345 18.9695 78.9528 20.1104C76.4538 21.378 74.9146 22.881 73.9549 24.9997C72.814 27.5711 72.8865 31.229 74.1541 33.8547C75.6933 37.0418 78.3915 38.7621 82.4659 39.1786C84.0956 39.3416 86.6127 39.2148 87.7354 38.907C89.6368 38.3999 92.0091 37.0056 93.2042 35.7018C93.9829 34.8507 95.178 32.9312 95.3591 32.2249C95.4134 31.9895 95.5764 31.6998 95.7213 31.573C95.9386 31.4101 95.9748 31.4825 95.9748 31.9895C95.9748 33.1304 96.6992 36.6796 97.1156 37.5488L97.514 38.3818L102.548 38.4362C105.301 38.4543 107.564 38.4181 107.564 38.3456C107.564 38.2551 107.437 38.0559 107.293 37.8567C106.804 37.2229 106.315 35.1223 106.025 32.5509C105.826 30.6314 105.753 27.897 105.753 21.6858C105.753 11.7442 105.627 10.4042 104.431 7.68793C102.44 3.12459 97.5684 0.752373 90.3612 0.824806C89.2203 0.842915 87.7173 0.915348 87.0292 1.00589ZM95.7575 22.6637L95.7032 26.0681L95.0151 27.4624C94.2183 29.0922 92.5704 30.8668 91.1398 31.6455C88.9125 32.8406 86.3773 32.7682 84.8019 31.4825C83.6248 30.5046 83.2264 29.6173 83.2264 27.8789C83.2083 26.7019 83.2989 26.2854 83.6248 25.6335C84.5665 23.8769 86.8481 22.4101 90.2706 21.378C92.9326 20.5631 94.5805 19.9655 95.0694 19.6214C95.3229 19.4403 95.5945 19.2774 95.667 19.2774C95.7575 19.2774 95.7937 20.7985 95.7575 22.6637Z" fill="white"/>
<path d="M161.89 1.00478C156.186 1.72912 151.405 4.48161 148.87 8.5017C148.2 9.5701 148.146 9.49767 150.355 10.6566C151.224 11.1093 152.637 11.8699 153.524 12.3226C154.393 12.7934 155.172 13.2461 155.28 13.3186C155.624 13.6445 155.914 13.4634 156.294 12.7391C157.58 10.2039 161.111 8.23007 164.335 8.23007C167.087 8.23007 169.007 9.09928 170.021 10.8015C170.582 11.725 170.944 14.5862 170.582 15.0389C170.057 15.6364 168.011 16.2702 163.248 17.2843C157.399 18.5157 154.828 19.3668 152.582 20.7974C150.445 22.1736 149.232 23.6766 148.472 25.8859C147.874 27.6786 147.874 30.757 148.472 32.5498C149.323 35.085 150.572 36.6242 152.655 37.7831C154.284 38.6886 155.226 38.9602 157.309 39.1775C160.405 39.5035 163.14 38.9964 165.512 37.6926C167.395 36.6423 169.604 34.0709 170.22 32.2238C170.582 31.1554 170.836 31.59 171.053 33.6363C171.27 35.5015 171.632 36.932 172.158 37.9642L172.411 38.4713H177.481H182.552L182.19 37.9461C181.683 37.2399 181.121 35.1031 180.904 33.0387C180.813 32.0971 180.723 27.57 180.723 22.9885C180.723 11.9242 180.469 9.69686 178.858 6.78139C178.007 5.26028 175.997 3.37699 174.385 2.59832C171.198 1.0591 166.327 0.425308 161.89 1.00478ZM170.763 22.0106C170.763 24.7088 170.528 26.3205 169.985 27.2983C168.011 30.9019 165.331 32.6766 162.234 32.4592C160.025 32.2963 158.667 31.1011 158.16 28.8738C157.635 26.6102 158.667 24.5639 161.148 23.0066C161.999 22.4634 163.701 21.7933 165.783 21.1777C168.174 20.4533 169.333 20.0187 169.84 19.6384C170.727 18.9684 170.763 19.059 170.763 22.0106Z" fill="white"/>
<path d="M230.557 0.986732C226.718 1.31268 223.513 2.6165 221.195 4.80762C216.668 9.11745 217.084 16.3246 222.082 19.892C223.712 21.0691 225.342 21.8296 228.8 23.0791C234.251 25.0348 235.899 26.0489 236.587 27.8416C236.859 28.566 236.877 28.8195 236.696 29.399C236.098 31.4271 233.817 32.5136 230.792 32.2239C228.366 31.9885 226.446 31.0831 224.636 29.3265C223.911 28.6384 223.169 27.8235 222.97 27.5338L222.607 27.0087L221.412 27.9865C217.664 31.1012 216.958 31.7169 216.849 32.0066C216.758 32.242 216.976 32.6404 217.573 33.3647C219.909 36.2259 223.821 38.3265 228.167 39.0327C229.887 39.3224 234.179 39.3224 235.953 39.0327C242.853 37.9462 247 33.908 247 28.3487C247 25.7954 246.13 23.3145 244.664 21.6123C243.758 20.5801 241.911 19.3125 240.028 18.4614C238.47 17.7552 238.036 17.5741 235.501 16.723C233.78 16.1254 233.472 16.0168 231.607 15.1476C229.543 14.1878 228.167 12.6667 228.167 11.3086C228.167 10.5299 228.764 9.42529 229.47 8.90015C230.593 8.06716 231.607 7.81364 233.545 7.90418C235.157 7.95851 235.446 8.03094 236.714 8.66474C238.036 9.31664 239.484 10.5842 240.354 11.8337L240.643 12.2683L241.82 11.2905C244.537 9.0088 246.022 7.70499 246.311 7.37903C246.619 7.05308 246.601 6.99876 245.822 6.11144C242.418 2.23622 237.13 0.461586 230.557 0.986732Z" fill="white"/>
<path d="M211.182 1.54746C206.564 2.99614 203.377 7.61381 202.218 14.5675C202.037 15.6902 201.928 15.9256 201.657 15.9256C201.349 15.9256 201.313 15.7807 201.349 14.2053C201.367 13.2637 201.457 11.5071 201.548 10.312C201.638 9.11682 201.729 6.69028 201.729 4.91564V1.71044H193.218H184.707V5.51322V9.31601H188.691H192.675V23.8934V38.4707H197.637H202.616L202.689 29.6338C202.743 21.4487 202.779 20.7244 203.123 19.5473C204.083 16.2153 205.749 14.3683 208.683 13.4447C209.498 13.1731 210.53 13.0645 212.648 12.992L215.491 12.8834V7.03434V1.16718L213.916 1.18529C212.884 1.2034 211.924 1.33016 211.182 1.54746Z" fill="white"/>
<path d="M113.178 5.42268V9.13493H122.884C131.051 9.13493 132.572 9.17114 132.518 9.38844C132.482 9.51521 131.449 10.7285 130.2 12.0504C128.95 13.3904 127.284 15.1651 126.488 16.0162C125.691 16.8673 124.55 18.0805 123.934 18.7324C123.319 19.3843 122.594 20.1449 122.323 20.4527C122.069 20.7425 121.453 21.3944 120.983 21.9014C120.512 22.3904 118.954 24.0744 117.524 25.6137C116.093 27.1529 114.88 28.4567 114.808 28.511C114.753 28.5654 114.174 29.181 113.504 29.9054L112.272 31.1911V34.8309V38.4707H127.755H143.238V34.5774V30.684H133.369C126.379 30.684 123.5 30.6297 123.5 30.4849C123.5 30.3762 124.568 29.1448 125.89 27.7324C127.212 26.3199 128.661 24.7445 129.113 24.2555C130.109 23.169 131.866 21.2857 134.836 18.0986C136.031 16.7948 138.294 14.3683 139.852 12.6661L142.695 9.60575V5.6581V1.71044H127.936H113.178V5.42268Z" fill="white"/>
</svg>
