<svg width="458" height="84" viewBox="0 0 458 84" fill="none" xmlns="http://www.w3.org/2000/svg">
<path d="M420.554 37.8297C420.942 37.81 421.327 37.9026 421.663 38.0965C422 38.2903 422.273 38.5771 422.451 38.9225C422.628 39.2679 422.702 39.6572 422.664 40.0437C422.626 40.4301 422.477 40.7974 422.235 41.1013C415.957 48.8675 411.748 57.4694 409.608 66.9071C405.633 84.4268 434.68 72.6247 439.877 69.1085C440.407 68.7416 440.356 68.4766 439.725 68.3135C439.276 68.2116 438.797 68.3033 438.288 68.5887C432.947 71.6259 427.117 72.9508 420.798 72.5635C420.281 72.5358 419.778 72.3787 419.335 72.1065C418.892 71.8343 418.523 71.4555 418.261 71.0042C413.949 63.452 424.957 42.5995 429.635 37.8297C432.264 35.1696 432.753 30.6444 434.16 28.229C440.091 18.0779 443.699 11.5959 451.588 4.89982C452.526 4.12524 452.383 3.7889 451.16 3.89082C440.978 4.74694 431.163 24.193 426.883 32.4484C426.39 33.3967 425.614 34.1696 424.662 34.6621C423.71 35.1545 422.628 35.3424 421.563 35.2002C411.442 33.8854 405.052 31.0725 395.207 39.6336C395.084 39.7559 395.105 39.8069 395.268 39.7865C404.012 38.9712 412.441 38.3189 420.554 37.8297Z" stroke="white" stroke-width="6.11511"/>
<path d="M100.735 17.0086L109.938 14.5014C110.264 14.3995 110.447 14.1752 110.488 13.8287C110.509 13.5433 110.539 13.258 110.58 12.9726C110.594 12.78 110.559 12.5869 110.478 12.4117C110.397 12.2364 110.272 12.0849 110.116 11.9715C109.96 11.8581 109.777 11.7865 109.585 11.7638C109.393 11.741 109.199 11.7677 109.021 11.8413C106.024 13.0236 103.13 14.43 100.337 16.0607C98.0541 17.3857 98.1866 17.7016 100.735 17.0086Z" stroke="white" stroke-width="6.11511"/>
<path d="M211.265 12.2642C211.155 11.9848 210.441 11.9556 209.28 12.1827C208.119 12.4099 206.606 12.875 205.073 13.4756C204.314 13.773 203.573 14.0948 202.893 14.4225C202.213 14.7502 201.606 15.0774 201.108 15.3856C200.609 15.6937 200.229 15.9766 199.989 16.2182C199.749 16.4598 199.653 16.6553 199.707 16.7936C199.817 17.073 200.53 17.1023 201.692 16.8751C202.853 16.6479 204.366 16.1829 205.899 15.5823C206.658 15.2848 207.398 14.9631 208.079 14.6354C208.759 14.3076 209.366 13.9804 209.864 13.6723C210.362 13.3642 210.743 13.0812 210.983 12.8396C211.223 12.598 211.319 12.4025 211.265 12.2642Z" stroke="white" stroke-width="6.11511"/>
<path d="M34.0193 63.6056L12.7081 18.262C12.1985 17.1817 11.8622 17.2327 11.6991 18.4149C9.4773 35.4353 7.59181 52.4965 6.04264 69.5984C5.92034 70.8214 5.31902 72.2788 4.23869 73.9707C3.79025 74.6637 3.9737 74.9797 4.78905 74.9185L9.61998 74.5822C10.5984 74.521 10.7717 74.1032 10.1398 73.3286C8.91675 71.8406 8.35619 70.5972 8.45811 69.5984C9.78305 56.6751 11.159 43.7926 12.5858 30.9509C12.6125 30.7149 12.7148 30.4938 12.8774 30.3207C13.0401 30.1476 13.2544 30.0318 13.4883 29.9905C13.7222 29.9493 13.9632 29.9847 14.1752 30.0917C14.3873 30.1987 14.5591 30.3713 14.665 30.584L34.6308 72.5336C35.2831 73.8993 35.9353 73.9095 36.5876 72.5642L57.5319 29.5444C57.6492 29.2999 57.8444 29.1013 58.0869 28.9798C58.3294 28.8583 58.6054 28.8209 58.8714 28.8735C59.1375 28.926 59.3786 29.0654 59.5567 29.2699C59.7349 29.4744 59.84 29.7323 59.8556 30.0031L63.2495 72.7782C63.331 73.6751 63.8203 74.1847 64.7171 74.307L72.2693 75.3466C73.5739 75.5097 73.6452 75.2956 72.4833 74.7045L68.1416 72.4113C67.7277 72.1948 67.374 71.8774 67.1124 71.4877C66.8509 71.0981 66.6897 70.6484 66.6434 70.1793L61.843 19.0264C61.7003 17.4161 61.2723 17.3448 60.5589 18.8124L39.0337 63.6362C37.3622 67.1422 35.6907 67.132 34.0193 63.6056Z" stroke="white" stroke-width="6.11511"/>
<path d="M296.297 30.2462L297.336 17.8631C297.398 17.0478 297.02 16.6503 296.205 16.6707C295.797 16.6707 295.38 16.6808 294.951 16.7012C294.156 16.742 293.81 17.1599 293.912 17.9548L295.685 30.2768C295.687 30.3169 295.697 30.3563 295.714 30.3926C295.732 30.429 295.756 30.4615 295.786 30.4885C295.815 30.5155 295.85 30.5363 295.888 30.5498C295.926 30.5633 295.966 30.5693 296.006 30.5673C296.046 30.5652 296.086 30.5553 296.122 30.5381C296.158 30.5209 296.191 30.4967 296.218 30.4669C296.245 30.4371 296.266 30.4022 296.279 30.3644C296.293 30.3265 296.299 30.2864 296.297 30.2462Z" stroke="white" stroke-width="6.11511"/>
<path d="M148.401 72.8068C117.734 64.154 129.811 12.8482 168.306 28.8698C169.182 29.2367 169.773 29.8584 170.079 30.7349L171.241 33.9759C171.306 34.1221 171.419 34.2416 171.562 34.3148C171.704 34.3879 171.867 34.4103 172.024 34.3783C172.181 34.3462 172.322 34.2615 172.424 34.1383C172.527 34.0151 172.584 33.8608 172.586 33.7007L172.403 29.3284C172.342 27.9627 171.649 27.1066 170.324 26.76C115.043 11.7475 113.637 83.172 165.523 75.4363C169.926 74.7841 172.291 72.4297 172.617 68.3734C172.658 67.7211 172.495 67.6702 172.128 68.2205C166.471 76.3536 157.023 75.2529 148.401 72.8068Z" stroke="white" stroke-width="6.11511"/>
<path d="M95.049 70.6082L94.8044 29.0866C94.8044 28.2713 95.2121 27.7719 96.0274 27.5884C101.959 26.2635 107.605 26.9361 112.966 29.6064C113.077 29.6637 113.201 29.6917 113.326 29.6877C113.451 29.6837 113.573 29.6478 113.68 29.5835C113.787 29.5192 113.876 29.4285 113.939 29.3202C114.001 29.2118 114.035 29.0893 114.036 28.9643L114.006 27.6496C114.006 27.1468 113.803 26.6646 113.442 26.3091C113.08 25.9536 112.59 25.7539 112.08 25.7539L90.6461 26.0291C89.8715 26.0495 89.6677 26.4062 90.0346 27.0992C90.8703 28.6688 91.3188 30.3504 91.3799 32.1442C91.7163 40.9194 94.1317 66.5111 89.9123 73.2989C89.4435 74.0735 89.6575 74.4811 90.5544 74.5219L111.101 75.5003C111.67 75.5283 112.238 75.424 112.758 75.1958C113.278 74.9676 113.737 74.6217 114.098 74.1856L115.565 72.4122C117.074 70.5777 116.798 70.2617 114.74 71.4644C108.767 74.9092 102.581 75.1946 96.1803 72.3205C95.4261 71.9943 95.049 71.4236 95.049 70.6082Z" stroke="white" stroke-width="6.11511"/>
<path d="M194.818 70.0574V30.4621C194.82 29.6839 195.107 28.9335 195.626 28.3531C196.144 27.7727 196.858 27.4026 197.631 27.3128C203.012 26.7217 208.169 27.5065 213.102 29.6671C213.301 29.7656 213.528 29.7955 213.746 29.752C213.964 29.7086 214.161 29.5943 214.308 29.4269C214.454 29.2595 214.541 29.0484 214.556 28.8265C214.57 28.6045 214.51 28.3841 214.386 28.1995C213.469 26.7319 211.675 25.998 209.005 25.998C202.625 26.0184 196.183 26.0388 189.681 26.0592C188.417 26.0592 188.285 26.4567 189.283 27.2517L190.629 28.3218C191.342 28.8925 191.699 29.6264 191.699 30.5232L191.668 69.9657C191.668 70.883 191.332 71.6575 190.659 72.2894L189.345 73.543C188.203 74.603 188.407 75.0514 189.956 74.8884C195.562 74.338 201.147 74.5316 206.711 75.4693C211.012 76.1827 213.978 75.0718 215.609 72.1366C216.689 70.2205 216.322 69.8842 214.508 71.1276C208.719 75.0209 202.594 75.3776 196.132 72.1977C195.256 71.7697 194.818 71.0562 194.818 70.0574Z" stroke="white" stroke-width="6.11511"/>
<path d="M237.102 33.8215L275.229 73.6614C276.187 74.6602 276.717 74.4666 276.819 73.0805C277.655 59.9534 277.584 46.8161 276.605 33.6686C276.524 32.5067 277.023 30.4786 278.103 27.5841C278.47 26.5649 278.114 26.0145 277.033 25.933L274.159 25.719C273.018 25.6171 272.702 26.0757 273.211 27.0949C276.789 33.9744 275.26 55.469 275.596 64.7334C275.614 65.1367 275.507 65.5343 275.29 65.8737C275.073 66.2131 274.756 66.4783 274.382 66.6341C274.007 66.7899 273.592 66.829 273.192 66.7462C272.792 66.6634 272.426 66.4626 272.141 66.1704L235.175 27.1866C234.38 26.3712 233.952 26.5343 233.891 27.6758C233.076 40.8641 232.994 54.0727 233.647 67.3017C233.769 69.8701 233.106 72.1123 231.659 74.0283C231.027 74.8641 231.231 75.231 232.271 75.1291L238.049 74.5481C238.335 74.5074 238.376 74.3851 238.172 74.1812L237.254 73.2945C236.419 72.4384 235.98 71.4192 235.94 70.237L235.236 34.6165C235.233 34.3945 235.297 34.1756 235.417 33.9886C235.538 33.8016 235.711 33.6553 235.913 33.5691C236.116 33.483 236.337 33.461 236.55 33.506C236.762 33.5511 236.954 33.6611 237.102 33.8215Z" stroke="white" stroke-width="6.11511"/>
<path d="M344.148 77.8823C343.313 78.31 342.37 78.4799 341.438 78.3707C340.505 78.2616 339.627 77.8781 338.913 77.269C338.199 76.6599 337.682 75.8526 337.427 74.9493C337.173 74.0461 337.192 73.0875 337.483 72.1953C342.477 57.1725 349.723 43.3218 359.222 30.6431C359.495 30.2701 359.634 29.8157 359.616 29.3538C359.598 28.8918 359.424 28.4496 359.123 28.0989C358.822 27.7481 358.411 27.5096 357.957 27.4219C357.504 27.3343 357.033 27.4027 356.623 27.6161C351.629 30.3272 348.653 34.4345 347.695 39.9381C347.534 40.9022 347.136 41.825 346.533 42.6287C340.296 50.6395 326.843 70.269 336.015 79.1665C336.404 79.5366 336.874 79.8118 337.388 79.9709C337.902 80.13 338.448 80.1686 338.981 80.0838C346.115 78.8811 352.506 76.0172 358.152 71.4921C360.027 69.9837 359.895 69.7798 357.755 70.8805L344.148 77.8823Z" stroke="white" stroke-width="6.11511"/>
<path d="M391.977 36.5862C392.087 36.4062 392.121 36.19 392.071 35.9851C392.022 35.7801 391.893 35.6032 391.713 35.4934L388.215 33.3586C388.126 33.3042 388.027 33.2679 387.924 33.2518C387.821 33.2356 387.716 33.2399 387.614 33.2645C387.513 33.289 387.417 33.3334 387.333 33.3949C387.248 33.4564 387.177 33.534 387.123 33.6231L363.642 72.0911C363.532 72.271 363.498 72.4873 363.548 72.6922C363.597 72.8971 363.726 73.074 363.906 73.1839L367.403 75.3186C367.492 75.373 367.591 75.4094 367.695 75.4255C367.798 75.4416 367.903 75.4373 368.004 75.4127C368.106 75.3882 368.202 75.3439 368.286 75.2824C368.37 75.2208 368.442 75.1433 368.496 75.0542L391.977 36.5862Z" stroke="white" stroke-width="6.11511"/>
<path d="M315.377 66.5399C322.195 53.3312 329.533 43.5471 343.17 34.3744C343.224 34.3346 343.264 34.278 343.283 34.2134C343.301 34.1489 343.298 34.0799 343.274 34.0172C343.25 33.9545 343.205 33.9016 343.148 33.8667C343.09 33.8318 343.023 33.8168 342.956 33.8241C326.445 36.3924 311.922 59.2323 308.773 73.0219C308.689 73.4046 308.699 73.8018 308.803 74.1795C308.907 74.5572 309.102 74.9039 309.37 75.1898C309.637 75.4756 309.971 75.6921 310.341 75.8204C310.711 75.9488 311.107 75.9852 311.494 75.9266L316.631 75.1011C316.842 75.0724 317.037 74.9734 317.185 74.8201C317.333 74.6668 317.425 74.4681 317.446 74.2562C317.467 74.0442 317.416 73.8312 317.302 73.6517C317.187 73.4721 317.015 73.3364 316.814 73.2665C314.083 72.1862 313.604 69.944 315.377 66.5399Z" stroke="white" stroke-width="6.11511"/>
<path d="M454.183 35.3711C454.178 35.2146 453.897 35.0678 453.355 34.9391C452.813 34.8105 452.021 34.7025 451.025 34.6213C450.028 34.5401 448.846 34.4873 447.547 34.4659C446.247 34.4445 444.855 34.4549 443.451 34.4966C440.614 34.5808 437.897 34.7871 435.898 35.0701C433.898 35.3532 432.78 35.6897 432.789 36.0058C432.794 36.1624 433.075 36.3092 433.617 36.4378C434.159 36.5665 434.951 36.6745 435.947 36.7557C436.944 36.8369 438.126 36.8897 439.425 36.9111C440.725 36.9324 442.117 36.922 443.521 36.8803C446.358 36.7961 449.075 36.5898 451.074 36.3068C453.074 36.0238 454.192 35.6872 454.183 35.3711Z" stroke="white" stroke-width="6.11511"/>
<path d="M110.854 51.1595C111.404 51.608 111.833 51.8118 112.138 51.771C112.584 51.7629 113.009 51.578 113.318 51.2569C113.628 50.9358 113.797 50.5048 113.789 50.0588C113.781 49.6128 113.596 49.1883 113.275 48.8786C112.954 48.569 112.523 48.3996 112.077 48.4077C108.327 48.1223 104.443 47.9083 100.428 47.7656C100.285 47.7656 100.173 47.7962 100.092 47.8573C99.8469 48.0204 99.7246 48.2446 99.7246 48.53C99.7246 48.6523 99.796 48.7237 99.9386 48.744C103.2 49.1517 106.431 49.753 109.631 50.548C110.039 50.6499 110.446 50.8538 110.854 51.1595Z" stroke="white" stroke-width="6.11511"/>
<path d="M210.287 50.9457C210.898 51.7407 211.367 52.0974 211.693 52.0159C212.107 51.9352 212.479 51.7124 212.745 51.3862C213.011 51.06 213.155 50.6509 213.152 50.2298C213.148 49.8087 212.997 49.4021 212.725 49.0805C212.453 48.759 212.077 48.5427 211.663 48.4691C208.768 47.8576 205.609 47.827 202.184 48.3774C201.94 48.3978 201.644 48.6322 201.298 49.0806C201.155 49.2845 201.206 49.3966 201.45 49.417L208.513 49.9979C208.86 50.0266 209.196 50.1256 209.501 50.2887C209.806 50.4518 210.073 50.6754 210.287 50.9457Z" stroke="white" stroke-width="6.11511"/>
<path d="M420.557 37.8297C412.444 38.3189 404.015 38.9712 395.271 39.7865C395.108 39.8069 395.087 39.7559 395.209 39.6336C405.055 31.0725 411.445 33.8854 421.566 35.2002C422.631 35.3424 423.713 35.1545 424.665 34.6621C425.617 34.1696 426.393 33.3967 426.886 32.4484C431.166 24.193 440.981 4.74694 451.163 3.89082C452.386 3.7889 452.528 4.12524 451.591 4.89982C443.702 11.5959 440.094 18.0779 434.163 28.229C432.756 30.6444 432.267 35.1696 429.638 37.8297C424.959 42.5995 413.952 63.452 418.263 71.0042C418.526 71.4555 418.895 71.8343 419.338 72.1065C419.781 72.3787 420.284 72.5358 420.801 72.5635C427.12 72.9508 432.95 71.6259 438.29 68.5887C438.8 68.3033 439.279 68.2116 439.727 68.3135C440.359 68.4766 440.41 68.7416 439.88 69.1085C434.683 72.6247 405.636 84.4268 409.611 66.9071C411.751 57.4694 415.96 48.8675 422.238 41.1013C422.48 40.7974 422.629 40.4301 422.667 40.0437C422.705 39.6572 422.631 39.2679 422.454 38.9225C422.276 38.5771 422.003 38.2903 421.666 38.0965C421.33 37.9026 420.944 37.81 420.557 37.8297Z" fill="white"/>
<path d="M100.34 16.0607C103.133 14.43 106.027 13.0236 109.023 11.8413C109.202 11.7677 109.396 11.741 109.588 11.7638C109.78 11.7865 109.963 11.8581 110.119 11.9715C110.275 12.0849 110.4 12.2364 110.481 12.4117C110.562 12.5869 110.597 12.78 110.583 12.9726C110.542 13.258 110.511 13.5433 110.491 13.8287C110.45 14.1752 110.267 14.3995 109.941 14.5014L100.737 17.0086C98.1895 17.7016 98.057 17.3857 100.34 16.0607Z" fill="white"/>
<path d="M205.899 15.586C209.091 14.3352 211.494 12.8497 211.266 12.268C211.038 11.6863 208.265 12.2286 205.074 13.4794C201.882 14.7302 199.48 16.2157 199.708 16.7974C199.936 17.3792 202.708 16.8368 205.899 15.586Z" fill="white"/>
<path d="M34.0193 63.6056C35.6907 67.132 37.3622 67.1422 39.0337 63.6362L60.5589 18.8124C61.2723 17.3448 61.7003 17.4161 61.843 19.0264L66.6434 70.1793C66.6897 70.6484 66.8509 71.0981 67.1124 71.4877C67.374 71.8774 67.7277 72.1948 68.1416 72.4113L72.4833 74.7045C73.6452 75.2956 73.5739 75.5097 72.2693 75.3466L64.7171 74.307C63.8203 74.1847 63.331 73.6751 63.2495 72.7782L59.8556 30.0031C59.84 29.7323 59.7349 29.4744 59.5567 29.2699C59.3786 29.0654 59.1375 28.926 58.8714 28.8735C58.6054 28.8209 58.3294 28.8583 58.0869 28.9798C57.8444 29.1013 57.6492 29.2999 57.5319 29.5444L36.5876 72.5642C35.9353 73.9095 35.2831 73.8993 34.6308 72.5336L14.665 30.584C14.5591 30.3713 14.3873 30.1987 14.1752 30.0917C13.9632 29.9847 13.7222 29.9493 13.4883 29.9905C13.2544 30.0318 13.0401 30.1476 12.8774 30.3207C12.7148 30.4938 12.6125 30.7149 12.5858 30.9509C11.159 43.7926 9.78305 56.6751 8.45811 69.5984C8.35619 70.5972 8.91675 71.8406 10.1398 73.3286C10.7717 74.1032 10.5984 74.521 9.61998 74.5822L4.78905 74.9185C3.9737 74.9797 3.79025 74.6637 4.23869 73.9707C5.31902 72.2788 5.92034 70.8214 6.04264 69.5984C7.59181 52.4965 9.4773 35.4353 11.6991 18.4149C11.8622 17.2327 12.1985 17.1817 12.7081 18.262L34.0193 63.6056Z" fill="white"/>
<path d="M297.336 17.8631L296.297 30.2462C296.299 30.2864 296.293 30.3265 296.279 30.3644C296.266 30.4022 296.245 30.4371 296.218 30.4669C296.191 30.4967 296.158 30.5209 296.122 30.5381C296.086 30.5553 296.046 30.5652 296.006 30.5673C295.966 30.5693 295.926 30.5633 295.888 30.5498C295.85 30.5363 295.815 30.5155 295.786 30.4885C295.756 30.4615 295.732 30.429 295.714 30.3926C295.697 30.3563 295.687 30.3169 295.685 30.2768L293.912 17.9548C293.81 17.1599 294.156 16.742 294.951 16.7012C295.38 16.6808 295.797 16.6707 296.205 16.6707C297.02 16.6503 297.398 17.0478 297.336 17.8631Z" fill="white"/>
<path d="M168.31 28.8756C129.815 12.854 117.738 64.1598 148.405 72.8127C157.027 75.2588 166.475 76.3595 172.132 68.2264C172.499 67.676 172.662 67.727 172.621 68.3792C172.295 72.4356 169.93 74.7899 165.527 75.4422C113.641 83.1778 115.047 11.7533 170.328 26.7659C171.653 27.1124 172.346 27.9686 172.407 29.3343L172.59 33.7066C172.588 33.8666 172.531 34.021 172.428 34.1442C172.326 34.2674 172.185 34.352 172.028 34.3841C171.871 34.4162 171.708 34.3938 171.566 34.3206C171.423 34.2475 171.31 34.1279 171.245 33.9817L170.083 30.7407C169.777 29.8642 169.186 29.2425 168.31 28.8756Z" fill="white"/>
<path d="M96.1803 72.3205C102.581 75.1946 108.767 74.9092 114.74 71.4644C116.798 70.2617 117.074 70.5777 115.565 72.4122L114.098 74.1856C113.737 74.6217 113.278 74.9676 112.758 75.1958C112.238 75.424 111.67 75.5283 111.101 75.5003L90.5544 74.5219C89.6575 74.4811 89.4435 74.0735 89.9123 73.2989C94.1317 66.5111 91.7163 40.9194 91.3799 32.1442C91.3188 30.3504 90.8703 28.6688 90.0346 27.0992C89.6677 26.4062 89.8715 26.0495 90.6461 26.0291L112.08 25.7539C112.59 25.7539 113.08 25.9536 113.442 26.3091C113.803 26.6646 114.006 27.1468 114.006 27.6496L114.036 28.9643C114.035 29.0893 114.001 29.2118 113.939 29.3202C113.876 29.4285 113.787 29.5192 113.68 29.5835C113.573 29.6478 113.451 29.6837 113.326 29.6877C113.201 29.6917 113.077 29.6637 112.966 29.6064C107.605 26.9361 101.959 26.2635 96.0274 27.5884C95.2121 27.7719 94.8044 28.2713 94.8044 29.0866L95.049 70.6082C95.049 71.4236 95.4261 71.9943 96.1803 72.3205Z" fill="white"/>
<path d="M196.132 72.1977C202.594 75.3776 208.719 75.0209 214.508 71.1276C216.322 69.8842 216.689 70.2205 215.609 72.1366C213.978 75.0718 211.012 76.1827 206.711 75.4693C201.147 74.5316 195.562 74.338 189.956 74.8884C188.407 75.0514 188.203 74.603 189.345 73.543L190.659 72.2894C191.332 71.6575 191.668 70.883 191.668 69.9657L191.699 30.5232C191.699 29.6264 191.342 28.8925 190.629 28.3218L189.283 27.2517C188.285 26.4567 188.417 26.0592 189.681 26.0592C196.183 26.0388 202.625 26.0184 209.005 25.998C211.675 25.998 213.469 26.7319 214.386 28.1995C214.51 28.3841 214.57 28.6045 214.556 28.8265C214.541 29.0484 214.454 29.2595 214.308 29.4269C214.161 29.5943 213.964 29.7086 213.746 29.752C213.528 29.7955 213.301 29.7656 213.102 29.6671C208.169 27.5065 203.012 26.7217 197.631 27.3128C196.858 27.4026 196.144 27.7727 195.626 28.3531C195.107 28.9335 194.82 29.6839 194.818 30.4621V70.0574C194.818 71.0562 195.256 71.7697 196.132 72.1977Z" fill="white"/>
<path d="M235.236 34.6165L235.94 70.237C235.98 71.4192 236.419 72.4384 237.254 73.2945L238.172 74.1812C238.376 74.3851 238.335 74.5074 238.049 74.5481L232.271 75.1291C231.231 75.231 231.027 74.8641 231.659 74.0283C233.106 72.1123 233.769 69.8701 233.647 67.3017C232.994 54.0727 233.076 40.8641 233.891 27.6758C233.952 26.5343 234.38 26.3712 235.175 27.1866L272.141 66.1704C272.426 66.4626 272.792 66.6634 273.192 66.7462C273.592 66.829 274.007 66.7899 274.382 66.6341C274.756 66.4783 275.073 66.2131 275.29 65.8737C275.507 65.5343 275.614 65.1367 275.596 64.7334C275.26 55.469 276.789 33.9744 273.211 27.0949C272.702 26.0757 273.018 25.6171 274.159 25.719L277.033 25.933C278.114 26.0145 278.47 26.5649 278.103 27.5841C277.023 30.4786 276.524 32.5067 276.605 33.6686C277.584 46.8161 277.655 59.9534 276.819 73.0805C276.717 74.4666 276.187 74.6602 275.229 73.6614L237.102 33.8215C236.954 33.6611 236.762 33.5511 236.55 33.506C236.337 33.461 236.116 33.483 235.913 33.5691C235.711 33.6553 235.538 33.8016 235.417 33.9886C235.297 34.1756 235.233 34.3945 235.236 34.6165Z" fill="white"/>
<path d="M344.148 77.8823L357.755 70.8805C359.895 69.7798 360.027 69.9837 358.152 71.4921C352.506 76.0172 346.115 78.8811 338.981 80.0838C338.448 80.1686 337.902 80.13 337.388 79.9709C336.874 79.8118 336.404 79.5366 336.015 79.1665C326.843 70.269 340.296 50.6395 346.533 42.6287C347.136 41.825 347.534 40.9022 347.695 39.9381C348.653 34.4345 351.629 30.3272 356.623 27.6161C357.033 27.4027 357.504 27.3343 357.957 27.4219C358.411 27.5096 358.822 27.7481 359.123 28.0989C359.424 28.4496 359.598 28.8918 359.616 29.3537C359.634 29.8157 359.495 30.2701 359.222 30.6431C349.723 43.3218 342.477 57.1725 337.483 72.1953C337.192 73.0875 337.173 74.0461 337.427 74.9493C337.682 75.8526 338.199 76.6599 338.913 77.269C339.627 77.8781 340.505 78.2616 341.438 78.3707C342.37 78.4799 343.313 78.31 344.148 77.8823Z" fill="white"/>
<path d="M391.714 35.498L388.217 33.3634C387.842 33.1347 387.353 33.253 387.124 33.6278L363.643 72.0959C363.414 72.4707 363.532 72.9599 363.907 73.1886L367.404 75.3233C367.779 75.552 368.268 75.4337 368.497 75.0589L391.978 36.5908C392.207 36.216 392.088 35.7268 391.714 35.498Z" fill="white"/>
<path d="M343.17 34.3744C329.533 43.5471 322.195 53.3312 315.377 66.5399C313.604 69.944 314.083 72.1862 316.814 73.2665C317.015 73.3364 317.187 73.4721 317.302 73.6517C317.416 73.8312 317.467 74.0442 317.446 74.2562C317.425 74.4681 317.333 74.6668 317.185 74.8201C317.037 74.9734 316.842 75.0724 316.631 75.1011L311.494 75.9266C311.107 75.9852 310.711 75.9488 310.341 75.8204C309.971 75.6921 309.637 75.4756 309.37 75.1898C309.102 74.9039 308.907 74.5572 308.803 74.1795C308.699 73.8018 308.689 73.4046 308.773 73.0219C311.922 59.2323 326.445 36.3924 342.956 33.8241C343.023 33.8168 343.09 33.8318 343.148 33.8667C343.205 33.9016 343.25 33.9545 343.274 34.0172C343.298 34.0799 343.301 34.1489 343.283 34.2134C343.264 34.278 343.224 34.3346 343.17 34.3744Z" fill="white"/>
<path d="M443.524 36.8789C449.432 36.7035 454.205 36.0278 454.186 35.3695C454.166 34.7112 449.361 34.3197 443.454 34.495C437.546 34.6704 432.773 35.3461 432.792 36.0044C432.812 36.6627 437.617 37.0542 443.524 36.8789Z" fill="white"/>
<path d="M109.634 50.548C106.434 49.753 103.203 49.1517 99.9416 48.744C99.7989 48.7237 99.7275 48.6523 99.7275 48.53C99.7275 48.2446 99.8498 48.0204 100.094 47.8573C100.176 47.7962 100.288 47.7656 100.431 47.7656C104.446 47.9083 108.329 48.1223 112.08 48.4077C112.526 48.3996 112.957 48.569 113.278 48.8786C113.599 49.1883 113.784 49.6128 113.792 50.0588C113.8 50.5048 113.631 50.9358 113.321 51.2569C113.012 51.578 112.587 51.7629 112.141 51.771C111.835 51.8118 111.407 51.608 110.857 51.1595C110.449 50.8538 110.042 50.6499 109.634 50.548Z" fill="white"/>
<path d="M208.516 49.9979L201.453 49.417C201.209 49.3966 201.158 49.2845 201.301 49.0806C201.647 48.6322 201.943 48.3978 202.187 48.3774C205.612 47.827 208.771 47.8576 211.666 48.4691C212.08 48.5427 212.456 48.759 212.728 49.0805C213 49.4021 213.151 49.8087 213.154 50.2298C213.158 50.6509 213.014 51.06 212.748 51.3862C212.482 51.7124 212.11 51.9352 211.696 52.0159C211.37 52.0974 210.901 51.7407 210.29 50.9457C210.076 50.6754 209.809 50.4518 209.504 50.2887C209.199 50.1256 208.863 50.0266 208.516 49.9979Z" fill="white"/>
</svg>
