<svg width="228" height="152" viewBox="0 0 228 152" fill="none" xmlns="http://www.w3.org/2000/svg">
<path d="M108.666 0.987465C95.3302 2.01564 83.4984 6.00558 72.6949 13.1108C47.1899 29.8685 34.4528 60.5144 40.5452 90.485C41.0055 92.7869 41.9877 96.6847 42.2025 97.053C42.2793 97.2065 42.8317 96.6847 44.1668 95.2269C52.9293 85.5743 61.6305 73.5124 70.0247 59.3481C74.1374 52.4117 76.9611 47.2401 81.8104 37.741L84.8028 31.8788H90.2506C95.9747 31.8942 99.4122 32.0476 100.364 32.3546C101.177 32.6154 101.729 33.0605 102.067 33.705C102.543 34.6564 103.325 39.0147 107.73 65.6399C111.06 85.7277 113.285 97.9431 113.945 99.8306L114.144 100.398L114.344 99.7079C115.311 96.1783 117.091 86.2341 121.234 61.343C125.884 33.3981 125.838 33.6436 126.851 32.8763C127.833 32.109 128.861 32.0169 136.381 31.9249L143.317 31.8328L143.547 32.2011C143.67 32.4006 145.649 36.1297 147.951 40.4726C154.044 51.982 155.901 55.3121 159.844 61.8801C167.425 74.5098 175.359 85.5896 182.955 94.1066C183.861 95.1194 184.766 96.1169 184.981 96.3164L185.38 96.6694L185.626 95.7793C185.764 95.2729 185.933 94.6591 186.009 94.4135C186.424 93.017 187.283 88.6895 187.605 86.3569C188.204 82.1828 188.357 79.8502 188.357 75.538C188.357 67.0057 187.176 59.6857 184.49 51.6751C181.513 42.8358 177.109 34.948 170.955 27.5052C169.205 25.3875 163.758 19.9704 161.533 18.1289C149.532 8.2154 135.521 2.46068 120.175 1.11024C117.751 0.910736 110.753 0.818657 108.666 0.987465Z" fill="white"/>
<path d="M140.924 35.2158C140.663 36.0291 139.865 39.2978 139.543 40.9705C137.333 52.3112 129.476 101.51 129.476 104.012C129.476 105.224 130.443 106.206 132.822 107.403C133.42 107.71 133.926 108.017 133.926 108.094C133.926 108.355 132.944 108.569 131.011 108.769C128.31 109.03 98.2625 109.03 95.5616 108.769C93.6127 108.569 92.6459 108.355 92.6459 108.094C92.6459 108.017 93.3518 107.618 94.2265 107.219C95.9453 106.406 96.5591 105.853 96.7279 104.932C96.9735 103.582 96.4824 98.8554 95.3928 92.0725C94.9632 89.4023 93.7815 83.2332 93.6894 83.1719C93.6434 83.1412 60.4041 82.4659 59.2685 82.4813H58.5012L57.1508 84.2307C53.6826 88.7731 50.4753 92.3794 45.4879 97.3515L42.1885 100.636L42.6489 101.879C50.7975 124.33 69.3508 141.655 92.2776 148.239C103.557 151.477 115.926 151.983 127.558 149.681C139.604 147.303 150.884 141.916 160.613 133.906C163.007 131.926 168.225 126.739 170.174 124.376C175.882 117.455 180.425 109.598 183.11 101.925L183.693 100.267L181.56 98.0881C178.015 94.4818 174.363 90.3231 171.278 86.3945C167.887 82.0823 162.577 73.8262 156.286 63.1147C151.344 54.7051 148.091 48.7509 142.536 37.9781C141.692 36.3207 140.97 35.093 140.924 35.2158Z" fill="white"/>
<path d="M86.4607 35.4392C85.4479 36.5747 83.1614 40.4419 78.4041 49.1277C73.5088 58.0437 68.9357 65.9929 65.1913 72.1313C63.4418 75.001 62.0146 77.3949 62.0146 77.4717C62.0146 77.5484 68.3832 77.5944 77.9437 77.5791C88.4404 77.5484 93.8421 77.487 93.8268 77.3796C93.8268 77.2875 93.4892 75.3539 93.1055 73.0827C92.7219 70.7962 91.6783 64.1667 90.7883 58.3506C88.5938 43.9868 87.0746 35.1015 86.8137 35.1015C86.7983 35.1015 86.6295 35.255 86.4607 35.4392Z" fill="white"/>
<path d="M186.424 99.632L186.025 100.783L187.744 102.379C192.333 106.66 197.121 110.359 200.788 112.461C206.251 115.607 213.464 117.464 218.436 117.034C222.441 116.681 224.927 115.285 226.585 112.461C228.472 109.223 228.472 105.816 226.585 103.929C225.94 103.284 223.899 102.225 222.856 101.995C222.196 101.857 221.996 101.873 221.398 102.133C220.554 102.517 220.017 103.223 218.896 105.463C216.963 109.3 215.275 111.065 212.62 112.001C211.423 112.415 209.367 112.538 207.847 112.292C202.522 111.448 195.31 106.845 188.465 99.9543C187.667 99.1409 186.961 98.4811 186.915 98.4811C186.854 98.4811 186.624 99.0028 186.424 99.632Z" fill="white"/>
<path d="M39.3793 100.276C32.2894 106.936 27.1332 110.42 22.1304 111.939C20.9948 112.292 20.5191 112.353 18.739 112.353C16.9589 112.368 16.5292 112.307 15.6698 112.015C14.1352 111.463 12.6313 110.512 11.4343 109.315C10.1913 108.072 9.3933 106.736 8.90223 105.079C8.22701 102.793 7.49041 101.856 6.37015 101.856C5.17317 101.856 2.62574 102.977 1.6743 103.928C-0.105832 105.708 -0.259292 108.808 1.25996 111.954C2.08864 113.657 3.85342 115.499 5.38801 116.236C9.45469 118.2 17.2811 117.141 25.261 113.565C27.5629 112.522 29.7881 111.049 33.333 108.21C36.5096 105.647 41.451 101.273 41.451 101.012C41.451 100.936 41.2975 100.429 41.098 99.9229L40.7604 98.9868L39.3793 100.276Z" fill="white"/>
</svg>
