<svg width="190" height="190" viewBox="0 0 190 190" fill="none" xmlns="http://www.w3.org/2000/svg">
<g clip-path="url(#clip0_718_907)">
<path d="M103.664 68.5243C104.893 68.6573 106.115 68.6794 107.331 68.5908C107.813 68.5591 108.117 68.6319 108.243 68.8093C108.37 68.9866 108.392 69.2684 108.31 69.6548C108.246 69.9334 108.075 70.0728 107.797 70.0728H92.1122C91.9687 70.0747 91.8297 70.0266 91.7189 69.9366C91.608 69.8466 91.5321 69.7203 91.5041 69.5792C91.4761 69.438 91.4977 69.2908 91.5653 69.1626C91.6329 69.0343 91.7422 68.933 91.8747 68.8758C92.8374 68.4704 93.8665 68.3786 94.9622 68.6003C95.1686 68.6409 95.3814 68.6354 95.5854 68.5841C95.7894 68.5328 95.9795 68.4369 96.1421 68.3034C96.3046 68.1699 96.4356 68.0021 96.5256 67.812C96.6157 67.6218 96.6625 67.4141 96.6627 67.2038L96.6722 24.8433C96.6722 24.4633 96.479 24.2733 96.0927 24.2733H91.9032C91.5422 24.2669 91.3902 24.0864 91.4472 23.7318L91.5137 23.3233C91.5707 22.9749 91.7765 22.8008 92.1312 22.8008L102.553 22.8578C102.952 22.8641 103.151 23.0668 103.151 23.4658L103.142 67.9353C103.141 68.0792 103.193 68.2185 103.29 68.3271C103.386 68.4356 103.519 68.5057 103.664 68.5243Z" fill="white"/>
<path d="M119.805 24.2733H115.625C115.251 24.2733 115.083 24.0865 115.121 23.7128L115.159 23.3708C115.178 23.2131 115.253 23.0679 115.371 22.9627C115.488 22.8576 115.64 22.7999 115.796 22.8008L126.369 22.8578C126.667 22.8578 126.816 23.0066 126.816 23.3043L126.806 68.0113C126.806 68.3913 127 68.5813 127.386 68.5813L131.461 68.5718C131.803 68.5718 131.978 68.7396 131.984 69.0753L132.003 69.4838C132.016 69.8765 131.829 70.0728 131.442 70.0728L115.691 70.0633C115.583 70.0638 115.478 70.0273 115.394 69.96C115.309 69.8926 115.25 69.7983 115.226 69.6928C115.087 69.0848 115.311 68.7713 115.9 68.7523C117.199 68.7206 118.507 68.6383 119.824 68.5053C120.166 68.4736 120.337 68.2868 120.337 67.9448V24.8053C120.337 24.4506 120.16 24.2733 119.805 24.2733Z" fill="white"/>
<path d="M190 65.3216V66.0721C188.518 69.6188 185.668 71.1831 181.45 70.7651C176.909 70.3091 175.256 68.0101 175.218 63.4406C175.155 57.1262 175.145 50.8182 175.19 44.5166C175.196 44.1239 175 43.9276 174.601 43.9276L171.01 43.9371C170.904 43.9376 170.801 43.9027 170.717 43.8379C170.633 43.7732 170.573 43.6822 170.547 43.5796C170.521 43.477 170.53 43.3685 170.572 43.2715C170.615 43.1744 170.688 43.0944 170.782 43.0441C175.468 40.4981 178.66 36.6949 180.358 31.6346C180.4 31.507 180.486 31.3987 180.602 31.3297C180.717 31.2606 180.853 31.2353 180.986 31.2583C181.118 31.2813 181.238 31.3512 181.323 31.4551C181.408 31.5591 181.454 31.6902 181.45 31.8246L181.355 41.8661C181.355 42.2904 181.567 42.5026 181.992 42.5026L187.882 42.5121C188.236 42.5121 188.461 42.6831 188.556 43.0251C188.638 43.3354 188.591 43.5824 188.414 43.7661C188.281 43.9054 188.062 43.9656 187.758 43.9466C185.782 43.8579 183.819 43.8706 181.868 43.9846C181.539 44.0099 181.374 44.1872 181.374 44.5166C181.393 51.7049 181.412 58.8711 181.431 66.0151C181.441 69.8341 187.597 69.5206 188.537 65.2551C188.567 65.1175 188.642 64.994 188.751 64.9044C188.859 64.8148 188.995 64.7643 189.136 64.7611C189.516 64.7484 189.804 64.9352 190 65.3216Z" fill="white"/>
<path d="M11.6569 45.1353C16.9579 41.1168 23.4749 39.8248 28.2629 45.1923C28.4719 45.4203 28.6904 45.4298 28.9184 45.2208C31.7558 42.6178 35.2518 41.4809 39.4064 41.8103C44.3179 42.1903 46.0469 44.8313 46.0754 49.6953C46.1261 55.8323 46.1324 61.9566 46.0944 68.0683C46.0944 68.4166 46.2686 68.5876 46.6169 68.5813L50.1129 68.5623C50.4803 68.5559 50.6766 68.7364 50.7019 69.1038L50.7399 69.5408C50.7452 69.6087 50.7363 69.6771 50.7138 69.7415C50.6914 69.8059 50.6558 69.8649 50.6094 69.9149C50.563 69.9649 50.5067 70.0047 50.4442 70.0319C50.3816 70.059 50.3141 70.073 50.2459 70.0728L35.8249 70.0633C35.7289 70.0635 35.6363 70.0274 35.5658 69.9622C35.4953 69.897 35.4521 69.8075 35.4449 69.7118L35.4069 69.2083C35.3753 68.7839 35.5748 68.5718 36.0054 68.5718L39.1784 68.5813C39.4888 68.5813 39.6471 68.4261 39.6534 68.1158C39.7294 61.7064 39.7231 55.3098 39.6344 48.9258C39.5109 39.3973 29.1464 43.9858 29.0134 51.3103C28.9121 56.8836 28.8963 62.4664 28.9659 68.0588C28.9659 68.4071 29.1401 68.5813 29.4884 68.5813H32.5379C32.8926 68.5813 33.0636 68.7586 33.0509 69.1133L33.0319 69.5883C33.0193 69.9049 32.8546 70.0633 32.5379 70.0633L18.3069 70.0728C18.1951 70.0734 18.0858 70.0355 17.9964 69.965C17.907 69.8945 17.8424 69.7954 17.8129 69.6833C17.6419 69.0373 17.8763 68.7206 18.5159 68.7333C19.6053 68.7586 20.6851 68.6699 21.7554 68.4673C22.0594 68.4103 22.2114 68.2266 22.2114 67.9163C22.3254 56.9279 22.3128 50.0436 22.1734 47.2633C22.1164 46.1739 21.6383 45.2778 20.7389 44.5748C18.2689 42.6463 14.5544 44.3943 13.0344 46.5508C10.3744 50.3128 11.2769 63.2708 11.4764 68.0018C11.4954 68.3944 11.7013 68.5876 12.0939 68.5813L14.9724 68.5623C15.1632 68.5622 15.3464 68.6366 15.4831 68.7697C15.6197 68.9028 15.699 69.0841 15.7039 69.2748C15.7039 69.4268 15.6723 69.5788 15.6089 69.7308C15.5632 69.8326 15.4896 69.9191 15.3969 69.9797C15.3042 70.0404 15.1964 70.0727 15.0864 70.0728L0.703427 70.0633C0.625879 70.0627 0.549474 70.0445 0.479957 70.0101C0.41044 69.9758 0.349621 69.9261 0.302073 69.8648C0.254525 69.8035 0.221485 69.7323 0.205438 69.6564C0.189392 69.5805 0.190755 69.502 0.209427 69.4268C0.234761 69.3254 0.256927 69.2241 0.275927 69.1228C0.308515 68.9699 0.393218 68.8328 0.515938 68.7342C0.638658 68.6357 0.791994 68.5817 0.950427 68.5813L4.42743 68.5718C4.79476 68.5654 4.97843 68.3786 4.97843 68.0113V44.4038C4.97843 44.0871 4.82009 43.9288 4.50343 43.9288L0.845927 43.9383C0.769859 43.9383 0.694567 43.9231 0.624636 43.8936C0.554705 43.8641 0.491599 43.821 0.439161 43.7668C0.386723 43.7125 0.346051 43.6484 0.319621 43.5783C0.293191 43.5081 0.281557 43.4334 0.285427 43.3588L0.294927 43.0643C0.307594 42.6969 0.500761 42.5133 0.874427 42.5133H10.7449C10.8135 42.5131 10.8814 42.527 10.9444 42.5541C11.0074 42.5812 11.0643 42.6208 11.1114 42.6707C11.1586 42.7205 11.195 42.7794 11.2186 42.8438C11.2422 42.9082 11.2523 42.9768 11.2484 43.0453L11.1629 44.8788C11.1439 45.3094 11.3086 45.3949 11.6569 45.1353Z" fill="white"/>
<path d="M71.1663 70.8771C69.2952 70.8444 67.4491 70.4347 65.7333 69.6713C64.0174 68.9079 62.4655 67.8058 61.1662 66.4279C59.8668 65.05 58.8454 63.4234 58.1603 61.6407C57.4751 59.8581 57.1397 57.9545 57.1732 56.0385C57.2066 54.1226 57.6083 52.2318 58.3552 50.4742C59.1021 48.7166 60.1797 47.1265 61.5263 45.7948C62.873 44.4631 64.4625 43.4159 66.2039 42.7128C67.9453 42.0098 69.8046 41.6648 71.6757 41.6974C73.5467 41.7301 75.3929 42.1398 77.1087 42.9032C78.8245 43.6666 80.3764 44.7687 81.6758 46.1466C82.9752 47.5245 83.9966 49.1511 84.6817 50.9338C85.3668 52.7164 85.7023 54.62 85.6688 56.536C85.6354 58.4519 85.2337 60.3427 84.4868 62.1003C83.7399 63.8579 82.6623 65.448 81.3156 66.7797C79.969 68.1114 78.3795 69.1586 76.6381 69.8617C74.8967 70.5647 73.0374 70.9097 71.1663 70.8771ZM78.0087 49.651C78.0145 47.9831 77.3575 46.3812 76.1822 45.1976C75.0069 44.0141 73.4096 43.3459 71.7417 43.3401L71.0197 43.3376C69.3518 43.3318 67.7498 43.9888 66.5663 45.164C65.3828 46.3393 64.7146 47.9366 64.7088 49.6046L64.6623 62.9235C64.6565 64.5914 65.3135 66.1933 66.4888 67.3769C67.664 68.5604 69.2613 69.2286 70.9293 69.2344L71.6513 69.2369C73.3192 69.2427 74.9211 68.5857 76.1047 67.4104C77.2882 66.2352 77.9564 64.6379 77.9622 62.9699L78.0087 49.651Z" fill="white"/>
<path d="M155.43 66.1956C153.213 69.2229 150.366 70.762 146.889 70.8126C141.93 70.8791 138.054 67.4686 139.46 62.2246C141.056 56.2586 150.1 54.6911 155.287 54.7671C155.604 54.7671 155.769 54.6119 155.781 54.3016C156.009 49.9443 155.918 47.0278 155.506 45.5521C154.451 41.7901 148.894 43.1866 146.49 44.6781C145.635 45.2101 145.531 45.8625 146.177 46.6351C147.953 48.7536 147.146 52.0026 144.144 51.9456C141.284 51.8791 140.477 48.9436 141.569 46.7491C144.951 39.9186 161.909 39.2251 162.023 49.2096C162.093 55.3023 162.121 61.3633 162.108 67.3926C162.109 67.6347 162.172 67.8724 162.291 68.0832C162.41 68.2939 162.581 68.4707 162.788 68.5965C162.995 68.7223 163.231 68.7929 163.473 68.8017C163.714 68.8105 163.955 68.7571 164.17 68.6466L165.604 67.9151C165.752 67.8421 165.922 67.8266 166.08 67.8715C166.239 67.9163 166.375 68.0184 166.462 68.158C166.55 68.2976 166.583 68.4647 166.554 68.6269C166.525 68.7891 166.437 68.9349 166.307 69.0361C162.602 71.8671 156.807 71.6961 155.924 66.3096C155.854 65.879 155.69 65.841 155.43 66.1956ZM146.528 66.1671C148.571 68.7986 152.817 67.8201 154.385 65.2361C155.721 63.0321 156.165 60.1758 155.715 56.6671C155.677 56.3758 155.512 56.2206 155.221 56.2016C152.51 56.018 150.05 56.7241 147.839 58.3201C145.502 60.0016 144.714 63.8586 146.528 66.1671Z" fill="white"/>
<path d="M95.8838 92.6446L97.9738 93.4426C98.0276 93.4633 98.0738 93.4998 98.1065 93.5472C98.1391 93.5947 98.1565 93.651 98.1565 93.7086C98.1565 93.7662 98.1391 93.8224 98.1065 93.8699C98.0738 93.9174 98.0276 93.9539 97.9738 93.9746L95.8743 94.7441C95.835 94.7583 95.7994 94.781 95.7698 94.8106C95.7402 94.8401 95.7176 94.8758 95.7033 94.9151L94.9053 97.0051C94.8847 97.0589 94.8482 97.1051 94.8007 97.1377C94.7532 97.1703 94.6969 97.1878 94.6393 97.1878C94.5817 97.1878 94.5255 97.1703 94.478 97.1377C94.4305 97.1051 94.394 97.0589 94.3733 97.0051L93.6038 94.9056C93.5896 94.8663 93.5669 94.8306 93.5374 94.8011C93.5078 94.7715 93.4721 94.7488 93.4328 94.7346L91.3428 93.9366C91.2891 93.9159 91.2428 93.8794 91.2102 93.8319C91.1776 93.7844 91.1602 93.7282 91.1602 93.6706C91.1602 93.613 91.1776 93.5567 91.2102 93.5092C91.2428 93.4618 91.2891 93.4253 91.3428 93.4046L93.4423 92.6351C93.4816 92.6209 93.5173 92.5982 93.5469 92.5686C93.5764 92.5391 93.5991 92.5034 93.6133 92.4641L94.4113 90.3741C94.432 90.3203 94.4685 90.2741 94.516 90.2415C94.5635 90.2089 94.6197 90.1914 94.6773 90.1914C94.7349 90.1914 94.7912 90.2089 94.8387 90.2415C94.8862 90.2741 94.9227 90.3203 94.9433 90.3741L95.7128 92.4736C95.7271 92.5129 95.7498 92.5486 95.7793 92.5781C95.8089 92.6077 95.8445 92.6304 95.8838 92.6446Z" fill="white"/>
<path d="M0 124.82V122.435L7.657 122.293C7.78382 122.29 7.90806 122.257 8.0184 122.194C8.12874 122.131 8.22167 122.042 8.28872 121.935C8.35578 121.827 8.39482 121.704 8.40229 121.578C8.40976 121.451 8.38543 121.324 8.3315 121.21C7.5715 119.55 6.25733 118.961 4.389 119.443C4.07233 119.519 3.8095 119.68 3.6005 119.927C2.84683 120.789 1.8715 121.07 0.6745 120.773C0.3325 120.69 0.2185 120.481 0.3325 120.146C0.858167 118.575 1.84933 117.616 3.306 117.267C12.825 114.997 13.775 128.126 6.4315 129.256C3.11283 129.763 0.969 128.284 0 124.82ZM8.379 124.307L2.812 124.288C2.79375 124.286 2.77543 124.289 2.75818 124.295C2.74093 124.301 2.72513 124.311 2.71175 124.323C2.69838 124.336 2.68772 124.351 2.68045 124.368C2.67318 124.384 2.66945 124.402 2.6695 124.421V124.487C2.66703 125.175 2.94388 125.836 3.43916 126.324C3.93444 126.812 4.60758 127.088 5.3105 127.09H5.8425C6.19059 127.091 6.53551 127.026 6.85757 126.896C7.17964 126.767 7.47254 126.577 7.71954 126.337C7.96655 126.097 8.16283 125.812 8.29717 125.498C8.43151 125.184 8.50128 124.847 8.5025 124.506V124.44C8.50259 124.406 8.48989 124.374 8.46696 124.349C8.44404 124.324 8.4126 124.309 8.379 124.307Z" fill="white"/>
<path d="M83.4105 123.13C83.4105 124.772 82.7579 126.348 81.5963 127.509C80.4347 128.671 78.8592 129.324 77.2165 129.324C75.5737 129.324 73.9982 128.671 72.8366 127.509C71.675 126.348 71.0225 124.772 71.0225 123.13C71.0225 121.487 71.675 119.911 72.8366 118.75C73.9982 117.588 75.5737 116.936 77.2165 116.936C78.8592 116.936 80.4347 117.588 81.5963 118.75C82.7579 119.911 83.4105 121.487 83.4105 123.13ZM77.1324 126.834C77.5814 126.844 78.0282 126.758 78.4472 126.581C78.8663 126.405 79.2494 126.14 79.5747 125.804C79.9 125.467 80.1611 125.064 80.3432 124.619C80.5252 124.173 80.6246 123.694 80.6356 123.207C80.6466 122.721 80.5691 122.237 80.4075 121.784C80.2459 121.33 80.0033 120.916 79.6936 120.565C79.3839 120.214 79.0132 119.933 78.6026 119.737C78.192 119.542 77.7495 119.436 77.3005 119.425C76.8515 119.415 76.4047 119.501 75.9857 119.678C75.5666 119.854 75.1835 120.119 74.8582 120.456C74.5329 120.792 74.2718 121.195 74.0898 121.64C73.9077 122.086 73.8084 122.566 73.7973 123.052C73.7863 123.538 73.8638 124.022 74.0254 124.475C74.187 124.929 74.4296 125.343 74.7393 125.694C75.049 126.045 75.4197 126.326 75.8303 126.522C76.2409 126.718 76.6834 126.823 77.1324 126.834Z" fill="white"/>
<path d="M113.002 126.825C113.212 126.794 113.405 126.695 113.552 126.543C113.699 126.391 113.792 126.195 113.816 125.984C113.84 125.774 113.793 125.562 113.684 125.381C113.575 125.199 113.408 125.059 113.211 124.982C111.302 124.251 108.243 123.557 107.369 121.619C106.4 119.472 108.148 117.705 110.162 117.173C112.702 116.496 114.826 117.291 116.536 119.558C116.646 119.707 116.718 119.88 116.746 120.063C116.773 120.247 116.755 120.434 116.693 120.608C116.631 120.783 116.527 120.939 116.39 121.064C116.254 121.189 116.089 121.279 115.909 121.325C114.586 121.661 113.838 121.296 113.667 120.232C113.639 120.049 113.562 119.877 113.445 119.734C113.328 119.592 113.175 119.485 113.002 119.425C112.211 119.14 111.403 119.124 110.58 119.377C110.366 119.441 110.178 119.569 110.041 119.744C109.903 119.919 109.823 120.133 109.812 120.356C109.801 120.579 109.858 120.801 109.977 120.991C110.095 121.182 110.27 121.331 110.475 121.42L115.548 123.586C115.658 123.634 115.756 123.705 115.835 123.796C115.914 123.886 115.972 123.993 116.004 124.108C117.629 130.245 108.974 131.053 107.407 126.027C107.299 125.698 107.41 125.483 107.739 125.381C109.063 124.982 109.981 125.381 110.494 126.578C110.653 126.952 110.935 127.11 111.34 127.053L113.002 126.825Z" fill="white"/>
<path d="M144.865 117.924C146.699 116.128 150.185 117.002 151.211 118.665C152.513 120.764 152.047 125.666 152.019 128.469C152.019 128.811 151.848 128.979 151.506 128.972L149.663 128.944C149.295 128.938 149.118 128.748 149.131 128.374C149.216 126.018 150.366 118.285 145.853 119.52C143.127 120.28 143.925 126.426 143.906 128.488C143.906 128.811 143.744 128.972 143.421 128.972H141.702C141.322 128.979 141.132 128.789 141.132 128.402V117.971C141.132 117.604 141.309 117.373 141.664 117.278C142.665 117.006 143.52 117.221 144.229 117.924C144.444 118.133 144.656 118.133 144.865 117.924Z" fill="white"/>
<path d="M180.11 128.25C179.528 129.067 178.676 129.267 177.555 128.849C177.301 128.754 177.175 128.57 177.175 128.298V117.971C177.175 117.674 177.311 117.471 177.583 117.363C178.666 116.92 179.477 117.113 180.015 117.943C180.167 118.177 180.357 118.218 180.585 118.066C182.593 116.806 184.474 116.635 186.228 117.553C193.534 121.372 187.577 132.972 180.671 128.155C180.449 128.003 180.262 128.035 180.11 128.25ZM186.95 123.139C186.95 122.194 186.575 121.288 185.907 120.62C185.239 119.952 184.333 119.577 183.388 119.577C182.443 119.577 181.537 119.952 180.869 120.62C180.201 121.288 179.825 122.194 179.825 123.139C179.825 124.084 180.201 124.99 180.869 125.658C181.537 126.326 182.443 126.702 183.388 126.702C184.333 126.702 185.239 126.326 185.907 125.658C186.575 124.99 186.95 124.084 186.95 123.139Z" fill="white"/>
<path d="M42.7216 128.373C42.2276 128.686 41.9806 128.933 41.3821 129.066C34.0101 130.757 35.6251 121.884 35.5776 117.799C35.5776 117.657 35.6333 117.521 35.7328 117.42C35.8323 117.318 35.9676 117.26 36.1096 117.258L37.9811 117.248C38.3104 117.242 38.4719 117.407 38.4656 117.742C38.4181 119.737 38.0001 124.24 38.9881 125.903C40.1661 127.879 43.4056 126.777 43.5196 124.202C43.6146 122.081 43.6589 119.949 43.6526 117.809C43.6526 117.435 43.8394 117.251 44.2131 117.258L46.0181 117.286C46.3221 117.293 46.4741 117.445 46.4741 117.742L46.4646 128.325C46.4646 128.655 46.3031 128.857 45.9801 128.933C45.0048 129.174 44.1213 128.997 43.3296 128.401C43.1333 128.256 42.9306 128.246 42.7216 128.373Z" fill="white"/>
<path d="M45.0394 155.163C45.0394 156.806 44.3868 158.381 43.2252 159.543C42.0636 160.704 40.4881 161.357 38.8454 161.357C37.2026 161.357 35.6271 160.704 34.4655 159.543C33.3039 158.381 32.6514 156.806 32.6514 155.163C32.6514 153.52 33.3039 151.945 34.4655 150.783C35.6271 149.621 37.2026 148.969 38.8454 148.969C40.4881 148.969 42.0636 149.621 43.2252 150.783C44.3868 151.945 45.0394 153.52 45.0394 155.163ZM42.4079 155.182C42.4079 154.237 42.0325 153.331 41.3644 152.663C40.6963 151.995 39.7902 151.619 38.8454 151.619C37.9005 151.619 36.9944 151.995 36.3263 152.663C35.6582 153.331 35.2829 154.237 35.2829 155.182C35.2829 156.127 35.6582 157.033 36.3263 157.701C36.9944 158.369 37.9005 158.744 38.8454 158.744C39.7902 158.744 40.6963 158.369 41.3644 157.701C42.0325 157.033 42.4079 156.127 42.4079 155.182Z" fill="white"/>
<path d="M122.341 160.247L122.255 160.655C122.192 160.965 122.002 161.111 121.685 161.092L120.108 161.007C119.773 160.994 119.608 160.82 119.614 160.484V150.006C119.614 149.67 119.776 149.458 120.099 149.369C121.093 149.09 121.942 149.303 122.645 150.006C122.822 150.189 123.012 150.202 123.215 150.044C124.596 148.929 126.097 148.66 127.718 149.236C134.33 151.592 132.838 161.71 125.523 161.244C125.2 161.225 124.884 161.162 124.573 161.054C123.927 160.832 123.38 160.503 122.93 160.066C122.626 159.768 122.43 159.829 122.341 160.247ZM129.323 155.193C129.323 154.25 128.949 153.347 128.283 152.68C127.616 152.014 126.713 151.64 125.77 151.64C124.828 151.64 123.924 152.014 123.258 152.68C122.592 153.347 122.217 154.25 122.217 155.193C122.217 156.135 122.592 157.039 123.258 157.705C123.924 158.371 124.828 158.746 125.77 158.746C126.713 158.746 127.616 158.371 128.283 157.705C128.949 157.039 129.323 156.135 129.323 155.193Z" fill="white"/>
<path d="M190 152.56C190 152.624 190 152.684 190 152.741C189.443 153.324 188.781 153.514 188.015 153.311C187.698 153.229 187.467 153.045 187.321 152.76C186.555 151.291 185.368 150.873 183.759 151.506C183.561 151.583 183.39 151.718 183.269 151.893C183.148 152.068 183.082 152.275 183.08 152.488C183.078 152.7 183.14 152.909 183.257 153.086C183.375 153.263 183.543 153.401 183.74 153.482L188.547 155.467C188.696 155.527 188.829 155.619 188.938 155.735C189.046 155.852 189.127 155.991 189.174 156.142C191.14 162.108 182.495 163.191 180.662 158.07C180.554 157.785 180.643 157.586 180.928 157.472C182.277 156.921 183.211 157.288 183.73 158.574C183.863 158.897 184.107 159.055 184.462 159.049L185.972 159.001C186.226 158.994 186.47 158.897 186.66 158.729C186.85 158.56 186.974 158.33 187.012 158.078C187.049 157.827 186.997 157.57 186.864 157.353C186.731 157.137 186.527 156.974 186.286 156.892C184.614 156.341 183.167 155.737 181.944 155.078C176.121 151.933 186.951 144.447 190 152.56Z" fill="white"/>
<path d="M7.61919 160.114C7.04919 160.475 6.83069 160.883 6.13719 161.064C-1.49131 163.097 0.294688 153.73 0.237688 149.806C0.237652 149.734 0.252102 149.662 0.280155 149.596C0.308208 149.529 0.349275 149.469 0.400846 149.42C0.452416 149.37 0.513408 149.331 0.580093 149.306C0.646778 149.281 0.717755 149.27 0.788688 149.274L2.59369 149.36C2.71634 149.365 2.83234 149.417 2.91735 149.505C3.00236 149.594 3.04979 149.712 3.04969 149.835C3.03069 152.02 1.95719 158.736 5.37719 158.841C9.32919 158.955 8.31269 152.324 8.33169 149.816C8.33169 149.486 8.49636 149.322 8.82569 149.322H10.4312C10.5723 149.322 10.7076 149.377 10.8074 149.475C10.9071 149.573 10.9632 149.706 10.9632 149.844L10.9727 160.551C10.9727 160.772 10.8682 160.912 10.6592 160.969C9.27852 161.33 8.42669 161.095 8.10369 160.266C8.00236 160.019 7.84086 159.968 7.61919 160.114Z" fill="white"/>
<path d="M69.1317 149.313L67.0797 149.309C66.8804 149.309 66.7185 149.47 66.7181 149.67L66.6989 160.671C66.6986 160.87 66.8599 161.032 67.0593 161.032L69.1113 161.036C69.3107 161.036 69.4726 160.875 69.4729 160.675L69.4921 149.674C69.4925 149.475 69.3311 149.313 69.1317 149.313Z" fill="white"/>
<path d="M96.9095 161.368L95.9785 164.313C95.9489 164.411 95.8977 164.501 95.8288 164.576C95.7598 164.652 95.6748 164.711 95.58 164.749C95.4852 164.787 95.3831 164.804 95.2811 164.797C95.1791 164.791 95.0798 164.762 94.9905 164.712C93.8695 164.072 93.4864 163.084 93.841 161.748C93.8621 161.671 93.8664 161.591 93.8537 161.513C93.841 161.435 93.8115 161.36 93.7673 161.294C93.7231 161.229 93.6653 161.173 93.5976 161.132C93.53 161.09 93.4543 161.064 93.3755 161.054L91.504 160.826C91.1367 160.782 90.9815 160.576 91.0385 160.209C91.1905 159.227 91.8397 158.771 92.986 158.841C93.4927 158.873 93.746 158.635 93.746 158.128L93.7555 152.457C93.7555 152.007 93.5339 151.754 93.0905 151.697L91.0195 151.431C90.9032 151.415 90.7921 151.373 90.6947 151.307C90.5974 151.242 90.5166 151.155 90.4586 151.054C90.4006 150.953 90.3671 150.84 90.3606 150.724C90.354 150.608 90.3747 150.492 90.421 150.386C90.763 149.588 91.2824 149.16 91.979 149.103C97.223 148.676 96.5485 154.224 96.4345 157.558C96.4219 158.065 96.5295 158.448 96.7575 158.708C96.9539 158.936 97.2135 159.097 97.5365 159.192C97.6759 159.234 97.7995 159.316 97.891 159.428C97.9826 159.54 98.0378 159.676 98.0495 159.819C98.0939 160.408 97.831 160.804 97.261 161.007C97.1792 161.033 97.1046 161.079 97.0434 161.142C96.9823 161.205 96.9363 161.282 96.9095 161.368Z" fill="white"/>
<path d="M154.641 151.848L153.121 151.696C152.829 151.666 152.556 151.536 152.35 151.328C152.143 151.12 152.016 150.847 151.989 150.555C151.962 150.263 152.037 149.97 152.202 149.728C152.367 149.485 152.611 149.308 152.893 149.226C159.163 147.383 157.994 155.239 158.346 158.479C158.361 158.629 158.426 158.771 158.528 158.882C158.631 158.993 158.767 159.068 158.916 159.096C159.403 159.185 159.679 159.448 159.742 159.885C159.799 160.284 159.65 160.575 159.296 160.759L158.602 161.11C158.43 161.197 158.291 161.338 158.205 161.511C158.119 161.684 158.092 161.88 158.127 162.07C158.33 163.203 157.94 163.97 156.959 164.369C156.642 164.495 156.351 164.448 156.085 164.226C155.344 163.593 155.093 162.763 155.334 161.737C155.351 161.661 155.352 161.582 155.337 161.505C155.322 161.428 155.292 161.356 155.249 161.291C155.205 161.227 155.149 161.173 155.083 161.132C155.018 161.091 154.945 161.064 154.869 161.053L153.235 160.816C152.829 160.752 152.655 160.515 152.712 160.103C152.864 159.071 153.51 158.631 154.65 158.783C154.725 158.792 154.8 158.786 154.872 158.764C154.944 158.743 155.01 158.707 155.067 158.659C155.124 158.61 155.169 158.55 155.2 158.483C155.232 158.416 155.248 158.343 155.249 158.27L155.372 152.655C155.378 152.161 155.135 151.892 154.641 151.848Z" fill="white"/>
<path d="M68.0391 167.238C69.1567 167.238 70.0626 166.332 70.0626 165.215C70.0626 164.097 69.1567 163.191 68.0391 163.191C66.9216 163.191 66.0156 164.097 66.0156 165.215C66.0156 166.332 66.9216 167.238 68.0391 167.238Z" fill="white"/>
</g>
<defs>
<clipPath id="clip0_718_907">
<rect width="190" height="190" fill="white"/>
</clipPath>
</defs>
</svg>
