<svg width="429" height="74" viewBox="0 0 429 74" fill="none" xmlns="http://www.w3.org/2000/svg">
<path d="M31.9324 3.07277C25.5061 3.00642 21.1713 3.50405 21.1665 11.248C21.1571 28.3095 21.1665 45.3709 21.195 62.4324C21.2045 65.8636 21.5792 69.456 25.9993 69.4845C32.549 69.5271 39.3879 69.9821 44.7519 68.8683C52.7259 67.2096 58.7728 62.6188 62.8926 55.096C62.9906 54.9222 63.1392 54.8353 63.3384 54.8353L65.5248 54.8448C65.561 54.8446 65.5969 54.8527 65.6296 54.8682C65.6624 54.8838 65.6912 54.9065 65.714 54.9348C65.7368 54.963 65.7529 54.9959 65.7612 55.0312C65.7695 55.0665 65.7697 55.1032 65.7619 55.1386L62.2191 72.8636C62.2033 72.9382 62.1615 73.0046 62.1014 73.0508C62.0413 73.0969 61.9669 73.1196 61.8919 73.1148C54.3415 72.6471 48.4622 72.4133 44.2539 72.4133C29.5895 72.4102 14.9268 72.4086 0.265588 72.4086C0.0885287 72.4086 0 72.3201 0 72.1432L0.00474007 70.1527C0.00790185 69.9758 0.0980161 69.8952 0.275076 69.911C3.40524 70.2111 6.0975 69.881 8.35185 68.9205C10.818 67.8684 11.2496 63.9537 11.2544 61.2476C11.2733 44.7801 11.267 28.3111 11.2354 11.8405C11.2212 4.71257 9.00159 2.9922 2.1342 3.07751C2.10266 3.07814 2.07132 3.07248 2.042 3.06085C2.01268 3.04922 1.98598 3.03187 1.96345 3.0098C1.94093 2.98773 1.92303 2.9614 1.91082 2.93234C1.89861 2.90327 1.89232 2.87207 1.89232 2.84055L1.90656 0.949567C1.90972 0.785271 1.99192 0.703125 2.15317 0.703125H31.9372C32.0038 0.703125 32.0678 0.72959 32.1149 0.776696C32.162 0.823801 32.1885 0.887689 32.1885 0.954307L32.179 2.83107C32.1759 2.99536 32.0937 3.07593 31.9324 3.07277Z" fill="white"/>
<path d="M113.824 21.2992L119.287 21.8489L124.116 23.2944C128.005 24.7952 131.32 27.2186 134.061 30.5645L136.717 34.6782C138.503 38.2074 139.439 42.0494 139.524 46.2042C139.645 49.0635 139.343 51.9308 138.619 54.806L136.741 59.768C132.51 67.4299 125.903 71.79 116.921 72.8484C103.186 74.4645 90.4662 67.512 87.4214 53.4268C86.6689 49.9482 86.5583 46.4285 87.0895 42.8677C88.5455 33.0953 94.5355 25.7304 104.13 22.5883C107.307 21.691 110.539 21.2613 113.824 21.2992ZM107.578 23.7447C104.539 24.5219 101.953 26.059 99.8188 28.356C95.1093 33.8109 94.1323 41.4649 94.2983 48.4079C94.4501 54.8818 95.7686 62.2277 100.691 66.9101C106.454 72.3887 117.628 72.8342 124.087 68.1897C126.582 66.392 128.466 63.9575 129.74 60.8865C130.907 58.1535 131.615 55.0666 131.865 51.6259C132.254 48.4095 132.206 45.0904 131.723 41.6687L131.576 40.2374C130.675 33.9483 128.047 28.3133 122.337 25.0717C119.324 23.593 116.091 22.9437 112.638 23.1238C110.94 23.0764 109.254 23.2834 107.578 23.7447Z" fill="white"/>
<path d="M172.249 22.0331H184.575C184.655 22.0332 184.733 22.0501 184.805 22.0827C184.877 22.1153 184.942 22.1629 184.995 22.2224C185.048 22.2818 185.087 22.3518 185.112 22.4278C185.136 22.5038 185.144 22.584 185.135 22.6634L185.073 23.2226C185.064 23.3082 185.026 23.3882 184.966 23.45C184.906 23.5117 184.827 23.5518 184.741 23.5639L184.158 23.6444C182.493 23.6729 179.539 23.8529 178.059 24.9904C176.328 26.3221 176.437 30.597 176.769 32.5164L176.603 37.1467L176.598 51.7484C176.584 53.9948 176.447 56.5446 176.812 58.5493C178.467 67.6582 187.075 70.3786 195.18 69.5587C202.55 68.8146 205.989 63.9379 206.7 56.9759L207.041 52.5825L207.44 42.4452L207.497 41.0329C207.788 34.5179 207.875 30.3948 207.758 28.6633C207.66 27.2763 207.059 26.0725 205.955 25.052C205.835 25.0678 205.658 24.9619 205.424 24.7345C204.065 24.0141 202.511 23.6729 200.762 23.7108C200.43 23.7171 200.185 23.4359 200.027 22.8672L200.373 22.0378L210.93 21.9857L216.095 21.9241L217.328 21.8672C217.912 22.6729 217.637 23.8008 216.46 23.8766C212.059 24.2037 211.225 27.6776 210.945 31.3837C210.755 33.8892 210.594 37.9571 210.461 43.5874L210.414 45.9475L209.949 57.0943L209.166 61.5824C207.165 68.6724 201.934 71.9852 194.834 72.824C191.403 73.2537 188.038 73.1905 184.737 72.6345C175.764 71.1179 170.215 66.1037 170.072 56.483L170.025 51.4546L170.044 43.8954V37.4832L169.996 29.7202C170.281 24.4785 167.9 23.9146 163.423 23.6255C163.325 23.1863 163.325 22.7566 163.423 22.3364C163.461 22.1689 163.565 22.0852 163.736 22.0852L172.249 22.0331Z" fill="white"/>
<path d="M254.022 22.0195L260.615 22.0053C260.763 22.0053 260.902 22.0416 261.032 22.1143L261.26 22.2422C261.497 22.7541 261.44 23.1727 261.089 23.4981C260.976 23.6018 260.829 23.6578 260.676 23.6545C258.509 23.6214 255.526 23.9673 254.52 26.2185L254.383 28.773C255.755 33.0731 257.394 37.2658 259.301 41.351L262.626 49.4221L264.399 53.7301L268.018 62.9243C268.116 63.1739 268.219 63.1755 268.326 62.929L268.872 61.711L278.21 40.5359L278.4 39.9861L279.775 36.6307C281.909 31.3654 284.997 24.1332 275.63 23.7351C275.44 23.7288 275.342 23.6308 275.336 23.4413L275.289 22.3275C275.279 22.1285 275.375 22.029 275.578 22.029H292.533C292.688 22.029 292.765 22.1079 292.765 22.2659V23.427C292.764 23.5038 292.736 23.5777 292.685 23.6358C292.635 23.6938 292.566 23.7323 292.49 23.7446C287.738 24.4934 285.694 29.2943 283.93 33.3653L281.715 38.0383L280.776 40.133L270.024 64.1186L266.79 72.7015C266.725 72.8744 266.609 73.0238 266.458 73.1302C266.308 73.2367 266.128 73.2953 265.943 73.2983C265.759 73.3014 265.577 73.2488 265.423 73.1474C265.268 73.046 265.148 72.9006 265.078 72.7299L257.916 55.3888L257.337 54.0429L255.867 50.4552C252.905 43.2325 249.933 36.0225 246.951 28.8251C245.609 25.5787 244.347 23.7209 240.767 23.664C240.602 23.6608 240.49 23.5834 240.43 23.4318C240.209 22.882 240.338 22.3891 240.819 21.9531L254.022 22.0195Z" fill="white"/>
<path d="M416.45 51.5369L416.431 54.589C416.431 54.7596 416.345 54.8465 416.174 54.8497L414.643 54.8686C413.632 48.1436 412.029 47.2573 405.371 47.1389C402.993 47.0978 400.604 47.1199 398.204 47.2052C398.031 47.2115 397.944 47.3016 397.944 47.4754C397.94 53.9366 397.939 60.4105 397.939 66.897C397.939 69.1197 398.949 70.3898 401.211 70.3282C404.294 70.2477 407.386 70.4183 410.483 70.3282L416.132 70.2524L419.404 69.6315C422.919 68.3235 425.66 63.8259 427.334 60.6411C427.403 60.5052 427.514 60.4357 427.666 60.4326L428.842 60.3994C428.969 60.3962 429.019 60.4579 428.994 60.5842L426.442 72.295C426.411 72.4435 426.319 72.5162 426.167 72.513L421.463 72.404L409.563 72.3993H383.09C382.969 71.3029 383.082 70.7105 383.426 70.6221C386.376 70.8448 390.028 70.551 390.407 66.8354C390.507 65.9017 390.668 64.9207 390.573 63.9349L390.777 50.9919C390.913 43.9556 390.975 36.9478 390.962 29.9684C390.953 24.8737 389.241 23.5372 384.233 23.741C384.036 23.7473 383.938 23.6541 383.938 23.4614L383.934 22.286C383.931 22.1123 384.016 22.0254 384.19 22.0254L408.999 22.0159L422.112 21.9922C422.296 21.9922 422.403 22.0822 422.435 22.2623L424.052 30.9495C424.058 30.9843 424.057 31.0202 424.048 31.0545C424.038 31.0887 424.021 31.1204 423.998 31.1472C423.975 31.1741 423.946 31.1953 423.914 31.2095C423.881 31.2237 423.846 31.2304 423.81 31.2291L422.881 31.1912C422.703 31.1848 422.561 31.1122 422.454 30.9731C419.376 27.0016 416.44 24.2197 411.1 24.0822C407.998 23.9969 404.365 24.196 400.528 24.049C398.223 23.959 397.934 25.4566 397.939 27.4187C397.939 32.9668 397.942 38.507 397.948 44.0394C397.948 44.21 398.032 44.2953 398.2 44.2953C401.494 44.3237 404.764 44.3095 408.008 44.2526C412.731 44.1673 413.936 42.1389 414.491 37.6792C414.513 37.496 414.617 37.4044 414.804 37.4044H416.165C416.355 37.4075 416.45 37.5023 416.45 37.6887V51.5369Z" fill="white"/>
<path d="M352.77 31.2328C354.066 36.1617 352.999 40.1901 349.569 43.318C347.248 45.1505 344.684 46.3748 341.876 46.991C341.845 46.9972 341.815 47.0112 341.791 47.0315C341.766 47.0518 341.747 47.0778 341.735 47.1073C341.722 47.1369 341.718 47.1689 341.721 47.2007C341.724 47.2325 341.735 47.263 341.753 47.2895L347.249 55.4127L349.014 58.0051L352.723 63.3936C354.719 66.8628 357.005 70.4362 361.179 70.6969C361.25 70.7005 361.318 70.7316 361.367 70.7836C361.417 70.8357 361.444 70.9047 361.444 70.9765V72.1376C361.444 72.3051 361.361 72.3888 361.193 72.3888L352.153 72.4125C351.97 72.4125 351.802 72.3604 351.651 72.2561C350.024 71.1519 348.834 68.858 347.714 67.1282L342.587 59.2041L335.763 48.5644C335.716 48.4931 335.653 48.4345 335.578 48.3939C335.504 48.3534 335.42 48.3321 335.336 48.3322L329.047 48.3464C329.015 48.3464 328.983 48.3528 328.953 48.3652C328.924 48.3777 328.897 48.3959 328.874 48.4189C328.852 48.4418 328.834 48.469 328.822 48.4989C328.81 48.5288 328.805 48.5607 328.805 48.5928C328.938 53.7555 328.943 58.9213 328.819 64.0903C328.696 69.1851 330.508 71.1708 335.63 70.6495C335.772 71.234 335.801 71.6716 335.715 71.9623C335.639 72.2245 335.319 72.3604 334.753 72.3699C331.986 72.4236 329.205 72.4315 326.41 72.3936L317.698 72.3319L315.578 72.3367C315.5 72.3369 315.423 72.3117 315.36 72.2647C315.297 72.2178 315.25 72.1517 315.227 72.076C315.107 71.6779 315.1 71.2135 315.208 70.6827L318.016 70.55C322.474 70.1187 321.933 65.1093 321.805 61.479L321.881 49.0194L322.033 46.7066L321.99 42.3038L322.004 38.7493C322.099 36.683 322.086 33.2628 321.966 28.4888C321.875 24.9785 320.107 23.4003 316.664 23.7542C316.623 23.7582 316.582 23.7537 316.543 23.741C316.504 23.7282 316.468 23.7076 316.437 23.6803C316.407 23.6531 316.383 23.6198 316.366 23.5827C316.35 23.5457 316.341 23.5056 316.341 23.4651L316.337 22.2708C316.337 22.1223 316.409 22.0481 316.555 22.0481C326.11 22.0007 332.25 22.0023 334.975 22.0528C341.701 22.1855 350.228 24.285 352.77 31.2328ZM328.843 39.9152L328.886 45.3275C328.826 45.5455 328.816 45.7761 328.857 46.0194C328.88 46.1679 328.966 46.239 329.118 46.2327C332.618 46.1142 335.943 46.1284 339.552 44.9673C341.746 44.2343 343.342 43.0305 344.337 41.3559C348.838 32.6688 343.342 23.5694 333.391 24.0338C330.816 24.1523 328.819 24.4556 328.81 27.484C328.797 31.6135 328.808 35.7573 328.843 39.9152Z" fill="white"/>
</svg>
