<svg width="206" height="180" viewBox="0 0 206 180" fill="none" xmlns="http://www.w3.org/2000/svg">
<path d="M2.7593 1.99521C0.930835 4.29772 0.727672 8.49641 0.185905 46.0138C-0.152699 74.0502 -0.0849783 78.3844 0.863114 82.5153C3.57195 94.0279 12.5111 105.066 23.0078 109.942C26.123 111.364 30.3217 112.922 32.2856 113.328C38.3805 114.615 49.0127 114.141 53.6177 112.38C54.6335 111.974 54.7689 112.38 54.7689 116.308C54.7689 118.746 54.9721 121.184 55.1753 121.793C55.6493 122.945 59.5094 123.351 59.5094 122.267C59.5094 121.929 60.7284 122.132 62.1505 122.674C64.6562 123.622 64.9948 123.622 67.365 122.471C71.0897 120.574 72.715 118.001 72.6472 114.006C72.5795 110.484 71.1574 107.707 68.584 106.353C67.9068 105.947 67.2296 105.608 67.1619 105.54C67.0941 105.54 68.7872 103.644 71.0219 101.342C80.9092 90.9127 84.837 74.8629 80.7738 61.251C75.2884 42.6954 57.8164 30.5057 38.5159 31.657C30.9989 32.131 24.4977 34.2981 18.1997 38.5645L13.1206 41.9505L13.3238 22.9887C13.5946 4.36544 13.5946 4.02684 12.1048 2.13065C10.8858 0.573074 10.1409 0.302193 7.36432 0.302193C4.65548 0.302193 3.84283 0.573074 2.7593 1.99521ZM50.0285 41.7474C57.6132 44.0499 65.0625 49.6707 68.8549 56.0365C71.0897 59.6934 71.0897 59.6934 69.9384 62.1313C68.9226 64.2307 68.8549 64.9756 69.5321 67.2781C70.0061 68.7003 71.0897 70.3933 72.0378 71.0028C74.1371 72.3572 74.2048 74.2534 72.2409 75.1338C70.8188 75.7432 70.6833 76.4204 70.3447 81.9058C70.0739 86.6463 69.6675 88.5425 68.4486 90.5064C66.6201 93.4861 59.1031 100.529 57.8164 100.529C57.3423 100.529 56.7328 100.935 56.5297 101.342C56.3265 101.816 56.1911 98.2943 56.3265 93.5538C56.462 84.8856 56.462 84.8178 58.4259 83.1925C59.5094 82.2444 60.7961 81.635 61.3379 81.8381C65.1302 83.328 65.5366 83.1925 66.9587 80.0097C69.058 75.3369 67.9745 74.1179 61.8119 74.1179C59.6448 74.1179 58.4936 74.592 56.936 76.0141L54.9044 77.978L54.1595 76.3527C53.6177 75.1338 52.9405 74.7951 50.7734 74.7951C46.2361 74.7951 45.9652 75.6755 45.9652 91.5222V105.27H42.5115C39.2609 105.27 39.0577 105.202 39.464 103.712C42.4437 93.3507 40.8862 84.8178 34.9267 78.9938C31.2021 75.3369 27.7483 73.9825 22.3306 73.9825C19.08 73.9825 17.2516 74.4565 14.6782 75.7432C12.782 76.6913 11.2244 77.504 11.089 77.504C10.9535 77.504 10.9535 73.7793 11.089 69.3098C11.4276 59.7611 12.3757 57.1877 17.7256 51.3637C26.0553 42.2214 38.8545 38.429 50.0285 41.7474ZM24.4977 83.8697C30.4571 86.3754 32.6919 94.0956 29.1704 99.9873C28.561 101.071 27.816 101.883 27.4774 101.883C25.3781 101.883 17.3193 94.7728 14.3396 90.3032C12.6465 87.6621 12.5788 87.5944 13.8655 86.1723C16.5744 83.1925 20.7053 82.2444 24.4977 83.8697ZM66.6201 111.026C67.5682 111.906 68.3131 113.464 68.3131 114.412C68.3131 118.069 63.5049 120.168 60.7284 117.662C58.4936 115.699 59.4417 110.823 62.2182 109.807C64.1821 109.13 64.9948 109.333 66.6201 111.026Z" fill="white"/>
<path d="M85.9218 100.191C84.7028 101.613 85.38 103.577 87.2085 103.78C89.7142 104.187 90.73 102.02 88.9015 100.259C87.6148 98.9045 87.0053 98.9045 85.9218 100.191Z" fill="white"/>
<path d="M107.048 99.99C106.574 100.464 106.236 101.818 106.236 103.037C106.236 104.527 105.829 105.475 104.881 105.949C103.12 106.897 103.12 108.658 104.881 109.132C106.032 109.471 106.236 110.148 106.371 116.04L106.574 122.541H108.606H110.637L110.841 115.904C110.976 109.877 111.111 109.335 112.33 109.335C114.227 109.335 114.227 106.22 112.33 105.611C111.315 105.272 110.976 104.595 110.976 102.563C110.976 100.87 110.637 99.8545 109.892 99.5836C108.403 99.0419 107.996 99.0419 107.048 99.99Z" fill="white"/>
<path d="M134.342 99.99C134.139 100.532 134.071 105.814 134.139 111.706L134.342 122.541H136.373H138.405V111.028V99.5159L136.509 99.3128C135.425 99.1773 134.545 99.4482 134.342 99.99Z" fill="white"/>
<path d="M79.893 105.882C79.3512 106.22 77.9291 106.356 76.6424 106.153L74.3398 105.746L74.543 114.144L74.7462 122.541H76.7778H78.8094L79.0126 116.514C79.2157 109.877 79.6898 108.726 82.1277 109.132C83.3467 109.403 83.8208 109.065 84.0917 107.913C84.7011 105.611 82.1955 104.46 79.893 105.882Z" fill="white"/>
<path d="M86.0552 105.812C85.4457 106.286 85.2426 108.453 85.378 114.48L85.5812 122.539L87.4773 122.742L89.3058 122.945V114.548C89.3058 107.437 89.1026 106.015 88.2223 105.676C86.9356 105.202 87.1387 105.202 86.0552 105.812Z" fill="white"/>
<path d="M93.7758 106.694C90.3221 109.403 91.8119 113.331 97.4327 116.311C99.5321 117.394 99.5998 117.597 98.584 118.613C97.6359 119.629 97.365 119.629 95.8074 118.613C93.5049 117.056 92.2182 117.191 91.6765 118.816C91.067 120.713 92.286 122.067 95.4011 122.88C98.3131 123.625 99.803 123.286 102.038 121.322C105.017 118.613 103.528 114.482 98.6517 111.977C96.6878 110.961 96.1461 110.351 96.6878 109.809C97.1619 109.335 97.9068 109.335 99.1935 109.945C102.444 111.367 104.273 108.387 101.361 106.356C99.2612 104.866 95.9429 105.001 93.7758 106.694Z" fill="white"/>
<path d="M118.698 106.558C115.583 108.454 114.364 110.554 114.364 114.075C114.364 117.461 116.125 120.983 118.495 122.202C120.73 123.421 125.403 123.217 127.773 121.795C131.836 119.425 133.123 113.669 130.617 109.538C128.112 105.407 122.762 104.052 118.698 106.558ZM126.419 111.163C127.57 112.788 127.434 116.107 126.08 117.597C124.793 119.019 121.881 119.222 120.256 117.935C119.646 117.529 118.902 116.174 118.698 114.955C118.089 111.976 120.933 108.996 123.71 109.673C124.726 109.876 125.945 110.554 126.419 111.163Z" fill="white"/>
<path d="M189.94 126.333C187.908 127.89 187.57 131.209 189.127 133.376C190.008 134.595 189.872 134.933 188.111 136.965C186.689 138.59 186.147 139.877 186.147 141.841C186.147 146.717 191.362 148.681 197.66 146.175C200.233 145.159 200.504 145.159 201.656 146.175C203.145 147.529 204.026 147.529 205.042 146.31C205.651 145.566 205.651 145.024 205.042 143.94C204.297 142.857 204.364 142.383 205.245 141.367C206.193 140.283 206.261 140.012 205.38 138.793C204.432 137.574 204.297 137.574 202.468 138.658C200.64 139.742 200.572 139.742 198.676 137.778L196.78 135.814L198.608 133.714C200.707 131.141 200.911 128.161 199.014 126.265C197.118 124.369 192.378 124.437 189.94 126.333ZM196.102 129.38C196.306 129.922 195.967 130.938 195.358 131.547C194.342 132.563 194.206 132.563 193.19 131.547C191.768 130.125 192.446 128.297 194.274 128.297C195.019 128.297 195.832 128.771 196.102 129.38ZM195.222 140.419C196.78 142.044 196.915 142.383 195.967 142.789C194.003 143.534 191.023 143.195 190.685 142.247C190.278 141.299 191.904 138.455 192.852 138.455C193.123 138.455 194.206 139.335 195.222 140.419Z" fill="white"/>
<path d="M61.88 129.585C61.135 129.923 59.5097 129.991 58.223 129.788C56.8009 129.585 55.7851 129.788 55.4465 130.33C54.837 131.345 54.5661 143.874 55.1756 145.431C55.4465 146.176 56.3268 146.583 57.5458 146.583H59.5097V141.165C59.5097 136.628 59.7129 135.544 60.8641 134.393C62.4217 132.835 62.8958 132.768 64.4533 133.851C65.3337 134.528 65.6046 136.086 65.74 140.488L65.9432 146.244L68.178 146.447L70.3451 146.65V141.91C70.3451 136.357 71.09 134.054 72.9862 133.513C75.695 132.835 76.5754 134.393 76.8463 140.556L77.0494 146.244L79.1488 146.447L81.1804 146.65V140.217C81.1804 136.695 80.8418 133.038 80.4355 132.09C78.9456 128.84 73.7988 128.163 70.8868 130.804C69.8033 131.82 69.5324 131.82 68.4489 130.804C66.959 129.382 63.7084 128.84 61.88 129.585Z" fill="white"/>
<path d="M103.528 129.853C99.8031 131.749 100.209 136.761 104.273 138.996C108.201 141.163 108.675 141.637 107.794 142.585C107.117 143.262 106.44 143.194 104.476 142.246C102.173 141.163 101.835 141.163 100.887 142.178C98.6519 144.413 102.783 147.528 107.252 146.987C110.435 146.58 112.331 144.616 112.331 141.704C112.331 139.537 110.503 137.506 106.914 135.542C105.221 134.594 104.814 134.187 105.559 133.713C106.033 133.442 107.117 133.442 107.997 133.849C109.149 134.391 109.826 134.391 110.638 133.713C112.264 132.359 111.79 131.005 109.284 129.921C106.44 128.77 105.695 128.77 103.528 129.853Z" fill="white"/>
<path d="M119.376 129.923C116.057 131.412 114.364 134.054 114.364 137.914C114.364 142.18 115.719 144.753 118.698 146.176C121.61 147.53 124.726 147.53 127.638 146.176C130.076 145.024 130.617 143.264 128.992 141.909C128.315 141.367 127.638 141.367 126.148 142.18C123.371 143.602 121.407 143.467 119.646 141.638L118.089 140.148L123.507 139.945C131.159 139.742 131.972 139.471 131.972 137.236C131.972 134.528 129.534 131.074 126.893 129.923C124.048 128.771 122.084 128.771 119.376 129.923ZM125.945 134.392L127.57 135.679H123.168H118.766L120.391 134.392C121.272 133.647 122.491 133.038 123.168 133.038C123.845 133.038 125.064 133.647 125.945 134.392Z" fill="white"/>
<path d="M158.923 129.921C157.772 130.531 156.891 130.599 156.485 130.192C156.146 129.854 155.131 129.651 154.25 129.786C152.625 129.989 152.625 130.057 152.625 138.116V146.242H154.657H156.688L156.891 140.621C157.027 135.678 157.23 134.933 158.652 134.052C160.548 132.766 162.309 133.375 162.783 135.339C162.986 136.084 163.189 138.861 163.257 141.502L163.46 146.242H165.492H167.524L167.862 140.621C168.133 136.016 168.472 134.797 169.487 133.985C171.045 132.901 171.248 132.833 172.603 133.714C173.348 134.188 173.686 136.016 173.957 140.283L174.296 146.242H176.327H178.359L178.562 139.606C178.765 132.969 178.765 132.969 176.666 130.87C174.837 129.109 174.228 128.838 172.129 129.177C170.842 129.447 169.149 130.125 168.472 130.734C167.32 131.75 167.117 131.75 165.424 130.396C163.325 128.77 161.496 128.635 158.923 129.921Z" fill="white"/>
<path d="M83.8887 135.747C83.8887 139.81 84.2273 142.587 84.9045 143.806C86.8684 147.666 93.3019 148.275 96.6879 144.889C98.3132 143.264 98.4487 142.722 98.4487 136.559V129.99H96.417H94.3854L94.0468 136.018C93.7759 141.368 93.5728 142.113 92.2183 142.587C89.3741 143.602 88.2905 141.842 88.0196 135.476L87.8165 129.652H85.8526H83.8887V135.747Z" fill="white"/>
<path d="M134.476 130.126C133.528 131.006 134.002 141.3 135.086 143.534C137.388 148.41 145.853 148.41 148.088 143.534C148.562 142.586 148.901 139.065 148.901 135.747V129.652H146.869C145.786 129.652 144.838 129.855 144.838 130.126C144.838 130.464 144.702 133.038 144.634 135.95C144.431 141.706 143.483 143.399 140.707 142.722C138.946 142.248 138.878 141.977 138.472 135.408C138.269 132.428 138.133 129.923 138.133 129.787C137.998 129.449 134.883 129.652 134.476 130.126Z" fill="white"/>
<path d="M143.212 149.832C142.942 150.306 142.603 165.949 142.806 171.773C142.806 172.654 143.348 172.992 144.838 172.992H146.869L146.734 161.276C146.531 149.899 146.463 149.628 145.041 149.425C144.296 149.29 143.416 149.493 143.212 149.832Z" fill="white"/>
<path d="M150.73 149.765C150.459 149.968 150.256 155.318 150.256 161.616V173.061L152.491 172.857L154.658 172.654L154.861 162.496C155.064 150.577 154.861 149.291 152.694 149.291C151.881 149.291 150.933 149.494 150.73 149.765Z" fill="white"/>
<path d="M88.6297 152.744C88.6297 154.911 88.3589 155.588 87.2753 155.859C86.3949 156.13 85.9209 156.807 85.9209 157.89C85.9209 158.974 86.3949 159.719 87.2753 159.922C88.4943 160.261 88.6297 160.87 88.6297 166.626V172.992H90.6614H92.693V166.694C92.693 160.87 92.8284 160.396 94.1828 159.787C96.4176 158.839 96.5531 156.875 94.4537 156.062C92.9639 155.52 92.693 154.978 92.693 152.676C92.693 150.103 92.5575 149.967 90.6614 149.967C88.7652 149.967 88.6297 150.103 88.6297 152.744Z" fill="white"/>
<path d="M58.3587 156.74C54.4309 159.11 53.2119 163.715 55.3112 168.455C57.3429 173.128 61.6093 174.821 65.7402 172.722C66.8915 172.112 67.7719 172.044 68.1782 172.451C68.5168 172.789 69.5326 172.993 70.413 172.857C71.9706 172.654 72.0383 172.451 72.2414 165.882C72.5123 157.078 72.2414 156.062 69.6681 156.062C68.5168 156.062 67.6364 156.333 67.6364 156.672C67.6364 157.078 66.8238 156.875 65.808 156.333C63.2346 155.047 60.9321 155.114 58.3587 156.74ZM65.8757 160.871C67.1624 161.886 67.6364 162.902 67.6364 164.527C67.6364 166.83 65.1985 169.607 63.0991 169.607C61.5415 169.607 58.8327 166.424 58.8327 164.527C58.8327 162.631 61.5415 159.448 63.0991 159.448C63.6409 159.448 64.8599 160.058 65.8757 160.871Z" fill="white"/>
<path d="M80.5713 155.995C80.0296 156.333 78.6074 156.469 77.3207 156.266L75.0859 155.859V164.46V173.061L77.3207 172.857L79.4878 172.654L79.691 167.575C79.8941 160.194 80.165 159.449 82.4675 159.449C83.8897 159.449 84.4991 159.042 84.77 157.959C85.3795 155.724 82.8738 154.573 80.5713 155.995Z" fill="white"/>
<path d="M106.441 156.334C103.596 157.621 101.497 161.075 101.497 164.528C101.497 171.165 107.321 175.228 113.281 172.655C114.229 172.249 114.432 172.384 114.229 173.4C113.89 175.161 110.098 176.176 107.795 175.093C106.238 174.416 105.831 174.483 104.612 175.635C103.326 176.989 103.326 177.124 104.341 178.208C106.034 179.833 112.265 180.172 114.906 178.817C118.495 176.989 119.104 174.822 119.104 164.867V155.996L116.26 156.063C114.635 156.063 112.265 155.928 110.978 155.725C109.556 155.521 107.727 155.792 106.441 156.334ZM113.687 161.21C115.244 162.768 114.906 166.831 113.01 168.388C109.962 170.826 106.238 168.659 106.238 164.461C106.238 160.33 110.707 158.433 113.687 161.21Z" fill="white"/>
<path d="M125.875 156.266C123.302 157.552 121.135 161.277 121.135 164.46C121.135 169.81 125.74 174.279 130.209 173.331C131.361 173.06 133.731 172.925 135.559 172.993L138.742 173.06V164.46V155.859L136.033 156.266C134.543 156.469 133.121 156.333 132.918 155.995C132.376 155.114 127.839 155.25 125.875 156.266ZM133.121 161.209C134.476 162.564 134.747 163.309 134.408 165.069C133.595 168.997 130.548 170.419 127.704 168.185C124.859 166.017 125.401 161.074 128.584 159.923C130.548 159.245 131.361 159.449 133.121 161.209Z" fill="white"/>
<path d="M161.361 156.671C158.111 158.635 157.027 160.667 157.027 164.595C157.027 168.658 158.653 171.299 162.174 172.721C165.154 173.94 167.456 173.94 170.301 172.586C172.739 171.434 173.28 169.674 171.655 168.319C170.978 167.778 170.301 167.778 168.811 168.59C166.102 170.012 164.815 169.877 162.648 167.913L160.752 166.288L166.644 166.22C173.754 166.22 174.635 165.949 174.635 163.579C174.635 157.416 166.779 153.353 161.361 156.671ZM168.608 160.125C170.978 161.412 169.962 162.157 165.696 162.157C161.632 162.157 161.565 162.157 162.784 160.802C164.138 159.312 166.508 159.042 168.608 160.125Z" fill="white"/>
<path d="M181.813 155.86C181.542 156.198 180.187 156.401 178.833 156.401H176.327V164.528V172.654H178.359H180.39L180.594 167.575C180.797 160.194 181 159.584 183.573 159.313C187.095 158.975 186.892 155.453 183.37 155.385C182.761 155.385 182.083 155.589 181.813 155.86Z" fill="white"/>
<path d="M187.502 161.954C187.502 166.627 187.773 168.387 188.789 170.013C190.414 172.654 193.935 174.008 196.577 172.992C199.082 172.044 199.15 172.112 198.337 173.602C197.457 175.295 194.342 175.972 191.972 175.024C189.804 174.211 188.179 175.092 188.179 177.056C188.179 179.494 195.358 180.645 199.015 178.749C202.671 176.852 203.078 175.633 203.078 165.408V156.062H201.046H199.015V160.803C199.015 166.694 198.066 168.929 195.628 168.929C192.852 168.929 192.039 167.372 191.904 161.954C191.701 155.656 191.904 156.062 189.534 156.062H187.502V161.954Z" fill="white"/>
</svg>
