<svg width="251" height="108" viewBox="0 0 251 108" fill="none" xmlns="http://www.w3.org/2000/svg">
<g clip-path="url(#clip0_718_889)">
<path d="M193.178 0H201.369C228.242 3.09767 247.904 22.3451 251 49.1358V58.9479C247.528 85.9395 228.092 105.363 201.067 108H193.061C174.498 105.756 160.609 97.1833 151.395 82.2809C139.497 63.0419 140.97 38.4446 154.9 20.6958C164.299 8.71256 177.058 1.81395 193.178 0ZM244.825 54.0586C244.825 41.4244 239.809 29.3077 230.882 20.374C221.954 11.4403 209.845 6.4214 197.219 6.4214C184.593 6.4214 172.484 11.4403 163.556 20.374C154.628 29.3077 149.612 41.4244 149.612 54.0586C149.612 60.3144 150.844 66.509 153.236 72.2886C155.629 78.0682 159.135 83.3197 163.556 87.7432C172.484 96.6769 184.593 101.696 197.219 101.696C203.471 101.696 209.661 100.464 215.437 98.0696C221.213 95.6757 226.461 92.1667 230.882 87.7432C235.302 83.3197 238.809 78.0682 241.201 72.2886C243.594 66.509 244.825 60.3144 244.825 54.0586Z" fill="white"/>
<path d="M200.558 8.77344H195.42C195.286 8.77344 195.178 8.88214 195.178 9.01623V16.0823C195.178 16.2164 195.286 16.3251 195.42 16.3251H200.558C200.692 16.3251 200.8 16.2164 200.8 16.0823V9.01623C200.8 8.88214 200.692 8.77344 200.558 8.77344Z" fill="white"/>
<path d="M199.252 52.132L212.346 16.065C212.359 16.0297 212.379 15.9973 212.405 15.9698C212.43 15.9422 212.461 15.92 212.495 15.9044C212.53 15.8888 212.567 15.8802 212.604 15.879C212.642 15.8779 212.679 15.8842 212.714 15.8976L216.555 17.3124C216.59 17.3255 216.622 17.3454 216.65 17.371C216.677 17.3966 216.7 17.4274 216.715 17.4617C216.731 17.4959 216.739 17.5329 216.741 17.5706C216.742 17.6082 216.735 17.6456 216.722 17.6808L202.005 58.2436C201.992 58.2799 201.972 58.3132 201.946 58.3415C201.92 58.3698 201.888 58.3924 201.853 58.4081C201.818 58.4237 201.779 58.4321 201.741 58.4326C201.702 58.4331 201.664 58.4258 201.629 58.411L198.215 56.971C198.181 56.9556 198.144 56.947 198.106 56.9459H172.002C171.927 56.9459 171.854 56.9159 171.801 56.8626C171.748 56.8092 171.718 56.7368 171.718 56.6613V52.6008C171.718 52.5253 171.748 52.4529 171.801 52.3995C171.854 52.3461 171.927 52.3162 172.002 52.3162H198.985C199.043 52.3165 199.1 52.299 199.147 52.2661C199.195 52.2332 199.232 52.1864 199.252 52.132Z" fill="white"/>
<path d="M38.0766 50.0986C40.8543 43.8698 45.3919 41.28 51.6892 42.3293C58.3658 43.4344 61.1937 47.5451 61.2523 54.0168C61.3192 61.1107 61.3248 68.2075 61.269 75.307C61.269 75.6084 61.1184 75.7451 60.8172 75.7172L60.4909 75.6837C60.1953 75.6558 60.0503 75.494 60.0558 75.1982C60.1283 63.1312 60.1172 55.5768 60.0224 52.5349C59.7797 45 51.321 41.5926 45.1799 44.1963C40.8069 46.0493 38.3806 49.6689 37.9009 55.0549C37.5941 58.493 37.5551 65.2521 37.7838 75.3321C37.7893 75.6056 37.6583 75.7451 37.3905 75.7507H37.0726C36.7602 75.7563 36.6041 75.6028 36.6041 75.2902C36.5985 60.3768 36.5957 45.4661 36.5957 30.5582C36.5957 30.1507 36.8383 30.0307 37.3236 30.1982C37.5523 30.2763 37.6666 30.4382 37.6666 30.6837L37.7503 50.0316C37.7459 50.073 37.7571 50.1145 37.7817 50.1481C37.8062 50.1817 37.8424 50.2049 37.8831 50.2133C37.9238 50.2216 37.9662 50.2145 38.002 50.1933C38.0377 50.1721 38.0643 50.1384 38.0766 50.0986Z" fill="white"/>
<path d="M0 48.4229V44.4378C1.03189 39.5429 3.4638 35.9429 7.29573 33.6377C13.6628 29.8033 22.8243 31.4694 27.2251 37.7066C28.6307 39.6936 29.5901 42.3587 30.1033 45.7019C31.5925 55.4471 30.4798 72.7187 18.3146 76.0257C11.6297 77.8424 4.35067 75.2303 1.49763 68.5745C1.09046 67.6257 0.942644 66.7243 1.0542 65.8703C1.0667 65.7483 1.12197 65.6347 1.21022 65.5495C1.29846 65.4644 1.41398 65.4133 1.53629 65.4053C1.6586 65.3973 1.77979 65.4328 1.87839 65.5057C1.97699 65.5786 2.04662 65.684 2.07493 65.8033C3.77616 72.2722 8.11009 75.4564 15.0767 75.3559C26.6646 75.1801 29.6849 60.6796 29.2164 51.6461C29.2129 51.597 29.1922 51.5506 29.1579 51.5153C29.1236 51.4799 29.078 51.4578 29.029 51.4528C28.98 51.4478 28.9308 51.4602 28.8901 51.4879C28.8494 51.5157 28.8198 51.5568 28.8064 51.6043C26.1877 60.6629 15.9552 63.8694 7.82283 59.7838C3.60603 57.6573 0.998422 53.8703 0 48.4229ZM28.7144 46.581C28.7144 42.944 27.2705 39.4559 24.7004 36.8841C22.1303 34.3123 18.6445 32.8675 15.0098 32.8675C11.3751 32.8675 7.8893 34.3123 5.31918 36.8841C2.74907 39.4559 1.3052 42.944 1.3052 46.581C1.3052 50.218 2.74907 53.7061 5.31918 56.2779C7.8893 58.8497 11.3751 60.2945 15.0098 60.2945C18.6445 60.2945 22.1303 58.8497 24.7004 56.2779C27.2705 53.7061 28.7144 50.218 28.7144 46.581Z" fill="white"/>
<path d="M66.2641 56.6535C65.5529 47.0507 68.1215 34.3837 79.1487 31.8972C81.9265 31.2721 84.6596 31.3921 87.3481 32.2572C100.885 36.6024 100.618 57.6163 96.4092 67.7717C93.4641 74.8628 84.7209 78.4293 77.4503 75.8256C69.1171 72.8451 66.8581 64.5651 66.2641 56.6535ZM81.985 32.8098C69.9956 33.1782 67.084 46.0377 67.5107 55.6489C67.8286 62.807 69.8283 71.4554 77.4001 74.3856C79.9547 75.3847 82.6098 75.6219 85.3652 75.0972C97.363 72.8284 98.6096 57.3986 97.0952 47.62C95.8068 39.2563 91.1967 32.5335 81.985 32.8098Z" fill="white"/>
<path d="M106.089 51.3551C110.864 46.6444 116.227 45.1849 122.178 46.9765C136.494 51.2797 136.025 72.0509 122.429 75.8769C112.95 78.5476 102.115 73.3904 102.709 62.3142C102.726 62.0295 102.876 61.8928 103.161 61.9039L103.512 61.929C103.785 61.9402 103.919 62.0825 103.914 62.356C103.604 80.6993 133.9 79.8621 131.181 59.3002C129.399 45.8546 112.665 43.5021 105.562 53.9839C105.461 54.1346 105.31 54.2452 105.136 54.2966C104.963 54.348 104.776 54.337 104.609 54.2656C104.443 54.1941 104.306 54.0666 104.224 53.9051C104.141 53.7436 104.117 53.5583 104.156 53.3811L108.54 32.8109C108.596 32.5542 108.758 32.4258 109.026 32.4258H130.311C130.612 32.4258 130.76 32.5737 130.754 32.8695V33.2211C130.752 33.3218 130.71 33.4176 130.638 33.4881C130.566 33.5585 130.47 33.5979 130.369 33.5979H110.205C110.047 33.5983 109.894 33.6527 109.772 33.7518C109.65 33.851 109.567 33.9888 109.536 34.1421L105.905 51.2546C105.855 51.4946 105.916 51.5281 106.089 51.3551Z" fill="white"/>
<path d="M159.778 51.6895H152.064C151.935 51.6895 151.83 51.7944 151.83 51.9239V56.7964C151.83 56.9259 151.935 57.0308 152.064 57.0308H159.778C159.908 57.0308 160.013 56.9259 160.013 56.7964V51.9239C160.013 51.7944 159.908 51.6895 159.778 51.6895Z" fill="white"/>
<path d="M242.692 51.6895H234.559C234.416 51.6895 234.3 51.8056 234.3 51.949V56.7713C234.3 56.9146 234.416 57.0308 234.559 57.0308H242.692C242.835 57.0308 242.951 56.9146 242.951 56.7713V51.949C242.951 51.8056 242.835 51.6895 242.692 51.6895Z" fill="white"/>
<path d="M200.541 92.7207H195.437C195.294 92.7207 195.178 92.8369 195.178 92.9802V98.9747C195.178 99.118 195.294 99.2342 195.437 99.2342H200.541C200.684 99.2342 200.8 99.118 200.8 98.9747V92.9802C200.8 92.8369 200.684 92.7207 200.541 92.7207Z" fill="white"/>
</g>
<defs>
<clipPath id="clip0_718_889">
<rect width="251" height="108" fill="white"/>
</clipPath>
</defs>
</svg>
