<svg width="229" height="114" viewBox="0 0 229 114" fill="none" xmlns="http://www.w3.org/2000/svg">
<g clip-path="url(#clip0_929_1652)">
<path d="M4.5626 -7.02252C1.85441 -7.02252 0.229492 -5.76833 0.229492 -3.43912V105.496C0.229492 107.467 1.49331 109.08 3.84041 109.08H201.358C202.983 109.08 204.427 109.08 205.33 106.392C205.33 106.392 225.19 44.5785 225.551 43.5035C226.273 41.1743 225.912 39.9201 223.926 38.6659C159.832 -1.46824 63.4206 -7.38086 19.909 -7.38086C13.5899 -7.38086 8.53461 -7.02252 4.5626 -7.02252Z" fill="white"/>
<path d="M45.3671 62.6752C37.9647 59.4502 33.09 57.4793 34.3538 53.8959C35.6176 49.5958 43.02 47.9833 49.7002 48.3416C52.95 48.3416 55.2971 48.7 58.3664 49.5958L60.7135 42.0707C57.4637 41.354 54.7555 41.1748 50.7835 41.1748C37.4231 40.8165 25.507 44.3999 22.6183 51.925C19.0074 60.7044 29.2985 66.0795 38.3258 70.2004C45.7282 73.4255 50.964 76.8297 48.978 80.5923C47.7142 83.8173 42.2978 85.2507 35.076 85.2507C28.7569 85.2507 20.8128 83.2798 14.4937 80.4131L10.8828 88.2966C15.577 90.2675 24.7849 93.1342 32.9094 93.4925C47.8947 93.8509 57.8248 90.2675 61.7968 82.0256C66.1299 72.1713 54.7555 67.1545 45.3671 62.6752Z" fill="#B92727"/>
<path d="M66.1303 76.1124C66.1303 76.1124 66.1303 76.4708 66.4914 76.4708C66.4914 76.4708 66.8525 76.4708 66.8525 76.1124C66.8525 75.7541 74.2549 53.537 74.2549 53.537C81.6572 63.9288 88.8791 77.7249 93.2122 92.4169H105.128L111.086 73.7832C111.086 73.7832 111.086 73.4249 111.447 73.4249C111.447 73.4249 111.808 73.4249 111.808 73.7832C113.433 85.2501 125.349 93.1336 142.14 93.1336C152.792 93.1336 162.722 90.2669 165.07 89.1918L171.389 69.4831H195.582L197.929 61.958H173.375L177.708 49.2369H206.595L209.303 41.3534H168.5L154.959 83.8167C151.89 84.5334 148.279 84.7126 144.668 84.7126C136.724 84.7126 130.044 82.7417 126.433 78.4416C123.724 75.2166 122.461 71.2748 123.363 66.6164C124.988 55.8662 135.641 48.8785 149.904 48.8785C152.973 48.8785 155.862 48.8785 158.931 49.5952L162 41.3534C158.75 40.6367 154.417 40.6367 150.445 40.6367C137.807 40.6367 126.433 44.9368 119.572 52.462C119.572 52.8203 119.211 52.8203 118.85 52.8203C118.489 52.8203 118.489 52.8203 118.489 52.462L122.1 41.3534H111.447L99.5313 77.0083C95.9204 66.6164 88.1569 52.462 78.949 41.3534H67.5746L59.2695 67.5122C63.4221 70.7373 64.6859 73.0665 66.1303 76.1124Z" fill="#B92727"/>
</g>
<defs>
<clipPath id="clip0_929_1652">
<rect width="229" height="114" fill="white"/>
</clipPath>
</defs>
</svg>
