<svg width="258" height="192" viewBox="0 0 258 192" fill="none" xmlns="http://www.w3.org/2000/svg">
<path d="M97.3517 16.2051H25.9609V42.1653H97.3517V16.2051Z" fill="#B92727"/>
<path fill-rule="evenodd" clip-rule="evenodd" d="M55.4749 39.1032C55.7536 38.8245 56.0349 38.5253 56.3145 38.2251C56.8141 37.6309 57.3607 37.0728 57.9445 36.5552C58.1135 36.4019 58.2918 36.2595 58.4788 36.1287C58.5033 36.1041 58.5156 36.0673 58.5278 36.0305C58.54 35.9937 58.5524 35.9569 58.5769 35.9324C58.4544 35.9815 58.3562 36.0551 58.2581 36.1285C58.16 36.2021 58.0618 36.2757 57.9392 36.3248C57.8901 36.3248 57.841 36.2759 57.8901 36.2268L58.4143 35.8336C58.4035 35.8343 58.3921 35.8343 58.3806 35.8343C58.3317 35.8343 58.3317 35.7854 58.3317 35.7362C57.6992 35.6389 57.2116 36.0722 56.7729 36.462L56.7618 36.472C56.6963 36.5048 56.6309 36.472 56.58 36.4466C56.5547 36.4338 56.5329 36.4229 56.5166 36.4229C56.1309 36.5516 55.7991 36.7879 55.4649 37.0261C55.1613 37.2425 54.8555 37.4603 54.5054 37.6004V37.5022C54.3834 37.5429 54.2628 37.5972 54.142 37.6518C53.9712 37.7289 53.7997 37.8062 53.6224 37.8456C53.2903 37.9193 52.9861 37.9099 52.6887 37.9007C52.5907 37.8976 52.493 37.8946 52.3958 37.8946C51.7959 37.9676 51.2004 38.0736 50.6122 38.2122L50.5865 38.2186L50.5748 38.2215L50.5609 38.2251C50.2426 38.3109 49.9358 38.4345 49.6468 38.5932C49.6354 38.5993 49.6242 38.6059 49.6133 38.6127C49.5889 38.6433 49.5649 38.6726 49.5423 38.6976C49.4498 38.8158 49.3356 38.9154 49.2059 38.9911C48.9926 39.0996 48.8067 39.2652 48.6222 39.4295C48.546 39.4974 48.47 39.5652 48.3924 39.6285C48.3693 39.6446 48.3419 39.6533 48.3138 39.6534C48.2329 39.731 48.1524 39.8089 48.0718 39.8868C47.8904 40.0622 47.7088 40.2381 47.5237 40.4096C47.4769 40.4313 47.4246 40.4376 47.374 40.4276C47.3875 40.4074 47.3971 40.392 47.4065 40.3764C47.4477 40.3071 47.4897 40.2382 47.5321 40.1695C47.5796 40.0928 47.628 40.0169 47.6776 39.9417C47.7445 39.8402 47.8133 39.7399 47.8865 39.643C47.9035 39.6246 47.9027 39.5961 47.8846 39.5787C47.8662 39.5611 47.8415 39.5519 47.8161 39.553C48.067 39.3183 48.3432 39.1122 48.6396 38.9385C48.6069 38.9415 48.5592 38.9152 48.584 38.8807C48.6023 38.8553 48.6183 38.8289 48.6341 38.8024C48.6454 38.7839 48.6566 38.7653 48.6686 38.747C48.6742 38.7325 48.6793 38.7178 48.6843 38.7033C48.6767 38.6948 48.669 38.6871 48.6614 38.6791L48.6472 38.6646C48.5665 38.7125 48.4894 38.7664 48.4167 38.8257C48.3811 38.8577 48.3479 38.8999 48.3139 38.9432C48.2358 39.0426 48.1535 39.1472 48.0294 39.1458C48.0042 39.1454 47.9791 39.1418 47.955 39.1351C47.9368 39.1327 47.9193 39.1267 47.9035 39.1176L47.9098 39.1063L47.9171 39.0926L47.9242 39.0798L47.9476 39.0377L47.9602 39.0149L47.971 38.9953L47.9898 38.9613C48.0015 38.9406 48.0128 38.9202 48.0246 38.8992L48.0344 38.8819L48.0398 38.8728L48.0503 38.8548C48.0649 38.8294 48.0796 38.8044 48.0944 38.7792L48.1136 38.7465L48.1439 38.6945L48.1654 38.6575L48.1808 38.631L48.196 38.6053C48.2062 38.5892 48.2077 38.5693 48.2004 38.5518C48.193 38.5344 48.1777 38.5216 48.1592 38.5175C48.2504 38.3985 48.3646 38.2989 48.4951 38.2248H48.4803C48.6096 38.1597 48.7389 38.085 48.8681 38.0103C48.9264 37.9765 48.9854 37.9425 49.0436 37.9097C49.0618 37.8942 49.0795 37.8787 49.0972 37.8632L49.1248 37.8396C48.8487 37.9329 48.5861 38.0625 48.3439 38.2247C48.3148 38.2361 48.2872 38.2512 48.2617 38.2695C48.2156 38.2795 48.168 38.262 48.1393 38.2247C48.1314 38.2143 48.1272 38.2016 48.1275 38.1886C48.1562 38.1315 48.2181 38.0909 48.2842 38.0477C48.3315 38.0166 48.381 37.9842 48.422 37.9433C48.4708 37.9433 48.5199 37.9433 48.5199 37.9924C49.494 37.2313 50.6946 37.056 51.8993 36.8801C52.636 36.7726 53.3745 36.6648 54.0633 36.4225L54.5048 36.1283C54.6309 36.0778 54.7441 35.9884 54.8643 35.8935C54.9779 35.8038 55.0976 35.7092 55.2405 35.6376C55.6369 35.3656 55.9306 34.9682 56.0745 34.5095C56.0693 34.4723 56.0521 34.4377 56.0255 34.4113C55.409 35.076 54.6779 35.6244 53.8671 36.0302C53.1242 36.4193 52.3303 36.4768 51.5406 36.5339C51.2352 36.556 50.9303 36.578 50.6293 36.6193C50.6785 36.5213 50.7766 36.5213 50.8746 36.5213C50.8746 36.4048 50.936 36.3497 51.0103 36.2833C51.0299 36.2657 51.0504 36.2474 51.0709 36.2269H51.2182C51.2426 36.2269 51.2548 36.2024 51.267 36.1779C51.2793 36.1533 51.2915 36.1288 51.3161 36.1288C51.4142 36.1288 51.5615 36.0797 51.5125 36.0797C51.4377 35.98 51.325 36.0195 51.2 36.0634C51.0789 36.1057 50.9464 36.1522 50.8257 36.0797C50.8731 36.0324 50.886 35.9734 50.898 35.9197C50.9106 35.8623 50.922 35.8108 50.9727 35.7855H51.169C51.1793 35.7111 51.2138 35.642 51.2671 35.5892C51.7042 35.3269 52.124 35.0992 52.5367 34.8754C52.8189 34.7224 53.0978 34.5712 53.3769 34.4118C53.3198 34.4118 53.2702 34.4339 53.2222 34.4553C53.1463 34.4892 53.0746 34.5211 52.9845 34.461C53.0336 34.461 53.0336 34.4241 53.0336 34.3874C53.0336 34.3505 53.0336 34.3137 53.0827 34.3137C53.3915 34.2295 53.6681 34.0972 53.9493 33.9624C54.1596 33.8618 54.3725 33.7601 54.6033 33.6761C54.536 33.6761 54.4744 33.6935 54.4147 33.7102C54.3003 33.7424 54.1926 33.7728 54.0637 33.6761C54.0963 33.6597 54.1235 33.6379 54.1508 33.6161C54.2053 33.5725 54.2598 33.5289 54.358 33.5289V33.3817C54.358 33.3326 54.4072 33.3326 54.4562 33.3326C54.419 33.3274 54.3844 33.3103 54.358 33.2836C54.3834 33.2329 54.4349 33.2215 54.4923 33.2088C54.546 33.1968 54.605 33.1839 54.6524 33.1365C54.6033 33.1365 54.5052 33.1365 54.5052 33.0874C54.6524 32.8912 54.8975 32.842 55.143 32.793C55.1183 32.744 55.0693 32.744 55.0263 32.744C54.9835 32.744 54.9466 32.744 54.9466 32.6949C54.9466 32.6458 54.9957 32.6458 55.0447 32.6458H54.9466C54.8705 32.6078 54.883 32.5403 54.8924 32.489C54.8951 32.4741 54.8975 32.4606 54.8975 32.4497C55.0938 32.2207 55.1592 31.9482 55.2245 31.6757C55.2572 31.5394 55.2899 31.4031 55.339 31.2723C55.2899 31.2723 55.2409 31.2723 55.2409 31.2232C54.7648 31.7471 54.011 31.9473 53.2944 32.1377L53.2297 32.1548H52.9845C52.7127 32.2615 52.4078 32.2436 52.1504 32.1057C52.0317 32.0463 51.9488 31.9689 51.8585 31.8846C51.7996 31.8294 51.7374 31.7714 51.66 31.7132C51.2764 31.4683 50.8646 31.2705 50.4335 31.1242C49.2155 30.726 47.9372 30.5435 46.6563 30.5847C47.0089 30.3924 47.3853 30.315 47.7661 30.2367C47.9682 30.1952 48.1716 30.1534 48.3733 30.0941C48.4952 30.0583 48.6162 30.0213 48.7364 29.9845C49.4389 29.77 50.1211 29.5616 50.875 29.6034C50.7753 29.5702 50.653 29.582 50.5387 29.5932C50.4844 29.5984 50.4319 29.6034 50.3845 29.6034C49.8321 29.564 49.2795 29.6833 48.7011 29.8081C48.5606 29.8385 48.4186 29.8691 48.2747 29.898C48.0296 29.9469 47.7969 30.0205 47.564 30.0939C47.3309 30.1675 47.0978 30.2411 46.8522 30.2902C46.7391 30.328 46.6478 30.3946 46.5586 30.4596C46.4158 30.5638 46.2787 30.6639 46.0672 30.6335V30.4865C46.5578 29.8973 47.1465 29.3092 47.9314 29.2601C48.6776 29.1358 49.3889 29.2217 50.1244 29.3105C50.259 29.3267 50.3947 29.343 50.5314 29.3582C51.1603 29.4251 51.7831 29.5398 52.3946 29.7016C52.5295 29.7016 52.605 29.8201 52.6782 29.9349C52.7383 30.0292 52.7968 30.1211 52.8854 30.1431C53.003 30.1823 53.1208 30.1903 53.2386 30.1981C53.4152 30.2099 53.5919 30.2215 53.7681 30.3393C53.7681 30.3066 53.7627 30.2739 53.7572 30.2413C53.7463 30.1759 53.7354 30.1104 53.7681 30.045C53.8789 29.9342 54.0053 29.9641 54.1296 29.9936C54.2257 30.0163 54.3206 30.0387 54.406 29.9959C54.6722 29.8295 54.4191 29.5728 54.1675 29.3176C54.0484 29.1968 53.9295 29.0762 53.8664 28.9657C53.8716 28.9286 53.8887 28.8941 53.9153 28.8676C54.0329 28.9705 54.1417 29.0779 54.2496 29.1843C54.5018 29.433 54.7492 29.6769 55.0926 29.8488C55.338 29.9468 55.9266 30.0941 55.8285 29.7998C55.6566 29.4214 55.3641 29.0914 55.0694 28.7588C54.9436 28.6169 54.8176 28.4747 54.7002 28.328V28.1325C54.6285 28.1325 54.6093 28.1062 54.5849 28.0729C54.5759 28.0607 54.5663 28.0475 54.5532 28.0344V27.8383C54.4297 27.7766 54.4034 27.6761 54.3764 27.5735C54.3604 27.5129 54.3443 27.4515 54.3079 27.3968C54.2258 27.2601 54.22 27.0931 54.2139 26.921C54.2091 26.784 54.2041 26.644 54.1607 26.5136C54.0721 26.2417 54.0066 25.9628 53.9643 25.6798C53.9066 25.3526 53.8415 25.0405 53.7778 24.7347C53.679 24.2609 53.583 23.8021 53.523 23.3252C53.4474 22.6078 53.8081 22.0063 54.1796 21.3867C54.2906 21.2018 54.4026 21.0151 54.5041 20.8234C54.8474 20.2342 55.2398 19.646 55.8775 19.2536C56.0245 18.6661 56.4152 18.177 56.8059 17.6879L56.8091 17.6839C57.2009 17.2051 57.8518 16.9134 58.3234 16.7026C58.7488 16.5137 59.1838 16.3476 59.6269 16.2051H25.9609V42.1646H49.8031C50.4538 41.6961 51.1038 41.399 51.8791 41.0446C52.2168 40.8903 52.578 40.7252 52.9734 40.5304C53.0493 40.493 53.1372 40.4505 53.2338 40.4037L53.236 40.4026C53.9247 40.0693 55.0572 39.5212 55.4749 39.1032ZM47.686 35.54C47.7204 35.3679 47.8996 35.3166 48.0714 35.2673C48.1446 35.2464 48.2164 35.2259 48.2751 35.1966L48.2986 35.1845L48.3251 35.1703C48.4186 35.1202 48.536 35.0573 48.6185 35.0984C48.6741 35.1818 48.7454 35.2021 48.8145 35.222C48.8675 35.2372 48.9194 35.2521 48.962 35.2947C48.7848 35.4716 48.5723 35.489 48.3565 35.5067C48.2132 35.5185 48.0683 35.5303 47.9314 35.5891C47.9075 35.5891 47.8779 35.5919 47.8474 35.5949C47.7524 35.6041 47.6489 35.6143 47.686 35.54ZM41.9465 31.9099C41.5059 32.7929 40.9801 33.6308 40.3768 34.4117C40.3819 34.4489 40.3991 34.4834 40.4259 34.5099C41.6033 33.1853 42.6825 32.0571 44.2026 31.125C44.2402 31.1063 44.2274 31.1234 44.2083 31.149C44.1776 31.1903 44.1307 31.2533 44.2516 31.2231C44.7615 31.1055 44.9892 30.6743 45.2103 30.2554C45.2658 30.1503 45.3208 30.0461 45.3799 29.9477C45.6079 29.5771 45.9354 29.3392 46.2659 29.0989C46.5042 28.9256 46.7442 28.7512 46.9497 28.5252C46.9563 28.579 46.9383 28.6332 46.9006 28.6722C46.9398 28.71 46.9939 28.728 47.0478 28.7213C47.1333 28.6573 47.228 28.6304 47.3197 28.6043C47.4392 28.5705 47.5538 28.5379 47.637 28.427C47.2302 28.2641 46.7796 28.2467 46.3614 28.3778C45.3312 28.8685 44.4484 29.6534 43.6143 30.5364C43.1137 31.0666 42.5842 31.5665 41.9465 31.9099ZM44.3501 31.4684C44.3116 31.556 44.2416 31.626 44.154 31.6647C44.105 31.6647 44.0559 31.6647 44.0559 31.6156C44.0999 31.4096 44.2489 31.2419 44.4484 31.174C44.4975 31.1739 44.4975 31.2231 44.4975 31.2722C44.4723 31.3226 44.4457 31.3499 44.4197 31.3764C44.3953 31.4014 44.3714 31.4258 44.3501 31.4684ZM46.7194 38.841C46.759 38.8047 46.716 38.7775 46.6546 38.7651C46.705 38.7268 46.7462 38.678 46.7754 38.6219C46.8155 38.5256 46.5561 38.5487 46.5158 38.5767C46.4762 38.6083 46.4407 38.6449 46.4104 38.6854C46.3462 38.7544 46.2781 38.8196 46.2064 38.8807C46.1526 38.93 46.1003 38.9808 46.048 39.0314C45.9808 39.0966 45.9137 39.1616 45.8438 39.2233C45.7612 39.2958 46.0309 39.3339 46.0891 39.2822C46.1518 39.2266 46.2121 39.1687 46.2721 39.1106C46.2976 39.1096 46.3229 39.1062 46.3477 39.1003C46.4886 39.0414 46.6154 38.953 46.7194 38.841ZM45.8843 38.2251L45.8265 38.2659C45.6621 38.3819 45.4973 38.4981 45.3242 38.5987C45.1687 38.6889 45.0079 38.763 44.8465 38.8375C44.79 38.8635 44.7335 38.8895 44.6771 38.9164C44.6756 38.9121 44.6734 38.9081 44.6708 38.9045C44.6521 38.8783 44.617 38.8698 44.5886 38.8847C44.4082 38.9875 44.2423 39.114 44.0954 39.2606C44.0725 39.2823 44.0497 39.3044 44.0268 39.3267C43.9958 39.3572 43.9726 39.3803 43.9493 39.4037L43.9411 39.4119C43.9404 39.4126 43.94 39.4136 43.9396 39.4143L43.9382 39.4164C43.9032 39.4511 43.8698 39.4861 43.8313 39.5312C43.8137 39.5575 43.7915 39.5807 43.7659 39.5996C43.7354 39.6198 43.651 39.6194 43.6588 39.5628V39.5532L43.6553 39.5552C43.6275 39.5697 43.5998 39.5844 43.5717 39.5979C43.5463 39.6098 43.5236 39.6232 43.5005 39.6368L43.4951 39.6399C43.4844 39.6358 43.4728 39.6341 43.4613 39.635C43.4485 39.6351 43.4362 39.6393 43.426 39.6468C43.366 39.6938 43.3067 39.7439 43.2488 39.7963C43.1457 39.8891 43.0504 39.9904 42.9641 40.0989L42.9501 40.1171L42.9354 40.136C42.9308 40.1425 42.9249 40.1498 42.9199 40.1564L42.9151 40.1624L42.9078 40.1728L42.8937 40.1935L42.8818 40.2112C42.8689 40.2247 42.8547 40.2314 42.8397 40.2335L42.8315 40.2216C42.8275 40.2159 42.8234 40.2101 42.8199 40.2042L42.8117 40.1903L42.8062 40.1804C42.7912 40.1551 42.7773 40.1289 42.7642 40.1019L42.7628 40.0989L42.7572 40.0875L42.7513 40.0746C42.8043 40.0175 42.8556 39.9585 42.9052 39.898L42.9151 39.8862C42.9323 39.8651 42.9492 39.8442 42.9661 39.8232L43.0482 39.7182C43.0542 39.7102 43.0601 39.7026 43.066 39.6951L43.0782 39.6794C43.1321 39.609 43.1836 39.5408 43.2317 39.4722L43.2353 39.4669L43.2439 39.4542C43.248 39.4482 43.252 39.4421 43.2564 39.436C43.2799 39.4014 43.3025 39.3663 43.3237 39.3306C43.3428 39.2986 43.3607 39.266 43.3773 39.2327L43.3813 39.2255L43.3864 39.2153C43.3878 39.2125 43.3891 39.2095 43.3903 39.2065C43.3917 39.2034 43.393 39.2002 43.3944 39.197C43.4117 39.1601 43.4273 39.122 43.441 39.0827L43.4454 39.07L43.4482 39.0619C43.451 39.054 43.4539 39.046 43.4563 39.0378C43.4619 39.0201 43.467 39.002 43.4718 38.9837C43.4727 38.9796 43.4733 38.9756 43.4745 38.9717L43.4788 38.9546C43.4833 38.9367 43.4879 38.9186 43.4915 38.8998C43.4936 38.8884 43.4915 38.8767 43.4855 38.8668C43.5408 38.7719 43.606 38.6832 43.68 38.6019C43.6765 38.6041 43.6727 38.6062 43.669 38.6081C43.6651 38.6102 43.6612 38.6124 43.6575 38.6148C43.6185 38.6399 43.5867 38.6706 43.5549 38.7013C43.5297 38.7259 43.5044 38.7503 43.4754 38.7719C43.4219 38.8118 43.3236 38.7457 43.3868 38.6983C43.426 38.6671 43.4632 38.6333 43.4983 38.5972C43.5811 38.5004 43.6645 38.4172 43.7538 38.3404L43.7749 38.3252C43.8226 38.2905 43.865 38.2598 43.9045 38.2252C43.9095 38.2209 43.914 38.2164 43.9189 38.212L43.926 38.2056C43.9594 38.1619 43.9961 38.1206 44.0356 38.0823L44.0377 38.0802C44.0386 38.0792 44.0395 38.0783 44.0407 38.0775C44.3277 37.8005 44.7346 37.7003 45.1491 37.5984C45.4126 37.5335 45.6792 37.4678 45.9198 37.3556C46.0564 37.3009 46.2083 37.3223 46.3584 37.3436C46.4777 37.3606 46.596 37.3774 46.7045 37.3556C46.8584 37.3405 47.013 37.375 47.1461 37.4538C46.8061 37.6389 46.4858 37.8426 46.1726 38.0418C46.08 38.1007 45.9882 38.1592 45.8966 38.2165L45.8843 38.2251ZM46.7047 34.706H47.0973C47.0696 34.7615 46.995 34.7699 46.9441 34.7758C46.9049 34.7802 46.8798 34.783 46.9011 34.8044C47.0485 34.9512 47.3427 34.9023 47.5388 34.8042C47.6879 34.7203 47.8596 34.6859 48.0294 34.706C48.0784 34.706 48.0784 34.6079 48.0784 34.559C48.205 34.5992 48.338 34.616 48.4707 34.6079C49.6481 34.3626 50.7765 34.1174 51.8557 33.5777C50.7666 32.7401 49.4272 32.3673 48.1123 32.0014C47.8872 31.9388 47.6629 31.8764 47.4406 31.8117C47.4897 31.8117 47.5387 31.8281 47.5878 31.8444C47.6859 31.8772 47.784 31.9099 47.8822 31.8117C47.7487 31.705 47.6006 31.6854 47.4538 31.666C47.331 31.6497 47.209 31.6337 47.0973 31.5665C47.1083 31.5665 47.1218 31.569 47.1367 31.5717C47.188 31.5812 47.2555 31.5935 47.2935 31.5175C47.032 31.3868 46.7704 31.3432 46.5089 31.2995C46.378 31.2777 46.2471 31.2558 46.1161 31.2231C46.3512 31.1808 46.5189 30.9713 46.5086 30.7326C46.5086 30.6836 46.4105 30.6836 46.3614 30.6836C45.7728 30.9779 45.3803 31.5175 45.1351 32.1552C45.3542 32.2805 45.5931 32.2658 45.8266 32.2516C45.9592 32.2436 46.09 32.2355 46.2144 32.2533C46.1051 32.3622 45.9423 32.3905 45.7855 32.4178C45.7305 32.4274 45.6762 32.4367 45.6252 32.4496C45.4746 32.4871 45.3308 32.5966 45.3799 32.6948C45.4066 32.7319 45.4464 32.7572 45.4914 32.7658C45.3754 32.7963 45.2695 32.8564 45.1837 32.9401C45.3242 33.0452 45.4645 33.0253 45.6047 33.0051C45.6608 32.9972 45.7167 32.9892 45.7728 32.9892C45.7728 33.0546 45.8164 33.0764 45.8601 33.0982C45.8819 33.1091 45.9037 33.12 45.9201 33.1364C45.7057 33.2145 45.5298 33.3727 45.4294 33.5777C45.3705 33.725 45.2586 33.8191 45.1469 33.9134C45.0722 33.9762 44.9977 34.0389 44.9389 34.1174V34.2645C44.7721 34.4145 44.5998 34.5474 44.4296 34.6789C44.0986 34.9344 43.7754 35.1837 43.5163 35.54C43.5652 35.54 43.5652 35.5891 43.5652 35.638C43.5208 35.7047 43.4563 35.7513 43.3944 35.796C43.3197 35.8499 43.2488 35.9009 43.2218 35.9813C43.2218 36.0305 43.2218 36.0796 43.271 36.0796C43.5795 35.9768 43.8476 35.8066 44.1104 35.6397C44.3492 35.4881 44.5839 35.3391 44.8408 35.2458C45.0506 35.1932 45.2321 35.0988 45.4083 35.0072C45.5617 34.9275 45.711 34.8499 45.8709 34.8042C45.9934 34.7796 46.1284 34.7429 46.2633 34.706C46.3983 34.6693 46.5331 34.6325 46.6558 34.6079C46.6558 34.657 46.6558 34.706 46.7047 34.706ZM48.9673 39.0301C48.9712 39.0273 48.9751 39.0241 48.979 39.021L48.9877 39.014C49.0587 38.9639 49.1246 38.8998 49.1837 38.8232C49.1797 38.8219 49.1756 38.8205 49.1716 38.8188C49.1679 38.8174 49.1642 38.8156 49.1606 38.8137C49.0952 38.8807 49.0316 38.9528 48.9673 39.0301ZM58.5365 35.811L58.4346 35.8872C58.491 35.8846 58.5365 35.8704 58.5365 35.811Z" fill="white"/>
<path d="M97.3497 16.2051H69.4247C69.5176 16.2356 69.6065 16.277 69.6897 16.3284C69.9165 16.45 70.2104 16.6069 70.3943 16.7034C70.7706 16.8767 71.0937 17.1477 71.3296 17.4882C71.4278 17.6354 71.575 17.9297 71.4768 18.126C71.3787 18.3712 71.3296 18.7637 71.0845 18.8619C70.7901 19.0089 70.3975 19.0089 70.0542 18.9599C69.8546 18.9513 69.6568 18.9183 69.4651 18.8619C70.2008 19.1561 70.8875 19.4996 71.3782 20.1863C71.4273 20.2845 71.6234 20.3334 71.8198 20.3334C71.8688 20.3334 71.8688 20.4315 71.8688 20.4806C71.7706 20.5789 71.6725 20.6278 71.7215 20.7749H71.8688C72.114 20.6767 72.065 20.1858 72.4084 20.3334C72.6588 20.4877 72.7449 20.8108 72.6046 21.0693C72.4206 21.2471 72.2237 21.411 72.0155 21.5598C71.9665 21.6689 71.9665 21.7939 72.0155 21.9032C72.1383 22.0799 72.2219 22.2807 72.2607 22.4923C72.408 22.8356 72.457 23.2281 72.6042 23.5714C72.8004 24.3073 72.9966 25.0431 72.9475 25.779C72.9475 26.1715 72.7512 26.5148 72.8984 26.9073C72.9966 27.2997 73.2417 27.5941 73.4381 27.9374C73.6341 28.2317 73.8305 28.4279 73.9777 28.7223C74.2719 29.2129 74.8116 29.7034 74.5669 30.292C74.4197 30.6353 73.8801 30.5864 73.5368 30.7827C73.2424 31.0279 73.4877 31.4203 73.6348 31.6656C73.8801 32.1072 73.3404 32.4014 72.9971 32.5486C73.0952 32.6957 73.2915 32.6466 73.3404 32.7447C73.3895 32.9901 73.6348 33.1373 73.4877 33.3825C73.2915 33.6769 72.7028 33.824 72.9971 34.2655C73.1933 34.609 73.0656 34.9903 72.9481 35.3448C72.8009 35.7863 72.4086 35.9824 72.0651 36.0806C71.7628 36.1701 71.4436 36.1868 71.1335 36.1296C71.044 36.0753 70.9435 36.0417 70.8393 36.0316C70.0052 35.9333 69.1712 35.6881 68.3373 35.6881C68.101 35.7241 67.8702 35.79 67.6506 35.8843C67.4369 36.0409 67.2382 36.2167 67.0566 36.4096L67.0509 36.4157C67.014 36.4549 66.9787 36.4946 66.9439 36.5346C66.9225 36.5594 66.9016 36.5847 66.8807 36.6098C66.8666 36.6266 66.8527 36.6435 66.8389 36.6605C66.6965 36.8392 66.5675 37.0282 66.4527 37.2259C66.4455 37.2383 66.4381 37.2508 66.4311 37.2634C66.4182 37.2861 66.4058 37.3091 66.3932 37.3319C66.2388 37.6184 66.1144 37.9199 66.0217 38.232C65.6882 39.3553 65.834 40.3192 66.0681 40.5531C66.1333 40.6182 67.6873 41.098 68.7697 41.5795C69.169 41.7473 69.5559 41.943 69.9275 42.1653H97.3497V16.2051Z" fill="white"/>
<path d="M71.0864 25.6748C71.2828 25.7239 71.577 25.7239 71.577 25.822C71.479 26.2142 70.8901 26.3124 70.5958 26.705H70.449C70.3019 26.8032 70.351 27.0483 70.2038 27.0483C70.0553 27.0158 69.9002 27.033 69.7623 27.0974C69.9586 27.2935 70.2038 27.441 70.4981 27.3917C70.5826 27.421 70.6408 27.4988 70.6453 27.5882C70.6829 27.5846 70.7179 27.567 70.7434 27.539C70.7926 27.539 70.8416 27.539 70.8416 27.5882V27.7843C70.6943 27.9806 70.449 27.8823 70.2526 27.9315C70.6223 28.0296 71.0112 28.0296 71.3807 27.9315C71.6752 27.8334 71.3807 27.3423 71.5771 27.0974C71.4791 27.0974 71.5771 26.9502 71.4791 26.9502C71.5771 26.8522 71.6752 26.705 71.7734 26.656C71.8899 26.6591 72.0004 26.6039 72.0677 26.5088C72.0677 26.4108 71.8716 26.3617 71.9206 26.2633C72.2148 26.0674 72.46 25.7729 72.3621 25.4787C72.3129 25.3315 71.9206 25.3315 71.6752 25.2333C71.4298 25.1353 71.1355 25.2333 70.8414 25.2824C70.5959 25.2824 70.3506 25.4296 70.1054 25.4787C69.7713 25.5928 69.4569 25.7581 69.1738 25.969C69.5251 25.8421 69.886 25.7437 70.2531 25.6748C70.547 25.6748 70.7969 25.6024 71.0864 25.6748Z" fill="white"/>
<path d="M26.0371 74.6153H29.7235V61.5832L33.7733 68.3848H36.3693L40.4191 61.5832V74.6153H44.1055V56.4431H39.5105L35.0713 64.0754L30.6321 56.4431H26.0371V74.6153ZM49.5666 74.6153H53.2529V56.4431H49.5666V74.6153ZM58.7217 74.6153H62.4081V61.4794L70.5337 74.6153H75.2584V56.4431H71.5721V69.579L63.4465 56.4431H58.7217V74.6153ZM80.7301 74.6153H84.4164V56.4431H80.7301V74.6153ZM88.2497 72.0972C89.8593 74.0182 91.9101 75.1345 94.9734 75.1345C98.3223 75.1345 100.97 73.0836 101.022 69.6569C101.022 63.4264 92.7668 64.361 92.7668 61.064C92.7668 59.9737 93.6235 59.143 94.9215 59.143C96.2974 59.143 97.4916 60.0516 98.5559 61.4275L101.256 58.9872C99.6982 57.144 97.6214 55.9239 94.8955 55.9239C91.4169 55.9239 89.0285 58.3123 89.0285 61.1938C89.0285 67.3464 97.2839 66.4378 97.2839 69.7867C97.2839 71.0847 96.4012 71.8635 94.9475 71.8635C93.4677 71.8635 92.014 71.0328 90.9236 69.6309L88.2497 72.0972ZM103.281 59.792H108.888V74.6153H112.575V59.792H118.182V56.4431H103.281V59.792ZM125.47 54.8855H128.844L125.911 51.3809H122.121L125.47 54.8855ZM121.809 74.6153H132.402V71.552H125.496V66.8791H131.363V63.8158H125.496V59.5064H132.402V56.4431H121.809V74.6153ZM137.074 74.6153H140.761V67.2685H142.656L147.51 74.6153H151.846L146.16 66.5676C148.03 65.7109 149.094 64.0754 149.094 61.8688C149.094 58.494 146.628 56.4431 142.63 56.4431H137.074V74.6153ZM142.838 59.5064C144.395 59.5064 145.304 60.441 145.304 61.8169C145.304 63.2966 144.395 64.2052 142.838 64.2052H140.761V59.5064H142.838ZM154.57 74.6153H165.162V71.552H158.257V66.8791H164.124V63.8158H158.257V59.5064H165.162V56.4431H154.57V74.6153ZM26.0371 101.874H33.1762C38.9394 101.874 42.8334 97.694 42.8334 92.7875C42.8334 87.881 38.9394 83.7014 33.1762 83.7014H26.0371V101.874ZM33.2281 87.0503C36.6029 87.0503 39.0432 89.5425 39.0432 92.7875C39.0432 96.0066 36.6029 98.5247 33.2281 98.5247H29.7235V87.0503H33.2281ZM46.7779 101.874H57.3697V98.8103H50.4643V94.1374H56.3313V91.0741H50.4643V86.7647H57.3697V83.7014H46.7779V101.874ZM69.1697 101.874H79.7615V98.5247H72.8561V83.7014H69.1697V101.874ZM81.8965 101.874H85.8165L87.5558 97.1488H94.8247L96.564 101.874H100.484L93.6045 83.7014H88.7759L81.8965 101.874ZM88.6981 94.0076L91.1902 87.1801L93.6824 94.0076H88.6981ZM118.906 98.9401C115.479 98.9401 113.039 96.2662 113.039 92.7875C113.039 89.3088 115.479 86.6349 118.906 86.6349C120.983 86.6349 122.618 87.6474 123.657 89.1271L126.564 86.8685C124.903 84.6619 122.203 83.1822 118.906 83.1822C113.169 83.1822 109.249 87.5954 109.249 92.7875C109.249 97.9795 113.169 102.393 118.906 102.393C122.203 102.393 124.903 100.939 126.564 98.6805L123.657 96.4479C122.618 97.9276 120.983 98.9401 118.906 98.9401ZM140.667 95.072C140.667 97.5123 139.265 98.9401 137.007 98.9401C134.696 98.9401 133.32 97.5123 133.32 95.072V83.7014H129.634V94.7605C129.634 99.5371 132.438 102.393 136.981 102.393C141.55 102.393 144.354 99.5371 144.354 94.7605V83.7014H140.667V95.072ZM149.322 101.874H159.914V98.5247H153.009V83.7014H149.322V101.874ZM159.548 87.0503H165.156V101.874H168.842V87.0503H174.449V83.7014H159.548V87.0503ZM188.794 95.072C188.794 97.5123 187.392 98.9401 185.133 98.9401C182.823 98.9401 181.447 97.5123 181.447 95.072V83.7014H177.761V94.7605C177.761 99.5371 180.564 102.393 185.107 102.393C189.676 102.393 192.48 99.5371 192.48 94.7605V83.7014H188.794V95.072ZM197.449 101.874H201.135V94.5268H203.03L207.885 101.874H212.22L206.535 93.8259C208.404 92.9692 209.468 91.3337 209.468 89.1271C209.468 85.7523 207.002 83.7014 203.004 83.7014H197.449V101.874ZM203.212 86.7647C204.77 86.7647 205.678 87.6993 205.678 89.0752C205.678 90.5549 204.77 91.4635 203.212 91.4635H201.135V86.7647H203.212ZM214.945 101.874H225.537V98.8103H218.631V94.1374H224.498V91.0741H218.631V86.7647H225.537V83.7014H214.945V101.874Z" fill="white"/>
<path fill-rule="evenodd" clip-rule="evenodd" d="M93.4057 148.214L90.9914 150.42H90.3684L91.7962 147.902H93.4057V148.214ZM91.6664 156.755H91.1472C90.4982 157.534 89.7713 158.157 89.0703 158.157C88.3435 158.157 87.98 157.715 87.98 156.755C87.98 156.365 88.0319 155.95 88.1098 155.587L92.3413 154.185C93.1721 152.212 92.1856 151.355 91.0174 151.355C89.0184 151.355 86.7339 154.86 86.7339 157.663C86.7339 158.987 87.357 159.714 88.3435 159.714C89.4857 159.688 90.6799 158.572 91.6664 156.755ZM90.2126 152.497C90.7837 152.497 91.277 152.939 91.0174 153.951L88.3954 154.652C88.8107 153.406 89.5896 152.497 90.2126 152.497ZM81.9572 152.549H83.3591L81.1265 158.676C80.9188 159.195 81.2044 159.714 81.7495 159.714C83.3331 159.714 85.2282 158.364 85.9551 156.443H85.5657C84.9946 157.248 83.7485 158.131 82.8139 158.286L84.8648 152.549H86.9676L87.2272 151.667H85.1763L85.9551 149.46H85.1503L83.6966 151.667L81.9572 151.9V152.549ZM80.0102 151.381C80.2958 151.381 80.6852 151.693 80.5035 152.264L77.9853 158.364C78.6343 158.26 79.3093 157.637 79.6987 157.066H80.1141C79.517 158.598 78.167 159.714 76.9988 159.714C76.7133 159.714 76.2979 159.403 76.5056 158.832L78.842 152.731C78.193 152.835 77.518 153.458 77.1286 154.029H76.7392C77.3363 152.471 78.7901 151.381 80.0102 151.381ZM80.7371 149.823C81.2563 149.823 81.6976 149.408 81.6976 148.863C81.6976 148.344 81.2563 147.902 80.7371 147.902C80.1919 147.902 79.7766 148.344 79.7766 148.863C79.7766 149.382 80.2179 149.823 80.7371 149.823ZM69.3925 154.886C69.9636 153.64 69.7559 153.068 69.3925 153.068C69.0809 153.068 68.7175 153.406 68.3541 154.029H67.9646C68.5617 152.705 69.3405 151.381 70.1972 151.381C70.9241 151.381 71.1837 152.108 71.1837 152.913V154.055C71.3018 153.917 71.4167 153.782 71.529 153.651C72.6257 152.364 73.4632 151.381 74.4288 151.381C75.1816 151.381 75.571 151.848 75.571 152.549C75.571 152.965 75.4412 153.484 75.1556 154.029L73.0009 158.364C73.6499 158.26 74.3249 157.637 74.7143 157.066H75.1037C74.5066 158.624 73.0529 159.714 71.8327 159.714C71.2876 159.714 70.976 159.143 71.2097 158.676L73.7019 153.873C73.9874 153.328 74.0394 152.965 73.598 152.965C73.0009 152.965 71.5991 153.951 70.8462 154.86L69.2107 159.169C69.029 159.61 68.8473 159.714 68.4319 159.714C67.757 159.714 67.4195 159.273 67.731 158.572L69.3925 154.886ZM67.705 153.224C67.9906 152.238 67.8348 151.355 67.082 151.355C66.1431 151.355 65.8491 151.976 64.9392 153.894L64.8754 154.029V152.887C64.8754 152.082 64.6158 151.355 63.8889 151.355C63.0322 151.355 62.2534 152.679 61.6563 154.003H62.0457C62.4611 153.406 62.8505 153.042 63.162 153.042C63.5254 153.042 63.7331 153.614 63.162 154.86L61.5005 158.546C61.189 159.247 61.5265 159.688 62.2015 159.688C62.6168 159.688 62.7986 159.584 62.9803 159.143L64.6158 154.834C65.0831 154.263 65.4984 153.769 66.0176 153.224H67.705ZM59.5016 153.951C59.7612 152.939 59.268 152.497 58.6968 152.497C58.0738 152.497 57.295 153.406 56.8796 154.652L59.5016 153.951ZM60.1506 156.755H59.6314C58.9824 157.534 58.2555 158.157 57.5546 158.157C56.8277 158.157 56.4643 157.715 56.4643 156.755C56.4643 156.365 56.5162 155.95 56.5941 155.587L60.8256 154.185C61.6563 152.212 60.6698 151.355 59.5016 151.355C57.5027 151.355 55.2182 154.86 55.2182 157.663C55.2182 158.987 55.8412 159.714 56.8277 159.714C57.9699 159.688 59.1641 158.572 60.1506 156.755ZM51.8433 152.549H50.4415V151.9L52.1808 151.667L53.6346 149.46H54.4393L53.6605 151.667H55.7114L55.4518 152.549H53.349L51.2982 158.286C52.2327 158.131 53.4788 157.248 54.0499 156.443H54.4393C53.7125 158.364 51.8174 159.714 50.2338 159.714C49.6886 159.714 49.4031 159.195 49.6107 158.676L51.8433 152.549ZM43.0168 157.3C43.0168 155.405 45.1196 152.861 46.2878 152.861C46.5474 152.861 46.807 152.887 47.0147 152.965L45.7946 156.236C45.0937 157.092 44.0033 158.131 43.4841 158.131C43.1986 158.131 43.0168 157.871 43.0168 157.3ZM48.806 150.966L49.455 151.018L47.1964 156.21C46.6513 157.456 46.8849 158.027 47.1964 158.027C47.508 158.027 47.8974 157.663 48.3127 157.066H48.7021C48.105 158.39 47.3262 159.714 46.4695 159.714C45.7427 159.714 45.3013 158.935 45.4311 157.534L45.4831 157.04L45.3417 157.238C44.4118 158.538 43.5703 159.714 42.7053 159.714C41.9525 159.714 41.5631 159.247 41.5631 158.546C41.5631 155.535 44.86 151.693 47.9493 151.693H48.0791L48.806 150.966ZM42.8611 153.224C43.1466 152.238 42.9909 151.355 42.238 151.355C41.2992 151.355 41.0052 151.976 40.0953 153.894L40.0314 154.029V152.887C40.0314 152.082 39.7718 151.355 39.0449 151.355C38.1882 151.355 37.4094 152.679 36.8123 154.003H37.2017C37.6171 153.406 38.0065 153.042 38.2921 153.042C38.6555 153.042 38.8632 153.614 38.2921 154.86L36.6306 158.572C36.3191 159.273 36.6566 159.714 37.3315 159.714C37.7469 159.714 37.9286 159.61 38.1103 159.169L39.7458 154.86C40.2131 154.289 40.6285 153.795 41.1477 153.25H42.8611V153.224ZM32.1654 158.935L32.0097 159.403H25.9609L26.1167 158.91C27.9858 158.572 28.2974 158.416 29.0762 156.313L30.7636 151.796C31.5164 149.694 31.3607 149.538 29.7252 149.2L29.8809 148.733H37.7469L37.2796 151.251H36.7085C36.7085 149.746 36.5527 149.356 35.1249 149.356H34.7615C33.3596 149.356 33.1779 149.564 32.7885 150.654L31.6722 153.691H33.3077C34.398 153.691 34.8134 153.017 35.3066 152.134H35.8778L34.5278 155.82H33.9567C34.0865 154.704 34.0865 154.263 33.074 154.263H31.4386L30.6857 156.339C29.8719 158.501 30.1045 158.545 32.0423 158.912C32.0826 158.92 32.1236 158.928 32.1654 158.935Z" fill="white"/>
<path fill-rule="evenodd" clip-rule="evenodd" d="M37.3056 128.354L34.8913 130.094V130.12H34.2682L35.696 128.043H37.3056V128.354ZM54.1797 140.53L58.0478 130.25L57.918 130.094L55.2441 130.405V130.717L55.7633 131.106C56.2066 131.452 56.0893 131.772 55.7214 132.779L55.6595 132.949L52.7 140.841C52.4664 141.309 52.7779 141.88 53.3231 141.88C54.5432 141.88 55.8412 140.763 56.4383 139.232H56.0489C55.6335 139.803 54.8028 140.426 54.1797 140.53ZM71.9106 132.612L74.3249 130.405V130.094H72.7154L71.2876 132.612H71.9106ZM72.0664 138.92H72.5856C71.625 140.763 70.4309 141.88 69.2886 141.88C68.3021 141.88 67.6791 141.153 67.6791 139.829C67.6791 137.025 69.9636 133.521 71.9625 133.521C73.1048 133.521 74.1172 134.377 73.2865 136.35L69.029 137.752C68.9511 138.116 68.8992 138.531 68.8992 138.92C68.8992 139.881 69.2627 140.322 69.9895 140.322C70.6905 140.322 71.4174 139.699 72.0664 138.92ZM71.9366 136.117C72.1962 135.13 71.7029 134.689 71.1318 134.689C70.5347 134.689 69.7559 135.597 69.3146 136.818L71.9366 136.117ZM64.3042 134.741H62.9024V134.092L64.6417 133.858L66.0955 131.651H66.9003L66.1215 133.858H68.1723L67.9127 134.741H65.8099L63.7591 140.478C64.6937 140.322 65.9397 139.44 66.5109 138.635H66.9003C66.1734 140.556 64.2783 141.906 62.6947 141.906C62.1495 141.906 61.864 141.387 62.0717 140.867L64.3042 134.741ZM61.4486 134.429C61.6044 133.858 61.2409 133.547 60.9294 133.547C59.7093 133.547 58.2555 134.663 57.6584 136.194H58.0478C58.4372 135.623 59.1122 135 59.7612 134.896L57.4248 140.997C57.2171 141.568 57.6325 141.88 57.918 141.88C59.0862 141.88 60.4362 140.763 61.0333 139.232H60.6439C60.2544 139.803 59.5795 140.426 58.9305 140.53L61.4486 134.429ZM62.6428 131.054C62.6428 131.574 62.2015 132.015 61.6823 132.015C61.1631 132.015 60.7217 131.574 60.7217 131.054C60.7217 130.535 61.1371 130.094 61.6823 130.094C62.2015 130.094 62.6428 130.535 62.6428 131.054ZM49.5329 135.052C48.3646 135.052 46.2619 137.596 46.2619 139.491C46.2619 140.063 46.4436 140.322 46.7551 140.322C47.2484 140.322 48.3387 139.284 49.0396 138.427L50.2597 135.156C50.0261 135.078 49.7925 135.052 49.5329 135.052ZM52.7 133.209L52.051 133.157L51.3241 133.884H51.1943C48.105 133.884 44.8081 137.726 44.8081 140.738C44.8081 141.438 45.1975 141.906 45.9503 141.906C46.8153 141.906 47.6568 140.73 48.5867 139.429L48.7281 139.232L48.6762 139.725C48.5464 141.127 48.9877 141.906 49.7146 141.906C50.5713 141.906 51.3501 140.582 51.9472 139.258H51.5578C51.1424 139.855 50.753 140.218 50.4415 140.218C50.1299 140.218 49.8963 139.647 50.4415 138.401L52.7 133.209ZM39.616 141.62C38.4997 142.062 37.7209 142.581 37.7209 143.385C37.7209 144.138 38.4219 144.45 39.8756 144.45C41.8227 144.45 42.887 143.879 42.887 143.126C42.887 142.788 42.4457 142.633 41.2775 142.243C40.5246 142.01 39.9795 141.802 39.616 141.62ZM40.9141 138.427C40.3948 138.427 40.2131 137.986 40.2131 137.518C40.2131 136.013 40.94 134.144 42.1082 134.144C42.6274 134.144 42.8091 134.585 42.8091 135.052C42.7832 136.584 42.0563 138.427 40.9141 138.427ZM41.9005 140.867C43.3284 141.309 44.211 141.646 44.211 142.633C44.211 143.905 41.8746 145.41 39.0449 145.384C37.4094 145.384 36.0076 144.943 36.0076 143.879C36.0076 142.866 36.9421 142.036 39.2266 141.361C38.9151 141.153 38.7853 140.893 38.7853 140.53C38.7853 139.907 39.3564 139.414 40.3429 138.946C39.3824 138.816 38.7593 138.09 38.7593 137.025C38.7593 135.39 40.1093 133.521 42.238 133.521C42.6793 133.521 43.0687 133.624 43.3803 133.832H45.7167L45.4571 134.715H44.0812C44.1591 134.948 44.211 135.208 44.211 135.494C44.211 137.077 42.939 138.894 40.9141 138.998C40.3948 139.284 40.1352 139.673 40.1352 139.985C40.1352 140.351 40.56 140.475 41.4984 140.749C41.6232 140.786 41.7574 140.825 41.9005 140.867ZM33.6711 136.428C34.6836 136.428 34.7095 136.869 34.5538 137.986H35.1249L36.4748 134.299H35.9037C35.4105 135.182 34.9951 135.857 33.9048 135.857H31.6722L32.7625 132.82C33.1519 131.729 33.3337 131.522 34.7355 131.522H35.722C37.1498 131.522 37.3056 131.911 37.3056 133.417H37.8767L38.344 130.899H29.8809L29.7252 131.366C31.3607 131.703 31.5164 131.859 30.7636 133.962L29.0762 138.505C28.2974 140.608 27.9858 140.763 26.0907 141.101L25.9609 141.594H35.3586L37.046 138.92H36.397C35.3066 139.985 34.2163 140.971 32.0876 140.971C29.7461 140.971 29.7879 140.857 30.4904 138.927C30.5355 138.802 30.5836 138.671 30.6338 138.531L31.4126 136.454H33.6711V136.428Z" fill="white"/>
<path fill-rule="evenodd" clip-rule="evenodd" d="M41.4333 114.179C41.9525 114.179 42.3938 113.738 42.3938 113.218C42.3938 112.699 41.9525 112.258 41.4333 112.258C40.8881 112.258 40.4727 112.699 40.4727 113.218C40.4727 113.764 40.8881 114.179 41.4333 114.179ZM43.6918 124.044C45.7167 124.07 49.1175 120.331 49.1175 117.45C49.1175 116.204 48.806 115.736 47.9233 115.736C46.833 115.736 45.8205 116.905 44.8081 118.307L46.9888 112.465L46.8589 112.284L44.185 112.595V112.907L44.7042 113.296C45.1563 113.648 45.0252 113.999 44.6401 115.033L44.6004 115.139L42.238 121.318C42.0303 121.837 41.7967 122.46 41.7967 122.616C41.7967 123.343 42.7832 124.044 43.6918 124.044ZM71.625 114.802L74.0393 112.595V112.284H72.4298L71.002 114.802H71.625ZM71.7808 121.11H72.3C71.3135 122.953 70.1193 124.07 68.9771 124.044C67.9906 124.044 67.3676 123.343 67.3676 122.019C67.3676 119.215 69.6521 115.711 71.651 115.711C72.7933 115.711 73.8057 116.567 72.975 118.54L68.7435 119.942C68.6656 120.305 68.6137 120.721 68.6137 121.11C68.6137 122.071 68.9771 122.512 69.704 122.512C70.4049 122.512 71.1318 121.889 71.7808 121.11ZM71.651 118.307C71.9106 117.32 71.4174 116.879 70.8462 116.879C70.2232 116.879 69.4444 117.787 69.029 119.007L71.651 118.307ZM63.9927 116.931H62.5909V116.282L64.3302 116.048L65.784 113.841H66.5887L65.8099 116.048H67.8608L67.6012 116.931H65.4984L63.4476 122.668C64.3821 122.512 65.6282 121.629 66.1993 120.825H66.5887C65.8619 122.746 63.9668 124.096 62.3832 124.096C61.838 124.096 61.5525 123.576 61.7601 123.057L63.9927 116.931ZM61.864 117.606C62.1495 116.619 61.9938 115.736 61.2409 115.736C60.3021 115.736 60.0081 116.357 59.0982 118.276L59.0343 118.41V117.268C59.0343 116.463 58.7747 115.736 58.0478 115.736C57.1911 115.736 56.4123 117.06 55.8152 118.384H56.2046C56.62 117.787 57.0094 117.424 57.295 117.424C57.6584 117.424 57.8661 117.995 57.295 119.241L55.6335 122.927C55.322 123.628 55.6595 124.07 56.3344 124.07C56.7498 124.07 56.9315 123.966 57.1133 123.525L58.7487 119.215C59.216 118.644 59.6314 118.151 60.1506 117.606H61.864ZM53.6346 118.307C53.8942 117.32 53.4009 116.879 52.8298 116.879C52.2068 116.879 51.4539 117.787 51.0126 119.007L53.6346 118.307ZM54.2836 121.11H53.7644C53.1154 121.889 52.3885 122.512 51.6876 122.512C50.9607 122.512 50.5972 122.071 50.5972 121.11C50.5972 120.721 50.6492 120.305 50.727 119.942L54.9586 118.54C55.7893 116.567 54.8028 115.711 53.6346 115.711C51.6356 115.711 49.3511 119.215 49.3511 122.019C49.3511 123.343 49.9742 124.044 50.9607 124.044C52.1029 124.07 53.2971 122.953 54.2836 121.11ZM43.3803 122.097C43.3803 122.434 43.9774 122.824 44.3927 122.824C46.0801 122.824 47.6637 119.786 47.6378 118.099C47.6378 117.528 47.3522 117.294 46.9628 117.294C46.3397 117.294 45.1975 118.229 44.4706 119.111L43.7956 120.929C43.562 121.526 43.3803 121.993 43.3803 122.097ZM40.6544 115.736C40.966 115.736 41.3294 116.048 41.1737 116.619L38.6815 122.72C39.3305 122.616 40.0054 121.993 40.3948 121.422H40.7842C40.1872 122.953 38.8372 124.07 37.669 124.07C37.3575 124.07 36.9421 123.758 37.1498 123.187L39.4862 117.086C38.8372 117.19 38.1623 117.813 37.7729 118.384H37.3835C37.9805 116.853 39.4343 115.736 40.6544 115.736ZM29.8809 113.037H35.4624L35.3066 113.53C33.4115 113.867 33.1 114.023 32.3212 116.126L30.6597 120.695C29.855 122.876 30.0627 123.135 31.4905 123.135C33.2545 123.135 34.4113 121.853 35.4212 120.734C35.4963 120.651 35.5705 120.568 35.6441 120.487H36.2931L34.4499 123.758H25.9609L26.1167 123.291C27.9858 122.953 28.2974 122.798 29.0762 120.695L30.7636 116.1C31.5164 113.997 31.3607 113.841 29.7252 113.504L29.8809 113.037Z" fill="white"/>
</svg>
