<svg width="314" height="150" viewBox="0 0 314 150" fill="none" xmlns="http://www.w3.org/2000/svg">
<g clip-path="url(#clip0_718_1128)">
<path d="M153.214 30C153.214 32.5312 153.121 35.0625 152.934 38.25C150.971 41.5312 149.288 44.1562 147.512 46.875C147.232 47.25 146.951 47.625 146.39 48.375C146.11 49.125 146.016 49.4062 145.923 49.6875C145.643 50.4375 145.362 51.1875 144.614 52.125C143.399 52.5938 142.745 52.875 141.623 53.25C136.481 53.1562 140.221 56.625 139.192 58.0313C139.192 58.0313 139.099 58.0312 138.912 58.2188C138.538 58.9688 138.351 59.4375 137.977 60.0938C137.697 60.5625 137.603 60.9375 137.416 61.4062C137.229 61.7812 137.042 61.9687 136.481 62.0625C132.742 60.9375 129.47 60 126.105 58.9688C126.105 58.9688 126.105 58.875 126.012 58.5938C124.049 56.625 122.086 54.9375 120.122 53.1562C120.029 52.9688 119.935 52.5 120.403 52.5C122.272 51.5625 123.768 50.625 125.451 49.5C134.705 45.0938 135.079 44.4375 131.807 39.0938C132.929 36.1875 133.958 33.5625 134.892 31.0312C132.275 30.9375 129.657 30.8438 127.04 30.4688C129.377 27.4688 131.807 24.8438 126.199 22.7812C125.825 21.5625 125.451 20.5313 125.077 19.4063C124.796 19.0313 124.516 18.8438 123.955 18.6562C121.992 18.5625 120.309 18.6562 118.44 18.75C117.972 19.0312 117.692 19.2188 117.131 19.4063C116.477 19.6875 116.009 19.9688 115.355 20.3438C114.701 21.0938 114.327 21.75 113.859 22.5938C113.485 23.25 113.205 23.625 112.738 24.1875C112.364 24.5625 112.177 24.8438 111.803 25.125C111.616 25.125 111.335 25.2188 110.961 25.2188C109.84 25.2188 109.092 25.2188 108.344 25.2188C108.344 25.2188 108.25 24.9375 108.25 24.4688C107.97 23.8125 107.783 23.5312 107.316 23.25C107.129 23.25 106.755 23.1563 106.755 23.1563C106.661 21.8438 106.568 20.625 106.474 18.6562C106.474 17.5312 106.381 17.1562 106.381 16.7812C106.474 16.4062 106.568 15.9375 106.848 15C108.25 11.8125 109.372 9.1875 110.401 6.46875C110.681 6.375 110.961 6.28125 111.522 5.71875C113.859 3.84375 115.822 2.34375 117.785 0.75C123.114 0.75 128.442 0.75 134.331 1.03125C138.164 3.65625 141.529 6 144.801 8.4375C144.895 8.71875 144.988 9 145.549 9.46875C147.98 11.8125 150.13 13.7812 152.28 15.8438C152.28 15.8438 152.28 15.75 152.28 16.125C155.551 20.9063 153.027 25.5938 153.214 30Z" fill="white"/>
<path d="M120.964 150.937C121.151 149.719 121.712 148.5 122.273 147.281C123.207 148.312 124.236 149.25 125.264 150.562C123.955 150.938 122.647 150.937 120.964 150.937Z" fill="#F7F9F9"/>
<path d="M117.411 0.9375C115.822 2.53125 113.859 4.125 111.615 5.71875C112.457 4.40625 113.578 2.90625 114.794 1.21875C115.635 0.9375 116.383 0.9375 117.411 0.9375Z" fill="#FDF9E8"/>
<path d="M127.32 150.938C127.227 150.563 127.414 150.094 127.507 149.719C127.694 150 127.788 150.188 127.975 150.75C128.068 150.938 127.601 150.938 127.32 150.938Z" fill="#F7F9F9"/>
<path d="M120.028 52.5931C120.028 52.5931 120.028 53.0619 120.215 53.6244C120.122 56.9994 121.337 58.7806 124.329 59.5306C124.329 60.3744 124.235 60.7494 123.861 61.1244C119.748 60.3744 115.915 59.7181 112.083 59.1556C106.006 58.9681 105.539 58.3119 108.063 52.9681C108.437 52.1244 107.596 50.7181 107.409 49.5931C107.315 49.1244 107.596 48.5619 108.25 48.1869C109.185 47.9056 109.746 47.4369 110.213 46.9681C110.12 45.3744 109.933 43.7806 109.746 41.9056C111.428 41.3431 113.391 40.7806 115.354 40.2181C115.354 39.8431 115.354 39.4681 115.354 38.9994C114.139 38.8119 113.017 38.7181 111.335 38.2494C110.587 37.2181 110.4 36.4681 110.12 35.7181C110.12 35.0619 110.12 34.4056 110.4 33.1869C112.644 31.9681 114.513 31.2181 116.944 30.2806C114.7 28.4056 113.017 26.9056 111.241 25.4056C111.241 25.4056 111.522 25.3119 111.989 25.2181C112.55 24.8431 112.737 24.4681 112.83 24.1869C113.111 23.8119 113.391 23.3431 114.046 22.6869C114.887 21.7494 115.167 20.9994 115.541 20.3431C115.915 20.0619 116.383 19.7806 117.318 19.4994C118.065 19.2181 118.346 19.0306 118.533 18.7494C120.215 18.7494 121.805 18.6556 123.955 18.9369C124.515 19.4994 124.796 19.6869 125.076 19.7806C125.45 20.7181 125.731 21.6556 126.105 23.3431C124.235 25.9681 122.459 28.0306 120.589 29.9994C120.776 30.5619 120.963 31.1244 121.057 31.5931C123.02 31.4056 125.076 31.1244 127.039 30.9369C129.657 31.0306 132.274 31.1244 134.892 31.1244C133.864 33.6556 132.929 36.2806 131.807 39.1869C134.985 44.5306 134.705 45.1869 125.076 49.5931C123.113 50.6244 121.524 51.5619 120.028 52.5931Z" fill="white"/>
<path d="M124.235 61.125C124.235 60.6562 124.328 60.1875 124.609 59.3438C125.357 58.9687 125.731 58.9688 126.198 58.875C126.198 58.875 126.198 58.9688 126.292 59.25C127.32 60.8438 128.255 62.25 128.816 63.6563C124.609 64.5938 121.337 69 116.85 65.5313C116.85 65.5313 116.85 65.5313 116.85 65.1563C116.196 64.125 115.635 63.375 114.98 62.625C114.98 62.625 114.98 62.1562 115.354 61.9687C117.411 61.9687 119 62.4375 120.683 62.4375C121.805 62.4375 123.02 61.6875 124.235 61.125Z" fill="white"/>
<path d="M110.961 25.4062C113.111 26.9062 114.887 28.4062 117.037 30.2812C114.606 31.2187 112.737 31.875 110.493 32.8125C110.213 33 109.839 32.9062 109.558 32.4375C108.904 30.4687 108.53 28.7812 108.156 27.1875C108.156 26.8125 108.156 26.3437 108.156 25.6875C109.091 25.4062 109.839 25.4062 110.961 25.4062Z" fill="white"/>
<path d="M123.861 61.0312C123.019 61.5937 121.804 62.4375 120.682 62.5312C119.093 62.625 117.411 62.0625 115.354 61.875C114.513 61.6875 114.045 61.4063 113.298 60.8438C112.737 60.2813 112.456 60.0938 112.269 59.9063C112.269 59.9063 112.269 59.5312 112.176 59.3438C115.915 59.7188 119.748 60.2812 123.861 61.0312Z" fill="white"/>
<path d="M108.063 27.4688C108.718 28.7813 109.092 30.4688 109.466 32.3438C108.905 31.0313 108.344 29.4375 108.063 27.4688Z" fill="white"/>
<path d="M109.933 35.7188C110.494 36.375 110.681 37.125 111.055 38.1563C110.307 38.0625 109.465 37.6875 108.624 37.4063C108.998 36.8438 109.278 36.2812 109.933 35.7188Z" fill="#F7F9F9"/>
<path d="M114.98 63.0938C115.635 63.4688 116.196 64.2187 116.85 65.25C116.383 65.3437 115.915 65.0625 115.261 64.7812C114.98 64.3125 114.98 63.8438 114.98 63.0938Z" fill="white"/>
<path d="M106.474 23.4388C106.661 23.3451 107.035 23.3451 107.222 23.7201C107.409 24.2826 107.409 24.4701 107.409 24.6576C106.941 24.6576 106.474 24.6576 105.913 24.7513C106.1 24.3763 106.194 24.0013 106.474 23.4388Z" fill="white"/>
<path d="M110.026 46.875C109.746 47.3438 109.278 47.8125 108.624 48C108.811 47.5313 109.278 47.25 110.026 46.875Z" fill="#F7F9F9"/>
<path d="M106.193 17.0625C106.38 17.3438 106.474 17.7188 106.474 18.4688C106.193 18.1875 106.1 17.7188 106.193 17.0625Z" fill="#FDF9E8"/>
<path d="M107.596 24.6564C107.409 24.4689 107.409 24.2814 107.409 23.7189C107.69 23.6252 107.877 23.9064 108.157 24.4689C108.157 24.7502 107.783 24.6564 107.596 24.6564Z" fill="white"/>
<path d="M112.27 60.0938C112.456 60.0938 112.643 60.2812 113.017 60.6562C112.83 60.75 112.643 60.5625 112.27 60.0938Z" fill="#FCFAEE"/>
<path d="M116.851 66C121.338 69.0938 124.609 64.6875 129.096 63.8438C130.405 64.5 131.153 65.0625 131.901 65.8125C131.901 66 131.994 66.375 131.901 66.75C133.116 67.875 134.331 68.625 135.547 69.375C135.547 69.375 135.547 69.375 135.734 69.6563C137.136 70.0313 138.258 70.125 139.66 70.2188C140.314 70.3125 140.688 70.3125 141.062 70.6875C137.603 76.125 132.649 70.2187 128.349 72.75C130.405 73.5937 132.088 74.25 133.677 74.9063C133.957 75.4688 134.144 75.9375 134.144 76.6875C131.901 76.5 130.031 76.125 128.068 75.375C126.759 75 125.544 75 124.329 74.9063C123.488 73.875 122.74 72.75 121.805 71.7188C120.216 69.9375 118.533 68.1563 116.851 66Z" fill="white"/>
<path d="M145.829 55.4062C146.203 55.4062 146.577 55.4063 147.325 55.6875C148.259 56.0625 148.914 56.25 149.568 56.3438C149.568 56.3438 150.036 56.3438 150.596 56.4375C153.681 57.375 156.299 58.2188 158.916 59.0625C157.794 60.4688 156.579 61.7812 155.27 63.4687C154.055 63.9375 152.933 64.0313 151.251 64.5C147.792 65.0625 144.894 65.4375 141.529 65.7188C139.285 65.7188 137.322 65.7188 135.64 65.4375C136.294 64.6875 136.761 64.3125 137.322 63.8438C137.416 63.8438 137.883 63.8438 138.164 64.0313C139.005 64.4063 139.566 64.5938 140.501 64.7812C141.903 63.5625 142.838 62.25 143.866 61.0312C143.866 61.0312 143.866 61.0312 144.146 61.0312C145.081 60.75 145.736 60.5625 146.296 60.1875C146.39 60.0937 146.109 59.4375 145.922 59.0625C145.268 59.4375 144.52 59.8125 143.492 60.0938C141.809 59.7188 140.501 59.3438 139.192 58.875C139.192 58.6875 139.192 58.2188 139.192 58.2188C139.192 58.2188 139.285 58.2188 139.566 58.2188C141.903 57.1875 143.866 56.25 145.829 55.4062Z" fill="white"/>
<path d="M141.997 65.625C144.894 65.3438 147.886 64.9688 151.064 64.6875C151.345 65.4375 151.345 66.1875 150.877 67.2187C145.455 68.1562 140.501 68.7188 135.453 69.375C134.238 68.625 133.022 67.875 131.994 66.75C132.275 66.375 132.649 66.1875 132.929 66.1875C133.957 66.2812 134.612 66.2813 135.733 66.375C138.164 66.1875 140.033 65.9062 141.997 65.625Z" fill="white"/>
<path d="M128.068 75.75C130.031 76.2188 131.901 76.5937 134.238 77.0625C135.453 77.8125 136.388 78.4687 137.229 79.2187C134.612 82.7812 132.181 83.0625 129.657 79.875C128.723 78.6562 127.507 77.625 126.666 76.3125C127.227 75.8437 127.601 75.8438 128.068 75.75Z" fill="white"/>
<path d="M134.051 75.0014C131.994 74.3451 130.405 73.6889 128.255 72.8451C132.648 70.3139 137.509 76.2201 141.342 70.7826C142.464 70.5014 143.212 70.5014 143.96 70.5951C144.24 73.8764 142.838 75.3764 139.473 75.0951C137.79 74.9076 136.201 75.0014 134.051 75.0014Z" fill="white"/>
<path d="M144.334 70.5C143.212 70.5 142.464 70.4062 141.436 70.4062C140.688 70.4062 140.314 70.3125 139.379 70.0312C137.697 69.6562 136.575 69.5625 135.453 69.375C140.408 68.8125 145.456 68.1562 150.784 67.5938C150.41 71.5312 147.045 69.8437 144.334 70.5Z" fill="white"/>
<path d="M127.974 75.4689C127.6 75.8439 127.226 75.8439 126.478 75.9376C125.637 75.7501 125.076 75.6564 124.422 75.2814C125.544 75.0939 126.759 75.0939 127.974 75.4689Z" fill="#FAF7DE"/>
<path d="M145.736 55.1258C143.866 56.2508 141.903 57.0946 139.659 58.0321C140.314 56.6258 136.668 53.1571 141.716 53.5321C143.025 53.9071 143.866 54.0946 144.801 54.2821C145.081 54.5633 145.362 54.7508 145.736 55.1258Z" fill="#F7F9F9"/>
<path d="M144.801 54C143.866 54.1875 143.025 54 142.09 53.4375C142.744 52.875 143.492 52.5938 144.427 52.3125C144.801 52.7812 144.801 53.25 144.801 54Z" fill="white"/>
<path d="M149.382 56.063C148.914 56.1567 148.26 56.063 147.605 55.5942C148.166 55.5005 148.727 55.688 149.382 56.063Z" fill="#F7F9F9"/>
<path d="M146.203 49.5C146.11 49.3125 146.203 49.0312 146.483 48.5625C146.483 48.6562 146.483 49.0312 146.203 49.5Z" fill="#F7F9F9"/>
<path d="M127.133 30.4688C125.076 31.0312 123.113 31.2188 121.15 31.4062C120.963 30.8438 120.776 30.2812 120.683 29.8125C122.552 27.8437 124.422 25.7812 126.291 23.4375C131.9 24.8438 129.47 27.5625 127.133 30.4688Z" fill="white"/>
<path d="M135.453 66.2812C134.799 66.2812 134.051 66.2813 132.929 66.0938C132.275 65.7188 132.088 65.625 131.807 65.625C131.059 65.0625 130.405 64.5 129.377 63.8437C128.255 62.3437 127.32 61.0313 126.292 59.3438C129.47 60.0938 132.742 61.0312 136.388 62.4375C136.855 63.0937 136.949 63.4687 137.136 63.8437C136.668 64.2187 136.201 64.6875 135.547 65.5313C135.453 66 135.453 66.2812 135.453 66.2812Z" fill="white"/>
<path d="M126.105 58.6875C125.731 59.0625 125.357 59.0625 124.609 59.0625C121.337 58.6875 120.216 57 120.309 53.7188C122.272 55.0313 124.142 56.7187 126.105 58.6875Z" fill="white"/>
<path d="M120.496 52.5C121.618 51.5625 123.114 50.625 124.983 49.5938C123.768 50.625 122.272 51.5625 120.496 52.5Z" fill="white"/>
<path d="M137.322 63.749C137.042 63.374 136.948 63.0928 136.948 62.4365C137.229 61.9678 137.322 61.7803 137.79 61.3115C138.163 60.6553 138.257 60.374 138.35 59.999C138.537 59.5303 138.724 58.9678 139.098 58.3115C139.285 58.124 139.285 58.5928 139.285 59.1553C138.818 61.124 138.35 62.4365 137.977 63.8428C137.883 63.749 137.416 63.749 137.322 63.749Z" fill="white"/>
<path d="M115.354 20.4375C115.261 21 114.98 21.75 114.232 22.5C114.326 21.8438 114.7 21.1875 115.354 20.4375Z" fill="white"/>
<path d="M112.737 24.2812C112.831 24.4688 112.644 24.75 112.27 25.125C112.176 24.9375 112.363 24.6562 112.737 24.2812Z" fill="white"/>
<path d="M125.17 19.5005C124.889 19.688 124.702 19.5005 124.422 19.0317C124.515 18.938 124.796 19.1255 125.17 19.5005Z" fill="white"/>
<path d="M118.439 18.75C118.439 18.9375 118.159 19.2188 117.691 19.4063C117.691 19.2188 117.972 19.0312 118.439 18.75Z" fill="white"/>
<path d="M138.07 60.1875C138.164 60.375 138.07 60.6562 137.79 61.125C137.696 60.9375 137.79 60.6562 138.07 60.1875Z" fill="white"/>
<path d="M135.733 69.6549C136.668 69.5612 137.79 69.6549 139.099 70.0299C138.257 70.1237 137.136 70.0299 135.733 69.6549Z" fill="white"/>
<path d="M131.807 65.8124C131.994 65.6249 132.274 65.7186 132.554 65.9999C132.648 66.0936 132.274 66.3749 132.087 66.3749C131.9 66.3749 131.807 65.9999 131.807 65.8124Z" fill="white"/>
<path d="M143.866 60.8438C142.838 62.1562 141.81 63.375 140.501 64.3125C139.473 60.6562 142.371 61.6875 143.866 60.8438Z" fill="#FDF9E8"/>
<path d="M143.866 60.8438C142.371 61.5938 139.473 60.6562 140.127 64.3125C139.473 64.5 138.912 64.3125 138.164 63.9375C138.351 62.3437 138.818 61.0312 139.286 59.3438C140.595 59.3438 141.903 59.625 143.586 60.2813C143.866 60.4688 143.866 60.9375 143.866 60.8438C143.866 60.9375 143.866 60.9375 143.866 60.8438Z" fill="white"/>
<path d="M135.827 66.375C135.453 66.2813 135.453 65.9062 135.546 65.8125C137.416 65.625 139.379 65.625 141.622 65.625C140.033 65.9062 138.164 66.1875 135.827 66.375Z" fill="white"/>
<path d="M144.147 60.9375C143.866 60.9375 143.866 60.4688 143.866 60.2813C144.614 59.7188 145.268 59.3438 145.923 58.9688C146.016 59.3438 146.39 60.0937 146.297 60.0937C145.829 60.4687 145.081 60.6562 144.147 60.9375Z" fill="#FDF9E8"/>
<path d="M150.877 99.5639L140.688 89.3452L143.959 86.0639C145.175 84.8452 146.109 84.0014 146.577 83.8139C147.325 83.3452 148.166 83.2514 149.007 83.3452C149.942 83.4389 150.783 83.9077 151.531 84.7514C152.186 85.4077 152.559 86.0639 152.746 86.6264C152.933 87.2827 153.027 87.9389 152.84 88.5014C152.746 89.0639 152.559 89.6264 152.279 90.0952C151.905 90.6577 151.251 91.4077 150.316 92.3452L149.007 93.6577L152.84 97.5014L150.877 99.5639ZM144.52 89.0639L147.418 91.9702L148.54 90.8452C149.381 90.0014 149.849 89.4389 150.036 89.0639C150.222 88.6889 150.222 88.3139 150.222 87.9389C150.129 87.5639 149.942 87.1889 149.662 86.9077C149.288 86.5327 148.914 86.3452 148.446 86.3452C147.979 86.3452 147.605 86.4389 147.138 86.7202C146.857 86.9077 146.296 87.3764 145.548 88.1264L144.52 89.0639Z" fill="white"/>
<path d="M160.318 90.0937L150.129 79.875L152.185 77.8125L156.205 81.8438L160.225 77.8125L156.205 73.7812L158.262 71.7188L168.451 81.9375L166.394 84L161.907 79.5L157.888 83.5312L162.375 88.0313L160.318 90.0937Z" fill="white"/>
<path d="M170.508 79.875L160.318 69.6563L162.375 67.5938L172.564 77.8125L170.508 79.875Z" fill="white"/>
<path d="M174.621 75.75L164.525 65.625L166.582 63.5625L174.995 72L180.137 66.8438L181.819 68.5312L174.621 75.75Z" fill="white"/>
<path d="M183.128 67.2187L172.938 57L174.995 54.9375L185.184 65.1563L183.128 67.2187Z" fill="white"/>
<path d="M187.147 63.1889L176.958 52.9702L180.23 49.6889C181.445 48.4702 182.38 47.6264 182.847 47.4389C183.595 46.9702 184.436 46.8764 185.278 46.9702C186.213 47.0639 187.054 47.5327 187.802 48.3764C188.456 49.0327 188.83 49.6889 189.017 50.2514C189.204 50.8139 189.297 51.5639 189.11 52.1264C189.017 52.6889 188.83 53.2514 188.55 53.7202C188.176 54.2827 187.521 55.0327 186.586 55.9702L185.278 57.2827L189.11 61.1264L187.147 63.1889ZM180.791 52.5952L183.689 55.5014L184.81 54.3764C185.652 53.5327 186.119 52.9702 186.306 52.5952C186.493 52.2202 186.493 51.8452 186.493 51.4702C186.4 51.0952 186.213 50.7202 185.932 50.4389C185.558 50.0639 185.184 49.8764 184.717 49.8764C184.249 49.8764 183.876 49.9702 183.408 50.2514C183.128 50.4389 182.567 50.9077 181.819 51.6577L180.791 52.5952Z" fill="white"/>
<path d="M196.683 53.6264L186.493 43.4077L189.765 40.1264C190.98 38.9077 191.915 38.0639 192.382 37.8764C193.13 37.4077 193.972 37.3139 194.813 37.4077C195.748 37.5014 196.589 37.9702 197.337 38.8139C197.991 39.4702 198.365 40.1264 198.552 40.6889C198.739 41.2514 198.833 42.0014 198.646 42.5639C198.552 43.1264 198.365 43.6889 198.085 44.1577C197.711 44.7202 197.056 45.4702 196.122 46.4077L194.813 47.7202L198.646 51.5639L196.683 53.6264ZM190.232 43.1264L193.13 46.0327L194.252 44.9077C195.093 44.0639 195.561 43.5014 195.748 43.1264C195.935 42.7514 195.935 42.3764 195.935 42.0014C195.841 41.6264 195.654 41.2514 195.374 40.9702C195 40.5952 194.626 40.4077 194.159 40.4077C193.691 40.4077 193.317 40.5014 192.85 40.7827C192.569 40.9702 192.009 41.4389 191.261 42.1889L190.232 43.1264Z" fill="white"/>
<path d="M206.03 44.25L195.841 34.0313L197.897 31.9688L208.087 42.1875L206.03 44.25Z" fill="white"/>
<path d="M210.05 40.2188L199.954 30L201.917 28.0312L212.854 30.6563L206.03 23.8125L207.9 21.9375L218.089 32.1562L216.033 34.2188L205.282 31.6875L211.92 38.3438L210.05 40.2188Z" fill="white"/>
<path d="M220.333 29.9062L210.144 19.6875L217.715 12.0938L219.398 13.7813L213.883 19.3125L216.126 21.5625L221.268 16.4063L222.95 18.0937L217.809 23.25L220.613 26.0625L226.316 20.3438L227.998 22.0312L220.333 29.9062Z" fill="white"/>
<path d="M157.327 106.594L160.786 103.125C161.534 102.375 162.188 101.813 162.749 101.531C163.497 101.156 164.245 100.969 164.993 100.969C165.834 100.969 166.582 101.156 167.423 101.625C168.264 102 169.106 102.656 169.947 103.5C170.695 104.25 171.256 105 171.63 105.75C172.097 106.688 172.284 107.531 172.284 108.469C172.284 109.125 172.097 109.781 171.723 110.531C171.443 111.094 170.975 111.75 170.227 112.406L166.675 115.969L157.327 106.594ZM160.786 106.313L167.049 112.594L168.451 111.188C169.012 110.625 169.293 110.25 169.48 109.969C169.667 109.594 169.853 109.219 169.853 108.844C169.853 108.469 169.76 108 169.48 107.438C169.199 106.875 168.638 106.219 167.984 105.563C167.236 104.813 166.675 104.344 166.114 104.063C165.553 103.781 165.086 103.688 164.712 103.688C164.245 103.688 163.777 103.875 163.403 104.156C163.123 104.344 162.562 104.812 161.721 105.656L160.786 106.313Z" fill="white"/>
<path d="M176.21 106.5L166.862 97.125L173.78 90.1875L175.369 91.7813L170.321 96.8438L172.378 98.9063L177.052 94.2188L178.641 95.8125L173.967 100.5L176.491 103.031L181.726 97.7813L183.315 99.375L176.21 106.5Z" fill="white"/>
<path d="M188.549 94.0311L179.201 84.6561L183.221 80.6249C184.249 79.5936 184.997 78.9374 185.651 78.6561C186.306 78.3749 186.96 78.2811 187.614 78.4686C188.269 78.6561 188.923 78.9374 189.484 79.4999C190.232 80.2499 190.606 80.9999 190.606 81.8436C190.606 82.6874 190.325 83.6249 189.577 84.5624C190.232 84.3749 190.793 84.2811 191.354 84.3749C191.914 84.3749 192.756 84.5624 193.971 84.8436L196.962 85.4999L194.719 87.7499L191.26 87.0936C190.045 86.8124 189.204 86.7186 188.923 86.7186C188.549 86.7186 188.269 86.8124 187.988 86.9061C187.708 86.9999 187.334 87.2811 186.96 87.7499L186.586 88.1249L190.512 92.0624L188.549 94.0311ZM185.09 86.7186L186.493 85.3124C187.427 84.3749 187.895 83.8124 188.082 83.5311C188.269 83.2499 188.269 82.8749 188.175 82.5936C188.082 82.3124 187.988 81.9374 187.708 81.6561C187.427 81.3749 187.054 81.1874 186.68 81.1874C186.306 81.1874 185.932 81.2811 185.558 81.5624C185.371 81.6561 184.903 82.1249 184.156 82.8749L182.66 84.3749L185.09 86.7186Z" fill="white"/>
<path d="M193.036 80.3437C192.101 79.4062 191.447 78.4687 191.073 77.5312C190.793 76.875 190.699 76.125 190.699 75.375C190.699 74.625 190.793 73.9687 191.073 73.3125C191.447 72.4687 191.914 71.7187 192.756 70.875C194.158 69.4687 195.654 68.8125 197.336 68.8125C199.019 68.8125 200.608 69.6562 202.197 71.1562C203.693 72.6562 204.441 74.25 204.534 75.9375C204.628 77.625 203.88 79.125 202.478 80.5312C201.076 81.9375 199.58 82.5937 197.897 82.5937C196.121 82.5937 194.532 81.8437 193.036 80.3437ZM194.906 78.2812C195.934 79.3125 197.056 79.875 198.084 79.9688C199.112 80.0625 200.047 79.6875 200.795 78.9375C201.543 78.1875 201.917 77.25 201.823 76.2188C201.73 75.1875 201.169 74.1562 200.141 73.0312C199.019 71.9062 197.991 71.3437 197.056 71.3437C196.028 71.25 195.186 71.625 194.345 72.4688C193.597 73.2188 193.223 74.1562 193.223 75.1875C193.223 76.2187 193.878 77.1562 194.906 78.2812Z" fill="white"/>
<path d="M210.33 72.1875L202.571 64.4062L199.767 67.2187L198.178 65.625L205.656 58.125L207.245 59.7188L204.441 62.5312L212.2 70.3125L210.33 72.1875Z" fill="white"/>
<path d="M216.313 66.2812L206.965 56.9062L208.834 55.0312L212.574 58.7812L216.313 55.0312L212.574 51.2812L214.443 49.4062L223.791 58.7812L221.922 60.6562L217.809 56.5312L214.069 60.2813L218.182 64.4062L216.313 66.2812Z" fill="white"/>
<path d="M222.202 54.1879L223.885 52.1254C224.633 52.5941 225.287 52.8754 225.942 52.7816C226.596 52.6879 227.157 52.4066 227.718 51.8441C228.372 51.1879 228.653 50.6254 228.746 50.0629C228.84 49.5004 228.653 49.0316 228.279 48.6566C228.092 48.4691 227.811 48.2816 227.531 48.2816C227.25 48.2816 226.876 48.3754 226.409 48.5629C226.129 48.7504 225.474 49.1254 224.446 49.6879C223.137 50.4379 222.109 50.8129 221.361 50.9066C220.239 51.0004 219.305 50.6254 218.65 49.8754C218.183 49.4066 217.902 48.8441 217.715 48.0941C217.528 47.4379 217.622 46.6879 217.902 45.9379C218.183 45.1879 218.744 44.4379 219.398 43.7816C220.613 42.5629 221.735 42.0004 222.857 41.9066C223.979 41.8129 225.007 42.1879 225.848 43.0316L224.072 45.0004C223.511 44.6254 222.95 44.4379 222.483 44.4379C222.016 44.5316 221.455 44.8129 220.987 45.2816C220.426 45.8441 220.146 46.4066 220.052 46.8754C219.959 47.2504 220.052 47.5316 220.333 47.7191C220.52 47.9066 220.8 48.0004 221.174 48.0004C221.642 48.0004 222.389 47.6254 223.511 46.8754C224.633 46.1254 225.568 45.7504 226.222 45.4691C226.876 45.2816 227.531 45.1879 228.185 45.3754C228.84 45.5629 229.494 45.9379 230.055 46.5004C230.616 47.0629 230.99 47.7191 231.083 48.4691C231.27 49.2191 231.177 49.9691 230.896 50.8129C230.616 51.5629 230.055 52.4066 229.213 53.2504C227.998 54.4691 226.876 55.1254 225.661 55.1254C224.539 55.5941 223.418 55.1254 222.202 54.1879Z" fill="white"/>
<path d="M237.066 38.5312L239.496 37.3125C240.244 38.625 240.525 39.8438 240.338 40.9688C240.151 42.0938 239.59 43.2188 238.562 44.25C237.346 45.4688 235.851 46.125 234.168 46.0312C232.485 45.9375 230.99 45.1875 229.494 43.7813C227.905 42.1875 227.157 40.5938 227.063 38.9063C226.97 37.2188 227.624 35.7188 228.933 34.4063C230.055 33.2813 231.364 32.625 232.766 32.625C233.607 32.625 234.448 32.8125 235.477 33.375L234.074 35.7187C233.514 35.3437 232.859 35.1562 232.205 35.25C231.551 35.3437 230.99 35.625 230.522 36.0938C229.868 36.75 229.494 37.5937 229.587 38.5312C229.681 39.4687 230.242 40.5 231.364 41.625C232.579 42.8438 233.607 43.4063 234.542 43.5C235.477 43.5938 236.318 43.3125 236.972 42.5625C237.44 42.0938 237.72 41.4375 237.814 40.7813C237.814 40.125 237.533 39.375 237.066 38.5312Z" fill="white"/>
<path d="M243.984 38.5312L234.636 29.1562L236.505 27.2812L240.245 31.0312L243.984 27.2812L240.245 23.5312L242.114 21.6562L251.462 31.0312L249.593 32.9062L245.479 28.7813L241.74 32.5312L245.853 36.6562L243.984 38.5312Z" fill="white"/>
<path d="M253.331 29.0625L243.983 19.6875L245.853 17.8125L255.201 27.1875L253.331 29.0625Z" fill="white"/>
<path d="M257.164 25.3125L247.816 15.9375L249.686 14.0625L257.445 21.8437L262.119 17.1562L263.708 18.75L257.164 25.3125Z" fill="white"/>
<path d="M255.668 7.96875L259.127 4.5C259.875 3.75 260.529 3.1875 261.09 2.90625C261.838 2.53125 262.586 2.34375 263.333 2.34375C264.175 2.34375 264.922 2.53125 265.764 3C266.605 3.375 267.446 4.03125 268.288 4.875C269.036 5.625 269.597 6.375 269.97 7.125C270.438 8.0625 270.625 8.90625 270.625 9.75C270.625 10.4062 270.438 11.0625 270.064 11.8125C269.783 12.375 269.316 13.0312 268.568 13.6875L265.016 17.25L255.668 7.96875ZM259.22 7.59375L265.483 13.875L266.886 12.4688C267.446 11.9062 267.727 11.5312 267.914 11.25C268.101 10.875 268.288 10.5 268.288 10.125C268.288 9.75 268.194 9.28125 267.914 8.71875C267.633 8.15625 267.073 7.5 266.418 6.84375C265.67 6.09375 265.109 5.625 264.549 5.34375C263.988 5.0625 263.52 4.96875 263.146 4.96875C262.772 4.96875 262.212 5.15625 261.838 5.4375C261.557 5.625 260.996 6.09375 260.155 6.9375L259.22 7.59375Z" fill="white"/>
<path d="M70.9521 54.8437L80.861 44.9062L87.6851 51.75L86.0025 53.3438L81.235 48.5625L78.898 50.9062L83.0111 55.0312L81.3285 56.7187L77.2153 52.5937L72.9152 56.8125L70.9521 54.8437Z" fill="white"/>
<path d="M83.9461 57.9375C84.9744 56.9063 86.0027 56.25 86.9375 55.875C87.6853 55.5937 88.4332 55.4062 89.181 55.4062C89.9288 55.4062 90.6767 55.5 91.331 55.7813C92.1724 56.1563 93.0137 56.7188 93.855 57.5625C95.3507 59.0625 96.005 60.6562 96.005 62.4375C96.005 64.2187 95.1637 65.9062 93.5746 67.5937C91.9854 69.1875 90.3028 70.0312 88.5266 70.0312C86.7505 70.0312 85.1613 69.375 83.6657 67.875C82.17 66.375 81.4221 64.7812 81.5156 63C81.5156 61.2187 82.3569 59.5313 83.9461 57.9375ZM86.0027 60C84.8809 61.125 84.32 62.25 84.2265 63.375C84.1331 64.5 84.507 65.4375 85.3483 66.1875C86.1896 66.9375 87.1244 67.3125 88.1527 67.3125C89.2745 67.2188 90.3962 66.6563 91.518 65.5313C92.6398 64.4063 93.2941 63.2813 93.2941 62.25C93.3876 61.2188 93.0137 60.2813 92.1724 59.4375C91.331 58.5938 90.3962 58.2188 89.368 58.3125C88.2462 58.2188 87.2179 58.7813 86.0027 60Z" fill="white"/>
<path d="M90.209 74.1562L100.118 64.2188L102.081 66.1875L99.557 76.875L106.194 70.2188L108.064 72.0938L98.1548 82.0312L96.0982 79.9688L98.5287 69.4687L92.0786 75.9375L90.209 74.1562Z" fill="white"/>
<path d="M110.121 74.1562L113.766 77.8125C114.608 78.6563 115.168 79.3125 115.449 79.875C115.823 80.625 116.01 81.4688 116.01 82.3125C116.01 83.1563 115.729 84 115.355 84.8438C114.982 85.6875 114.234 86.625 113.299 87.5625C112.458 88.4063 111.71 88.9688 110.868 89.3438C109.934 89.8125 108.999 90.0938 108.064 90C107.41 90 106.662 89.8125 105.82 89.3438C105.26 89.0625 104.605 88.5 103.857 87.75L100.118 84L110.121 74.1562ZM110.494 77.9062L103.951 84.4688L105.447 85.9687C106.007 86.5312 106.475 86.9063 106.755 87.0938C107.129 87.375 107.597 87.4688 107.971 87.4688C108.344 87.4688 108.905 87.375 109.466 87C110.027 86.625 110.681 86.1562 111.523 85.4062C112.271 84.6562 112.831 84 113.112 83.4375C113.392 82.875 113.486 82.4063 113.486 81.9375C113.486 81.4688 113.299 81 113.018 80.5313C112.831 80.1563 112.271 79.5938 111.429 78.75L110.494 77.9062Z" fill="white"/>
<path d="M119.188 103.219L117.038 101.063L118.44 97.9688L114.514 94.0313L111.429 95.4375L109.279 93.2812L123.114 87.1875L125.264 89.3438L119.188 103.219ZM119.375 95.5313L121.712 90.4688L116.664 92.8125L119.375 95.5313Z" fill="white"/>
<path d="M121.432 105.469L129.658 97.2188L126.667 94.2188L128.349 92.5312L136.202 100.406L134.612 102.188L131.714 99.2813L123.488 107.531L121.432 105.469Z" fill="white"/>
<path d="M127.602 111.656L137.51 101.719L139.474 103.687L129.565 113.625L127.602 111.656Z" fill="white"/>
<path d="M136.014 110.25C137.043 109.219 138.071 108.562 139.006 108.187C139.754 107.906 140.502 107.719 141.249 107.719C141.997 107.719 142.745 107.813 143.399 108.094C144.241 108.469 145.082 109.031 145.923 109.875C147.419 111.375 148.073 112.969 148.073 114.75C148.073 116.531 147.232 118.219 145.643 119.906C144.054 121.5 142.371 122.344 140.595 122.344C138.819 122.344 137.23 121.687 135.734 120.187C134.238 118.687 133.49 117.094 133.584 115.312C133.677 113.531 134.425 111.844 136.014 110.25ZM138.165 112.219C137.043 113.344 136.482 114.469 136.388 115.594C136.295 116.719 136.669 117.656 137.51 118.406C138.351 119.25 139.286 119.531 140.315 119.531C141.436 119.437 142.558 118.875 143.68 117.75C144.802 116.625 145.456 115.5 145.456 114.469C145.549 113.437 145.176 112.5 144.334 111.656C143.493 110.812 142.558 110.437 141.53 110.531C140.408 110.531 139.286 111.094 138.165 112.219Z" fill="white"/>
<path d="M142.371 126.375L152.28 116.438L154.243 118.406L151.719 129.094L158.356 122.438L160.226 124.313L150.317 134.25L148.26 132.188L150.691 121.688L144.241 128.156L142.371 126.375Z" fill="white"/>
<path d="M45.4316 61.9687L55.3405 52.0312L58.3319 55.0313C59.0798 55.7813 59.5472 56.4375 59.8276 56.9063C60.2015 57.5625 60.295 58.3125 60.295 59.0625C60.2015 59.8125 60.0146 60.6562 59.5472 61.5C59.0798 62.3437 58.4254 63.1875 57.5841 64.125C56.4623 65.25 55.3405 66 54.2188 66.4688C53.097 66.9375 52.0687 67.0312 51.2274 66.75C50.3861 66.5625 49.4513 66 48.5165 65.0625L45.4316 61.9687ZM47.6752 61.875L49.5448 63.75C50.2926 64.5 50.947 64.9688 51.6013 65.1562C52.2557 65.3438 52.9101 65.25 53.5644 64.9688C54.4992 64.5938 55.434 63.9375 56.3688 63C57.3971 61.9687 58.0515 61.0312 58.3319 60.1875C58.6124 59.3437 58.6124 58.5937 58.3319 57.9375C58.145 57.4687 57.771 56.9062 57.0232 56.25L55.1536 54.375L47.6752 61.875Z" fill="white"/>
<path d="M62.5388 62.0625L63.941 60.6562L65.0628 61.7813L63.941 62.9063C63.2867 63.5625 62.7258 63.9375 62.2584 64.125C61.791 64.3125 61.3236 64.2188 60.7627 64.125L60.9497 63.375C61.604 63.5625 62.2584 63.375 63.0062 62.7188L62.5388 62.0625Z" fill="white"/>
<path d="M56.9297 73.5L66.8386 63.5625L73.1952 69.9375L71.98 71.0625L66.8386 65.9062L63.8472 68.9062L68.7082 73.7812L67.4929 75L62.632 70.125L59.2667 73.5L64.5951 78.8437L63.3798 80.0625L56.9297 73.5Z" fill="white"/>
<path d="M65.0625 81.6562L74.9714 71.7188L76.1866 72.9375L72.9148 85.3125L80.7672 77.4375L81.8889 78.5625L71.8866 88.5L70.6713 87.2812L73.9431 74.8125L66.0908 82.6875L65.0625 81.6562Z" fill="white"/>
<path d="M76.0928 92.7188L84.8799 83.9063L81.982 81L83.1973 79.7812L90.1148 86.7188L88.8996 87.9375L86.0017 85.125L77.2145 93.9375L76.0928 92.7188Z" fill="white"/>
<path d="M81.3281 97.9687L91.237 88.0312L95.0697 91.875C95.911 92.7187 96.3784 93.375 96.5654 93.9375C96.7524 94.5 96.7524 95.1562 96.5654 95.8125C96.3784 96.4687 96.0045 97.125 95.4436 97.6875C94.6958 98.4375 93.8545 98.8125 93.0132 98.9062C92.1718 98.9062 91.237 98.625 90.3022 97.9687C90.4892 98.4375 90.4892 98.9062 90.4892 99.2812C90.4892 100.031 90.3022 100.687 90.1153 101.437L88.9 105.656L87.4043 104.156L88.3391 100.875C88.7131 99.6562 88.9 98.7188 88.9935 98.25C89.087 97.7813 88.9935 97.3125 88.9 97.0312C88.8065 96.75 88.5261 96.375 88.1522 96L86.8435 94.6875L82.4499 99.0937L81.3281 97.9687ZM88.0587 93.5625L90.5827 96.0937C91.1435 96.6562 91.6109 97.0312 91.9849 97.125C92.3588 97.2187 92.8262 97.3125 93.2001 97.2187C93.6675 97.125 94.0414 96.9375 94.3219 96.5625C94.7893 96.0937 95.0697 95.5312 95.0697 94.875C95.0697 94.3125 94.6958 93.6562 94.1349 93L91.3305 90.1875L88.0587 93.5625Z" fill="white"/>
<path d="M90.1152 106.781L100.024 96.8438L106.381 103.219L105.166 104.437L100.024 99.2812L97.0328 102.281L101.894 107.156L100.678 108.375L95.8175 103.5L92.4522 106.875L97.7806 112.219L96.5654 113.437L90.1152 106.781Z" fill="white"/>
<path d="M98.248 114.937L108.157 105L111.429 108.281C112.177 109.031 112.737 109.688 112.924 110.156C113.298 110.812 113.298 111.563 113.205 112.313C113.018 113.063 112.644 113.812 111.896 114.469C110.961 115.406 110.027 115.875 108.998 115.969C107.97 116.062 106.848 115.5 105.633 114.281L103.389 112.031L99.3698 116.063L98.248 114.937ZM104.605 110.906L106.848 113.156C107.596 113.906 108.25 114.281 108.905 114.281C109.559 114.281 110.12 114 110.774 113.438C111.148 113.062 111.429 112.594 111.522 112.219C111.616 111.75 111.616 111.375 111.522 111.094C111.429 110.719 111.055 110.25 110.4 109.688L108.157 107.437L104.605 110.906Z" fill="white"/>
<path d="M106.381 123.094L116.29 113.156L120.122 117C120.964 117.844 121.431 118.5 121.618 119.063C121.805 119.625 121.805 120.281 121.618 120.938C121.431 121.594 121.057 122.25 120.496 122.813C119.749 123.563 118.907 123.938 118.066 124.031C117.225 124.031 116.29 123.75 115.355 123.094C115.542 123.563 115.542 124.031 115.542 124.406C115.542 125.156 115.355 125.813 115.168 126.563L113.953 130.781L112.457 129.281L113.392 126C113.766 124.781 113.953 123.844 114.046 123.375C114.14 122.906 114.046 122.438 113.953 122.156C113.859 121.875 113.579 121.5 113.205 121.125L111.896 119.813L107.503 124.219L106.381 123.094ZM113.111 118.688L115.635 121.219C116.196 121.781 116.664 122.156 117.038 122.25C117.412 122.437 117.879 122.438 118.253 122.344C118.72 122.25 119.094 122.063 119.375 121.688C119.842 121.219 120.122 120.656 120.122 120C120.122 119.438 119.749 118.781 119.188 118.125L116.383 115.313L113.111 118.688Z" fill="white"/>
<path d="M115.448 132.188L125.357 122.25L126.479 123.375L116.57 133.313L115.448 132.188Z" fill="white"/>
<path d="M121.431 131.719L122.646 132.657C122.179 133.219 121.898 133.782 121.805 134.344C121.712 134.813 121.712 135.375 121.992 135.938C122.179 136.5 122.553 137.063 123.02 137.532C123.675 138.188 124.422 138.563 125.077 138.657C125.731 138.75 126.386 138.469 126.853 138C127.133 137.719 127.32 137.344 127.414 137.063C127.507 136.688 127.507 136.313 127.32 135.938C127.133 135.563 126.759 134.719 126.105 133.5C125.544 132.469 125.17 131.625 125.077 131.063C124.983 130.5 124.983 129.938 125.17 129.375C125.357 128.813 125.638 128.344 126.105 127.875C126.946 127.032 127.881 126.657 128.91 126.75C129.938 126.75 130.966 127.313 131.901 128.25C132.555 128.907 133.023 129.563 133.21 130.313C133.49 131.063 133.49 131.719 133.303 132.469C133.116 133.219 132.742 133.875 132.181 134.532L130.966 133.5C131.527 132.75 131.807 132.094 131.807 131.438C131.807 130.782 131.433 130.125 130.779 129.469C130.125 128.813 129.47 128.438 128.91 128.344C128.255 128.25 127.788 128.438 127.32 128.907C126.946 129.282 126.759 129.75 126.759 130.219C126.759 130.688 127.133 131.532 127.788 132.563C128.442 133.688 128.816 134.438 129.003 135C129.283 135.75 129.377 136.5 129.19 137.25C129.003 137.907 128.723 138.563 128.162 139.125C127.601 139.688 126.946 140.063 126.199 140.25C125.451 140.438 124.703 140.438 123.955 140.157C123.207 139.875 122.553 139.407 121.805 138.75C120.683 137.625 120.122 136.5 120.122 135.282C119.935 133.969 120.403 132.844 121.431 131.719Z" fill="white"/>
<path d="M126.76 143.531L136.669 133.594L143.025 139.969L141.81 141.188L136.669 136.031L133.677 139.031L138.538 143.906L137.323 145.125L132.462 140.25L129.097 143.625L134.425 148.969L133.21 150.187L126.76 143.531Z" fill="white"/>
</g>
<defs>
<clipPath id="clip0_718_1128">
<rect width="314" height="150" fill="white"/>
</clipPath>
</defs>
</svg>
