<svg width="405" height="100" viewBox="0 0 405 100" fill="none" xmlns="http://www.w3.org/2000/svg">
<path d="M2.25977 62.478V13.358C2.25977 12.958 2.42118 12.638 2.66331 12.318C2.90544 12.078 3.30899 11.918 3.71254 11.918H25.1005C29.6203 11.918 33.4136 13.438 36.642 16.558C39.8704 19.678 41.4038 23.438 41.4038 27.838C41.4038 31.198 40.3546 34.238 38.3369 36.878C36.3192 39.518 33.6557 41.518 30.2659 42.878L40.516 61.758C40.8389 62.238 40.8389 62.718 40.516 63.198C40.2739 63.678 39.7897 63.918 39.2247 63.918H31.4766C30.9116 63.918 30.5081 63.678 30.2659 63.278L20.258 43.598H11.9449V62.558C11.9449 62.878 11.7835 63.198 11.5414 63.518C11.2992 63.838 10.8957 63.998 10.4921 63.998H3.63183C3.22828 63.998 2.90544 63.838 2.5826 63.598C2.42118 63.278 2.25977 62.878 2.25977 62.478ZM12.0256 35.598H24.2127C26.2305 35.598 27.9254 34.878 29.3781 33.358C30.8309 31.838 31.5573 30.078 31.5573 27.998C31.5573 25.998 30.8309 24.318 29.3781 22.878C27.9254 21.438 26.1498 20.798 24.2127 20.798H12.0256V35.598Z" fill="white"/>
<path d="M54.6406 62.478V13.358C54.6406 12.958 54.802 12.638 55.0442 12.318C55.2863 12.078 55.6899 11.918 56.0934 11.918H86.6016C87.0051 11.918 87.328 12.078 87.6508 12.318C87.8929 12.558 88.0543 12.958 88.0543 13.358V19.438C88.0543 19.838 87.8929 20.158 87.6508 20.478C87.4087 20.718 87.0051 20.878 86.6016 20.878H64.4065V33.038H82.8889C83.2925 33.038 83.6153 33.198 83.9382 33.518C84.1803 33.838 84.3417 34.158 84.3417 34.478V40.638C84.3417 41.038 84.1803 41.358 83.9382 41.678C83.696 41.918 83.2925 42.078 82.8889 42.078H64.4065V55.038H86.6016C87.0051 55.038 87.328 55.198 87.6508 55.438C87.8929 55.678 88.0543 56.078 88.0543 56.478V62.558C88.0543 62.958 87.8929 63.278 87.6508 63.598C87.4087 63.838 87.0051 63.998 86.6016 63.998H56.0934C55.6899 63.998 55.367 63.838 55.0442 63.598C54.802 63.278 54.6406 62.878 54.6406 62.478Z" fill="white"/>
<path d="M100.806 62.4792V12.5592C100.806 12.2392 100.967 11.9192 101.209 11.5992C101.451 11.3592 101.855 11.1992 102.258 11.1992H103.388C103.873 11.1992 104.276 11.3592 104.68 11.6792L135.188 43.9992H135.349V13.3592C135.349 12.9592 135.511 12.6392 135.753 12.3192C135.995 12.0792 136.399 11.9192 136.802 11.9192H143.662C143.985 11.9192 144.308 12.0792 144.631 12.3992C144.954 12.7192 145.115 13.0392 145.115 13.3592V63.2792C145.115 63.5992 144.954 63.9192 144.712 64.2392C144.469 64.4792 144.066 64.6392 143.662 64.6392H142.613C142.129 64.6392 141.725 64.4792 141.322 64.1592L110.652 30.6392H110.491V62.5592C110.491 62.9592 110.329 63.2792 110.087 63.5992C109.845 63.8392 109.442 63.9992 109.038 63.9992H102.258C101.855 63.9992 101.532 63.8392 101.209 63.5192C100.967 63.1992 100.806 62.8792 100.806 62.4792Z" fill="white"/>
<path d="M155.849 63.9192C155.284 63.9192 154.881 63.7592 154.639 63.3592C154.397 62.9592 154.316 62.4792 154.639 61.9992L177.883 11.9992C178.125 11.4392 178.529 11.1992 179.174 11.1992H179.901C180.466 11.1992 180.95 11.4392 181.192 11.9992L204.194 61.9992C204.436 62.4792 204.436 62.9592 204.194 63.3592C203.952 63.7592 203.468 63.9192 202.984 63.9192H196.446C195.478 63.9192 194.751 63.4392 194.267 62.3992L190.635 54.3992H168.279L164.647 62.3992C164.243 63.3592 163.517 63.9192 162.468 63.9192H155.849ZM171.83 46.1592H186.842L179.336 29.8392H179.174L171.83 46.1592Z" fill="white"/>
<path d="M211.862 44.878V13.358C211.862 13.038 212.024 12.718 212.347 12.398C212.669 12.078 212.992 11.918 213.315 11.918H220.418C220.821 11.918 221.144 12.078 221.467 12.318C221.709 12.558 221.87 12.958 221.87 13.358V44.318C221.87 47.518 222.839 50.078 224.857 52.078C226.874 54.078 229.457 55.038 232.685 55.038C235.914 55.038 238.577 54.078 240.595 52.078C242.613 50.078 243.662 47.518 243.662 44.398V13.358C243.662 12.958 243.823 12.638 244.065 12.318C244.307 12.078 244.711 11.918 245.115 11.918H252.217C252.621 11.918 252.943 12.078 253.266 12.398C253.508 12.718 253.67 13.038 253.67 13.358V44.798C253.67 50.478 251.652 55.118 247.697 58.958C243.743 62.718 238.739 64.638 232.766 64.638C226.874 64.638 221.951 62.718 217.916 58.958C213.88 55.198 211.862 50.478 211.862 44.878Z" fill="white"/>
<path d="M268.763 62.478V13.358C268.763 12.958 268.924 12.638 269.166 12.318C269.408 12.078 269.812 11.918 270.215 11.918H277.076C277.479 11.918 277.802 12.078 278.125 12.398C278.367 12.718 278.529 13.038 278.529 13.358V55.038H297.657C298.06 55.038 298.383 55.198 298.706 55.438C298.948 55.678 299.109 56.078 299.109 56.478V62.558C299.109 62.958 298.948 63.278 298.706 63.598C298.464 63.838 298.06 63.998 297.657 63.998H270.215C269.812 63.998 269.489 63.838 269.166 63.598C268.924 63.278 268.763 62.878 268.763 62.478Z" fill="white"/>
<path d="M304.597 63.9192C304.032 63.9192 303.629 63.7592 303.387 63.3592C303.145 62.9592 303.064 62.4792 303.387 61.9992L326.631 11.9992C326.873 11.4392 327.277 11.1992 327.922 11.1992H328.649C329.214 11.1992 329.698 11.4392 329.94 11.9992L353.023 61.9192C353.265 62.3992 353.265 62.8792 353.023 63.2792C352.781 63.6792 352.297 63.8392 351.812 63.8392H345.275C344.306 63.8392 343.58 63.3592 343.096 62.3192L339.464 54.3192H317.107L313.475 62.3192C313.072 63.2792 312.346 63.8392 311.296 63.8392H304.597V63.9192ZM320.659 46.1592H335.751L328.245 29.8392H328.003L320.659 46.1592Z" fill="white"/>
<path d="M366.179 56.8792C360.933 51.6792 358.27 45.4392 358.27 37.9992C358.27 30.5592 360.933 24.2392 366.179 19.0392C371.425 13.8392 377.801 11.1992 385.307 11.1992C392.167 11.1992 398.221 13.5192 403.467 18.0792C404.193 18.7992 404.274 19.4392 403.548 20.1592L398.947 24.7992C398.382 25.4392 397.736 25.4392 397.091 24.7992C393.782 21.9192 389.908 20.3992 385.549 20.3992C380.787 20.3992 376.833 22.0792 373.604 25.5192C370.376 28.8792 368.842 32.9592 368.842 37.7592C368.842 42.4792 370.457 46.4792 373.685 49.8392C376.913 53.1992 380.868 54.8792 385.63 54.8792C389.746 54.8792 393.62 53.4392 397.091 50.6392C397.736 50.0792 398.382 50.0792 398.947 50.6392L403.628 55.3592C403.951 55.6792 404.032 55.9992 404.032 56.3992C404.032 56.7992 403.87 57.1192 403.548 57.4392C398.544 62.2392 392.49 64.6392 385.388 64.6392C377.801 64.6392 371.425 62.0792 366.179 56.8792Z" fill="white"/>
<path d="M30.3463 88.48L31.9605 88.88C31.6377 90.24 30.992 91.28 30.1042 92C29.2164 92.72 28.0865 93.12 26.7951 93.12C25.4231 93.12 24.3738 92.88 23.486 92.32C22.6789 91.76 22.0333 90.96 21.549 89.92C21.1454 88.88 20.9033 87.76 20.9033 86.48C20.9033 85.12 21.1454 84 21.6297 83.04C22.114 82.08 22.8403 81.28 23.7282 80.8C24.616 80.32 25.6652 80 26.7951 80C28.0058 80 29.1357 80.32 29.9428 80.96C30.8306 81.6 31.3955 82.48 31.7184 83.68L30.1042 84.08C29.7814 83.12 29.3778 82.48 28.8128 82.08C28.2479 81.68 27.6022 81.44 26.7144 81.44C25.7459 81.44 24.9388 81.68 24.2931 82.16C23.6474 82.64 23.1632 83.28 22.9211 84.08C22.6789 84.88 22.5175 85.68 22.5175 86.48C22.5175 87.52 22.6789 88.48 23.0018 89.28C23.3246 90.08 23.8089 90.72 24.4545 91.12C25.1002 91.52 25.8266 91.68 26.553 91.68C27.4408 91.68 28.2479 91.44 28.8936 90.88C29.7007 90.32 30.1042 89.52 30.3463 88.48Z" fill="white"/>
<path d="M34.7051 92.8802V80.1602H40.274C41.404 80.1602 42.2111 80.2402 42.776 80.4802C43.341 80.7202 43.8252 81.1202 44.1481 81.6802C44.4709 82.2402 44.6323 82.8802 44.6323 83.6002C44.6323 84.4802 44.3095 85.2802 43.7445 85.8402C43.1796 86.4002 42.2918 86.8802 41.0811 87.0402C41.4847 87.2802 41.8882 87.4402 42.0496 87.6802C42.5339 88.1602 43.0182 88.7202 43.4217 89.3602L45.6009 92.8002H43.5024L41.8882 90.1602C41.404 89.3602 41.0004 88.8002 40.6776 88.4002C40.3547 88.0002 40.1126 87.6802 39.8705 87.5202C39.6284 87.3602 39.3862 87.2802 39.1441 87.2002C38.9827 87.1202 38.6598 87.1202 38.2563 87.1202H36.3193V92.7202H34.7051V92.8802ZM36.4 85.8402H39.9512C40.6776 85.8402 41.3233 85.7602 41.7268 85.6002C42.1303 85.4402 42.4532 85.2002 42.6953 84.8002C42.9374 84.4002 43.0182 84.0802 43.0182 83.6802C43.0182 83.0402 42.776 82.5602 42.3725 82.1602C41.9689 81.7602 41.2425 81.6002 40.3547 81.6002H36.4V85.8402Z" fill="white"/>
<path d="M48.0215 92.8802V80.1602H57.0609V81.6802H49.7164V85.6002H56.6574V87.1202H49.7164V91.4402H57.3838V92.9602H48.0215V92.8802Z" fill="white"/>
<path d="M58.998 92.8802L63.7599 80.1602H65.5355L70.6202 92.8802H68.7639L67.3111 89.0402H62.1457L60.7737 92.8802H58.998ZM62.63 87.6802H66.8269L65.5355 84.1602C65.132 83.1202 64.8091 82.2402 64.6477 81.5202C64.4863 82.3202 64.2442 83.1202 64.002 83.9202L62.63 87.6802Z" fill="white"/>
<path d="M74.5752 92.8802V81.6802H70.459V80.1602H80.3862V81.6802H76.2701V92.8802H74.5752Z" fill="white"/>
<path d="M82.8076 92.8802V80.1602H91.8471V81.6802H84.5025V85.6002H91.4435V87.1202H84.5025V91.4402H92.1699V92.9602H82.8076V92.8802Z" fill="white"/>
<path d="M103.308 80.2402H104.922V87.6002C104.922 88.8802 104.76 89.9202 104.518 90.6402C104.276 91.3602 103.711 92.0002 102.985 92.4802C102.258 92.9602 101.29 93.2002 100.079 93.2002C98.8685 93.2002 97.9807 92.9602 97.1736 92.5602C96.4473 92.1602 95.8823 91.5202 95.5595 90.8002C95.2366 90.0802 95.0752 88.9602 95.0752 87.6002V80.2402H96.6894V87.6002C96.6894 88.7202 96.7701 89.5202 97.0122 90.0002C97.2543 90.4802 97.5772 90.9602 98.0614 91.2002C98.5457 91.5202 99.1914 91.6002 99.837 91.6002C101.048 91.6002 101.935 91.3602 102.42 90.7202C102.904 90.1602 103.227 89.1202 103.227 87.5202V80.2402H103.308Z" fill="white"/>
<path d="M108.473 92.8802V80.1602H114.042C115.172 80.1602 115.979 80.2402 116.544 80.4802C117.109 80.7202 117.593 81.1202 117.916 81.6802C118.239 82.2402 118.4 82.8802 118.4 83.6002C118.4 84.4802 118.077 85.2802 117.512 85.8402C116.947 86.4002 116.059 86.8802 114.849 87.0402C115.252 87.2802 115.656 87.4402 115.817 87.6802C116.301 88.1602 116.786 88.7202 117.189 89.3602L119.368 92.8002H117.27L115.656 90.1602C115.172 89.3602 114.768 88.8002 114.445 88.4002C114.122 88.0002 113.88 87.6802 113.638 87.5202C113.396 87.3602 113.154 87.2802 112.912 87.2002C112.75 87.1202 112.427 87.1202 112.024 87.1202H110.087V92.7202H108.473V92.8802ZM110.087 85.8402H113.638C114.364 85.8402 115.01 85.7602 115.414 85.6002C115.817 85.4402 116.14 85.2002 116.382 84.8002C116.624 84.4002 116.705 84.0802 116.705 83.6802C116.705 83.0402 116.463 82.5602 116.059 82.1602C115.656 81.7602 114.929 81.6002 114.042 81.6002H110.087V85.8402Z" fill="white"/>
<path d="M127.278 92.8802V80.1602H131.556C132.524 80.1602 133.251 80.2402 133.816 80.3202C134.542 80.4802 135.107 80.8002 135.672 81.2002C136.318 81.7602 136.802 82.4802 137.125 83.3602C137.448 84.2402 137.609 85.2802 137.609 86.4002C137.609 87.3602 137.528 88.2402 137.286 88.9602C137.044 89.6802 136.802 90.3202 136.398 90.8002C136.076 91.2802 135.672 91.6802 135.269 91.9202C134.865 92.1602 134.381 92.4002 133.816 92.5602C133.251 92.7202 132.524 92.8002 131.798 92.8002H127.278V92.8802ZM128.973 91.4402H131.637C132.444 91.4402 133.089 91.3602 133.574 91.2002C134.058 91.0402 134.381 90.8002 134.704 90.5602C135.107 90.1602 135.43 89.6002 135.591 88.9602C135.834 88.3202 135.914 87.4402 135.914 86.4802C135.914 85.1202 135.672 84.1602 135.269 83.4402C134.865 82.7202 134.3 82.2402 133.735 82.0002C133.332 81.8402 132.605 81.7602 131.556 81.7602H128.893V91.4402H128.973Z" fill="white"/>
<path d="M140.596 92.8802V80.1602H149.635V81.6802H142.291V85.6002H149.232V87.1202H142.291V91.4402H149.958V92.9602H140.596V92.8802Z" fill="white"/>
<path d="M158.513 92.8802V80.1602H163.194C164.001 80.1602 164.647 80.2402 165.131 80.3202C165.777 80.4002 166.261 80.6402 166.664 80.8802C167.068 81.2002 167.391 81.6002 167.633 82.0802C167.875 82.6402 168.036 83.2002 168.036 83.8402C168.036 84.8802 167.714 85.8402 166.987 86.5602C166.342 87.2802 165.05 87.6802 163.355 87.6802H160.127V92.8802H158.513ZM160.127 86.2402H163.355C164.404 86.2402 165.212 86.0002 165.615 85.6002C166.099 85.2002 166.261 84.6402 166.261 83.9202C166.261 83.3602 166.099 82.9602 165.857 82.5602C165.615 82.1602 165.212 81.9202 164.808 81.8402C164.566 81.7602 164.001 81.7602 163.275 81.7602H160.046V86.2402H160.127Z" fill="white"/>
<path d="M170.861 92.8802V80.1602H179.901V81.6802H172.556V85.6002H179.497V87.1202H172.556V91.4402H180.224V92.9602H170.861V92.8802Z" fill="white"/>
<path d="M183.452 92.8802V80.1602H185.066V92.8802H183.452Z" fill="white"/>
<path d="M188.698 92.8802V80.1602H190.393L196.931 90.1602V80.1602H198.545V92.8802H196.85L190.312 82.8802V92.8802H188.698Z" fill="white"/>
<path d="M205.244 92.8802V81.6802H201.128V80.1602H211.055V81.6802H206.939V92.8802H205.244Z" fill="white"/>
<path d="M221.628 80.2402H223.242V87.6002C223.242 88.8802 223.081 89.9202 222.839 90.6402C222.516 91.3602 222.031 92.0002 221.305 92.4802C220.579 92.9602 219.61 93.2002 218.4 93.2002C217.189 93.2002 216.301 92.9602 215.494 92.5602C214.687 92.1602 214.203 91.5202 213.88 90.8002C213.557 90.0802 213.396 88.9602 213.396 87.6002V80.2402H215.01V87.6002C215.01 88.7202 215.09 89.5202 215.333 90.0002C215.575 90.4802 215.898 90.9602 216.382 91.2002C216.866 91.5202 217.512 91.6002 218.157 91.6002C219.368 91.6002 220.256 91.3602 220.74 90.7202C221.224 90.1602 221.547 89.1202 221.547 87.5202V80.2402H221.628Z" fill="white"/>
<path d="M226.713 92.8802V80.1602H232.282C233.412 80.1602 234.219 80.2402 234.784 80.4802C235.349 80.7202 235.833 81.1202 236.156 81.6802C236.479 82.2402 236.64 82.8802 236.64 83.6002C236.64 84.4802 236.317 85.2802 235.752 85.8402C235.187 86.4002 234.3 86.8802 233.089 87.0402C233.492 87.2802 233.896 87.4402 234.057 87.6802C234.542 88.1602 235.026 88.7202 235.43 89.3602L237.609 92.8002H235.672L234.057 90.1602C233.573 89.3602 233.17 88.8002 232.847 88.4002C232.524 88.0002 232.282 87.6802 232.04 87.5202C231.798 87.3602 231.555 87.2802 231.313 87.2002C231.152 87.1202 230.829 87.1202 230.426 87.1202H228.408V92.7202H226.713V92.8802ZM228.408 85.8402H231.959C232.685 85.8402 233.331 85.7602 233.735 85.6002C234.138 85.4402 234.461 85.2002 234.703 84.8002C234.945 84.4802 235.026 84.0802 235.026 83.6802C235.026 83.0402 234.784 82.5602 234.38 82.1602C233.977 81.7602 233.25 81.6002 232.363 81.6002H228.408V85.8402Z" fill="white"/>
<path d="M240.029 92.8802V80.1602H249.069V81.6802H241.724V85.6002H248.665V87.1202H241.724V91.4402H249.392V92.9602H240.029V92.8802Z" fill="white"/>
<path d="M251.813 88.7999L253.347 88.6399C253.428 89.2799 253.589 89.7599 253.831 90.2399C254.073 90.6399 254.558 90.9599 255.123 91.1999C255.688 91.4399 256.333 91.5999 257.06 91.5999C257.705 91.5999 258.27 91.5199 258.754 91.2799C259.239 91.0399 259.562 90.7999 259.804 90.4799C260.046 90.1599 260.127 89.7599 260.127 89.3599C260.127 88.9599 260.046 88.6399 259.804 88.3199C259.562 87.9999 259.239 87.7599 258.674 87.5999C258.351 87.4399 257.625 87.2799 256.414 86.9599C255.284 86.6399 254.477 86.3999 253.993 86.1599C253.428 85.8399 252.943 85.4399 252.621 84.9599C252.298 84.4799 252.217 83.9999 252.217 83.3599C252.217 82.7199 252.378 82.1599 252.782 81.5999C253.105 81.0399 253.67 80.6399 254.315 80.3199C255.042 79.9999 255.768 79.9199 256.575 79.9199C257.463 79.9199 258.351 80.0799 258.997 80.3999C259.642 80.7199 260.288 81.1199 260.611 81.7599C261.014 82.3199 261.176 83.0399 261.256 83.7599L259.642 83.9199C259.562 83.1199 259.239 82.4799 258.754 82.0799C258.27 81.6799 257.544 81.4399 256.575 81.4399C255.607 81.4399 254.88 81.5999 254.396 81.9999C253.912 82.3999 253.75 82.7999 253.75 83.3599C253.75 83.8399 253.912 84.1599 254.235 84.4799C254.558 84.7999 255.365 85.0399 256.737 85.3599C258.109 85.6799 258.997 85.9199 259.481 86.1599C260.207 86.4799 260.772 86.9599 261.095 87.4399C261.418 87.9999 261.579 88.5599 261.579 89.2799C261.579 89.9199 261.418 90.5599 261.014 91.1999C260.611 91.7599 260.046 92.2399 259.4 92.5599C258.754 92.8799 257.867 93.0399 256.979 93.0399C255.849 93.0399 254.88 92.8799 254.154 92.5599C253.428 92.2399 252.782 91.7599 252.378 91.0399C252.056 90.3999 251.813 89.6799 251.813 88.7999Z" fill="white"/>
<path d="M270.296 92.8802V80.1602H274.574C275.542 80.1602 276.268 80.2402 276.833 80.3202C277.56 80.4802 278.125 80.8002 278.69 81.2002C279.335 81.7602 279.82 82.4802 280.142 83.3602C280.465 84.2402 280.627 85.2802 280.627 86.4002C280.627 87.3602 280.546 88.2402 280.304 88.9602C280.062 89.6802 279.82 90.3202 279.416 90.8002C279.093 91.2802 278.69 91.6802 278.286 91.9202C277.883 92.1602 277.398 92.4002 276.833 92.5602C276.268 92.7202 275.542 92.8002 274.816 92.8002H270.296V92.8802ZM271.91 91.4402H274.574C275.381 91.4402 276.026 91.3602 276.511 91.2002C276.995 91.0402 277.318 90.8002 277.64 90.5602C278.044 90.1602 278.367 89.6002 278.528 88.9602C278.69 88.3202 278.851 87.4402 278.851 86.4802C278.851 85.1202 278.609 84.1602 278.205 83.4402C277.802 82.7202 277.237 82.2402 276.672 82.0002C276.268 81.8402 275.542 81.7602 274.493 81.7602H271.829V91.4402H271.91Z" fill="white"/>
<path d="M283.612 92.8802V80.1602H292.652V81.6802H285.307V85.6002H292.248V87.1202H285.307V91.4402H292.975V92.9602H283.612V92.8802Z" fill="white"/>
<path d="M295.881 92.8802V80.1602H300.562C301.369 80.1602 302.015 80.2402 302.499 80.3202C303.145 80.4002 303.629 80.6402 304.033 80.8802C304.436 81.2002 304.759 81.6002 305.001 82.0802C305.243 82.6402 305.405 83.2002 305.405 83.8402C305.405 84.8802 305.082 85.8402 304.355 86.5602C303.71 87.2802 302.418 87.6802 300.723 87.6802H297.495V92.8802H295.881ZM297.576 86.2402H300.804C301.853 86.2402 302.66 86.0002 303.064 85.6002C303.468 85.2002 303.71 84.6402 303.71 83.9202C303.71 83.3602 303.548 82.9602 303.306 82.5602C303.064 82.1602 302.66 81.9202 302.257 81.8402C302.015 81.7602 301.45 81.7602 300.723 81.7602H297.495V86.2402H297.576Z" fill="white"/>
<path d="M316.461 80.2402H318.075V87.6002C318.075 88.8802 317.914 89.9202 317.672 90.6402C317.349 91.3602 316.864 92.0002 316.138 92.4802C315.412 92.9602 314.443 93.2002 313.233 93.2002C312.022 93.2002 311.134 92.9602 310.327 92.5602C309.52 92.1602 309.036 91.5202 308.713 90.8002C308.39 90.0802 308.229 88.9602 308.229 87.6002V80.2402H309.843V87.6002C309.843 88.7202 309.923 89.5202 310.166 90.0002C310.408 90.4802 310.731 90.9602 311.215 91.2002C311.699 91.5202 312.345 91.6002 312.99 91.6002C314.201 91.6002 315.089 91.3602 315.573 90.7202C316.057 90.1602 316.38 89.1202 316.38 87.5202V80.2402H316.461Z" fill="white"/>
<path d="M321.869 92.8802V80.1602H323.483V92.8802H321.869Z" fill="white"/>
<path d="M326.55 88.7999L328.083 88.6399C328.164 89.2799 328.325 89.7599 328.568 90.2399C328.81 90.6399 329.294 90.9599 329.859 91.1999C330.424 91.4399 331.07 91.5999 331.796 91.5999C332.442 91.5999 333.007 91.5199 333.491 91.2799C333.975 91.0399 334.298 90.7999 334.54 90.4799C334.782 90.1599 334.863 89.7599 334.863 89.3599C334.863 88.9599 334.782 88.6399 334.54 88.3199C334.298 87.9999 333.975 87.7599 333.41 87.5999C333.087 87.4399 332.361 87.2799 331.15 86.9599C330.02 86.6399 329.213 86.3999 328.729 86.1599C328.164 85.8399 327.68 85.4399 327.357 84.9599C327.034 84.4799 326.953 83.9999 326.953 83.3599C326.953 82.7199 327.115 82.1599 327.518 81.5999C327.841 81.0399 328.406 80.6399 329.052 80.3199C329.778 79.9999 330.505 79.9199 331.312 79.9199C332.199 79.9199 333.087 80.0799 333.733 80.3999C334.379 80.7199 335.024 81.1199 335.347 81.7599C335.751 82.3199 335.912 83.0399 335.993 83.7599L334.379 83.9199C334.298 83.1199 333.975 82.4799 333.491 82.0799C333.007 81.6799 332.28 81.4399 331.312 81.4399C330.343 81.4399 329.617 81.5999 329.132 81.9999C328.648 82.3999 328.487 82.7999 328.487 83.3599C328.487 83.8399 328.648 84.1599 328.971 84.4799C329.294 84.7999 330.101 85.0399 331.473 85.3599C332.845 85.6799 333.733 85.9199 334.217 86.1599C334.944 86.4799 335.509 86.9599 335.831 87.4399C336.154 87.9999 336.316 88.5599 336.316 89.2799C336.316 89.9199 336.154 90.5599 335.751 91.1999C335.347 91.7599 334.782 92.2399 334.136 92.5599C333.491 92.8799 332.603 93.0399 331.715 93.0399C330.585 93.0399 329.617 92.8799 328.89 92.5599C328.164 92.2399 327.518 91.7599 327.115 91.0399C326.792 90.3999 326.55 89.6799 326.55 88.7999Z" fill="white"/>
<path d="M350.198 92.8801H348.665V82.9601C348.261 83.2801 347.777 83.6801 347.212 84.0001C346.647 84.3201 346.082 84.6401 345.598 84.8001V83.2801C346.485 82.8801 347.212 82.4001 347.858 81.7601C348.503 81.2001 348.987 80.6401 349.23 80.0801H350.198V92.8801Z" fill="white"/>
<path d="M357.139 86.0001C356.493 85.7601 356.009 85.4401 355.686 84.9601C355.363 84.5601 355.202 84.0001 355.202 83.3601C355.202 82.4001 355.525 81.6801 356.17 81.0401C356.816 80.4001 357.704 80.0801 358.753 80.0801C359.883 80.0801 360.69 80.4001 361.416 81.0401C362.143 81.6801 362.385 82.4801 362.385 83.3601C362.385 83.9201 362.223 84.4801 361.901 84.8801C361.578 85.2801 361.174 85.6801 360.529 85.9201C361.336 86.1601 361.901 86.5601 362.304 87.1201C362.708 87.6801 362.869 88.4001 362.869 89.1201C362.869 90.2401 362.466 91.1201 361.739 91.8401C361.013 92.5601 359.964 92.9601 358.753 92.9601C357.542 92.9601 356.493 92.5601 355.767 91.8401C355.04 91.1201 354.637 90.1601 354.637 89.0401C354.637 88.2401 354.879 87.5201 355.282 86.9601C355.767 86.5601 356.412 86.2401 357.139 86.0001ZM356.332 89.2001C356.332 89.6801 356.412 90.0801 356.654 90.4801C356.897 90.8801 357.139 91.2001 357.542 91.4401C357.946 91.6801 358.43 91.7601 358.834 91.7601C359.56 91.7601 360.206 91.5201 360.609 91.0401C361.093 90.5601 361.336 89.9201 361.336 89.2001C361.336 88.4801 361.093 87.8401 360.609 87.3601C360.125 86.8801 359.479 86.6401 358.753 86.6401C358.027 86.6401 357.462 86.8801 356.977 87.3601C356.493 87.8401 356.332 88.4801 356.332 89.2001ZM356.816 83.3601C356.816 84.0001 356.977 84.4801 357.381 84.8001C357.784 85.1201 358.269 85.3601 358.834 85.3601C359.399 85.3601 359.883 85.2001 360.286 84.8001C360.69 84.4001 360.851 83.9201 360.851 83.4401C360.851 82.8801 360.69 82.4001 360.286 82.0001C359.883 81.6001 359.399 81.4401 358.834 81.4401C358.269 81.4401 357.784 81.6001 357.381 82.0001C357.058 82.4001 356.816 82.8801 356.816 83.3601Z" fill="white"/>
<path d="M373.281 91.4401V92.9601H365.049C365.049 92.5601 365.13 92.2401 365.21 91.8401C365.452 91.2801 365.775 90.7201 366.259 90.1601C366.744 89.6001 367.389 88.9601 368.277 88.2401C369.649 87.1201 370.537 86.2401 371.021 85.5201C371.506 84.8801 371.748 84.2401 371.748 83.6801C371.748 83.0401 371.506 82.5601 371.102 82.0801C370.698 81.6801 370.134 81.4401 369.407 81.4401C368.681 81.4401 368.116 81.6801 367.632 82.0801C367.228 82.5601 366.986 83.1201 366.986 83.9201L365.372 83.7601C365.452 82.5601 365.856 81.6801 366.582 81.0401C367.309 80.4001 368.197 80.0801 369.407 80.0801C370.618 80.0801 371.586 80.4001 372.232 81.1201C372.878 81.8401 373.281 82.6401 373.281 83.6001C373.281 84.0801 373.2 84.6401 372.958 85.1201C372.716 85.6001 372.393 86.1601 371.909 86.6401C371.425 87.1201 370.618 87.9201 369.569 88.8801C368.681 89.6801 368.035 90.1601 367.793 90.4801C367.551 90.8001 367.309 91.0401 367.147 91.3601H373.281V91.4401Z" fill="white"/>
<path d="M375.702 81.8403V80.3203H383.773V81.5203C382.966 82.4003 382.159 83.5203 381.433 84.9603C380.625 86.4003 380.06 87.8403 379.657 89.3603C379.334 90.4003 379.173 91.6003 379.092 92.8803H377.478C377.478 91.9203 377.72 90.6403 378.043 89.2803C378.366 87.9203 378.931 86.4803 379.657 85.2003C380.383 83.9203 381.11 82.8003 381.836 81.8403H375.702Z" fill="white"/>
</svg>
