<svg width="185" height="186" viewBox="0 0 185 186" fill="none" xmlns="http://www.w3.org/2000/svg">
<g clip-path="url(#clip0_718_729)" filter="url(#filter0_d_718_729)">
<path d="M100.305 8.17865C101.616 7.80874 101.516 6.25958 100.077 5.99815C98.3838 5.69035 96.6916 5.38349 95.0003 5.07755C91.8715 4.51296 92.1827 0.969645 95.1198 0.277114C97.6261 -0.30973 101.566 0.101895 102.856 2.71905C102.904 2.81547 102.877 2.88222 102.775 2.9193L101.6 3.34205C101.501 3.37728 101.423 3.35225 101.363 3.26696C100.088 1.43968 97.1371 1.24221 95.2948 1.74561C94.6539 1.91991 94.4196 2.3306 94.5918 2.97771C94.6013 3.01689 94.6192 3.05357 94.6441 3.08524C94.669 3.11692 94.7005 3.14285 94.7363 3.16127C96.1062 3.86215 97.8734 3.92333 99.3683 4.2098C101.227 4.56858 103.328 5.01636 102.939 7.33315C102.419 10.4064 98.0068 10.0838 95.7672 9.53311C94.1926 9.14745 93.0284 8.31678 92.2744 7.04111C92.2617 7.01933 92.2537 6.99507 92.251 6.97C92.2483 6.94493 92.251 6.91964 92.259 6.89586C92.2669 6.87209 92.2798 6.85039 92.2969 6.83226C92.3139 6.81412 92.3347 6.79998 92.3578 6.7908L93.5415 6.32911C93.6341 6.29388 93.7082 6.31706 93.7638 6.39865C95.1587 8.44565 98.2041 8.77383 100.305 8.17865Z" fill="white"/>
<path d="M86.5206 6.90234L85.8121 0.494339C85.8105 0.482637 85.8113 0.470743 85.8144 0.459348C85.8175 0.447954 85.8228 0.437287 85.83 0.427969C85.8373 0.418651 85.8463 0.410868 85.8566 0.405073C85.8668 0.399278 85.8782 0.395586 85.8899 0.394214L87.3542 0.227339C87.3659 0.225783 87.3778 0.226571 87.3892 0.229656C87.4006 0.232742 87.4112 0.238063 87.4205 0.24531C87.4298 0.252558 87.4376 0.261586 87.4434 0.27187C87.4492 0.282155 87.4529 0.293489 87.4543 0.305214L88.4518 9.26362C88.4541 9.28681 88.4473 9.31 88.4328 9.3282C88.4182 9.34641 88.3971 9.35817 88.374 9.36096L87.0402 9.50281C87.0172 9.50488 86.9943 9.4979 86.9763 9.48334L79.6074 3.67331C79.5935 3.66292 79.5769 3.65681 79.5596 3.65573C79.5424 3.65464 79.5252 3.65862 79.5101 3.66718C79.4951 3.67575 79.4828 3.68852 79.4749 3.70393C79.467 3.71935 79.4638 3.73674 79.4656 3.75396L80.1825 10.1731C80.1841 10.1848 80.1833 10.1967 80.1802 10.2081C80.1771 10.2195 80.1718 10.2301 80.1646 10.2395C80.1573 10.2488 80.1483 10.2566 80.138 10.2624C80.1278 10.2682 80.1164 10.2718 80.1047 10.2732L78.6348 10.4429C78.6231 10.4444 78.6112 10.4436 78.5999 10.4406C78.5885 10.4375 78.5778 10.4321 78.5685 10.4249C78.5592 10.4177 78.5514 10.4086 78.5456 10.3983C78.5399 10.3881 78.5362 10.3767 78.5348 10.365L77.5428 1.42606C77.5396 1.40284 77.5457 1.37931 77.5598 1.36057C77.5738 1.34182 77.5947 1.32938 77.6178 1.32593L78.9488 1.1674C78.9715 1.16454 78.9943 1.17052 79.0127 1.18409L86.3761 6.983C86.3899 6.99432 86.4068 7.00122 86.4246 7.00281C86.4424 7.00439 86.4602 7.00059 86.4758 6.99189C86.4914 6.98319 86.504 6.96999 86.512 6.95402C86.52 6.93805 86.523 6.92004 86.5206 6.90234Z" fill="white"/>
<path d="M73.7382 8.82901C73.1992 12.3195 68.6199 13.9576 65.619 13.4042C63.2127 12.9592 61.6789 10.5979 61.9762 8.21991C62.4319 4.60429 67.2251 2.86601 70.2732 3.54185C72.6101 4.06194 74.0994 6.48441 73.7382 8.82901ZM71.9882 7.19708C71.7203 6.32026 71.029 5.61232 70.0662 5.22899C69.1034 4.84566 67.9481 4.81835 66.8543 5.15306C65.7606 5.48777 64.818 6.15708 64.234 7.01376C63.65 7.87044 63.4723 8.84431 63.7401 9.72112C64.0079 10.5979 64.6993 11.3059 65.6621 11.6892C66.6249 12.0725 67.7802 12.0999 68.874 11.7651C69.9677 11.4304 70.9103 10.7611 71.4943 9.90444C72.0783 9.04776 72.256 8.07389 71.9882 7.19708Z" fill="white"/>
<path d="M121.481 5.12017C121.493 5.09272 121.515 5.07093 121.543 5.05949C121.57 5.04806 121.601 5.04787 121.629 5.05899L127.155 7.33961C128.247 7.7902 129.127 8.62643 129.602 9.66437C130.077 10.7023 130.109 11.8569 129.69 12.8743L129.359 13.6753C128.94 14.6924 128.105 15.489 127.037 15.8901C125.969 16.2912 124.757 16.2638 123.665 15.8141L118.139 13.5335C118.111 13.5218 118.089 13.4998 118.078 13.4722C118.067 13.4447 118.066 13.4137 118.078 13.3861L121.481 5.12017ZM122.396 7.23392L120.189 12.5406C120.177 12.5699 120.171 12.6015 120.171 12.6333C120.17 12.6652 120.177 12.6968 120.189 12.7262C120.201 12.7557 120.219 12.7825 120.241 12.805C120.264 12.8276 120.29 12.8454 120.32 12.8576L123.927 14.3595C124.67 14.6694 125.497 14.6929 126.226 14.4248C126.954 14.1567 127.524 13.619 127.811 12.9299L128.042 12.3737C128.328 11.6847 128.307 10.9009 127.984 10.1947C127.661 9.48856 127.062 8.91777 126.319 8.60786L122.712 7.10599C122.653 7.08096 122.587 7.08038 122.528 7.10437C122.468 7.12836 122.421 7.17495 122.396 7.23392Z" fill="white"/>
<path d="M51.6617 16.2699L53.29 19.4127C53.3049 19.441 53.3141 19.4719 53.3171 19.5038C53.32 19.5356 53.3165 19.5677 53.307 19.5982C53.2974 19.6288 53.2819 19.6571 53.2614 19.6816C53.2408 19.706 53.2156 19.7262 53.1872 19.7409L52.0702 20.311C52.0509 20.3211 52.0298 20.3272 52.0081 20.329C51.9864 20.3308 51.9646 20.3282 51.9439 20.3215C51.9232 20.3148 51.9041 20.304 51.8876 20.2898C51.8711 20.2756 51.8576 20.2582 51.8479 20.2387L47.7772 12.3761C47.7345 12.2964 47.7531 12.2352 47.8327 12.1926C50.3983 10.7927 52.3536 9.78029 53.6985 9.15543C55.0137 8.54356 56.0918 8.63441 56.9328 9.428C58.4361 10.8464 57.7192 12.4818 56.3048 13.6249C56.2011 13.7102 56.2048 13.7899 56.3159 13.8641L58.2388 15.1852C58.3106 15.2336 58.3971 15.2553 58.4833 15.2464C59.0927 15.1907 59.5938 14.9256 59.9865 14.4509C60.0829 14.3323 60.1662 14.3406 60.2366 14.476L60.7673 15.5106C60.8118 15.5996 60.8016 15.6821 60.7368 15.7581C60.0847 16.5239 59.303 16.9123 58.3916 16.9235C57.169 16.9346 56.416 16.0251 55.4851 15.2269C54.4015 14.3007 52.737 15.5217 51.7256 16.0641C51.6367 16.1123 51.6154 16.1809 51.6617 16.2699ZM49.9306 12.9824L50.8031 14.6651C50.8297 14.7152 50.875 14.7527 50.9292 14.7694C50.9834 14.7861 51.042 14.7806 51.0921 14.7541L54.9155 12.7627C55.1221 12.6552 55.3144 12.5251 55.4816 12.38C55.6487 12.2348 55.7873 12.0774 55.8895 11.9168C55.9916 11.7561 56.0554 11.5954 56.0771 11.4437C56.0988 11.292 56.078 11.1524 56.0159 11.0328L55.888 10.7908C55.7618 10.5501 55.4755 10.4056 55.0921 10.3889C54.7087 10.3722 54.2594 10.4848 53.8429 10.7018L50.0195 12.6932C49.9694 12.7198 49.932 12.7652 49.9153 12.8194C49.8986 12.8736 49.9041 12.9323 49.9306 12.9824Z" fill="white"/>
<path d="M135.497 15.7499L138.9 17.8915C138.929 17.9093 138.949 17.9377 138.957 17.9705C138.965 18.0033 138.96 18.0379 138.942 18.0667L138.281 19.1208C138.272 19.1351 138.26 19.1475 138.246 19.1573C138.232 19.167 138.217 19.1739 138.2 19.1775C138.183 19.1811 138.166 19.1814 138.15 19.1784C138.133 19.1753 138.117 19.169 138.103 19.1597L134.702 17.0126C134.688 17.0033 134.672 16.997 134.655 16.994C134.638 16.9909 134.621 16.9912 134.605 16.9948C134.588 16.9985 134.573 17.0053 134.559 17.0151C134.545 17.0248 134.533 17.0372 134.524 17.0515L133.351 18.9205C133.334 18.9493 133.328 18.9839 133.336 19.0167C133.344 19.0495 133.365 19.0779 133.393 19.0958L139.417 22.8922C139.446 22.91 139.466 22.9384 139.474 22.9712C139.482 23.004 139.476 23.0386 139.459 23.0674L138.798 24.1187C138.779 24.1469 138.751 24.1668 138.718 24.174C138.685 24.1813 138.651 24.1754 138.623 24.1576L131.192 19.474C131.178 19.4652 131.165 19.4535 131.155 19.4398C131.145 19.426 131.138 19.4104 131.134 19.3938C131.13 19.3772 131.13 19.36 131.133 19.3432C131.135 19.3264 131.142 19.3104 131.151 19.296L135.902 11.7393C135.911 11.725 135.923 11.7126 135.937 11.7029C135.951 11.6931 135.966 11.6863 135.983 11.6826C136 11.679 136.017 11.6787 136.033 11.6818C136.05 11.6848 136.066 11.6912 136.08 11.7004L143.043 16.092C143.058 16.1011 143.07 16.1129 143.08 16.1267C143.09 16.1406 143.096 16.1563 143.1 16.1729C143.104 16.1894 143.104 16.2065 143.101 16.2232C143.098 16.2399 143.092 16.2558 143.082 16.27L142.415 17.3158C142.406 17.3301 142.395 17.3425 142.381 17.3522C142.367 17.362 142.351 17.3688 142.335 17.3725C142.318 17.3761 142.301 17.3764 142.284 17.3733C142.268 17.3703 142.252 17.3639 142.238 17.3547L136.686 13.8475C136.657 13.8297 136.623 13.8238 136.59 13.8311C136.558 13.8384 136.529 13.8583 136.511 13.8865L135.455 15.5747C135.437 15.6035 135.432 15.6381 135.44 15.6709C135.448 15.7037 135.468 15.7321 135.497 15.7499Z" fill="white"/>
<path d="M45.2579 22.0453L41.6262 24.7793C41.591 24.8052 41.5636 24.8404 41.5469 24.8811C41.5303 24.9218 41.525 24.9664 41.5318 25.0101L41.8958 27.3686C41.9124 27.4669 41.8809 27.5457 41.8013 27.605L40.6537 28.4728C40.524 28.5692 40.4481 28.5377 40.4259 28.3782L39.0393 18.6132C39.0186 18.4649 39.038 18.3138 39.0955 18.1755C39.153 18.0373 39.2465 17.917 39.3663 17.8272C39.4861 17.7374 39.6277 17.6815 39.7764 17.6651C39.9252 17.6488 40.0755 17.6727 40.2119 17.7344L49.2314 21.8117C49.3462 21.8636 49.3527 21.9276 49.2508 22.0036L47.9365 22.9909C47.8587 23.0503 47.7745 23.0595 47.6837 23.0187L45.5441 22.0175C45.4441 21.9693 45.3487 21.9786 45.2579 22.0453ZM41.2317 23.0382C41.2341 23.0541 41.2406 23.069 41.2506 23.0816C41.2606 23.0941 41.2736 23.1038 41.2885 23.1097C41.3034 23.1157 41.3196 23.1176 41.3355 23.1152C41.3513 23.1129 41.3663 23.1065 41.3789 23.0966L43.7325 21.3277C43.7456 21.3183 43.756 21.3055 43.7626 21.2908C43.7692 21.276 43.7718 21.2597 43.7701 21.2436C43.7684 21.2275 43.7625 21.2122 43.7529 21.1991C43.7434 21.186 43.7306 21.1757 43.7158 21.1692L40.8899 19.8565C40.8749 19.8498 40.8584 19.8473 40.8421 19.8492C40.8258 19.8512 40.8103 19.8574 40.7973 19.8673C40.7842 19.8773 40.7741 19.8906 40.7679 19.9058C40.7617 19.921 40.7597 19.9376 40.7621 19.9538L41.2317 23.0382Z" fill="white"/>
<path d="M92.5392 29.3928L86.4873 33.4034C86.3224 33.5128 86.2826 33.4785 86.3678 33.3005C89.1353 27.4877 91.0498 23.1545 92.6281 17.8507C92.6707 17.706 92.7124 17.706 92.7531 17.8507C94.3481 23.5133 96.6377 28.2331 98.9856 33.3005C99.0616 33.4637 99.0245 33.4952 98.8745 33.3951L92.8309 29.3928C92.7878 29.3647 92.7373 29.3497 92.6855 29.3497C92.6337 29.3497 92.5829 29.3647 92.5392 29.3928Z" fill="white"/>
<path d="M118.366 35.2759C118.349 35.2462 118.323 35.2225 118.292 35.2076C118.261 35.1928 118.226 35.1875 118.191 35.1924L110.975 36.138C110.956 36.1407 110.936 36.137 110.919 36.1273C110.902 36.1176 110.889 36.1025 110.881 36.0844C110.873 36.0663 110.872 36.0463 110.877 36.0273C110.882 36.0083 110.893 35.9915 110.909 35.9795C115.265 32.5057 119.514 29.0375 123.257 24.8823C123.353 24.7748 123.389 24.7915 123.365 24.9324C122.359 30.6534 122.273 36.0184 122.229 41.5976C122.228 41.6117 122.223 41.6251 122.214 41.6361C122.205 41.6471 122.193 41.6549 122.18 41.6586C122.166 41.6623 122.152 41.6617 122.139 41.6567C122.125 41.6517 122.114 41.6427 122.106 41.631L118.366 35.2759Z" fill="white"/>
<path d="M67.0088 35.3866L63.3187 41.6527C63.2335 41.7992 63.1872 41.7872 63.1798 41.6166C63.1261 40.2056 63.0983 38.8038 63.0964 37.4113C63.0909 33.2283 62.7324 29.0713 62.0211 24.9402C62.0196 24.9319 62.0209 24.9234 62.0247 24.916C62.0284 24.9085 62.0345 24.9024 62.042 24.8986C62.0495 24.8949 62.058 24.8937 62.0663 24.8951C62.0745 24.8966 62.0821 24.9007 62.0878 24.9068C65.8251 29.1288 70.1514 32.5414 74.4972 36.0986C74.6288 36.2061 74.6093 36.2488 74.4389 36.2265L67.2227 35.2837C67.1809 35.2778 67.1383 35.2844 67.1002 35.3027C67.0621 35.321 67.0303 35.3502 67.0088 35.3866Z" fill="white"/>
<path d="M34.885 27.5399C35.3962 27.4305 35.8149 27.4574 36.1409 27.6205C38.4583 28.7831 37.9137 31.0915 36.3882 32.6991C34.9563 34.2084 33.5077 35.7019 32.0424 37.1797C31.9646 37.2576 31.8859 37.2585 31.8062 37.1825L25.4264 31.0665C25.3598 31.0034 25.3579 30.9386 25.4209 30.8718C26.8862 29.3069 28.3468 27.767 29.8028 26.2521C31.5228 24.461 34.5043 24.3081 34.7377 27.4314C34.7433 27.5241 34.7923 27.5603 34.885 27.5399ZM27.6549 30.9052L29.0276 32.2291C29.0627 32.2625 29.1095 32.2806 29.1579 32.2796C29.2063 32.2785 29.2524 32.2584 29.286 32.2235L32.5231 28.8554C32.823 28.5434 33.0311 28.1677 33.102 27.8106C33.1728 27.4534 33.1006 27.1441 32.901 26.9502L32.776 26.8306C32.6767 26.7348 32.5491 26.6703 32.4004 26.6409C32.2518 26.6115 32.0849 26.6178 31.9095 26.6594C31.734 26.701 31.5534 26.777 31.3778 26.8833C31.2023 26.9895 31.0354 27.1238 30.8865 27.2784L27.6494 30.6465C27.616 30.6816 27.5978 30.7285 27.5989 30.777C27.5999 30.8255 27.6201 30.8715 27.6549 30.9052ZM30.3724 33.5251L31.8618 34.9519C31.8833 34.9727 31.9087 34.9891 31.9366 35.0001C31.9644 35.0111 31.9942 35.0165 32.0241 35.016C32.054 35.0155 32.0836 35.009 32.111 34.9971C32.1385 34.9851 32.1633 34.9679 32.1841 34.9463L35.3434 31.6478C35.5101 31.474 35.6555 31.283 35.7714 31.0859C35.8872 30.8888 35.9713 30.6893 36.0188 30.4989C36.0663 30.3086 36.0762 30.131 36.0481 29.9764C36.0199 29.8218 35.9542 29.6932 35.8547 29.598L35.5491 29.306C35.3483 29.1139 35.0225 29.0691 34.6432 29.1812C34.2639 29.2933 33.8621 29.5533 33.5262 29.9039L30.3669 33.2025C30.3461 33.224 30.3297 33.2495 30.3187 33.2773C30.3077 33.3052 30.3024 33.335 30.3029 33.365C30.3034 33.3949 30.3098 33.4245 30.3217 33.452C30.3337 33.4795 30.3509 33.5043 30.3724 33.5251Z" fill="white"/>
<path d="M156.845 36.3131C156.593 37.0306 156.323 37.7408 156.034 38.4435C155.753 39.1249 156.481 39.7229 157.103 40.179C157.198 40.2495 157.201 40.3227 157.112 40.3987L156.245 41.1385C156.173 41.2016 156.093 41.2108 156.006 41.1663C154.563 40.4098 154.024 39.3038 154.389 37.8483C154.586 37.0584 155.342 36.1851 155.478 35.259C155.597 34.4302 154.164 33.0367 153.655 32.4388C153.643 32.4235 153.627 32.4109 153.61 32.4018C153.592 32.3927 153.573 32.3871 153.553 32.3856C153.533 32.384 153.514 32.3865 153.495 32.3927C153.476 32.399 153.459 32.409 153.444 32.4221L150.71 34.7722C150.672 34.8041 150.624 34.8199 150.575 34.8163C150.526 34.8126 150.481 34.7898 150.449 34.7528L149.587 33.7404C149.52 33.6625 149.526 33.5902 149.604 33.5235L156.334 27.7468C156.413 27.6782 156.488 27.6838 156.559 27.7635C157.316 28.6442 158.692 30.2648 160.685 32.6251C163.128 35.5204 160.054 39.0248 157.023 36.2686C156.941 36.1944 156.882 36.2092 156.845 36.3131ZM156.27 29.9746L154.794 31.2428C154.776 31.2588 154.76 31.2784 154.749 31.3004C154.738 31.3223 154.731 31.3463 154.73 31.3709C154.728 31.3955 154.731 31.4201 154.739 31.4435C154.746 31.4669 154.759 31.4885 154.775 31.5071L157.609 34.8056C157.76 34.9814 157.93 35.1383 158.108 35.2671C158.287 35.396 158.471 35.4944 158.649 35.5566C158.828 35.6189 158.998 35.6438 159.15 35.63C159.302 35.6161 159.433 35.5638 159.535 35.4759L159.74 35.2979C159.843 35.2104 159.914 35.0892 159.95 34.941C159.987 34.7929 159.988 34.6207 159.953 34.4345C159.919 34.2482 159.849 34.0515 159.749 33.8556C159.648 33.6597 159.519 33.4684 159.368 33.2926L156.531 29.9941C156.499 29.957 156.453 29.9342 156.404 29.9306C156.356 29.9269 156.307 29.9427 156.27 29.9746Z" fill="white"/>
<path d="M93.4778 31.5469H91.8829C91.8338 31.5469 91.7939 31.5867 91.7939 31.6359V48.7406C91.7939 48.7897 91.8338 48.8296 91.8829 48.8296H93.4778C93.5269 48.8296 93.5667 48.7897 93.5667 48.7406V31.6359C93.5667 31.5867 93.5269 31.5469 93.4778 31.5469Z" fill="white"/>
<path d="M118.019 37.5289L116.645 36.8583C116.584 36.8287 116.511 36.8539 116.482 36.9147L109 52.2683C108.971 52.329 108.996 52.4023 109.056 52.4319L110.43 53.1025C110.491 53.1321 110.564 53.1069 110.593 53.0461L118.075 37.6925C118.105 37.6318 118.079 37.5585 118.019 37.5289Z" fill="white"/>
<path d="M68.7488 36.9381L67.3652 37.6136C67.3059 37.6425 67.2813 37.7141 67.3102 37.7735L74.6893 52.9171C74.7182 52.9765 74.7898 53.0011 74.8491 52.9722L76.2327 52.2967C76.292 52.2678 76.3166 52.1962 76.2877 52.1368L68.9085 36.9932C68.8796 36.9338 68.8081 36.9092 68.7488 36.9381Z" fill="white"/>
<path d="M168.401 51.0691C162.53 55.8918 155.681 44.4219 161.841 41.2013C167.384 38.3004 172.741 47.5064 168.401 51.0691ZM166.866 50.163C167.258 49.9366 167.59 49.6157 167.844 49.2188C168.098 48.8218 168.268 48.3565 168.345 47.8495C168.422 47.3425 168.404 46.8036 168.293 46.2637C168.181 45.7238 167.978 45.1934 167.695 44.7029C167.124 43.7121 166.261 42.9435 165.297 42.5663C164.334 42.1891 163.348 42.2341 162.556 42.6914C162.164 42.9179 161.832 43.2387 161.578 43.6357C161.325 44.0326 161.155 44.4979 161.078 45.0049C161.001 45.512 161.018 46.0508 161.13 46.5907C161.241 47.1306 161.444 47.661 161.727 48.1516C162.299 49.1424 163.161 49.9109 164.125 50.2882C165.089 50.6654 166.075 50.6204 166.866 50.163Z" fill="white"/>
<path d="M138.612 51.6617L131.746 49.3561C131.562 49.2949 131.565 49.243 131.754 49.2003C138.034 47.7596 142.452 46.7945 147.715 44.6196C147.811 44.5807 147.83 44.6048 147.77 44.6919C144.61 49.2587 141.882 54.0749 139.587 59.1405C139.576 59.1652 139.557 59.1856 139.533 59.1984C139.51 59.2112 139.482 59.2158 139.455 59.2113C139.429 59.2069 139.404 59.1937 139.386 59.1738C139.368 59.154 139.356 59.1285 139.354 59.1016L138.762 51.8536C138.755 51.7572 138.705 51.6932 138.612 51.6617Z" fill="white"/>
<path d="M46.6659 52.0068L46.0851 59.3076C46.0836 59.3252 46.0763 59.3417 46.0644 59.3548C46.0525 59.3678 46.0366 59.3765 46.0193 59.3797C46.0019 59.3829 45.984 59.3802 45.9683 59.3722C45.9526 59.3642 45.94 59.3513 45.9323 59.3354C43.4843 54.2958 40.9113 49.4091 37.6241 44.8673C37.5482 44.7617 37.5704 44.7338 37.6908 44.7839C42.9592 46.9032 48.2469 48.0213 53.7236 49.3757C53.8718 49.4128 53.8737 49.4555 53.7292 49.5037L46.802 51.8288C46.7648 51.8421 46.7322 51.8659 46.7081 51.8974C46.6839 51.929 46.6693 51.967 46.6659 52.0068Z" fill="white"/>
<path d="M20.2855 51.0029C19.8659 50.2937 19.0295 50.416 18.5683 51.0919C17.4457 52.7439 16.6492 54.0057 16.1787 54.8772C15.609 55.934 14.4726 57.333 13.1249 56.9909C10.9381 56.4347 10.9576 54.4544 11.5105 52.6216C12.1913 50.3743 13.7473 47.7739 16.337 47.4707C16.4537 47.4577 16.5112 47.5096 16.5093 47.6265L16.4954 48.8641C16.4936 48.942 16.4556 48.992 16.3815 49.0143C14.6698 49.5233 13.8918 50.7136 13.2111 52.2795C12.8748 53.0471 12.3108 54.4628 13.0805 55.1414C13.2067 55.2518 13.3713 55.3082 13.5386 55.2983C13.706 55.2884 13.8628 55.2131 13.9752 55.0885C15.4451 53.4587 16.337 51.1698 17.6013 49.6401C18.6489 48.369 20.3327 48.5192 21.3608 49.6762C23.0669 51.5897 21.0663 55.4223 19.7381 57.0577C18.8823 58.1108 17.7995 58.7311 16.4899 58.9183C16.4666 58.9219 16.4428 58.9204 16.4202 58.9138C16.3975 58.9072 16.3765 58.8957 16.3586 58.8802C16.3407 58.8646 16.3263 58.8453 16.3163 58.8236C16.3063 58.8018 16.3011 58.7782 16.3009 58.7542L16.2981 57.5694C16.2981 57.4637 16.3491 57.3951 16.451 57.3636C17.8366 56.939 18.8434 56.1111 19.4714 54.88C19.966 53.9093 20.894 52.032 20.2855 51.0029Z" fill="white"/>
<path d="M136.351 52.483L123.034 62.8973C122.971 62.9465 122.96 63.0374 123.009 63.1003L123.926 64.275C123.975 64.338 124.066 64.3491 124.129 64.2999L137.446 53.8857C137.509 53.8365 137.52 53.7456 137.471 53.6827L136.554 52.508C136.505 52.445 136.414 52.4339 136.351 52.483Z" fill="white"/>
<path d="M62.0578 62.7767L49.0909 52.6364C49.0305 52.5891 48.9431 52.5998 48.8959 52.6604L47.9721 53.8439C47.9249 53.9044 47.9356 53.9918 47.9961 54.0391L60.9629 64.1793C61.0234 64.2266 61.1107 64.2159 61.1579 64.1554L62.0817 62.9719C62.129 62.9114 62.1182 62.824 62.0578 62.7767Z" fill="white"/>
<path d="M173.2 56.9049L171.808 53.2392C171.796 53.2075 171.797 53.1724 171.811 53.1417C171.825 53.1109 171.851 53.087 171.883 53.0751L173.039 52.6329C173.07 52.6212 173.105 52.6225 173.136 52.6366C173.167 52.6507 173.191 52.6763 173.203 52.708L176.659 61.8305C176.665 61.8464 176.667 61.8633 176.667 61.8801C176.666 61.897 176.662 61.9135 176.654 61.9288C176.647 61.944 176.637 61.9577 176.625 61.969C176.612 61.9803 176.597 61.989 176.581 61.9946L175.42 62.4201C175.388 62.4318 175.353 62.4305 175.322 62.4164C175.292 62.4024 175.268 62.3767 175.256 62.345L173.881 58.696C173.869 58.6644 173.845 58.6387 173.814 58.6246C173.783 58.6106 173.748 58.6092 173.717 58.6209L166.776 61.2631C166.744 61.2748 166.709 61.2735 166.678 61.2594C166.647 61.2454 166.623 61.2197 166.612 61.188L166.106 59.8753C166.094 59.8439 166.095 59.8091 166.109 59.7785C166.122 59.7478 166.147 59.7236 166.178 59.7112L173.125 57.069C173.156 57.0571 173.182 57.0332 173.196 57.0025C173.21 56.9717 173.211 56.9366 173.2 56.9049Z" fill="white"/>
<path d="M97.1096 86.2711C100.533 90.8064 103.98 95.3185 107.452 99.8074C109.034 101.853 110.247 103.248 111.092 103.993C114.996 107.434 120.998 109.511 125.969 106.983C126.078 106.927 126.15 106.958 126.185 107.075L126.352 107.631C126.387 107.752 126.354 107.848 126.252 107.92C123.585 109.821 120.601 110.721 117.302 110.621C111.025 110.426 106.221 106.852 102.567 101.996C98.7583 96.9344 94.9719 91.8697 91.2077 86.8023C91.1902 86.7785 91.1787 86.7508 91.1744 86.7215C91.17 86.6922 91.1729 86.6622 91.1827 86.6341C91.1925 86.6059 91.209 86.5805 91.2308 86.5599C91.2526 86.5393 91.279 86.5242 91.3078 86.5158C94.3995 85.6536 97.4078 84.5041 100.333 83.0671C104.392 81.0729 107.443 77.7855 107.796 73.1464C108.156 68.3867 106.366 64.912 102.428 62.7222C97.607 60.0439 90.6993 60.4388 85.4615 61.988C79.3929 63.7819 74.3191 67.9983 73.8328 74.6482C73.5967 77.8856 74.1691 81.0284 76.2475 83.501C76.4939 83.7921 77.0663 84.3743 77.9647 85.2476C78.0647 85.344 78.0481 85.4135 77.9147 85.4562L72.5713 87.1917C72.5316 87.205 72.4888 87.2067 72.4479 87.1963C72.4071 87.186 72.3699 87.1641 72.3407 87.1333C68.9841 83.5121 68.0005 78.8896 69.2342 74.1587C72.3435 62.2494 88.0595 58.7145 98.3961 59.5294C104.926 60.0439 113.84 63.8709 113.342 71.7196C112.828 79.8408 103.762 83.9181 97.1707 86.0792C97.0614 86.1144 97.041 86.1784 97.1096 86.2711Z" fill="white"/>
<path d="M14.1727 68.9884L16.0928 62.1187C16.0973 62.1024 16.1049 62.0872 16.1153 62.0739C16.1257 62.0605 16.1387 62.0494 16.1534 62.0412C16.1681 62.0329 16.1844 62.0276 16.2011 62.0256C16.2179 62.0237 16.2349 62.0251 16.2512 62.0297L17.4349 62.369C17.4511 62.3735 17.4664 62.3812 17.4797 62.3916C17.493 62.402 17.5041 62.415 17.5123 62.4297C17.5206 62.4445 17.5259 62.4607 17.5278 62.4775C17.5298 62.4943 17.5284 62.5113 17.5238 62.5276L15.1564 70.9937C15.1473 71.026 15.1259 71.0534 15.0968 71.0701C15.0676 71.0867 15.0332 71.0912 15.0008 71.0827L6.42029 68.6769C6.38802 68.6678 6.36062 68.6464 6.34399 68.6172C6.32736 68.5881 6.32283 68.5536 6.33137 68.5211L8.54595 60.5835C8.55505 60.5512 8.57646 60.5237 8.60556 60.5071C8.63467 60.4904 8.66914 60.4859 8.70156 60.4945L9.89082 60.831C9.9071 60.8355 9.92233 60.8432 9.93563 60.8536C9.94893 60.864 9.96004 60.877 9.96831 60.8917C9.97657 60.9064 9.98184 60.9227 9.9838 60.9395C9.98577 60.9563 9.98438 60.9733 9.97974 60.9895L8.20974 67.3224C8.20119 67.3549 8.20572 67.3894 8.22236 67.4185C8.23899 67.4476 8.26639 67.4691 8.29866 67.4782L10.2187 68.0094C10.2511 68.018 10.2856 68.0134 10.3147 67.9968C10.3438 67.9801 10.3652 67.9527 10.3743 67.9204L11.4524 64.0433C11.4615 64.011 11.4829 63.9836 11.512 63.967C11.5411 63.9503 11.5756 63.9458 11.608 63.9543L12.8028 64.2909C12.8351 64.3 12.8625 64.3214 12.8791 64.3505C12.8958 64.3797 12.9003 64.4142 12.8918 64.4466L11.7998 68.3292C11.7912 68.3617 11.7957 68.3962 11.8124 68.4253C11.829 68.4545 11.8564 68.4759 11.8887 68.485L14.0171 69.0774C14.0495 69.086 14.084 69.0814 14.1131 69.0648C14.1422 69.0481 14.1636 69.0207 14.1727 68.9884Z" fill="white"/>
<path d="M100.202 63.566C100.244 63.5602 100.286 63.5706 100.32 63.5949C100.354 63.6192 100.378 63.6556 100.386 63.6967L100.511 64.3559C100.529 64.4542 100.493 64.5246 100.402 64.5673C97.2597 66.0163 95.5175 68.1412 93.4696 71.2144C91.7895 73.738 90.5585 76.2346 89.7768 78.7044C87.7901 84.9789 86.762 88.8031 84.4307 93.0973C81.6215 98.276 77.1062 101.372 71.4072 102.651C71.283 102.679 71.208 102.63 71.1821 102.504L71.0709 101.961C71.0506 101.855 71.0867 101.774 71.1793 101.716C77.5063 97.8616 79.996 91.5176 82.0577 84.8009C84.0695 78.2538 86.3869 72.288 91.4634 67.6906C94.0726 65.3265 96.804 64.0555 100.202 63.566Z" fill="white"/>
<path d="M174.467 75.5346L173.22 69.2212C173.214 69.1932 173.197 69.1687 173.173 69.1531C173.149 69.1375 173.12 69.132 173.092 69.1377L169.429 69.8664C169.415 69.8692 169.401 69.8693 169.387 69.8664C169.373 69.8636 169.359 69.858 169.348 69.85C169.336 69.842 169.325 69.8317 169.318 69.8197C169.31 69.8077 169.304 69.7943 169.302 69.7802L169.027 68.359C169.024 68.3449 169.024 68.3304 169.027 68.3164C169.029 68.3023 169.035 68.2889 169.043 68.277C169.051 68.2651 169.061 68.2549 169.073 68.247C169.085 68.2391 169.099 68.2337 169.113 68.231L177.882 66.4983C177.91 66.4926 177.939 66.4981 177.963 66.5137C177.987 66.5293 178.004 66.5538 178.01 66.5818L178.299 67.9946C178.302 68.0089 178.302 68.0237 178.3 68.0381C178.297 68.0525 178.292 68.0662 178.284 68.0784C178.276 68.0906 178.265 68.1011 178.253 68.1091C178.241 68.1172 178.227 68.1227 178.213 68.1254L174.762 68.8012C174.734 68.8072 174.709 68.824 174.694 68.848C174.678 68.872 174.673 68.9011 174.678 68.9291L175.926 75.2481C175.932 75.2761 175.949 75.3006 175.973 75.3162C175.997 75.3318 176.026 75.3374 176.054 75.3316L179.505 74.6418C179.519 74.639 179.533 74.639 179.547 74.6418C179.561 74.6446 179.575 74.6502 179.587 74.6582C179.599 74.6662 179.609 74.6765 179.617 74.6885C179.625 74.7005 179.63 74.7139 179.633 74.728L179.908 76.1576C179.911 76.1717 179.911 76.1862 179.908 76.2002C179.905 76.2143 179.899 76.2277 179.891 76.2396C179.883 76.2515 179.873 76.2617 179.861 76.2696C179.849 76.2774 179.836 76.2829 179.822 76.2855L171.052 78.0266C171.024 78.0324 170.995 78.0268 170.971 78.0112C170.947 77.9956 170.93 77.9711 170.924 77.9432L170.633 76.5136C170.63 76.4995 170.63 76.485 170.633 76.471C170.635 76.4569 170.641 76.4435 170.649 76.4316C170.657 76.4197 170.667 76.4095 170.679 76.4017C170.691 76.3938 170.705 76.3883 170.719 76.3857L174.384 75.6625C174.412 75.6565 174.436 75.6397 174.452 75.6158C174.467 75.5918 174.473 75.5626 174.467 75.5346Z" fill="white"/>
<path d="M11.4077 76.9556L5.00566 76.3048C4.9936 76.3038 4.98186 76.3003 4.97113 76.2947C4.9604 76.2891 4.95089 76.2814 4.94314 76.2721C4.93539 76.2628 4.92956 76.2521 4.92598 76.2405C4.9224 76.2289 4.92115 76.2168 4.9223 76.2047L5.06679 74.7362C5.06783 74.7241 5.07126 74.7124 5.07686 74.7016C5.08246 74.6909 5.09014 74.6814 5.09944 74.6736C5.10874 74.6659 5.11948 74.66 5.13104 74.6564C5.14261 74.6529 5.15477 74.6516 5.16682 74.6528L14.1085 75.5678C14.1324 75.5706 14.1542 75.5826 14.1692 75.6014C14.1843 75.6201 14.1914 75.644 14.1891 75.6679L14.0474 77.0057C14.0455 77.0293 14.0345 77.0512 14.0168 77.0669L6.80344 83.0466C6.7898 83.058 6.77979 83.0732 6.77464 83.0903C6.76948 83.1074 6.76941 83.1256 6.77442 83.1427C6.77943 83.1598 6.78931 83.1751 6.80285 83.1866C6.81639 83.1982 6.83301 83.2056 6.85068 83.2079L13.2555 83.8587C13.2788 83.8615 13.3002 83.8731 13.3152 83.8913C13.3302 83.9094 13.3376 83.9326 13.336 83.956L13.2138 85.4301C13.2127 85.4422 13.2093 85.4539 13.2037 85.4647C13.1981 85.4754 13.1904 85.4849 13.1811 85.4927C13.1718 85.5004 13.1611 85.5063 13.1495 85.5099C13.138 85.5134 13.1258 85.5147 13.1138 85.5135L4.15817 84.5957C4.13431 84.5929 4.1125 84.5809 4.09744 84.5621C4.08237 84.5434 4.07524 84.5195 4.07759 84.4956L4.2193 83.1634C4.22123 83.1398 4.23218 83.1179 4.24986 83.1022L11.4549 77.1169C11.4685 77.1055 11.4786 77.0903 11.4837 77.0732C11.4889 77.0562 11.4889 77.038 11.4839 77.0208C11.4789 77.0037 11.469 76.9885 11.4555 76.9769C11.442 76.9653 11.4253 76.9579 11.4077 76.9556Z" fill="white"/>
<path d="M174.879 90.3319C175.153 89.8128 175.309 89.2537 175.346 88.6548C175.436 87.1733 175.572 85.6984 175.751 84.2299C175.885 83.1452 176.401 82.1523 177.535 81.8853C178.374 81.6869 179.112 81.9029 179.747 82.5333C181.086 83.8683 181.103 87.2141 180.733 88.9163C180.472 90.1159 179.826 91.1116 178.794 91.9033C178.773 91.9195 178.749 91.9308 178.723 91.9362C178.697 91.9416 178.67 91.9411 178.644 91.9347C178.619 91.9283 178.595 91.9161 178.574 91.8991C178.554 91.8821 178.538 91.8607 178.527 91.8366L178.019 90.7352C177.969 90.6277 177.987 90.5349 178.074 90.4571C179.316 89.3279 179.491 87.9901 179.444 86.3547C179.422 85.5259 179.294 84.0074 178.43 83.6124C178.345 83.5733 178.252 83.5528 178.158 83.5521C178.064 83.5514 177.972 83.5706 177.886 83.6084C177.8 83.6463 177.723 83.7019 177.66 83.7716C177.597 83.8413 177.55 83.9236 177.521 84.0129C177.363 84.5024 177.232 85.0281 177.202 85.5732C177.109 87.1066 176.949 88.6326 176.721 90.1511C176.527 91.4528 175.85 92.1861 174.693 92.3511C170.869 92.899 170.85 86.644 171.558 84.419C171.901 83.338 172.557 82.4239 173.526 81.6767C173.548 81.6593 173.574 81.6472 173.601 81.6411C173.629 81.6351 173.657 81.6353 173.685 81.6417C173.712 81.6481 173.738 81.6605 173.76 81.6781C173.782 81.6957 173.799 81.718 173.812 81.7434L174.354 82.8782C174.373 82.9196 174.378 82.9664 174.368 83.0108C174.358 83.0553 174.333 83.0948 174.298 83.1229C172.364 84.6776 172.303 87.9345 173.128 89.9064C173.421 90.6036 173.949 90.7955 174.712 90.4821C174.782 90.4513 174.841 90.3987 174.879 90.3319Z" fill="white"/>
<path d="M13.1895 90.1764L4.23461 90.4268C4.17785 90.4284 4.13312 90.4757 4.13471 90.5326L4.17521 91.9838C4.17679 92.0406 4.22409 92.0854 4.28085 92.0838L13.2357 91.8334C13.2925 91.8318 13.3372 91.7845 13.3356 91.7277L13.2951 90.2764C13.2935 90.2196 13.2462 90.1749 13.1895 90.1764Z" fill="white"/>
<path d="M11.4912 98.6L12.1609 103.094C12.1757 103.198 12.2341 103.269 12.336 103.306L14.5867 104.101C14.6626 104.129 14.7071 104.184 14.72 104.265L14.9451 105.748C14.9655 105.892 14.9081 105.94 14.7728 105.89L5.52548 102.46C5.38432 102.407 5.25991 102.317 5.16517 102.2C5.07042 102.083 5.00879 101.942 4.98668 101.793C4.96456 101.643 4.98276 101.491 5.0394 101.351C5.09603 101.211 5.18903 101.089 5.30875 100.997L13.189 94.9899C13.2909 94.912 13.3502 94.9361 13.3668 95.0622L13.5947 96.7282C13.6005 96.766 13.5958 96.8047 13.5811 96.84C13.5664 96.8753 13.5422 96.9059 13.5113 96.9284L11.5968 98.3441C11.5098 98.409 11.4746 98.4943 11.4912 98.6ZM10.4576 102.627C10.4716 102.632 10.4868 102.633 10.5015 102.631C10.5161 102.628 10.5299 102.622 10.5414 102.612C10.5529 102.603 10.5617 102.59 10.567 102.576C10.5722 102.563 10.5738 102.547 10.5715 102.533L10.138 99.6068C10.1361 99.592 10.1303 99.5779 10.1213 99.566C10.1123 99.5541 10.1003 99.5447 10.0866 99.5388C10.0728 99.5329 10.0578 99.5307 10.043 99.5324C10.0281 99.5341 10.014 99.5396 10.0019 99.5484L7.48165 101.417C7.46918 101.427 7.45947 101.439 7.45354 101.454C7.4476 101.468 7.44567 101.484 7.44795 101.499C7.45023 101.515 7.45664 101.529 7.46648 101.541C7.47633 101.553 7.48925 101.562 7.50388 101.568L10.4576 102.627Z" fill="white"/>
<path d="M172.044 99.9941C171.238 102.091 171.486 104.01 172.789 105.751C172.857 105.842 172.85 105.927 172.766 106.007L171.847 106.869C171.827 106.888 171.803 106.903 171.777 106.911C171.752 106.92 171.724 106.924 171.697 106.921C171.669 106.918 171.643 106.91 171.619 106.896C171.595 106.883 171.574 106.864 171.558 106.842C170.07 104.791 169.734 102.461 170.549 99.8522C170.871 98.8213 171.359 97.9675 172.013 97.2907C173.872 95.3689 177.095 95.608 178.754 97.6217C181.08 100.439 179.913 105.52 177.084 107.537C177.065 107.55 177.044 107.56 177.021 107.564C176.998 107.568 176.975 107.568 176.952 107.563C176.93 107.558 176.909 107.548 176.89 107.533C176.872 107.519 176.856 107.502 176.845 107.481L176.229 106.385C176.177 106.295 176.191 106.215 176.273 106.146C177.755 104.926 178.484 103.314 178.46 101.31C178.413 97.2128 173.455 96.3061 172.044 99.9941Z" fill="white"/>
<path d="M72.1603 107.544C69.0621 107.093 66.8448 107.869 64.1495 109.285C64.0523 109.338 63.9393 109.353 63.8313 109.329C63.7234 109.305 63.6278 109.243 63.5622 109.154C63.4965 109.065 63.4653 108.955 63.4741 108.845C63.483 108.734 63.5314 108.631 63.6104 108.553C67.9766 104.215 73.3227 102.685 79.6488 103.964C84.5531 104.954 89.4852 106.493 94.5146 106.807C96.4985 106.931 98.2732 106.315 99.8385 104.96C99.9237 104.886 100.007 104.89 100.089 104.971L100.458 105.352C100.523 105.419 100.526 105.488 100.466 105.561C96.2929 110.511 90.8579 111.332 84.7171 110.128C81.7356 109.544 76.6395 108.197 72.1603 107.544Z" fill="white"/>
<path d="M10.4685 112.479L16.8622 113.625C17.0218 113.654 17.1709 113.724 17.294 113.83C17.417 113.936 17.5096 114.072 17.562 114.226C17.6145 114.38 17.6249 114.545 17.5922 114.705C17.5595 114.864 17.485 115.012 17.3762 115.133L12.9721 120.019C12.9639 120.029 12.9592 120.042 12.9586 120.055C12.958 120.068 12.9615 120.08 12.9686 120.091C12.9757 120.102 12.986 120.11 12.9981 120.115C13.0103 120.12 13.0235 120.12 13.036 120.117L18.6711 118.186C18.7748 118.149 18.8443 118.183 18.8795 118.287L19.3046 119.544C19.3416 119.651 19.3064 119.724 19.199 119.761L10.8631 122.614C10.7464 122.653 10.6676 122.615 10.6269 122.5L10.11 120.99C10.0823 120.908 10.0971 120.835 10.1545 120.77L15.32 115.019C15.3311 115.006 15.3387 114.991 15.342 114.975C15.3454 114.958 15.3443 114.941 15.3389 114.925C15.3335 114.91 15.3241 114.895 15.3115 114.884C15.2989 114.873 15.2836 114.866 15.2672 114.863L7.68428 113.483C7.58796 113.465 7.52405 113.409 7.49256 113.317L7.02296 111.906C6.98777 111.803 7.02296 111.732 7.12855 111.695L15.4812 108.841C15.5036 108.834 15.5273 108.831 15.5509 108.833C15.5745 108.834 15.5977 108.841 15.6189 108.852C15.6401 108.862 15.659 108.878 15.6745 108.896C15.69 108.914 15.7017 108.935 15.709 108.958L16.1147 110.202C16.1536 110.32 16.1147 110.399 15.998 110.438L10.4546 112.324C10.2601 112.39 10.2647 112.442 10.4685 112.479Z" fill="white"/>
<path d="M173.375 113.219L171.291 119.274C171.286 119.289 171.284 119.305 171.285 119.321C171.286 119.338 171.29 119.353 171.297 119.368C171.305 119.382 171.315 119.395 171.327 119.406C171.339 119.416 171.353 119.425 171.369 119.43L174.667 120.57C174.698 120.581 174.723 120.603 174.737 120.632C174.751 120.661 174.753 120.695 174.742 120.726L174.27 122.077C174.259 122.107 174.237 122.132 174.208 122.146C174.18 122.16 174.147 122.162 174.117 122.152L165.678 119.235C165.663 119.23 165.648 119.222 165.636 119.211C165.624 119.201 165.614 119.188 165.607 119.173C165.599 119.159 165.595 119.143 165.594 119.127C165.593 119.111 165.595 119.094 165.6 119.079L166.07 117.727C166.075 117.712 166.083 117.698 166.093 117.685C166.104 117.673 166.117 117.663 166.131 117.656C166.146 117.649 166.162 117.644 166.178 117.643C166.194 117.642 166.21 117.644 166.225 117.65L169.727 118.862C169.742 118.867 169.758 118.869 169.774 118.868C169.79 118.867 169.806 118.863 169.821 118.856C169.835 118.849 169.848 118.838 169.859 118.826C169.869 118.814 169.877 118.8 169.882 118.784L171.966 112.727C171.971 112.711 171.973 112.695 171.972 112.679C171.971 112.663 171.967 112.647 171.96 112.633C171.953 112.618 171.942 112.605 171.93 112.595C171.918 112.584 171.904 112.576 171.888 112.571L168.387 111.367C168.357 111.356 168.332 111.334 168.318 111.304C168.303 111.275 168.302 111.242 168.312 111.211L168.768 109.868C168.773 109.852 168.781 109.838 168.792 109.826C168.802 109.813 168.815 109.803 168.829 109.796C168.844 109.789 168.86 109.785 168.876 109.783C168.892 109.782 168.908 109.785 168.924 109.79L177.36 112.704C177.389 112.715 177.414 112.737 177.428 112.766C177.442 112.794 177.444 112.827 177.435 112.857L176.99 114.204C176.985 114.219 176.977 114.233 176.966 114.245C176.956 114.258 176.943 114.268 176.928 114.275C176.914 114.282 176.898 114.287 176.882 114.288C176.866 114.289 176.85 114.287 176.834 114.281L173.531 113.141C173.515 113.136 173.499 113.134 173.483 113.135C173.467 113.136 173.451 113.14 173.436 113.148C173.422 113.155 173.409 113.165 173.399 113.177C173.388 113.189 173.38 113.204 173.375 113.219Z" fill="white"/>
<path d="M147.729 129.827L124.922 111.992C124.872 111.953 124.801 111.962 124.762 112.012L123.807 113.235C123.769 113.284 123.777 113.356 123.827 113.395L146.634 131.23C146.683 131.269 146.755 131.26 146.794 131.21L147.748 129.988C147.787 129.938 147.778 129.866 147.729 129.827Z" fill="white"/>
<path d="M60.1546 112.124L37.7287 129.661C37.673 129.705 37.6632 129.785 37.7066 129.841L38.6441 131.042C38.6876 131.098 38.7679 131.108 38.8235 131.064L61.2494 113.527C61.3051 113.483 61.3149 113.403 61.2715 113.347L60.334 112.146C60.2905 112.09 60.2102 112.081 60.1546 112.124Z" fill="white"/>
<path d="M44.6237 119.545C44.018 119.299 43.3298 119.197 42.5592 119.24C42.424 119.247 42.3915 119.192 42.4619 119.075C42.7379 118.629 43.1529 118.243 43.7068 117.918C45.737 116.728 47.6867 116.799 49.5558 118.133C50.0356 118.474 50.0384 118.819 49.5642 119.167C48.1656 120.194 46.5188 120.321 44.6237 119.545Z" fill="white"/>
<path d="M135.691 118.617C137.264 116.173 140.943 117.04 142.818 118.592C143.431 119.1 143.342 119.32 142.549 119.252C141.46 119.154 140.365 119.919 139.351 119.986C138.159 120.064 136.991 119.802 135.847 119.201C135.582 119.062 135.53 118.868 135.691 118.617Z" fill="white"/>
<path d="M37.8278 122.06C39.306 119.979 44.0297 119.123 45.3246 121.865C45.3444 121.907 45.348 121.955 45.3347 122C45.3214 122.045 45.292 122.083 45.2523 122.107C44.215 122.745 43.1054 123.061 41.9235 123.055C41.5512 123.054 41.014 122.931 40.3119 122.688C39.5394 122.421 38.7401 122.27 37.9139 122.235C37.7787 122.229 37.75 122.171 37.8278 122.06Z" fill="white"/>
<path d="M140.287 121.7C141.935 119.238 146.242 119.895 147.754 122.114C147.765 122.13 147.772 122.15 147.773 122.17C147.774 122.19 147.77 122.21 147.76 122.228C147.75 122.245 147.735 122.26 147.717 122.269C147.699 122.278 147.679 122.283 147.659 122.281C146.57 122.2 145.895 122.515 144.894 122.834C143.408 123.313 141.707 122.94 140.393 122.159C140.355 122.137 140.322 122.107 140.296 122.072C140.27 122.036 140.252 121.996 140.242 121.953C140.232 121.91 140.231 121.865 140.239 121.822C140.246 121.778 140.263 121.737 140.287 121.7Z" fill="white"/>
<path d="M50.3647 126.735C50.1258 125.061 50.8704 123.15 52.118 122.027C52.1505 121.997 52.1887 121.975 52.2301 121.961C52.2716 121.947 52.3155 121.941 52.3592 121.944C52.4029 121.948 52.4455 121.96 52.4843 121.98C52.5231 122.001 52.5573 122.029 52.5849 122.063C54.4605 124.371 52.9767 127.612 50.7593 129.083C50.261 129.413 50.1091 129.294 50.3036 128.727C50.5092 128.118 50.4731 127.495 50.3647 126.735Z" fill="white"/>
<path d="M132.768 126.843C131.992 125.425 131.976 123.905 132.721 122.285C132.753 122.214 132.802 122.152 132.863 122.103C132.924 122.055 132.996 122.021 133.072 122.006C133.149 121.99 133.228 121.993 133.303 122.014C133.378 122.035 133.447 122.073 133.504 122.126C134.964 123.452 135.501 125.181 135.116 127.313C135.057 127.639 135.133 128.224 135.344 129.068C135.35 129.091 135.35 129.115 135.343 129.138C135.336 129.161 135.323 129.181 135.305 129.197C135.286 129.212 135.264 129.222 135.241 129.226C135.217 129.229 135.193 129.225 135.172 129.215C134.201 128.787 133.4 127.996 132.768 126.843Z" fill="white"/>
<path d="M171.614 127.424L163.619 123.417C163.56 123.387 163.488 123.411 163.458 123.47L162.819 124.748C162.789 124.808 162.813 124.879 162.872 124.909L170.867 128.916C170.926 128.946 170.998 128.922 171.028 128.863L171.667 127.585C171.697 127.526 171.673 127.454 171.614 127.424Z" fill="white"/>
<path d="M36.5494 126.302C35.5407 126.06 34.7933 125.618 33.5929 125.69C33.4929 125.698 33.4614 125.654 33.4984 125.559C34.0125 124.236 36.2965 123.568 37.5525 123.535C38.8047 123.503 39.8875 123.954 40.8007 124.886C41.0434 125.135 41.0221 125.358 40.7368 125.557C39.4957 126.423 38.0999 126.671 36.5494 126.302Z" fill="white"/>
<path d="M152.093 125.651C151.186 125.683 150.363 125.83 149.626 126.093C148.976 126.325 148.49 126.446 148.17 126.455C146.907 126.497 145.753 126.19 144.708 125.531C144.674 125.51 144.646 125.482 144.624 125.449C144.602 125.416 144.586 125.379 144.579 125.34C144.572 125.301 144.573 125.26 144.581 125.222C144.59 125.183 144.607 125.146 144.63 125.114C145.28 124.221 146.174 123.716 147.311 123.601C148.898 123.44 151.357 123.988 152.116 125.612C152.127 125.636 152.119 125.649 152.093 125.651Z" fill="white"/>
<path d="M111.07 123.932L109.731 124.585C109.66 124.62 109.63 124.707 109.665 124.778L122.179 150.461C122.214 150.533 122.301 150.563 122.373 150.528L123.711 149.874C123.783 149.839 123.813 149.753 123.778 149.681L111.263 123.998C111.228 123.926 111.142 123.897 111.07 123.932Z" fill="white"/>
<path d="M75.5572 124.737L74.1936 124.071C74.1287 124.039 74.0505 124.066 74.0189 124.131L61.6067 149.604C61.5751 149.669 61.602 149.747 61.6668 149.779L63.0304 150.444C63.0952 150.476 63.1734 150.449 63.205 150.384L75.6173 124.911C75.6489 124.847 75.622 124.768 75.5572 124.737Z" fill="white"/>
<path d="M24.5062 134.187C23.731 135.427 22.2777 136.273 20.8051 136.379C17.2401 136.637 14.5281 132.293 14.5559 129.189C14.5809 126.664 16.9233 124.614 19.4213 124.733C23.3281 124.923 26.6041 130.841 24.5062 134.187ZM22.0225 134.294C22.8147 133.838 23.3481 133.007 23.5054 131.983C23.6626 130.96 23.4309 129.827 22.8611 128.836C22.2914 127.844 21.4302 127.074 20.4672 126.695C19.5042 126.316 18.5181 126.359 17.7259 126.815C16.9337 127.271 16.4003 128.102 16.2431 129.126C16.0858 130.15 16.3175 131.282 16.8873 132.274C17.4571 133.266 18.3182 134.036 19.2812 134.415C20.2443 134.793 21.2303 134.75 22.0225 134.294Z" fill="white"/>
<path d="M48.7056 126.024C50.1783 128.625 48.889 131.851 46.2576 133.002C46.2407 133.01 46.2218 133.013 46.2034 133.01C46.185 133.007 46.1679 132.998 46.1542 132.985C46.1406 132.972 46.131 132.955 46.1266 132.936C46.1223 132.918 46.1234 132.898 46.1298 132.88C46.4299 132.082 46.3994 131.545 46.2965 130.558C46.1002 128.653 46.667 127.103 47.9971 125.907C48.2824 125.653 48.5185 125.692 48.7056 126.024Z" fill="white"/>
<path d="M139.204 132.984C136.639 131.663 135.469 128.754 136.803 126.084C137.007 125.676 137.278 125.625 137.617 125.931C138.406 126.641 138.935 127.575 139.204 128.732C139.291 129.101 139.3 129.64 139.232 130.35C139.15 131.205 139.202 132.036 139.387 132.842C139.428 133.02 139.367 133.068 139.204 132.984Z" fill="white"/>
<path d="M93.4641 128.508H91.9025C91.8442 128.508 91.7969 128.555 91.7969 128.614V157.06C91.7969 157.119 91.8442 157.166 91.9025 157.166H93.4641C93.5224 157.166 93.5697 157.119 93.5697 157.06V128.614C93.5697 128.555 93.5224 128.508 93.4641 128.508Z" fill="white"/>
<path d="M160.838 131.308L157.459 136.503C157.45 136.517 157.438 136.529 157.424 136.539C157.41 136.548 157.395 136.555 157.378 136.558C157.361 136.562 157.344 136.562 157.328 136.559C157.311 136.555 157.296 136.549 157.282 136.539L156.245 135.866C156.231 135.857 156.218 135.845 156.209 135.832C156.199 135.818 156.192 135.802 156.188 135.785C156.185 135.769 156.185 135.752 156.188 135.735C156.191 135.718 156.197 135.703 156.206 135.688L160.499 129.097C160.508 129.082 160.52 129.07 160.534 129.06C160.548 129.051 160.564 129.044 160.58 129.04C160.597 129.036 160.614 129.036 160.63 129.039C160.647 129.042 160.663 129.049 160.677 129.058L168.149 133.944C168.163 133.954 168.175 133.966 168.185 133.98C168.194 133.994 168.201 134.009 168.204 134.026C168.207 134.042 168.207 134.06 168.204 134.076C168.201 134.093 168.194 134.108 168.185 134.122L167.407 135.296C167.388 135.324 167.36 135.343 167.327 135.35C167.294 135.357 167.26 135.35 167.232 135.332L161.016 131.269C161.002 131.26 160.986 131.253 160.969 131.25C160.953 131.247 160.936 131.248 160.919 131.251C160.902 131.255 160.887 131.262 160.873 131.271C160.859 131.281 160.847 131.294 160.838 131.308Z" fill="white"/>
<path d="M41.7955 136.329C41.9974 135.56 42.0669 134.819 42.0039 134.107C41.9317 133.282 41.9131 132.754 41.9483 132.522C42.1521 131.215 42.7615 130.084 43.7767 129.129C43.8092 129.098 43.8525 129.081 43.8973 129.082C43.9421 129.083 43.9846 129.102 44.0156 129.134C44.8363 129.978 45.1586 130.993 44.9826 132.18C44.752 133.718 43.5683 136.062 41.8316 136.368C41.8267 136.369 41.8216 136.369 41.8168 136.368C41.8119 136.366 41.8075 136.363 41.804 136.359C41.8004 136.356 41.7977 136.351 41.7963 136.346C41.7948 136.34 41.7945 136.335 41.7955 136.329Z" fill="white"/>
<path d="M143.735 136.148C143.746 136.189 143.744 136.231 143.731 136.271C143.717 136.31 143.691 136.345 143.658 136.37C143.624 136.394 143.584 136.409 143.543 136.41C143.501 136.412 143.46 136.401 143.424 136.379C141.54 135.207 140.595 133.576 140.59 131.484C140.587 130.622 140.907 129.785 141.49 129.187C141.516 129.161 141.546 129.141 141.579 129.127C141.613 129.113 141.649 129.105 141.685 129.105C141.722 129.105 141.758 129.113 141.791 129.127C141.825 129.141 141.856 129.161 141.882 129.187C143.071 130.397 143.819 131.996 143.588 133.72C143.475 134.562 143.524 135.371 143.735 136.148Z" fill="white"/>
<path d="M61.2541 138.001C61.3041 136.479 62.8741 135.011 64.1439 134.385C65.3146 133.81 66.5039 133.789 67.7117 134.321C67.7551 134.34 67.7939 134.369 67.8255 134.404C67.857 134.44 67.8806 134.481 67.8946 134.527C67.9085 134.572 67.9126 134.62 67.9064 134.667C67.9003 134.714 67.8841 134.759 67.859 134.8C67.2273 135.823 66.3548 136.591 65.2415 137.102C64.921 137.249 64.4107 137.359 63.7104 137.433C62.9028 137.521 62.1303 137.74 61.393 138.093C61.2967 138.139 61.2504 138.108 61.2541 138.001Z" fill="white"/>
<path d="M123.963 138C122.768 137.436 121.542 137.594 120.5 137.163C119.313 136.674 118.37 135.867 117.672 134.744C117.62 134.658 117.629 134.579 117.699 134.507C117.912 134.29 118.155 134.148 118.427 134.082C121.006 133.461 123.526 135.194 124.307 137.7C124.422 138.063 124.307 138.164 123.963 138Z" fill="white"/>
<path d="M71.9882 141.994C70.8249 140.333 70.5387 138.51 71.1296 136.524C71.147 136.465 71.1773 136.41 71.2184 136.365C71.2595 136.319 71.3103 136.283 71.3671 136.26C71.4238 136.236 71.4851 136.226 71.5465 136.229C71.6078 136.232 71.6676 136.25 71.7215 136.279C74.3029 137.686 74.4501 141.107 73.0386 143.377C72.6977 143.924 72.5171 143.893 72.4967 143.285C72.4828 142.862 72.2661 142.392 71.9882 141.994Z" fill="white"/>
<path d="M112.473 143.29C111.134 140.951 111.303 137.944 113.682 136.334C114.002 136.117 114.234 136.187 114.376 136.545C115.056 138.253 114.881 139.904 113.851 141.499C113.482 142.069 113.12 142.667 113.054 143.173C112.974 143.787 112.781 143.826 112.473 143.29Z" fill="white"/>
<path d="M28.6632 149.82C28.6325 149.846 28.5929 149.859 28.5528 149.856C28.5128 149.853 28.4756 149.834 28.4493 149.803L24.6259 145.342C24.2379 144.889 23.935 144.371 23.7347 143.816C23.5343 143.262 23.4404 142.683 23.4582 142.112C23.476 141.541 23.6052 140.989 23.8384 140.488C24.0717 139.987 24.4044 139.547 24.8176 139.193L25.49 138.617C26.3241 137.902 27.4352 137.579 28.5789 137.72C29.7227 137.861 30.8054 138.454 31.5892 139.368L35.4098 143.832C35.4357 143.863 35.4485 143.903 35.4453 143.943C35.4422 143.983 35.4235 144.02 35.3931 144.046L28.6632 149.82ZM28.7577 147.562L33.1646 143.782C33.1849 143.765 33.2016 143.744 33.2137 143.72C33.2257 143.696 33.233 143.67 33.2351 143.643C33.2372 143.617 33.234 143.59 33.2257 143.565C33.2174 143.539 33.2042 143.516 33.1869 143.496L30.5805 140.453C30.3255 140.155 30.0177 139.907 29.6746 139.724C29.3314 139.541 28.9597 139.426 28.5807 139.386C28.2016 139.346 27.8227 139.381 27.4654 139.489C27.1082 139.598 26.7797 139.778 26.4987 140.019L26.0652 140.395C25.4981 140.881 25.1587 141.587 25.1217 142.356C25.0847 143.125 25.3531 143.895 25.8679 144.497L28.4715 147.54C28.4888 147.56 28.51 147.577 28.5337 147.589C28.5575 147.601 28.5834 147.608 28.61 147.61C28.6366 147.612 28.6633 147.609 28.6887 147.601C28.714 147.592 28.7375 147.579 28.7577 147.562Z" fill="white"/>
<path d="M160.782 144.328C160.841 144.381 160.876 144.455 160.88 144.534C160.885 144.614 160.857 144.691 160.804 144.75L157 148.947C156.175 149.858 155.059 150.437 153.898 150.557C152.737 150.677 151.626 150.328 150.81 149.587L150.151 148.989C149.335 148.248 148.881 147.175 148.887 146.007C148.893 144.84 149.36 143.672 150.184 142.762L153.986 138.565C154.012 138.535 154.044 138.511 154.08 138.494C154.115 138.477 154.154 138.467 154.194 138.465C154.233 138.463 154.273 138.469 154.31 138.482C154.347 138.496 154.381 138.516 154.411 138.543L160.782 144.328ZM158.62 144.65L154.305 140.695C154.287 140.679 154.266 140.666 154.243 140.657C154.22 140.649 154.195 140.645 154.171 140.646C154.146 140.647 154.122 140.653 154.1 140.663C154.078 140.674 154.058 140.688 154.041 140.706L151.413 143.579C150.855 144.189 150.535 144.97 150.525 145.753C150.514 146.535 150.812 147.254 151.354 147.751L151.854 148.207C152.396 148.705 153.138 148.94 153.915 148.861C154.692 148.782 155.442 148.396 156 147.788L158.632 144.914C158.648 144.896 158.661 144.875 158.67 144.852C158.678 144.829 158.682 144.805 158.681 144.78C158.68 144.756 158.674 144.731 158.664 144.709C158.653 144.687 158.639 144.667 158.62 144.65Z" fill="white"/>
<path d="M60.6785 142.214C59.7838 142.287 59.2086 142.584 58.5362 142.89C58.3991 142.953 58.3445 142.91 58.3723 142.762C58.8891 139.967 61.7761 138.226 64.5492 138.905C65.0142 139.02 65.1281 139.286 64.891 139.703C64.3278 140.689 63.4692 141.423 62.3152 141.906C61.9632 142.052 61.4177 142.155 60.6785 142.214Z" fill="white"/>
<path d="M126.825 142.775C125.727 142.144 124.504 142.38 123.44 141.971C122.188 141.489 121.243 140.702 120.606 139.61C120.445 139.338 120.512 139.144 120.806 139.029C123.551 137.958 126.361 139.877 127.166 142.503C127.283 142.883 127.169 142.974 126.825 142.775Z" fill="white"/>
<path d="M88.1512 145.359C87.4899 145.745 87.0518 146.092 86.8369 146.399C86.409 147.015 86.1922 146.948 86.1867 146.199C86.1719 143.561 87.2787 141.736 89.5072 140.726C89.7813 140.601 90.2111 140.597 90.7964 140.712C90.8817 140.728 90.9215 140.78 90.9159 140.868C90.7714 142.874 89.8499 144.371 88.1512 145.359Z" fill="white"/>
<path d="M99.0855 146.887C98.5187 146.179 97.8889 145.609 97.196 145.179C95.6539 144.22 94.8203 142.749 94.6286 140.952C94.6243 140.912 94.6285 140.871 94.6411 140.833C94.6537 140.795 94.6743 140.759 94.7016 140.729C94.7289 140.699 94.7622 140.675 94.7994 140.659C94.8366 140.643 94.8769 140.635 94.9176 140.635C97.6601 140.646 99.28 143.174 99.3773 145.669C99.394 146.103 99.3143 146.507 99.1383 146.881C99.1357 146.886 99.132 146.89 99.1277 146.892C99.1233 146.895 99.1184 146.897 99.1133 146.897C99.1082 146.898 99.103 146.897 99.0982 146.895C99.0934 146.894 99.0891 146.891 99.0855 146.887Z" fill="white"/>
<path d="M69.9878 147.162C68.7838 145.464 68.5189 143.592 69.1932 141.547C69.2052 141.508 69.2317 141.474 69.2675 141.453C69.3034 141.432 69.3461 141.425 69.3877 141.433C70.0601 141.555 70.5612 141.859 70.8909 142.345C72.2043 144.281 72.2793 146.314 71.116 148.444C70.8048 149.015 70.601 148.979 70.5047 148.336C70.4547 147.999 70.2324 147.507 69.9878 147.162Z" fill="white"/>
<path d="M116.418 145.61C116.04 146.745 115.187 147.371 115.018 148.767C115.015 148.79 115.006 148.811 114.991 148.829C114.977 148.847 114.957 148.86 114.935 148.867C114.912 148.874 114.888 148.874 114.866 148.867C114.843 148.861 114.822 148.848 114.807 148.831C113.695 147.557 113.431 145.791 113.784 144.194C114.006 143.182 114.946 141.549 116.16 141.427C116.26 141.418 116.327 141.459 116.36 141.552C116.853 142.893 116.872 144.245 116.418 145.61Z" fill="white"/>
<path d="M57.6979 147.281C57.2006 147.292 56.6337 147.704 56.0724 147.815C55.9594 147.839 55.9159 147.794 55.9418 147.681C56.3447 145.957 57.6646 144.572 59.2568 143.957C60.1821 143.601 61.7575 143.487 62.5995 144.233C62.6754 144.299 62.6875 144.375 62.6356 144.461C61.5204 146.291 59.8745 147.231 57.6979 147.281Z" fill="white"/>
<path d="M129.006 147.676C127.883 147.175 126.727 147.297 125.774 146.914C124.546 146.419 123.608 145.612 122.962 144.494C122.941 144.458 122.928 144.419 122.924 144.378C122.919 144.337 122.923 144.295 122.936 144.256C122.948 144.216 122.969 144.18 122.997 144.149C123.024 144.118 123.058 144.094 123.095 144.077C124.255 143.552 125.401 143.547 126.533 144.063C127.927 144.7 129.439 146.099 129.6 147.726C129.609 147.824 129.567 147.861 129.472 147.837C129.304 147.792 129.148 147.739 129.006 147.676Z" fill="white"/>
<path d="M85.8867 152.293C85.1837 149.621 87.1704 146.008 90.2714 146.213C90.3138 146.217 90.3536 146.235 90.3837 146.265C90.4138 146.295 90.4321 146.335 90.4353 146.378C90.5159 147.546 89.7934 148.861 89.1127 149.737C88.8867 150.03 88.4893 150.355 87.9206 150.711C87.2204 151.15 86.6045 151.692 86.0728 152.335C85.9839 152.444 85.9219 152.431 85.8867 152.293Z" fill="white"/>
<path d="M95.3338 146.226C98.1236 145.772 100.674 149.947 99.6379 152.333C99.5935 152.437 99.5379 152.443 99.4712 152.353C99.0461 151.782 98.6904 151.376 98.0263 150.998C96.3295 150.03 95.3542 148.543 95.1004 146.537C95.0782 146.359 95.156 146.255 95.3338 146.226Z" fill="white"/>
<path d="M66.7339 146.563C66.7494 146.509 66.7842 146.463 66.8317 146.433C66.8792 146.403 66.9363 146.391 66.9923 146.399C67.5175 146.48 68.1288 146.891 68.4567 147.353C69.8053 149.254 69.8738 151.291 68.6623 153.466C68.3567 154.017 68.1668 153.979 68.0927 153.352C68.0427 152.927 67.7259 152.298 67.4203 151.85C66.3755 150.317 66.1467 148.555 66.7339 146.563Z" fill="white"/>
<path d="M117.96 152.164C117.658 152.706 117.527 153.137 117.424 153.744C117.4 153.886 117.338 153.904 117.238 153.797C116.213 152.678 115.943 151.191 116.107 149.708C116.235 148.557 117.188 146.521 118.599 146.407C118.643 146.404 118.687 146.415 118.723 146.439C118.76 146.463 118.788 146.499 118.802 146.54C119.21 147.731 119.271 148.925 118.986 150.123C118.805 150.885 118.349 151.471 117.96 152.164Z" fill="white"/>
<path d="M87.5871 156.467C87.0388 156.783 86.5451 157.256 86.1061 157.889C86.0246 158.006 85.9597 157.997 85.9116 157.864C85.0196 155.386 87.437 151.18 90.3241 151.795C90.4222 151.815 90.4667 151.875 90.4574 151.973C90.2852 153.972 89.3284 155.47 87.5871 156.467Z" fill="white"/>
<path d="M97.5713 156.181C96.3015 155.427 95.0789 153.595 95.1483 152.115C95.1632 151.772 95.3401 151.626 95.6791 151.676C98.6105 152.109 100.211 154.916 99.7414 157.675C99.6914 157.971 99.5747 158 99.3913 157.761C98.9208 157.149 98.3141 156.622 97.5713 156.181Z" fill="white"/>
<path d="M56.9135 169.133L62.8292 171.609C62.8468 171.616 62.8627 171.627 62.876 171.64C62.8894 171.654 62.9 171.67 62.9073 171.687C62.9145 171.705 62.9182 171.724 62.9182 171.743C62.9181 171.762 62.9143 171.78 62.907 171.798L62.4208 172.944C62.406 172.979 62.3778 173.007 62.3424 173.022C62.307 173.036 62.2672 173.036 62.2318 173.022L54.7461 169.887C54.7286 169.88 54.7127 169.869 54.6993 169.856C54.6859 169.842 54.6753 169.826 54.6681 169.809C54.6609 169.791 54.6572 169.772 54.6572 169.753C54.6573 169.734 54.661 169.716 54.6683 169.698L58.2306 161.165C58.2453 161.13 58.2735 161.102 58.3089 161.087C58.3444 161.072 58.3841 161.073 58.4195 161.087L59.7227 161.641C59.7402 161.648 59.7561 161.659 59.7695 161.672C59.7829 161.686 59.7935 161.702 59.8007 161.719C59.808 161.737 59.8117 161.756 59.8116 161.775C59.8116 161.794 59.8078 161.812 59.8005 161.83L56.8357 168.944C56.8209 168.98 56.8209 169.02 56.8355 169.055C56.85 169.09 56.8781 169.119 56.9135 169.133Z" fill="white"/>
<path d="M121.103 171.706L128.061 169.064C128.075 169.058 128.091 169.055 128.107 169.056C128.122 169.056 128.138 169.06 128.152 169.066C128.166 169.073 128.179 169.082 128.19 169.093C128.2 169.105 128.209 169.119 128.214 169.133L128.664 170.351C128.669 170.366 128.672 170.381 128.671 170.397C128.67 170.412 128.667 170.427 128.66 170.441C128.654 170.455 128.645 170.467 128.633 170.478C128.622 170.488 128.609 170.496 128.594 170.502L120.047 173.745C120.019 173.756 119.987 173.755 119.959 173.742C119.93 173.73 119.908 173.707 119.897 173.678L116.61 164.981C116.599 164.952 116.6 164.92 116.613 164.892C116.625 164.864 116.648 164.842 116.677 164.831L124.688 161.791C124.716 161.78 124.748 161.781 124.776 161.793C124.804 161.806 124.827 161.829 124.838 161.858L125.293 163.078C125.304 163.107 125.303 163.139 125.291 163.167C125.278 163.195 125.255 163.218 125.227 163.229L118.811 165.657C118.782 165.668 118.759 165.69 118.747 165.718C118.734 165.746 118.733 165.778 118.744 165.807L119.497 167.793C119.508 167.821 119.53 167.844 119.558 167.857C119.587 167.869 119.618 167.87 119.647 167.859L123.585 166.363C123.613 166.352 123.645 166.353 123.673 166.366C123.701 166.378 123.723 166.401 123.735 166.43L124.204 167.645C124.209 167.66 124.212 167.675 124.211 167.69C124.211 167.706 124.207 167.721 124.201 167.735C124.194 167.749 124.185 167.761 124.174 167.772C124.162 167.782 124.149 167.79 124.135 167.796L120.189 169.292C120.16 169.303 120.137 169.325 120.125 169.353C120.112 169.381 120.111 169.413 120.122 169.442L120.953 171.639C120.964 171.668 120.986 171.691 121.014 171.703C121.043 171.716 121.074 171.717 121.103 171.706Z" fill="white"/>
<path d="M106.96 168.745L102.906 169.54C102.88 169.545 102.853 169.54 102.83 169.524C102.808 169.509 102.792 169.486 102.787 169.46L102.537 168.155C102.532 168.129 102.538 168.101 102.553 168.079C102.568 168.057 102.591 168.041 102.617 168.036L112.579 166.092C112.605 166.087 112.633 166.092 112.655 166.107C112.677 166.123 112.693 166.146 112.698 166.172L112.954 167.477C112.959 167.503 112.953 167.531 112.938 167.553C112.923 167.575 112.9 167.591 112.873 167.596L108.833 168.378C108.807 168.383 108.784 168.399 108.769 168.421C108.754 168.443 108.748 168.471 108.753 168.497L110.245 176.162C110.248 176.176 110.248 176.19 110.245 176.204C110.242 176.217 110.237 176.23 110.229 176.241C110.221 176.253 110.211 176.263 110.2 176.27C110.188 176.277 110.175 176.283 110.161 176.285L108.689 176.56C108.662 176.565 108.635 176.559 108.613 176.544C108.59 176.529 108.575 176.506 108.569 176.48L107.08 168.826C107.075 168.799 107.059 168.776 107.037 168.761C107.014 168.746 106.987 168.74 106.96 168.745Z" fill="white"/>
<path d="M74.7277 173.871L70.0845 172.784C69.9827 172.762 69.8984 172.79 69.8317 172.867L68.2117 174.731C68.1807 174.766 68.1406 174.793 68.0956 174.807C68.0507 174.822 68.0025 174.824 67.9561 174.814L66.4584 174.461C66.4394 174.457 66.4218 174.448 66.4073 174.435C66.3929 174.422 66.3822 174.405 66.3763 174.386C66.3704 174.368 66.3695 174.348 66.3737 174.329C66.3778 174.31 66.3869 174.292 66.4001 174.278L73.2383 166.649C73.3436 166.531 73.4786 166.444 73.6292 166.396C73.7798 166.349 73.9404 166.343 74.0944 166.379C74.2483 166.415 74.3898 166.492 74.5042 166.601C74.6185 166.711 74.7015 166.849 74.7443 167.002L77.5035 176.87C77.5088 176.889 77.509 176.91 77.5042 176.93C77.4993 176.949 77.4895 176.967 77.4758 176.982C77.462 176.996 77.4448 177.007 77.4258 177.013C77.4068 177.019 77.3867 177.019 77.3674 177.014L75.6974 176.625C75.6614 176.617 75.6284 176.599 75.602 176.573C75.5755 176.548 75.5567 176.516 75.5474 176.48L74.9027 174.044C74.8917 174.001 74.8695 173.963 74.8386 173.932C74.8077 173.902 74.7693 173.881 74.7277 173.871ZM71.1849 171.335C71.1748 171.346 71.1678 171.36 71.1646 171.374C71.1614 171.389 71.1621 171.404 71.1666 171.419C71.1711 171.433 71.1792 171.446 71.1902 171.456C71.2012 171.466 71.2147 171.473 71.2294 171.477L74.2636 172.194C74.2781 172.198 74.2931 172.197 74.3073 172.193C74.3216 172.189 74.3345 172.181 74.3448 172.171C74.3551 172.16 74.3626 172.147 74.3663 172.132C74.3701 172.118 74.3702 172.103 74.3664 172.089L73.5217 168.887C73.5178 168.872 73.5099 168.859 73.4989 168.848C73.4878 168.837 73.474 168.829 73.4589 168.825C73.4438 168.822 73.428 168.822 73.4131 168.827C73.3982 168.831 73.3849 168.84 73.3745 168.851L71.1849 171.335Z" fill="white"/>
<path d="M85.1065 169.889L84.962 172.3C84.9613 172.313 84.9631 172.326 84.9675 172.339C84.9718 172.351 84.9786 172.363 84.9873 172.372C84.9961 172.382 85.0067 172.39 85.0186 172.396C85.0305 172.402 85.0433 172.405 85.0565 172.406L89.2884 172.662C89.3015 172.662 89.3144 172.666 89.3263 172.671C89.3381 172.677 89.3488 172.685 89.3575 172.695C89.3663 172.705 89.3731 172.716 89.3774 172.728C89.3818 172.741 89.3836 172.754 89.3829 172.767L89.3134 174.097C89.3127 174.11 89.3094 174.123 89.3037 174.135C89.298 174.146 89.29 174.157 89.2802 174.166C89.2704 174.175 89.2589 174.181 89.2465 174.186C89.2341 174.19 89.2209 174.192 89.2078 174.191L84.9592 173.924C84.9461 173.923 84.9329 173.925 84.9205 173.93C84.9081 173.934 84.8966 173.941 84.8868 173.95C84.877 173.958 84.8691 173.969 84.8634 173.981C84.8577 173.993 84.8544 174.006 84.8537 174.019L84.6286 177.684C84.6279 177.698 84.6246 177.71 84.6189 177.722C84.6132 177.734 84.6052 177.745 84.5954 177.754C84.5856 177.762 84.5741 177.769 84.5617 177.774C84.5493 177.778 84.5361 177.78 84.523 177.779L83.0253 177.684C83.0122 177.684 82.9993 177.68 82.9874 177.675C82.9756 177.669 82.9649 177.661 82.9561 177.651C82.9474 177.641 82.9406 177.63 82.9363 177.618C82.9319 177.605 82.9301 177.592 82.9308 177.579L83.506 168.259C83.5067 168.246 83.51 168.233 83.5157 168.221C83.5214 168.209 83.5294 168.198 83.5392 168.19C83.549 168.181 83.5604 168.174 83.5729 168.17C83.5853 168.165 83.5985 168.163 83.6116 168.164L92.1893 168.693C92.2024 168.693 92.2153 168.697 92.2272 168.702C92.239 168.708 92.2497 168.716 92.2584 168.726C92.2672 168.736 92.274 168.747 92.2783 168.76C92.2827 168.772 92.2845 168.785 92.2838 168.798L92.2004 170.122C92.1997 170.135 92.1964 170.148 92.1907 170.16C92.185 170.172 92.177 170.183 92.1672 170.191C92.1574 170.2 92.146 170.207 92.1335 170.211C92.1211 170.216 92.108 170.218 92.0948 170.217L85.2121 169.794C85.199 169.793 85.1858 169.795 85.1734 169.799C85.161 169.804 85.1495 169.811 85.1397 169.819C85.1299 169.828 85.1219 169.839 85.1162 169.851C85.1105 169.863 85.1072 169.875 85.1065 169.889Z" fill="white"/>
<path d="M98.1906 168.335L96.7154 168.43C96.6542 168.434 96.6077 168.487 96.6117 168.549L97.2113 177.83C97.2152 177.891 97.2681 177.937 97.3294 177.933L98.8045 177.838C98.8658 177.834 98.9122 177.781 98.9083 177.72L98.3087 168.439C98.3047 168.377 98.2518 168.331 98.1906 168.335Z" fill="white"/>
</g>
<defs>
<filter id="filter0_d_718_729" x="0" y="0" width="185" height="186" filterUnits="userSpaceOnUse" color-interpolation-filters="sRGB">
<feFlood flood-opacity="0" result="BackgroundImageFix"/>
<feColorMatrix in="SourceAlpha" type="matrix" values="0 0 0 0 0 0 0 0 0 0 0 0 0 0 0 0 0 0 127 0" result="hardAlpha"/>
<feOffset dy="4"/>
<feGaussianBlur stdDeviation="2"/>
<feComposite in2="hardAlpha" operator="out"/>
<feColorMatrix type="matrix" values="0 0 0 0 0 0 0 0 0 0 0 0 0 0 0 0 0 0 0.25 0"/>
<feBlend mode="normal" in2="BackgroundImageFix" result="effect1_dropShadow_718_729"/>
<feBlend mode="normal" in="SourceGraphic" in2="effect1_dropShadow_718_729" result="shape"/>
</filter>
<clipPath id="clip0_718_729">
<rect width="177" height="178" fill="white" transform="translate(4)"/>
</clipPath>
</defs>
</svg>
