<svg width="232" height="116" viewBox="0 0 232 116" fill="none" xmlns="http://www.w3.org/2000/svg">
<g clip-path="url(#clip0_929_1633)">
<mask id="mask0_929_1633" style="mask-type:luminance" maskUnits="userSpaceOnUse" x="-43" y="-42" width="316" height="181">
<path d="M-42.3291 138.197H272.313V-41.707H-42.3291V138.197Z" fill="white"/>
</mask>
<g mask="url(#mask0_929_1633)">
<path d="M203.706 109.548L203.084 108.786L203.011 108.777C201.987 108.758 200.395 108.666 198.565 108.327C191.86 106.83 185.768 103.47 180.929 98.6215C179.804 97.4554 178.578 96.0504 177.169 94.3242C167.491 82.3691 160.749 54.5568 173.592 15.5148L173.665 15.3129L171.552 15.2762L170.903 15.2856C160.41 15.2856 150.577 19.3073 143.204 26.6254C135.026 34.1914 129.052 43.9152 125.247 51.3251L122.923 51.7016C123.692 46.7341 124.341 40.6739 124.341 34.8709C124.341 27.6538 123.335 20.8316 120.28 16.9567C117.453 13.3941 112.724 12.7973 106.622 15.2397C93.6326 21.1805 79.8379 35.9452 69.5925 54.7684C69.8853 52.4545 70.0591 50.0672 70.0591 47.4595C70.0591 28.5077 60.6919 10.7681 45.0128 0.00669549C31.6115 -8.56014 21.9058 -8.32142 21.8144 -8.31223L21.5674 -8.30283L22.0248 -7.36627L22.1072 -7.35687C23.8452 -7.15495 39.3962 -4.86854 49.8245 12.3753C54.7368 20.5565 57.225 31.3822 57.225 44.5584C57.1793 60.1587 53.6208 79.5787 47.2175 99.2466L45.4154 104.692H59.5759L61.2042 99.3476C67.1228 79.6521 76.8192 51.2705 92.5349 32.1718C98.0967 25.423 106.43 18.6008 109.97 19.216C110.684 19.3354 111.306 19.8036 111.8 20.5841C115.596 26.635 112.449 51.7847 103.969 85.0512H117.563C118.642 81.4518 119.987 77.3658 121.643 73.0135C124.378 65.824 132.034 49.4708 141.493 38.9849C149.973 29.5733 155.562 27.3512 156.742 26.9564C156.285 28.8295 153.541 40.7387 153.541 54.6219C153.541 62.8031 154.501 71.6638 157.437 79.5511C159.057 83.8942 161.591 89.5595 166.759 94.876C175.559 104.269 187.497 109.613 200.367 109.916L203.917 109.806L203.706 109.548Z" fill="#D8D8D8"/>
<path d="M149.104 49.6543V67.3481C149.104 70.5526 150.147 73.4358 155.123 73.4358C161.215 73.4358 163.219 68.3765 163.219 63.8681V49.6543H170.207V76.5026H163.895L163.74 71.5535C161.59 75.1987 157.501 77.0443 152.671 77.0443C146.652 77.0443 142.124 73.7204 142.124 68.2938V49.6543H149.104Z" fill="white"/>
<path d="M106.247 49.5992C104.856 49.287 103.859 49.0942 102.377 49.1125C100.228 49.14 95.6905 50.3246 92.937 56.6234L93.0101 49.6543H86.625V76.4934H93.6138V64.9424C93.6138 57.2386 96.66 54.0157 102.332 54.3371C106.329 54.5574 106.055 51.0683 106.247 49.5992Z" fill="white"/>
<path d="M199.507 49.5992C198.107 49.287 197.11 49.0942 195.628 49.1125C193.488 49.14 188.941 50.3246 186.188 56.6234L186.27 49.6543H179.876V76.4934H186.865V64.9424C186.865 57.2386 189.92 54.0157 195.583 54.3371C199.589 54.5574 199.315 51.0683 199.507 49.5992Z" fill="white"/>
<path d="M116.474 62.9688C116.474 54.7601 122.063 52.1524 126.893 52.1524C128.311 52.1524 129.757 52.4462 131.037 52.7217C132.537 53.0431 134.138 52.3728 135.19 50.6924C135.2 50.6649 135.227 50.6466 135.236 50.6191C130.799 49.1133 127.342 49.1133 126.216 49.1133C118.505 49.1133 108.689 52.8595 108.689 63.2444C108.781 71.8388 116.319 77.045 125.036 77.045C129.308 77.045 133.361 75.9983 137.386 74.015C136.068 72.1418 133.946 72.0408 132.547 72.6377C130.891 73.262 128.988 73.9966 126.216 73.9966C122.502 73.9966 116.511 72.1327 116.465 62.969L116.474 62.9688Z" fill="white"/>
<path d="M19.7377 76.0339H21.3202C21.549 75.5748 33.514 51.977 33.514 51.977L33.4953 76.4563H40.3377V43.4102H32.05C31.8121 43.8509 19.7372 66.4112 19.7372 66.4112C19.7372 66.4112 7.66232 43.8509 7.42449 43.4102H-0.863281V76.4563H5.97916L5.96044 51.977C5.96044 51.977 17.9164 75.5748 18.1543 76.0339H19.7377Z" fill="white"/>
<path d="M64.6158 51.8292C68.7689 51.8292 71.2296 54.0605 71.2296 59.2116H56.6665C57.3252 54.3267 60.6 51.8292 64.6158 51.8292ZM78.2092 62.0672V60.5797C78.2092 56.8793 76.4986 49.1113 64.8354 49.1113C54.279 49.1113 48.7812 56.2274 48.7812 63.0772C48.7812 71.7634 56.3647 77.0431 65.1281 77.0431C68.9884 77.0431 73.1872 76.1341 77.4866 74.0038C76.7639 72.9846 75.5747 72.3052 74.2392 72.3052C73.7818 72.3052 73.2421 72.4245 72.8304 72.5714C70.6258 73.3703 69.025 73.9947 66.3722 73.9947C62.5119 73.9947 55.9896 71.9838 56.4378 62.0672H78.2092Z" fill="white"/>
<path d="M217.244 51.8292C221.407 51.8292 223.858 54.0605 223.858 59.2116H209.304C209.972 54.3267 213.238 51.8292 217.244 51.8292ZM230.847 62.0672V60.5797C230.847 56.8793 229.136 49.1113 217.473 49.1113C206.917 49.1113 201.419 56.2274 201.419 63.0772C201.419 71.7634 209.002 77.0431 217.766 77.0431C221.626 77.0431 225.825 76.1341 230.124 74.0038C229.402 72.9846 228.212 72.3052 226.868 72.3052C226.419 72.3052 225.871 72.4245 225.468 72.5714C223.264 73.3703 221.672 73.9947 219.01 73.9947C215.14 73.9947 208.627 71.9838 209.076 62.0672H230.847Z" fill="white"/>
<path d="M84.4939 92.9473C84.622 92.9473 84.7044 93.0575 84.7044 93.177V104.425C84.7044 104.544 84.622 104.636 84.4939 104.636H83.0119C82.893 104.636 82.7834 104.544 82.7834 104.425V99.6228H76.6545V104.425C76.6545 104.544 76.5446 104.636 76.4439 104.636H74.9346C74.8339 104.636 74.7334 104.544 74.7334 104.425V93.177C74.7334 93.0575 74.8341 92.9473 74.9346 92.9473H76.4439C76.5446 92.9473 76.6545 93.0575 76.6545 93.177V97.9057H82.7834V93.177C82.7834 93.0575 82.8932 92.9473 83.0119 92.9473H84.4939Z" fill="white"/>
<path d="M96.2394 94.5999C93.8976 94.5999 92.1046 96.4638 92.1046 98.8144C92.1046 101.165 93.8976 103.02 96.2394 103.02C98.5812 103.02 100.356 101.165 100.356 98.8144C100.356 96.4638 98.5812 94.5999 96.2394 94.5999ZM96.2394 104.81C92.8913 104.81 90.083 102.285 90.083 98.8144C90.083 95.3344 92.8913 92.791 96.2394 92.791C99.5691 92.791 102.396 95.3344 102.396 98.8144C102.396 102.304 99.5691 104.81 96.2394 104.81Z" fill="white"/>
<path d="M115.742 92.9473C115.861 92.9473 115.953 93.0575 115.953 93.177V94.4441C115.953 94.5635 115.861 94.6459 115.742 94.6459H112.047V104.425C112.047 104.544 111.946 104.636 111.827 104.636H110.345C110.217 104.636 110.135 104.544 110.135 104.425V94.6459H106.43C106.302 94.6459 106.22 94.5633 106.22 94.4441V93.177C106.22 93.0575 106.302 92.9473 106.43 92.9473H115.742Z" fill="white"/>
<path d="M129.024 92.9474C129.143 92.9474 129.225 93.0577 129.225 93.1771V94.4442C129.225 94.5636 129.143 94.6461 129.024 94.6461H122.593V97.9241H128.137C128.256 97.9241 128.338 98.016 128.338 98.1354V99.4209C128.338 99.522 128.256 99.6228 128.137 99.6228H122.593V102.937H129.024C129.143 102.937 129.225 103.038 129.225 103.139V104.425C129.225 104.544 129.143 104.636 129.024 104.636H120.883C120.782 104.636 120.682 104.544 120.682 104.425V93.1768C120.682 93.0574 120.782 92.9473 120.883 92.9473L129.024 92.9474Z" fill="white"/>
<path d="M136.206 92.9474C136.306 92.9474 136.407 93.0577 136.407 93.1771V102.938H141.859C141.978 102.938 142.069 103.039 142.069 103.139V104.425C142.069 104.544 141.978 104.636 141.859 104.636H134.696C134.596 104.636 134.495 104.544 134.495 104.425V93.177C134.495 93.0575 134.596 92.9473 134.696 92.9473L136.206 92.9474Z" fill="white"/>
<path d="M146.616 103.708C146.497 103.644 146.46 103.534 146.524 103.414L147.128 102.147C147.174 102.046 147.265 101.991 147.402 102.074C148.153 102.542 149.177 103.158 150.632 103.158C151.345 103.158 151.894 102.992 152.251 102.717C152.699 102.386 152.891 101.909 152.891 101.395C152.891 100.605 152.251 100.155 151.418 99.8336C150.439 99.4388 149.296 99.246 148.207 98.6308C147.265 98.0982 146.597 97.3637 146.597 96.0415C146.597 95.0773 146.973 94.251 147.713 93.6909C148.427 93.1216 149.488 92.791 150.888 92.791C152.479 92.791 153.678 93.2226 154.446 93.6541C154.565 93.7183 154.574 93.8285 154.528 93.948L153.925 95.1967C153.861 95.3161 153.76 95.3528 153.641 95.2792C152.818 94.8018 151.811 94.462 150.787 94.462C150.019 94.462 149.451 94.6273 149.104 94.9211C148.784 95.1782 148.61 95.5271 148.61 95.9495C148.61 96.7116 149.241 97.1065 150.201 97.4278C151.299 97.8226 152.525 98.0154 153.531 98.6674C154.318 99.1632 154.967 99.962 154.967 101.238C154.967 102.386 154.492 103.277 153.705 103.892C152.955 104.498 151.876 104.81 150.65 104.81C148.802 104.81 147.467 104.241 146.616 103.708Z" fill="white"/>
</g>
</g>
<defs>
<clipPath id="clip0_929_1633">
<rect width="232" height="116" fill="white"/>
</clipPath>
</defs>
</svg>
