<svg width="295" height="154" viewBox="0 0 295 154" fill="none" xmlns="http://www.w3.org/2000/svg">
<g clip-path="url(#clip0_718_812)">
<path d="M240.938 45.0954C237.933 45.3233 236.609 41.4733 239.021 39.7547C241.535 37.9642 243.108 36.8215 243.741 36.3266C245.027 35.3225 245.836 34.5361 246.165 33.9673C251.724 24.3701 237.537 17.9082 233.616 27.1513C232.638 29.4582 232.402 32.991 232.199 35.7383C231.99 38.612 228.02 39.613 226.588 37.0042C226.348 36.571 226.179 35.8328 226.081 34.7897C225.74 31.1923 225.678 26.8187 222.728 24.3085C218.69 20.8773 211.952 23.2027 210.993 28.5157C210.56 30.9243 211.518 33.6316 213.344 35.264C214.591 36.3831 216.53 37.8266 219.161 39.5945C221.714 41.3101 220.547 45.3418 217.449 45.0892C216.931 45.0482 216.059 44.7494 214.834 44.1929C213.402 43.5441 211.958 42.9363 210.501 42.3696C206.141 40.6725 201.473 42.1817 200.112 46.7647C199.137 50.0573 200.858 53.9134 203.91 55.2717C206.038 56.2203 208.293 56.1937 210.673 55.1916C212.492 54.4278 214.299 53.6342 216.094 52.8108C218.69 51.6188 221.656 53.9411 220.264 56.7008C220.04 57.1443 219.588 57.6125 218.906 58.1053C214.914 60.9943 208.707 64.4686 211.54 70.6224C213.172 74.1706 217.354 75.8369 220.964 74.3092C223.404 73.2774 224.707 71.2723 225.31 68.6759C225.767 66.7077 225.939 64.447 226.124 62.4235C226.256 60.9974 226.616 59.9533 227.866 59.3404C229.885 58.3579 232.008 59.7777 232.224 61.9861C232.543 65.254 232.598 68.9469 234.098 71.454C236.624 75.6798 242.57 75.9755 245.784 72.3287C248.59 69.1471 247.69 64.4255 244.537 61.8875C243.289 60.8835 241.757 59.7398 239.94 58.4564C238.981 57.7788 238.374 57.2326 238.117 56.8179C237.045 55.0869 238.412 52.5952 240.425 52.4443C240.98 52.4032 241.692 52.5736 242.561 52.9555C245.078 54.0674 248.154 55.6382 250.624 55.8661C254.425 56.2173 257.91 53.7625 258.389 49.8293C259.139 43.6478 253.485 40.1674 248.009 42.3141C246.309 42.9815 244.628 43.6889 242.966 44.4363C242.065 44.8428 241.389 45.0625 240.938 45.0954Z" stroke="white" stroke-width="0.7625"/>
<path d="M160.563 105.22C160.575 105.208 160.59 105.198 160.607 105.191C160.623 105.185 160.641 105.182 160.659 105.183C160.677 105.184 160.694 105.188 160.71 105.196C160.725 105.204 160.739 105.216 160.75 105.23L164.235 109.424C164.274 109.471 164.322 109.508 164.377 109.533C164.431 109.559 164.491 109.572 164.552 109.572H168.021C168.179 109.572 168.207 109.512 168.107 109.391L162.874 103.095C162.8 103.007 162.796 102.914 162.862 102.818C165.195 99.4011 166.225 95.5953 165.953 91.4003C165.945 91.2977 165.889 91.2463 165.787 91.2463H163.255C163.155 91.2463 163.103 91.2966 163.101 91.3972C163.064 94.6713 162.855 97.7236 160.935 100.489C160.863 100.594 160.785 100.597 160.701 100.499L150.023 87.7105C149.998 87.6803 149.98 87.645 149.97 87.6071C149.96 87.5692 149.958 87.5295 149.965 87.4908C149.971 87.4522 149.986 87.4154 150.009 87.3832C150.031 87.3509 150.06 87.3239 150.094 87.3039C153.188 85.4682 156.903 83.0936 157.128 79.1327C157.456 73.407 151.787 69.6186 146.461 71.4111C143.026 72.5661 140.844 76.1697 141.385 79.7148C141.781 82.3266 143.591 84.9477 145.45 86.9158C145.474 86.9405 145.491 86.97 145.502 87.0023C145.512 87.0346 145.515 87.0688 145.511 87.1024C145.506 87.1361 145.495 87.1683 145.476 87.1968C145.458 87.2252 145.433 87.2492 145.404 87.267C142.891 88.8008 139.95 90.9383 138.417 93.2268C135.62 97.3971 136.416 103.502 139.947 106.776C145.629 112.042 155.471 110.241 160.563 105.22Z" stroke="white" stroke-width="0.7625"/>
<path d="M40.1234 94.8782C40.1107 94.8941 40.0933 94.9058 40.0737 94.9114C40.0541 94.917 40.0333 94.9164 40.014 94.9097C39.9948 94.9029 39.9781 94.8903 39.9663 94.8736C39.9545 94.8569 39.9482 94.837 39.9482 94.8166V71.3993C39.9482 71.3732 39.9379 71.3481 39.9194 71.3296C39.901 71.3112 39.876 71.3008 39.8499 71.3008L37.0505 71.3039C37.0244 71.3039 36.9994 71.3142 36.9809 71.3327C36.9625 71.3512 36.9521 71.3763 36.9521 71.4024V109.474C36.9521 109.5 36.9625 109.526 36.9809 109.544C36.9994 109.562 37.0244 109.573 37.0505 109.573H39.8499C39.876 109.573 39.901 109.562 39.9194 109.544C39.9379 109.526 39.9482 109.5 39.9482 109.474V99.2703C39.9475 99.2468 39.9551 99.2239 39.9698 99.2056L49.0471 88.3424C49.0572 88.3303 49.07 88.3209 49.0844 88.3147C49.0989 88.3086 49.1146 88.3061 49.1302 88.3073C49.1459 88.3085 49.161 88.3134 49.1743 88.3217C49.1877 88.3299 49.1989 88.3413 49.2069 88.3547L61.4863 109.524C61.4948 109.538 61.5068 109.55 61.5214 109.559C61.5359 109.568 61.5524 109.572 61.5693 109.573L64.9464 109.576C64.9635 109.576 64.9802 109.571 64.9948 109.562C65.0095 109.553 65.0216 109.541 65.0299 109.526C65.0383 109.511 65.0427 109.494 65.0426 109.477C65.0425 109.46 65.0379 109.443 65.0294 109.428L51.1951 86.0016C51.1853 85.9844 51.181 85.9645 51.1826 85.9448C51.1843 85.925 51.1918 85.9061 51.2043 85.8907L62.9982 71.464C63.0098 71.4495 63.017 71.432 63.0191 71.4136C63.0212 71.3951 63.0181 71.3765 63.0101 71.3597C63.002 71.343 62.9894 71.3289 62.9737 71.319C62.9581 71.3091 62.9399 71.3038 62.9214 71.3039L59.5012 71.3069C59.4865 71.3069 59.4719 71.3102 59.4586 71.3166C59.4453 71.323 59.4336 71.3324 59.4244 71.3439L40.1234 94.8782Z" stroke="white" stroke-width="0.7625"/>
<path d="M74.1317 71.3961C74.1317 71.3836 74.1292 71.3712 74.1244 71.3596C74.1196 71.348 74.1125 71.3375 74.1037 71.3286C74.0948 71.3198 74.0843 71.3128 74.0727 71.308C74.0612 71.3032 74.0488 71.3008 74.0363 71.3008L70.7728 71.3065C70.7603 71.3065 70.7479 71.309 70.7364 71.3138C70.7248 71.3186 70.7144 71.3257 70.7055 71.3346C70.6967 71.3435 70.6897 71.354 70.6849 71.3656C70.6802 71.3772 70.6777 71.3896 70.6777 71.4021L70.6835 74.6793C70.6835 74.6918 70.686 74.7042 70.6908 74.7158C70.6956 74.7274 70.7026 74.7379 70.7115 74.7467C70.7203 74.7556 70.7308 74.7626 70.7424 74.7674C70.754 74.7722 70.7664 74.7746 70.7789 74.7746L74.0423 74.7689C74.0548 74.7688 74.0672 74.7664 74.0787 74.7615C74.0903 74.7567 74.1008 74.7497 74.1096 74.7408C74.1184 74.7319 74.1254 74.7214 74.1302 74.7098C74.135 74.6982 74.1374 74.6858 74.1374 74.6732L74.1317 71.3961Z" stroke="white" stroke-width="0.7625"/>
<path d="M98.459 86.6843C96.4093 83.7891 92.6143 82.8589 89.2341 83.4164C85.3038 84.0632 82.7932 86.4717 81.8867 90.3248C80.9403 94.3473 80.8849 98.2948 81.7208 102.167C82.7041 106.729 85.227 109.529 90.0545 109.898C93.278 110.148 96.4278 109.341 98.4467 106.59C98.4598 106.573 98.478 106.56 98.4987 106.554C98.5194 106.547 98.5416 106.548 98.5622 106.554C98.5828 106.561 98.6008 106.574 98.6137 106.592C98.6265 106.609 98.6337 106.63 98.6341 106.652L98.6433 109.421C98.6433 109.523 98.6945 109.575 98.797 109.575H101.329C101.431 109.575 101.483 109.522 101.483 109.418V71.4567C101.483 71.3541 101.431 71.3027 101.329 71.3027H98.7939C98.6915 71.3027 98.6403 71.3541 98.6403 71.4567L98.6372 86.6288C98.6368 86.6495 98.6299 86.6695 98.6174 86.6861C98.605 86.7026 98.5877 86.7148 98.568 86.721C98.5483 86.7271 98.5271 86.7269 98.5076 86.7203C98.488 86.7137 98.471 86.7011 98.459 86.6843Z" stroke="white" stroke-width="0.7625"/>
<path d="M198.464 96.8679C198.434 104.238 192.334 108.787 185.22 106.878C181.602 105.905 179.317 103.645 178.365 100.099C178.063 98.9818 177.915 97.1707 177.919 94.6657C177.927 86.9308 177.927 79.1948 177.919 71.4579C177.919 71.3531 177.867 71.3008 177.762 71.3008L175.086 71.3039C174.979 71.3039 174.926 71.3572 174.926 71.464C174.922 79.4248 174.922 87.3856 174.926 95.3463C174.928 97.8576 175.081 99.6789 175.384 100.81C176.595 105.319 180.024 108.359 184.52 109.511C186.82 110.103 189.102 110.147 191.366 109.644C196.658 108.463 199.895 105.41 201.08 100.484C201.375 99.26 201.52 97.3514 201.516 94.7581C201.506 86.9965 201.504 79.2328 201.51 71.4671C201.51 71.3583 201.455 71.3039 201.347 71.3039H198.67C198.566 71.3039 198.514 71.3562 198.514 71.4609C198.518 79.933 198.501 88.402 198.464 96.8679Z" stroke="white" stroke-width="0.7625"/>
<path d="M111.9 91.6314C111.396 88.9703 112.908 86.6849 115.542 86.1028C119.188 85.2959 122.557 85.8821 125.649 87.8615C125.747 87.9252 125.838 87.9169 125.922 87.8369L127.548 86.2815C127.575 86.2547 127.597 86.2219 127.61 86.1857C127.623 86.1494 127.628 86.1106 127.623 86.0722C127.619 86.0338 127.606 85.9969 127.586 85.9643C127.565 85.9317 127.537 85.9043 127.505 85.8841C124.186 83.837 120.678 83.0074 116.98 83.3955C112.884 83.8267 109.522 85.6285 109.055 89.9929C108.188 98.0501 117.263 97.4187 122.29 98.0471C124.427 98.316 125.694 99.3468 126.091 101.139C126.853 104.567 124.478 106.649 121.38 107.192C117.376 107.894 112.985 107.299 109.928 104.352C109.891 104.316 109.841 104.296 109.789 104.297C109.738 104.298 109.688 104.318 109.651 104.355L107.952 106.037C107.861 106.125 107.862 106.212 107.955 106.298C111.59 109.594 116.282 110.299 121.061 109.757C125.209 109.286 128.771 107.013 128.983 102.485C129.284 95.9804 123.522 95.4075 118.759 95.1519C116.19 95.0102 112.506 94.8315 111.9 91.6314Z" stroke="white" stroke-width="0.7625"/>
<path d="M215.414 86.063C218.954 85.2837 222.227 85.9521 225.331 87.8709C225.423 87.9264 225.508 87.9171 225.586 87.8432L227.263 86.2509C227.288 86.2277 227.308 86.199 227.32 86.1671C227.332 86.1352 227.336 86.1009 227.333 86.0669C227.33 86.0329 227.319 86.0002 227.301 85.9712C227.283 85.9422 227.259 85.9177 227.23 85.8997C223.632 83.6575 219.743 82.8629 215.562 83.5158C212.347 84.0148 209.511 85.872 208.875 89.2631C208.34 92.1172 209.099 94.3143 211.152 95.8543C212.212 96.6489 214.139 97.2865 215.408 97.4035C217.459 97.5924 219.507 97.7937 221.554 98.0072C222.773 98.1345 223.74 98.4528 224.455 98.962C226.547 100.456 226.215 103.856 224.756 105.405C223.918 106.292 222.6 106.894 220.801 107.21C216.914 107.894 212.566 107.207 209.613 104.352C209.529 104.268 209.444 104.268 209.357 104.352L207.667 106.052C207.585 106.134 207.587 106.214 207.674 106.292C209.173 107.683 210.855 108.649 212.719 109.191C217.544 110.595 226.126 110.457 228.29 104.836C228.851 103.378 228.932 101.865 228.532 100.299C227.875 97.7177 226.04 96.2362 223.474 95.7865C221.346 95.4149 219.324 95.1767 217.409 95.072C214.142 94.8903 210.713 93.7383 211.635 89.5773C212.052 87.6985 213.312 86.527 215.414 86.063Z" stroke="white" stroke-width="0.7625"/>
<path d="M73.8267 83.7124C73.8267 83.7006 73.8244 83.689 73.8199 83.6782C73.8154 83.6673 73.8089 83.6575 73.8006 83.6492C73.7923 83.6409 73.7825 83.6343 73.7717 83.6298C73.7609 83.6254 73.7493 83.623 73.7376 83.623H71.0764C71.0647 83.623 71.0531 83.6254 71.0423 83.6298C71.0315 83.6343 71.0217 83.6409 71.0134 83.6492C71.0051 83.6575 70.9986 83.6673 70.9941 83.6782C70.9896 83.689 70.9873 83.7006 70.9873 83.7124V109.486C70.9873 109.509 70.9967 109.532 71.0134 109.549C71.0301 109.566 71.0528 109.575 71.0764 109.575H73.7376C73.7612 109.575 73.7839 109.566 73.8006 109.549C73.8173 109.532 73.8267 109.509 73.8267 109.486V83.7124Z" stroke="white" stroke-width="0.7625"/>
<path d="M241.052 105.543C241.058 105.002 240.955 104.464 240.747 103.961C240.539 103.458 240.231 103 239.841 102.612C239.45 102.224 238.985 101.915 238.471 101.701C237.957 101.488 237.405 101.374 236.846 101.368C236.287 101.361 235.733 101.461 235.214 101.661C234.695 101.862 234.222 102.16 233.822 102.538C233.422 102.917 233.103 103.367 232.884 103.865C232.664 104.363 232.547 104.898 232.54 105.439C232.534 105.981 232.637 106.518 232.845 107.021C233.053 107.524 233.361 107.983 233.751 108.37C234.142 108.758 234.607 109.068 235.121 109.281C235.635 109.495 236.187 109.608 236.746 109.615C237.305 109.622 237.859 109.522 238.378 109.321C238.897 109.12 239.37 108.822 239.77 108.444C240.17 108.066 240.489 107.615 240.709 107.118C240.928 106.62 241.045 106.085 241.052 105.543Z" stroke="white" stroke-width="0.7625"/>
<path d="M39.3089 126.545C38.4455 126.801 37.7848 126.447 37.794 125.51C37.8124 123.453 37.8094 120.372 37.7848 116.267C37.7848 116.169 37.7346 116.118 37.6342 116.116L36.7277 116.113C36.6853 116.113 36.6447 116.13 36.6147 116.16C36.5847 116.19 36.5679 116.231 36.5679 116.273C36.574 119.142 36.571 122.02 36.5587 124.907C36.5546 125.88 36.6959 126.568 36.9827 126.97C37.4765 127.664 38.2723 127.868 39.3704 127.58C39.4482 127.56 39.4872 127.508 39.4872 127.426V126.678C39.4872 126.554 39.4278 126.51 39.3089 126.545Z" stroke="white" stroke-width="0.7625"/>
<path d="M123.224 120.124V116.311C123.224 116.182 123.159 116.117 123.03 116.117H122.112C121.983 116.117 121.918 116.181 121.918 116.308V127.513C121.918 127.618 121.969 127.67 122.072 127.67L123.067 127.667C123.168 127.667 123.219 127.617 123.221 127.516C123.229 126.06 123.229 124.601 123.221 123.137C123.217 122.297 123.351 121.699 123.623 121.344C124.57 120.121 127.05 120.614 127.056 122.357C127.062 124.072 127.065 125.789 127.065 127.51C127.065 127.617 127.117 127.67 127.222 127.67L128.138 127.667C128.246 127.667 128.3 127.613 128.3 127.504C128.288 126.044 128.289 124.576 128.303 123.1C128.312 122.108 128.183 121.37 127.916 120.885C126.997 119.225 124.932 119.274 123.411 120.226C123.286 120.304 123.224 120.27 123.224 120.124Z" stroke="white" stroke-width="0.7625"/>
<path d="M149.384 126.312C149.323 126.266 149.275 126.207 149.241 126.139C149.207 126.071 149.19 125.996 149.19 125.921V116.311C149.19 116.182 149.127 116.117 149 116.117H148.056C147.939 116.117 147.881 116.176 147.881 116.293C147.887 119.001 147.886 121.714 147.878 124.43C147.875 126.488 148.21 128.145 150.742 127.599C150.834 127.581 150.88 127.524 150.88 127.43V126.746C150.88 126.719 150.874 126.692 150.863 126.667C150.851 126.642 150.834 126.621 150.813 126.603C150.791 126.586 150.766 126.574 150.74 126.568C150.713 126.562 150.686 126.562 150.659 126.568C150.173 126.679 149.748 126.593 149.384 126.312Z" stroke="white" stroke-width="0.7625"/>
<path d="M45.8948 123.032C44.85 123.062 42.5361 122.874 41.8109 123.527C40.637 124.581 40.5356 126.894 42.2473 127.519C43.5071 127.981 44.7312 127.876 45.9194 127.205C46.0239 127.145 46.0802 127.175 46.0884 127.294L46.1007 127.491C46.1089 127.617 46.1765 127.678 46.3035 127.676L47.2469 127.664C47.3432 127.662 47.3913 127.613 47.3913 127.516C47.4098 125.769 47.4128 124.022 47.4005 122.277C47.3923 120.891 46.7317 120.042 45.4185 119.73C44.0511 119.406 42.2595 119.446 41.2885 120.694C41.2626 120.727 41.2504 120.769 41.2544 120.811C41.2584 120.854 41.2783 120.893 41.31 120.922L41.9492 121.485C42.027 121.553 42.0998 121.549 42.1674 121.473C43.4303 120.072 46.5678 120.256 46.0485 122.902C46.0321 122.986 45.9808 123.029 45.8948 123.032Z" stroke="white" stroke-width="0.7625"/>
<path d="M51.1432 120.202L51.1678 119.82C51.169 119.8 51.1661 119.779 51.1591 119.76C51.1521 119.74 51.1412 119.723 51.1271 119.708C51.113 119.693 51.0959 119.681 51.077 119.673C51.0581 119.664 51.0378 119.66 51.0172 119.66H50.0892C49.9868 119.66 49.9355 119.712 49.9355 119.814V127.514C49.9355 127.619 49.9868 127.671 50.0892 127.671L51.008 127.668C51.1125 127.668 51.1647 127.616 51.1647 127.511C51.1647 125.92 51.1668 124.33 51.1709 122.74C51.1739 119.968 55.0827 120.005 55.0796 122.666C55.0776 124.278 55.0786 125.893 55.0827 127.511C55.0827 127.616 55.1359 127.668 55.2425 127.668H56.1551C56.2576 127.668 56.3098 127.616 56.3118 127.511C56.3159 126.07 56.3159 124.63 56.3118 123.193C56.3098 122.14 56.2002 121.395 55.983 120.96C55.1196 119.235 52.7534 119.254 51.2968 120.285C51.1883 120.364 51.1371 120.336 51.1432 120.202Z" stroke="white" stroke-width="0.7625"/>
<path d="M63.6739 126.986C63.7128 127.723 63.7087 128.205 63.6616 128.431C63.2775 130.285 61.1357 130.818 59.7652 129.496C59.6812 129.414 59.5972 129.415 59.5132 129.5L58.9355 130.085C58.8433 130.177 58.8474 130.267 58.9478 130.356C60.5303 131.723 63.3881 131.726 64.4975 129.767C64.7679 129.293 64.9051 128.532 64.9092 127.485C64.9195 124.935 64.9205 122.382 64.9123 119.825C64.9123 119.714 64.856 119.659 64.7433 119.659H63.8767C63.7477 119.659 63.6842 119.724 63.6862 119.853L63.6924 120.115C63.6944 120.289 63.6258 120.324 63.4865 120.219C62.4929 119.48 61.3897 119.361 60.1769 119.862C58.284 120.648 58.324 123.761 58.7173 125.443C59.2735 127.806 61.6673 128.271 63.5541 126.931C63.6278 126.877 63.6678 126.896 63.6739 126.986Z" stroke="white" stroke-width="0.7625"/>
<path d="M81.0388 127.285C81.2805 127.72 81.6759 127.832 82.2249 127.621C82.3192 127.586 82.3653 127.518 82.3632 127.417C82.3489 125.649 82.3356 123.885 82.3233 122.126C82.3151 120.762 81.6073 119.948 80.1999 119.683C78.6511 119.39 77.3585 119.678 76.3219 120.549C76.1907 120.66 76.1877 120.773 76.3126 120.888L76.918 121.454C77.002 121.532 77.085 121.532 77.1669 121.454C77.9679 120.697 78.8775 120.454 79.8957 120.727C80.9804 121.017 81.3491 121.873 81.0726 122.92C81.046 123.017 80.9835 123.064 80.8851 123.062C78.774 123.001 75.7503 122.742 75.99 125.652C76.1897 128.116 79.3241 128.153 80.8636 127.236C80.9374 127.19 80.9958 127.207 81.0388 127.285Z" stroke="white" stroke-width="0.7625"/>
<path d="M89.7819 126.965C90.0431 129.614 88.2424 131.259 85.8209 129.506C85.7205 129.434 85.6263 129.441 85.5382 129.525L84.9636 130.07C84.9467 130.086 84.9334 130.106 84.9246 130.128C84.9157 130.149 84.9114 130.173 84.912 130.196C84.9125 130.22 84.918 130.243 84.9279 130.264C84.9379 130.285 84.9521 130.304 84.9697 130.319C87.1269 132.167 90.9681 131.428 91.0295 128.123C91.05 126.932 91.049 124.163 91.0264 119.814C91.0264 119.711 90.9752 119.66 90.8728 119.66L89.997 119.663C89.872 119.663 89.8106 119.726 89.8126 119.854L89.8188 120.208C89.8229 120.347 89.7686 120.375 89.6559 120.291C88.1717 119.17 86.1989 119.312 85.2432 120.744C84.938 121.2 84.7485 121.833 84.6747 122.644C84.4135 125.502 85.0773 128.324 88.6634 127.507C89.0475 127.421 89.3333 127.141 89.6375 126.904C89.7215 126.838 89.7696 126.859 89.7819 126.965Z" stroke="white" stroke-width="0.7625"/>
<path d="M94.7223 124.047H99.7895C99.8858 124.047 99.936 123.999 99.9401 123.903C100.051 121.873 99.3439 119.84 97.0269 119.588C93.6375 119.218 92.817 122.72 93.4316 125.27C94.1415 128.212 97.7614 128.439 99.6727 126.641C99.6903 126.624 99.7043 126.604 99.7138 126.582C99.7233 126.56 99.728 126.536 99.7277 126.512C99.7274 126.488 99.7221 126.464 99.7121 126.443C99.7021 126.421 99.6877 126.401 99.6696 126.385L99.0796 125.862C98.9895 125.781 98.9014 125.782 98.8154 125.865C97.1775 127.402 94.4733 126.736 94.5594 124.204C94.5635 124.1 94.6178 124.047 94.7223 124.047Z" stroke="white" stroke-width="0.7625"/>
<path d="M109.703 124.291C111.034 124.534 111.064 125.982 109.878 126.438C108.592 126.933 107.374 126.742 106.225 125.865C106.143 125.801 106.065 125.806 105.991 125.88L105.416 126.459C105.32 126.556 105.322 126.65 105.423 126.743C106.692 127.931 108.938 127.965 110.478 127.445C112.447 126.783 112.518 123.675 110.219 123.256C109.116 123.053 107.786 123.182 107.054 122.508C106.974 122.436 106.928 122.347 106.916 122.243C106.624 120.071 109.565 120.539 110.665 121.205C110.763 121.264 110.852 121.253 110.932 121.171L111.498 120.598C111.518 120.577 111.534 120.551 111.543 120.523C111.552 120.495 111.554 120.466 111.55 120.437C111.546 120.408 111.535 120.38 111.519 120.356C111.502 120.333 111.48 120.313 111.455 120.299C110.041 119.508 107.74 119.135 106.421 120.272C105.518 121.048 105.346 122.464 106.157 123.361C106.962 124.251 108.582 124.085 109.703 124.291Z" stroke="white" stroke-width="0.7625"/>
<path d="M115.956 126.262C114.869 125.52 114.767 123.622 115.062 122.541C115.597 120.582 117.499 120.071 119.014 121.454C119.1 121.532 119.186 121.533 119.272 121.457L119.865 120.933C119.961 120.847 119.966 120.757 119.877 120.662C118.092 118.756 114.887 119.347 113.959 121.836C113.594 122.813 113.54 123.838 113.796 124.91C114.291 126.964 115.668 127.95 117.773 127.725C118.651 127.632 119.351 127.28 119.871 126.668C119.957 126.566 119.95 126.471 119.85 126.385L119.235 125.846C119.149 125.77 119.067 125.775 118.989 125.861C118.169 126.739 116.961 126.946 115.956 126.262Z" stroke="white" stroke-width="0.7625"/>
<path d="M137.096 122.608C137.092 121.808 136.771 121.041 136.203 120.478C135.635 119.915 134.868 119.601 134.069 119.606L133.565 119.608C133.17 119.61 132.778 119.69 132.414 119.844C132.049 119.998 131.718 120.222 131.44 120.503C131.162 120.785 130.942 121.119 130.793 121.486C130.643 121.853 130.567 122.246 130.569 122.642L130.58 124.718C130.584 125.519 130.906 126.285 131.473 126.848C132.041 127.411 132.809 127.725 133.607 127.721L134.111 127.718C134.507 127.716 134.898 127.636 135.263 127.482C135.627 127.329 135.958 127.105 136.236 126.823C136.514 126.541 136.734 126.207 136.884 125.84C137.033 125.473 137.109 125.08 137.107 124.684L137.096 122.608Z" stroke="white" stroke-width="0.7625"/>
<path d="M145.624 122.604C145.619 121.804 145.297 121.039 144.728 120.478C144.16 119.916 143.393 119.604 142.595 119.609L142.085 119.613C141.287 119.619 140.524 119.942 139.964 120.511C139.404 121.08 139.092 121.85 139.098 122.649L139.112 124.725C139.118 125.525 139.44 126.29 140.008 126.851C140.576 127.413 141.344 127.725 142.142 127.719L142.652 127.716C143.449 127.71 144.212 127.387 144.773 126.818C145.333 126.248 145.644 125.479 145.639 124.68L145.624 122.604Z" stroke="white" stroke-width="0.7625"/>
<path d="M72.7054 127.15L72.6654 127.501C72.6511 127.614 72.7013 127.67 72.816 127.67L73.7501 127.667C73.8526 127.667 73.9038 127.616 73.9038 127.513V119.813C73.9038 119.709 73.8526 119.657 73.7501 119.659L72.7607 119.662C72.6562 119.662 72.6039 119.714 72.6039 119.816C72.5917 121.287 72.5896 122.757 72.5978 124.227C72.6019 125.026 72.4851 125.604 72.2475 125.961C71.341 127.325 68.7597 126.691 68.7597 124.818C68.7618 123.153 68.7597 121.485 68.7536 119.813C68.7536 119.709 68.7013 119.656 68.5969 119.656L67.6842 119.659C67.5818 119.661 67.5306 119.714 67.5306 119.816C67.5224 121.34 67.5224 122.863 67.5306 124.384C67.5398 126.1 67.9208 127.396 69.7 127.714C70.6895 127.89 71.637 127.669 72.5425 127.051C72.6695 126.963 72.7238 126.996 72.7054 127.15Z" stroke="white" stroke-width="0.7625"/>
<path d="M153.825 80.4102C154.952 77.7244 153.373 74.4596 150.49 73.7697C145.921 72.6794 142.897 77.2963 145.008 81.2664C145.682 82.5333 146.684 83.8906 148.014 85.3382C148.077 85.4059 148.149 85.4162 148.229 85.369C150.349 84.1462 152.955 82.4922 153.825 80.4102Z" stroke="white" stroke-width="0.7625"/>
<path d="M147.181 89.2386C142.667 92.0445 138.027 95.8175 140.319 101.937C141.948 106.28 146.582 107.882 150.884 107.081C154.059 106.492 156.708 105.186 158.83 103.163C158.916 103.081 158.922 102.995 158.846 102.905L147.448 89.2817C147.373 89.1914 147.283 89.177 147.181 89.2386Z" stroke="white" stroke-width="0.7625"/>
<path d="M90.7121 107.413C98.4774 108.051 98.8922 100.039 98.6587 94.6002C98.5768 92.7173 98.2357 91.0859 97.6354 89.706C96.9246 88.0778 95.8777 86.97 94.4949 86.3827C92.1656 85.391 88.9452 85.6189 86.8987 87.1774C85.8416 87.9802 85.1328 88.9997 84.7722 90.2358C83.9138 93.1741 83.6936 96.2993 84.1115 99.6113C84.6585 103.939 86.0782 107.034 90.7121 107.413Z" stroke="white" stroke-width="0.7625"/>
<path d="M239.949 105.473C239.949 104.636 239.617 103.833 239.026 103.241C238.436 102.649 237.635 102.316 236.799 102.316C235.964 102.316 235.163 102.649 234.572 103.241C233.981 103.833 233.649 104.636 233.649 105.473C233.649 106.311 233.981 107.114 234.572 107.706C235.163 108.298 235.964 108.63 236.799 108.63C237.635 108.63 238.436 108.298 239.026 107.706C239.617 107.114 239.949 106.311 239.949 105.473Z" stroke="white" stroke-width="0.7625"/>
<path d="M236.406 106.009L237.085 106.086C237.208 106.101 237.285 106.166 237.316 106.283L237.623 107.448C237.658 107.577 237.742 107.643 237.875 107.645L238.545 107.651C238.672 107.653 238.732 107.589 238.726 107.46C238.685 106.77 238.462 106.155 238.056 105.615C237.997 105.537 238.01 105.474 238.096 105.427C238.547 105.177 238.721 104.814 238.619 104.34C238.339 103.052 236.123 103.385 235.315 103.465C235.207 103.475 235.152 103.535 235.152 103.644L235.155 107.491C235.155 107.591 235.206 107.643 235.306 107.645L236.031 107.657C236.162 107.659 236.228 107.594 236.228 107.463L236.234 106.166C236.234 106.049 236.291 105.997 236.406 106.009Z" stroke="white" stroke-width="0.7625"/>
<path d="M236.233 104.31V105.08C236.233 105.106 236.239 105.132 236.248 105.155C236.258 105.179 236.273 105.201 236.291 105.219C236.309 105.237 236.331 105.251 236.355 105.261C236.379 105.27 236.404 105.275 236.43 105.274L236.519 105.271C236.794 105.27 237.058 105.212 237.252 105.108C237.446 105.005 237.555 104.865 237.555 104.72V104.658C237.555 104.586 237.528 104.515 237.475 104.449C237.423 104.382 237.346 104.322 237.249 104.271C237.152 104.221 237.038 104.181 236.911 104.154C236.785 104.126 236.65 104.113 236.513 104.113L236.424 104.116C236.373 104.117 236.325 104.138 236.289 104.174C236.253 104.211 236.233 104.259 236.233 104.31Z" stroke="white" stroke-width="0.7625"/>
<path d="M44.9601 126.537C46.0233 126.136 46.3685 125.347 45.9956 124.168C45.969 124.082 45.9116 124.039 45.8236 124.039C45.0369 124.042 42.471 123.774 42.2405 124.812C41.8226 126.697 43.6848 127.014 44.9601 126.537Z" stroke="white" stroke-width="0.7625"/>
<path d="M62.049 120.703C59.3111 120.18 59.1697 125.333 60.7246 126.257C61.499 126.716 62.1801 126.715 62.7681 126.253C64.1355 125.182 64.2247 121.122 62.049 120.703Z" stroke="white" stroke-width="0.7625"/>
<path d="M77.1984 125.534C77.3859 127.284 80.9873 127.006 81.1102 125.282C81.1369 124.935 81.1379 124.576 81.1133 124.207C81.1072 124.104 81.0529 124.052 80.9504 124.05C79.838 124.037 76.9895 123.551 77.1984 125.534Z" stroke="white" stroke-width="0.7625"/>
<path d="M89.6001 122.035C89.2068 120.837 87.9008 120.239 86.8007 120.973C85.2919 121.983 85.3718 127.111 88.1896 126.495C90.0242 126.095 90.0273 123.329 89.6001 122.035Z" stroke="white" stroke-width="0.7625"/>
<path d="M94.655 123.041L98.5576 123.06C98.5837 123.06 98.6087 123.049 98.6271 123.031C98.6456 123.012 98.6559 122.987 98.6559 122.961V122.81C98.6586 122.241 98.4553 121.695 98.0906 121.29C97.7258 120.886 97.2296 120.657 96.7108 120.654H96.5264C96.2692 120.653 96.0141 120.707 95.7759 120.814C95.5377 120.92 95.3209 121.077 95.1379 121.276C94.955 121.474 94.8095 121.71 94.7098 121.97C94.61 122.231 94.558 122.51 94.5566 122.792V122.943C94.5566 122.969 94.567 122.994 94.5854 123.012C94.6039 123.031 94.6289 123.041 94.655 123.041Z" stroke="white" stroke-width="0.7625"/>
<path d="M135.855 122.6C135.855 122.353 135.806 122.109 135.711 121.881C135.617 121.654 135.478 121.447 135.304 121.273C135.13 121.098 134.923 120.96 134.695 120.866C134.468 120.772 134.224 120.724 133.978 120.725L133.707 120.725C133.21 120.726 132.734 120.925 132.383 121.278C132.032 121.631 131.835 122.109 131.836 122.607L131.84 124.745C131.84 124.991 131.889 125.236 131.984 125.463C132.078 125.691 132.217 125.898 132.391 126.072C132.565 126.246 132.772 126.384 133 126.478C133.227 126.572 133.471 126.621 133.717 126.62L133.988 126.62C134.485 126.619 134.961 126.42 135.312 126.067C135.663 125.714 135.86 125.236 135.859 124.738L135.855 122.6Z" stroke="white" stroke-width="0.7625"/>
<path d="M144.385 122.563C144.383 122.317 144.334 122.075 144.239 121.848C144.144 121.622 144.006 121.417 143.831 121.244C143.657 121.071 143.451 120.934 143.224 120.842C142.997 120.749 142.755 120.702 142.51 120.703L142.239 120.705C141.745 120.707 141.271 120.907 140.923 121.259C140.575 121.612 140.381 122.088 140.384 122.584L140.395 124.771C140.397 125.016 140.446 125.259 140.541 125.485C140.636 125.712 140.774 125.917 140.948 126.09C141.123 126.262 141.329 126.399 141.556 126.492C141.783 126.585 142.025 126.632 142.27 126.63L142.541 126.629C143.035 126.626 143.509 126.427 143.857 126.075C144.205 125.722 144.399 125.246 144.396 124.75L144.385 122.563Z" stroke="white" stroke-width="0.7625"/>
<path d="M239.021 39.7547C236.609 41.4733 237.933 45.3233 240.938 45.0954C241.389 45.0625 242.065 44.8428 242.966 44.4363C244.628 43.6889 246.309 42.9815 248.009 42.3141C253.485 40.1674 259.139 43.6478 258.389 49.8293C257.91 53.7625 254.425 56.2173 250.624 55.8661C248.154 55.6382 245.078 54.0674 242.561 52.9555C241.692 52.5736 240.98 52.4032 240.425 52.4443C238.412 52.5952 237.045 55.0869 238.117 56.8179C238.374 57.2326 238.981 57.7788 239.94 58.4564C241.757 59.7398 243.289 60.8835 244.537 61.8875C247.69 64.4255 248.59 69.1471 245.784 72.3287C242.57 75.9755 236.624 75.6798 234.098 71.454C232.598 68.9469 232.543 65.254 232.224 61.9861C232.008 59.7777 229.885 58.3579 227.866 59.3404C226.616 59.9533 226.256 60.9974 226.124 62.4235C225.939 64.447 225.767 66.7077 225.31 68.6759C224.707 71.2723 223.404 73.2774 220.964 74.3092C217.354 75.8369 213.172 74.1706 211.54 70.6224C208.707 64.4686 214.914 60.9943 218.906 58.1053C219.588 57.6125 220.04 57.1443 220.264 56.7008C221.656 53.9411 218.69 51.6188 216.094 52.8108C214.299 53.6342 212.492 54.4278 210.673 55.1916C208.293 56.1937 206.038 56.2203 203.91 55.2717C200.858 53.9134 199.137 50.0573 200.112 46.7647C201.473 42.1817 206.141 40.6725 210.501 42.3696C211.958 42.9363 213.402 43.5441 214.834 44.1929C216.059 44.7494 216.931 45.0482 217.449 45.0892C220.547 45.3418 221.714 41.3101 219.161 39.5945C216.53 37.8266 214.591 36.3831 213.344 35.264C211.518 33.6316 210.56 30.9243 210.993 28.5157C211.952 23.2027 218.69 20.8773 222.728 24.3085C225.678 26.8187 225.74 31.1923 226.081 34.7897C226.179 35.8328 226.348 36.571 226.588 37.0042C228.02 39.613 231.99 38.612 232.199 35.7383C232.402 32.991 232.638 29.4582 233.616 27.1513C237.537 17.9082 251.724 24.3701 246.165 33.9673C245.836 34.5361 245.027 35.3225 243.741 36.3266C243.108 36.8215 241.535 37.9642 239.021 39.7547Z" fill="white"/>
<path d="M160.563 105.218C155.471 110.239 145.629 112.041 139.947 106.774C136.416 103.5 135.62 97.3951 138.417 93.2248C139.95 90.9364 142.891 88.7988 145.404 87.265C145.433 87.2473 145.458 87.2233 145.476 87.1948C145.495 87.1663 145.506 87.1341 145.511 87.1005C145.515 87.0668 145.512 87.0326 145.502 87.0003C145.491 86.9681 145.474 86.9385 145.45 86.9139C143.591 84.9458 141.781 82.3247 141.385 79.7129C140.844 76.1678 143.026 72.5642 146.461 71.4092C151.787 69.6166 157.456 73.405 157.128 79.1307C156.903 83.0916 153.188 85.4663 150.094 87.302C150.06 87.3219 150.031 87.3489 150.009 87.3812C149.986 87.4135 149.971 87.4502 149.965 87.4889C149.958 87.5276 149.96 87.5672 149.97 87.6051C149.98 87.6431 149.998 87.6783 150.023 87.7085L160.701 100.497C160.785 100.595 160.863 100.592 160.935 100.487C162.855 97.7216 163.064 94.6693 163.101 91.3953C163.103 91.2947 163.155 91.2444 163.255 91.2444H165.787C165.889 91.2444 165.945 91.2957 165.953 91.3984C166.225 95.5933 165.195 99.3992 162.862 102.816C162.796 102.912 162.8 103.005 162.874 103.093L168.107 109.389C168.207 109.51 168.179 109.57 168.021 109.57H164.552C164.491 109.57 164.431 109.557 164.377 109.531C164.322 109.506 164.274 109.469 164.235 109.423L160.75 105.228C160.739 105.214 160.725 105.203 160.71 105.194C160.694 105.186 160.677 105.182 160.659 105.181C160.641 105.18 160.623 105.183 160.607 105.189C160.59 105.196 160.575 105.206 160.563 105.218ZM153.824 80.4089C154.952 77.7232 153.372 74.4584 150.49 73.7685C145.921 72.6781 142.897 77.2951 145.008 81.2652C145.682 82.5321 146.684 83.8893 148.013 85.3369C148.077 85.4047 148.148 85.415 148.228 85.3677C150.349 84.145 152.954 82.491 153.824 80.4089ZM147.18 89.2362C142.666 92.0421 138.026 95.8151 140.319 101.935C141.947 106.278 146.581 107.879 150.883 107.079C154.059 106.489 156.708 105.183 158.83 103.161C158.916 103.079 158.921 102.993 158.845 102.902L147.448 89.2793C147.372 89.189 147.283 89.1746 147.18 89.2362Z" fill="white"/>
<path d="M40.1234 94.8762L59.4244 71.3419C59.4336 71.3304 59.4453 71.3211 59.4586 71.3147C59.4719 71.3083 59.4865 71.305 59.5012 71.305L62.9214 71.3019C62.9399 71.3019 62.9581 71.3071 62.9737 71.317C62.9894 71.3269 63.002 71.341 63.01 71.3578C63.0181 71.3745 63.0212 71.3932 63.0191 71.4116C63.017 71.4301 63.0098 71.4476 62.9982 71.4621L51.2043 85.8888C51.1918 85.9042 51.1843 85.923 51.1826 85.9428C51.181 85.9626 51.1853 85.9824 51.1951 85.9997L65.0294 109.426C65.0379 109.441 65.0425 109.458 65.0426 109.475C65.0427 109.492 65.0383 109.509 65.0299 109.524C65.0216 109.539 65.0095 109.551 64.9948 109.56C64.9802 109.569 64.9635 109.574 64.9464 109.574L61.5693 109.571C61.5524 109.571 61.5359 109.566 61.5214 109.557C61.5068 109.549 61.4948 109.536 61.4863 109.522L49.2069 88.3528C49.1989 88.3393 49.1877 88.328 49.1743 88.3197C49.161 88.3115 49.1459 88.3065 49.1302 88.3053C49.1146 88.3041 49.0989 88.3067 49.0844 88.3128C49.07 88.3189 49.0572 88.3284 49.0471 88.3405L39.9698 99.2036C39.9551 99.2219 39.9475 99.2449 39.9482 99.2683V109.472C39.9482 109.498 39.9379 109.524 39.9194 109.542C39.901 109.561 39.876 109.571 39.8499 109.571H37.0505C37.0244 109.571 36.9994 109.561 36.9809 109.542C36.9625 109.524 36.9521 109.498 36.9521 109.472V71.4005C36.9521 71.3743 36.9625 71.3493 36.9809 71.3308C36.9994 71.3123 37.0244 71.3019 37.0505 71.3019L39.8499 71.2988C39.876 71.2988 39.901 71.3092 39.9194 71.3277C39.9379 71.3462 39.9482 71.3712 39.9482 71.3974V94.8146C39.9482 94.8351 39.9545 94.855 39.9663 94.8717C39.9781 94.8883 39.9948 94.9009 40.014 94.9077C40.0333 94.9145 40.0541 94.9151 40.0737 94.9094C40.0933 94.9038 40.1107 94.8922 40.1234 94.8762Z" fill="white"/>
<path d="M74.0355 71.2988L70.772 71.3045C70.7194 71.3046 70.6768 71.3474 70.6769 71.4002L70.6826 74.6773C70.6827 74.73 70.7254 74.7727 70.7781 74.7726L74.0415 74.7669C74.0941 74.7668 74.1367 74.724 74.1366 74.6712L74.1309 71.3941C74.1308 71.3414 74.0881 71.2987 74.0355 71.2988Z" fill="white"/>
<path d="M98.459 86.6823C98.471 86.6991 98.488 86.7117 98.5076 86.7183C98.5271 86.7249 98.5483 86.7251 98.568 86.719C98.5877 86.7129 98.605 86.7007 98.6174 86.6841C98.6299 86.6676 98.6368 86.6476 98.6372 86.6269L98.6403 71.4548C98.6403 71.3521 98.6915 71.3008 98.7939 71.3008H101.329C101.431 71.3008 101.483 71.3521 101.483 71.4548V109.416C101.483 109.521 101.431 109.573 101.329 109.573H98.797C98.6945 109.573 98.6433 109.522 98.6433 109.419L98.6341 106.65C98.6337 106.628 98.6265 106.607 98.6137 106.59C98.6008 106.572 98.5828 106.559 98.5622 106.552C98.5416 106.546 98.5194 106.546 98.4987 106.552C98.478 106.558 98.4598 106.571 98.4467 106.588C96.4278 109.339 93.278 110.146 90.0545 109.896C85.227 109.527 82.7041 106.727 81.7208 102.165C80.8849 98.2929 80.9403 94.3453 81.8867 90.3229C82.7932 86.4698 85.3038 84.0612 89.2341 83.4144C92.6143 82.8569 96.4093 83.7871 98.459 86.6823ZM90.7121 107.411C98.4774 108.048 98.8922 100.037 98.6587 94.5979C98.5767 92.715 98.2357 91.0836 97.6354 89.7038C96.9245 88.0755 95.8777 86.9677 94.4949 86.3805C92.1656 85.3887 88.9452 85.6166 86.8986 87.1751C85.8416 87.978 85.1327 88.9974 84.7722 90.2335C83.9138 93.1719 83.6936 96.297 84.1115 99.6091C84.6585 103.936 86.0782 107.032 90.7121 107.411Z" fill="white"/>
<path d="M185.22 106.876C192.334 108.786 198.434 104.236 198.464 96.8659C198.501 88.4 198.518 79.931 198.514 71.459C198.514 71.3543 198.566 71.3019 198.67 71.3019H201.347C201.455 71.3019 201.51 71.3563 201.51 71.4651C201.504 79.2309 201.506 86.9945 201.516 94.7561C201.52 97.3495 201.375 99.258 201.08 100.482C199.895 105.408 196.658 108.461 191.366 109.642C189.102 110.145 186.82 110.101 184.52 109.509C180.024 108.357 176.595 105.317 175.384 100.808C175.081 99.6769 174.928 97.8556 174.926 95.3444C174.922 87.3836 174.922 79.4228 174.926 71.4621C174.926 71.3553 174.979 71.3019 175.086 71.3019L177.762 71.2988C177.867 71.2988 177.919 71.3512 177.919 71.4559C177.927 79.1929 177.927 86.9288 177.919 94.6637C177.915 97.1688 178.063 98.9798 178.365 100.097C179.317 103.643 181.602 105.903 185.22 106.876Z" fill="white"/>
<path d="M115.542 86.1009C112.908 86.683 111.396 88.9683 111.9 91.6295C112.506 94.8296 116.19 95.0082 118.759 95.1499C123.522 95.4055 129.284 95.9784 128.983 102.483C128.771 107.011 125.209 109.284 121.061 109.755C116.282 110.297 111.59 109.592 107.955 106.296C107.862 106.21 107.861 106.123 107.952 106.035L109.651 104.353C109.688 104.316 109.738 104.296 109.789 104.295C109.841 104.294 109.891 104.314 109.928 104.35C112.985 107.297 117.376 107.892 121.38 107.19C124.478 106.648 126.853 104.565 126.091 101.137C125.694 99.3449 124.427 98.3141 122.29 98.0451C117.263 97.4168 108.188 98.0482 109.055 89.9909C109.522 85.6265 112.884 83.8247 116.98 83.3935C120.678 83.0055 124.186 83.835 127.505 85.8822C127.537 85.9024 127.565 85.9298 127.586 85.9624C127.606 85.995 127.619 86.0319 127.623 86.0703C127.628 86.1086 127.623 86.1474 127.61 86.1837C127.597 86.22 127.575 86.2528 127.548 86.2795L125.922 87.8349C125.838 87.915 125.747 87.9232 125.649 87.8595C122.557 85.8801 119.188 85.2939 115.542 86.1009Z" fill="white"/>
<path d="M225.331 87.869C222.227 85.9501 218.954 85.2818 215.414 86.061C213.312 86.5251 212.052 87.6965 211.635 89.5753C210.713 93.7364 214.142 94.8883 217.409 95.07C219.324 95.1748 221.346 95.4129 223.474 95.7846C226.04 96.2343 227.875 97.7158 228.532 100.297C228.932 101.863 228.851 103.376 228.29 104.834C226.126 110.455 217.544 110.593 212.719 109.189C210.855 108.647 209.173 107.681 207.674 106.29C207.587 106.212 207.585 106.132 207.667 106.05L209.357 104.35C209.444 104.266 209.529 104.266 209.613 104.35C212.566 107.205 216.914 107.892 220.801 107.208C222.6 106.892 223.918 106.29 224.756 105.403C226.215 103.854 226.547 100.454 224.455 98.9601C223.74 98.4508 222.773 98.1326 221.554 98.0053C219.507 97.7917 217.459 97.5905 215.408 97.4016C214.139 97.2845 212.212 96.647 211.152 95.8523C209.099 94.3123 208.34 92.1153 208.875 89.2611C209.511 85.8701 212.347 84.0128 215.562 83.5139C219.743 82.8609 223.632 83.6555 227.23 85.8978C227.259 85.9158 227.283 85.9402 227.301 85.9692C227.319 85.9982 227.33 86.031 227.333 86.065C227.336 86.0989 227.332 86.1332 227.32 86.1651C227.308 86.197 227.288 86.2257 227.263 86.2489L225.586 87.8413C225.508 87.9152 225.423 87.9244 225.331 87.869Z" fill="white"/>
<path d="M73.7376 83.6211H71.0764C71.0272 83.6211 70.9873 83.6611 70.9873 83.7104V109.484C70.9873 109.533 71.0272 109.573 71.0764 109.573H73.7376C73.7868 109.573 73.8267 109.533 73.8267 109.484V83.7104C73.8267 83.6611 73.7868 83.6211 73.7376 83.6211Z" fill="white"/>
<path d="M241.052 105.541C241.045 106.083 240.928 106.618 240.709 107.116C240.489 107.613 240.17 108.064 239.77 108.442C239.37 108.82 238.897 109.118 238.378 109.319C237.859 109.52 237.305 109.62 236.746 109.613C236.187 109.606 235.635 109.493 235.121 109.279C234.607 109.066 234.142 108.756 233.751 108.369C233.361 107.981 233.053 107.522 232.845 107.019C232.637 106.516 232.534 105.979 232.54 105.437C232.547 104.896 232.664 104.361 232.884 103.863C233.103 103.365 233.422 102.915 233.822 102.537C234.222 102.158 234.695 101.86 235.214 101.66C235.733 101.459 236.287 101.359 236.846 101.366C237.405 101.372 237.957 101.486 238.471 101.699C238.985 101.913 239.45 102.222 239.841 102.61C240.231 102.998 240.539 103.456 240.747 103.959C240.955 104.462 241.058 105 241.052 105.541ZM239.949 105.471C239.949 104.634 239.617 103.831 239.026 103.239C238.436 102.647 237.634 102.314 236.799 102.314C235.964 102.314 235.163 102.647 234.572 103.239C233.981 103.831 233.649 104.634 233.649 105.471C233.649 106.308 233.981 107.111 234.572 107.703C235.163 108.295 235.964 108.628 236.799 108.628C237.634 108.628 238.436 108.295 239.026 107.703C239.617 107.111 239.949 106.308 239.949 105.471Z" fill="white"/>
<path d="M239.949 105.471C239.949 106.309 239.617 107.112 239.026 107.704C238.436 108.296 237.635 108.628 236.799 108.628C235.964 108.628 235.163 108.296 234.572 107.704C233.981 107.112 233.649 106.309 233.649 105.471C233.649 104.634 233.981 103.831 234.572 103.239C235.163 102.647 235.964 102.314 236.799 102.314C237.635 102.314 238.436 102.647 239.026 103.239C239.617 103.831 239.949 104.634 239.949 105.471ZM236.406 106.007L237.085 106.084C237.208 106.099 237.285 106.164 237.315 106.281L237.623 107.446C237.658 107.575 237.742 107.641 237.875 107.643L238.545 107.649C238.672 107.651 238.732 107.587 238.726 107.458C238.685 106.768 238.462 106.153 238.056 105.613C237.997 105.535 238.01 105.472 238.096 105.425C238.547 105.175 238.721 104.812 238.618 104.338C238.339 103.051 236.123 103.383 235.315 103.463C235.206 103.474 235.152 103.533 235.152 103.642L235.155 107.489C235.155 107.589 235.205 107.641 235.306 107.643L236.031 107.655C236.162 107.657 236.228 107.593 236.228 107.461L236.234 106.164C236.234 106.047 236.291 105.995 236.406 106.007Z" fill="white"/>
<path d="M236.234 106.164L236.228 107.461C236.228 107.592 236.162 107.657 236.031 107.655L235.306 107.643C235.206 107.641 235.155 107.589 235.155 107.489L235.152 103.642C235.152 103.533 235.207 103.473 235.315 103.463C236.123 103.383 238.339 103.05 238.619 104.338C238.721 104.812 238.547 105.175 238.096 105.425C238.01 105.472 237.997 105.535 238.056 105.613C238.462 106.153 238.685 106.768 238.726 107.458C238.732 107.587 238.672 107.651 238.545 107.649L237.875 107.643C237.742 107.641 237.658 107.575 237.623 107.446L237.316 106.281C237.285 106.164 237.208 106.099 237.085 106.084L236.406 106.007C236.291 105.995 236.234 106.047 236.234 106.164ZM236.234 104.31V105.08C236.234 105.106 236.239 105.131 236.249 105.155C236.259 105.179 236.273 105.2 236.292 105.218C236.31 105.237 236.332 105.251 236.356 105.26C236.379 105.27 236.405 105.275 236.431 105.274L236.52 105.271C236.795 105.27 237.058 105.211 237.253 105.108C237.447 105.005 237.556 104.865 237.555 104.72V104.658C237.555 104.586 237.528 104.515 237.476 104.448C237.423 104.382 237.347 104.322 237.25 104.271C237.153 104.22 237.038 104.18 236.912 104.153C236.786 104.126 236.65 104.113 236.514 104.113L236.425 104.116C236.374 104.117 236.325 104.138 236.29 104.174C236.254 104.21 236.234 104.259 236.234 104.31Z" fill="white"/>
<path d="M236.233 104.31C236.233 104.259 236.253 104.211 236.289 104.174C236.325 104.138 236.373 104.117 236.424 104.116L236.513 104.113C236.65 104.113 236.785 104.126 236.911 104.154C237.038 104.181 237.152 104.221 237.249 104.271C237.346 104.322 237.423 104.382 237.475 104.449C237.528 104.515 237.555 104.586 237.555 104.658V104.72C237.555 104.865 237.446 105.005 237.252 105.108C237.058 105.212 236.794 105.27 236.519 105.271L236.43 105.274C236.404 105.275 236.379 105.27 236.355 105.261C236.331 105.251 236.309 105.237 236.291 105.219C236.273 105.201 236.258 105.179 236.248 105.155C236.239 105.132 236.233 105.106 236.233 105.08V104.31Z" fill="white"/>
<path d="M37.794 125.51C37.7848 126.447 38.4455 126.801 39.3089 126.545C39.4278 126.51 39.4872 126.554 39.4872 126.678V127.426C39.4872 127.508 39.4482 127.56 39.3704 127.58C38.2723 127.868 37.4765 127.664 36.9827 126.97C36.6959 126.568 36.5546 125.88 36.5587 124.907C36.571 122.02 36.574 119.142 36.5679 116.273C36.5679 116.231 36.5847 116.19 36.6147 116.16C36.6447 116.13 36.6853 116.113 36.7277 116.113L37.6342 116.116C37.7346 116.118 37.7848 116.169 37.7848 116.267C37.8094 120.372 37.8124 123.453 37.794 125.51Z" fill="white"/>
<path d="M123.411 120.224C124.932 119.272 126.997 119.223 127.916 120.883C128.183 121.368 128.312 122.106 128.303 123.098C128.289 124.574 128.288 126.042 128.3 127.502C128.3 127.611 128.246 127.665 128.138 127.665L127.222 127.668C127.117 127.668 127.065 127.615 127.065 127.508C127.065 125.787 127.062 124.07 127.056 122.355C127.05 120.612 124.57 120.119 123.623 121.342C123.351 121.697 123.217 122.295 123.221 123.135C123.229 124.599 123.229 126.059 123.221 127.514C123.219 127.615 123.168 127.665 123.067 127.665L122.072 127.668C121.969 127.668 121.918 127.616 121.918 127.511V116.306C121.918 116.179 121.983 116.115 122.112 116.115H123.03C123.159 116.115 123.224 116.18 123.224 116.309V120.122C123.224 120.268 123.286 120.302 123.411 120.224Z" fill="white"/>
<path d="M149.384 126.31C149.748 126.591 150.173 126.677 150.659 126.566C150.686 126.56 150.713 126.56 150.74 126.566C150.766 126.572 150.791 126.584 150.813 126.601C150.834 126.619 150.851 126.64 150.863 126.665C150.874 126.69 150.88 126.717 150.88 126.744V127.428C150.88 127.523 150.834 127.579 150.742 127.597C148.21 128.143 147.875 126.486 147.878 124.428C147.886 121.712 147.887 118.999 147.881 116.291C147.881 116.174 147.939 116.115 148.056 116.115H149C149.127 116.115 149.19 116.18 149.19 116.309V125.919C149.19 125.994 149.207 126.069 149.241 126.137C149.275 126.205 149.323 126.264 149.384 126.31Z" fill="white"/>
<path d="M46.0475 122.902C46.5668 120.256 43.4293 120.072 42.1664 121.473C42.0988 121.549 42.026 121.553 41.9482 121.485L41.309 120.922C41.2773 120.893 41.2574 120.854 41.2534 120.811C41.2494 120.769 41.2616 120.727 41.2875 120.694C42.2586 119.446 44.0501 119.406 45.4175 119.73C46.7307 120.042 47.3914 120.891 47.3996 122.277C47.4118 124.022 47.4088 125.769 47.3903 127.516C47.3903 127.613 47.3422 127.662 47.2459 127.664L46.3025 127.676C46.1755 127.678 46.1079 127.617 46.0997 127.491L46.0874 127.294C46.0792 127.175 46.0229 127.145 45.9184 127.205C44.7302 127.876 43.5062 127.981 42.2463 127.519C40.5347 126.894 40.6361 124.581 41.8099 123.527C42.5351 122.874 44.849 123.062 45.8938 123.032C45.9799 123.029 46.0311 122.986 46.0475 122.902ZM44.9597 126.537C46.0229 126.136 46.3681 125.347 45.9952 124.168C45.9686 124.082 45.9112 124.039 45.8231 124.039C45.0365 124.042 42.4706 123.774 42.2401 124.812C41.8222 126.697 43.6844 127.014 44.9597 126.537Z" fill="white"/>
<path d="M51.2959 120.284C52.7524 119.252 55.1186 119.233 55.9821 120.958C56.1992 121.393 56.3088 122.138 56.3109 123.191C56.315 124.628 56.315 126.068 56.3109 127.509C56.3088 127.614 56.2566 127.666 56.1542 127.666H55.2415C55.135 127.666 55.0817 127.614 55.0817 127.509C55.0776 125.891 55.0766 124.276 55.0786 122.664C55.0817 120.003 51.173 119.966 51.1699 122.738C51.1658 124.328 51.1637 125.918 51.1637 127.509C51.1637 127.614 51.1115 127.666 51.007 127.666L50.0882 127.669C49.9858 127.669 49.9346 127.617 49.9346 127.512V119.812C49.9346 119.71 49.9858 119.658 50.0882 119.658H51.0162C51.0368 119.658 51.0572 119.662 51.0761 119.671C51.095 119.679 51.112 119.691 51.1261 119.706C51.1402 119.721 51.1511 119.738 51.1581 119.758C51.1651 119.777 51.1681 119.798 51.1668 119.818L51.1422 120.2C51.1361 120.334 51.1873 120.362 51.2959 120.284Z" fill="white"/>
<path d="M63.5541 126.929C61.6673 128.269 59.2735 127.804 58.7173 125.441C58.324 123.76 58.284 120.646 60.1769 119.86C61.3897 119.359 62.4929 119.478 63.4865 120.218C63.6258 120.322 63.6944 120.287 63.6924 120.113L63.6862 119.851C63.6842 119.722 63.7477 119.657 63.8767 119.657H64.7433C64.856 119.657 64.9123 119.712 64.9123 119.823C64.9205 122.38 64.9195 124.933 64.9092 127.483C64.9051 128.53 64.7679 129.291 64.4975 129.766C63.3881 131.724 60.5303 131.721 58.9478 130.354C58.8474 130.266 58.8433 130.175 58.9355 130.083L59.5132 129.498C59.5972 129.413 59.6812 129.412 59.7652 129.494C61.1357 130.816 63.2775 130.283 63.6616 128.429C63.7087 128.203 63.7128 127.721 63.6739 126.984C63.6678 126.894 63.6278 126.875 63.5541 126.929ZM62.0483 120.701C59.3104 120.177 59.169 125.33 60.7239 126.254C61.4983 126.714 62.1795 126.713 62.7674 126.251C64.1349 125.179 64.224 121.12 62.0483 120.701Z" fill="white"/>
<path d="M80.8636 127.236C79.3241 128.153 76.1897 128.116 75.99 125.652C75.7503 122.742 78.774 123.001 80.8851 123.062C80.9835 123.064 81.046 123.017 81.0726 122.92C81.3491 121.873 80.9804 121.017 79.8957 120.727C78.8775 120.454 77.9679 120.697 77.1669 121.454C77.085 121.532 77.002 121.532 76.918 121.454L76.3126 120.888C76.1877 120.773 76.1907 120.66 76.3219 120.549C77.3585 119.678 78.6511 119.39 80.1999 119.683C81.6073 119.948 82.3151 120.762 82.3233 122.126C82.3356 123.885 82.3489 125.649 82.3632 127.417C82.3653 127.518 82.3192 127.586 82.2249 127.621C81.6759 127.832 81.2805 127.72 81.0388 127.285C80.9958 127.207 80.9374 127.19 80.8636 127.236ZM77.1976 125.535C77.3851 127.285 80.9865 127.008 81.1095 125.283C81.1361 124.936 81.1371 124.577 81.1125 124.208C81.1064 124.105 81.0521 124.053 80.9497 124.051C79.8373 124.038 76.9887 123.552 77.1976 125.535Z" fill="white"/>
<path d="M89.6365 126.904C89.3323 127.141 89.0465 127.421 88.6624 127.507C85.0763 128.324 84.4125 125.502 84.6737 122.644C84.7475 121.833 84.937 121.2 85.2422 120.744C86.1979 119.312 88.1707 119.17 89.6549 120.291C89.7676 120.375 89.8219 120.347 89.8178 120.208L89.8117 119.854C89.8096 119.726 89.8711 119.663 89.996 119.663L90.8718 119.66C90.9742 119.66 91.0255 119.711 91.0255 119.814C91.048 124.163 91.049 126.932 91.0285 128.123C90.9671 131.428 87.1259 132.167 84.9687 130.319C84.9511 130.304 84.9369 130.285 84.9269 130.264C84.917 130.243 84.9116 130.22 84.911 130.196C84.9104 130.173 84.9147 130.149 84.9236 130.128C84.9325 130.106 84.9457 130.086 84.9626 130.07L85.5372 129.525C85.6253 129.441 85.7196 129.434 85.8199 129.506C88.2414 131.259 90.0421 129.614 89.7809 126.965C89.7686 126.859 89.7205 126.838 89.6365 126.904ZM89.5996 122.034C89.2063 120.836 87.9003 120.239 86.8002 120.972C85.2914 121.982 85.3713 127.11 88.1892 126.494C90.0237 126.094 90.0268 123.328 89.5996 122.034Z" fill="white"/>
<path d="M94.5594 124.203C94.4733 126.734 97.1775 127.4 98.8154 125.863C98.9014 125.781 98.9895 125.779 99.0796 125.86L99.6696 126.383C99.6877 126.399 99.7021 126.419 99.7121 126.441C99.7221 126.462 99.7274 126.486 99.7277 126.51C99.728 126.534 99.7233 126.558 99.7138 126.58C99.7043 126.603 99.6903 126.622 99.6727 126.639C97.7614 128.438 94.1415 128.21 93.4316 125.268C92.817 122.718 93.6375 119.216 97.0269 119.586C99.3439 119.838 100.051 121.871 99.9401 123.901C99.936 123.997 99.8858 124.045 99.7895 124.045H94.7223C94.6178 124.045 94.5635 124.098 94.5594 124.203ZM94.6546 123.038L98.5573 123.057C98.5833 123.057 98.6083 123.046 98.6268 123.028C98.6452 123.009 98.6556 122.984 98.6556 122.958V122.807C98.6583 122.238 98.455 121.692 98.0903 121.287C97.7255 120.883 97.2292 120.654 96.7104 120.651H96.5261C96.2688 120.65 96.0138 120.704 95.7756 120.811C95.5373 120.917 95.3205 121.074 95.1376 121.273C94.9547 121.471 94.8092 121.707 94.7094 121.967C94.6097 122.228 94.5577 122.507 94.5563 122.789V122.94C94.5563 122.966 94.5667 122.991 94.5851 123.009C94.6036 123.028 94.6286 123.038 94.6546 123.038Z" fill="white"/>
<path d="M109.703 124.291C108.582 124.085 106.962 124.251 106.157 123.361C105.346 122.464 105.518 121.048 106.421 120.272C107.74 119.135 110.041 119.508 111.455 120.299C111.48 120.313 111.502 120.333 111.519 120.356C111.535 120.38 111.546 120.408 111.55 120.437C111.554 120.466 111.552 120.495 111.543 120.523C111.534 120.551 111.518 120.577 111.498 120.598L110.932 121.171C110.852 121.253 110.763 121.264 110.665 121.205C109.565 120.539 106.624 120.071 106.916 122.243C106.928 122.347 106.974 122.436 107.054 122.508C107.786 123.182 109.116 123.053 110.219 123.256C112.518 123.675 112.447 126.783 110.478 127.445C108.938 127.965 106.692 127.931 105.423 126.743C105.322 126.65 105.32 126.556 105.416 126.459L105.991 125.88C106.065 125.806 106.143 125.801 106.225 125.865C107.374 126.742 108.592 126.933 109.878 126.438C111.064 125.982 111.034 124.534 109.703 124.291Z" fill="white"/>
<path d="M115.956 126.262C116.961 126.946 118.169 126.739 118.989 125.861C119.067 125.775 119.149 125.77 119.235 125.846L119.85 126.385C119.95 126.471 119.957 126.566 119.871 126.668C119.351 127.28 118.651 127.632 117.773 127.725C115.668 127.95 114.291 126.964 113.796 124.91C113.54 123.838 113.594 122.813 113.959 121.836C114.887 119.347 118.092 118.756 119.877 120.662C119.966 120.757 119.961 120.847 119.865 120.933L119.272 121.457C119.186 121.533 119.1 121.532 119.014 121.454C117.499 120.071 115.597 120.582 115.062 122.541C114.767 123.622 114.869 125.52 115.956 126.262Z" fill="white"/>
<path d="M137.107 124.684C137.109 125.08 137.033 125.473 136.884 125.84C136.734 126.207 136.514 126.541 136.236 126.823C135.958 127.105 135.627 127.329 135.263 127.482C134.898 127.636 134.507 127.716 134.111 127.718L133.607 127.721C132.809 127.725 132.041 127.411 131.473 126.848C130.906 126.285 130.584 125.519 130.58 124.718L130.569 122.642C130.567 122.246 130.643 121.853 130.793 121.486C130.942 121.119 131.162 120.785 131.44 120.503C131.718 120.222 132.049 119.998 132.414 119.844C132.778 119.69 133.17 119.61 133.565 119.608L134.069 119.606C134.868 119.601 135.635 119.915 136.203 120.478C136.771 121.041 137.092 121.808 137.096 122.608L137.107 124.684ZM135.855 122.6C135.855 122.353 135.806 122.109 135.711 121.881C135.617 121.654 135.478 121.447 135.304 121.273C135.13 121.098 134.923 120.96 134.695 120.866C134.467 120.772 134.224 120.724 133.977 120.725L133.707 120.725C133.21 120.726 132.733 120.925 132.383 121.278C132.032 121.631 131.835 122.109 131.836 122.607L131.84 124.745C131.84 124.991 131.889 125.236 131.984 125.463C132.078 125.691 132.217 125.898 132.391 126.072C132.565 126.246 132.772 126.384 133 126.478C133.227 126.572 133.471 126.621 133.717 126.62L133.988 126.62C134.485 126.619 134.961 126.42 135.312 126.067C135.663 125.714 135.86 125.236 135.859 124.738L135.855 122.6Z" fill="white"/>
<path d="M145.639 124.676C145.644 125.475 145.333 126.244 144.773 126.814C144.212 127.383 143.449 127.706 142.652 127.712L142.142 127.715C141.344 127.721 140.576 127.409 140.008 126.847C139.44 126.286 139.118 125.521 139.112 124.721L139.098 122.645C139.092 121.846 139.404 121.077 139.964 120.507C140.524 119.938 141.287 119.615 142.085 119.609L142.595 119.606C143.393 119.6 144.16 119.912 144.728 120.474C145.297 121.035 145.619 121.8 145.624 122.6L145.639 124.676ZM144.385 122.56C144.383 122.314 144.334 122.071 144.239 121.845C144.144 121.619 144.005 121.413 143.831 121.241C143.657 121.068 143.451 120.931 143.224 120.839C142.997 120.746 142.755 120.699 142.51 120.7L142.239 120.701C141.744 120.704 141.271 120.903 140.923 121.256C140.575 121.608 140.381 122.085 140.384 122.581L140.395 124.767C140.396 125.013 140.446 125.256 140.541 125.482C140.636 125.709 140.774 125.914 140.948 126.087C141.122 126.259 141.329 126.396 141.556 126.489C141.782 126.581 142.025 126.629 142.27 126.627L142.541 126.626C143.035 126.623 143.509 126.424 143.857 126.071C144.205 125.719 144.399 125.242 144.396 124.746L144.385 122.56Z" fill="white"/>
<path d="M72.5425 127.051C71.637 127.669 70.6895 127.89 69.7 127.714C67.9208 127.396 67.5398 126.1 67.5306 124.384C67.5224 122.863 67.5224 121.34 67.5306 119.816C67.5306 119.714 67.5818 119.661 67.6842 119.659L68.5969 119.656C68.7013 119.656 68.7536 119.709 68.7536 119.813C68.7597 121.485 68.7618 123.153 68.7597 124.818C68.7597 126.691 71.341 127.325 72.2475 125.961C72.4851 125.604 72.6019 125.026 72.5978 124.227C72.5896 122.757 72.5917 121.287 72.6039 119.816C72.6039 119.714 72.6562 119.662 72.7607 119.662L73.7501 119.659C73.8526 119.657 73.9038 119.709 73.9038 119.813V127.513C73.9038 127.616 73.8526 127.667 73.7501 127.667L72.816 127.67C72.7013 127.67 72.6511 127.614 72.6654 127.501L72.7054 127.15C72.7238 126.996 72.6695 126.963 72.5425 127.051Z" fill="white"/>
<path d="M60.7236 126.255C59.1687 125.331 59.3101 120.178 62.048 120.701C64.2237 121.12 64.1346 125.18 62.7671 126.251C62.1792 126.713 61.498 126.715 60.7236 126.255Z" fill="white"/>
<path d="M89.6001 122.033C90.0273 123.327 90.0242 126.093 88.1896 126.493C85.3718 127.109 85.2919 121.981 86.8007 120.971C87.9008 120.238 89.2068 120.835 89.6001 122.033Z" fill="white"/>
<path d="M94.655 123.039C94.6289 123.039 94.6039 123.029 94.5854 123.01C94.567 122.992 94.5566 122.967 94.5566 122.941V122.79C94.558 122.508 94.61 122.229 94.7098 121.969C94.8095 121.708 94.955 121.472 95.1379 121.274C95.3209 121.075 95.5377 120.918 95.7759 120.812C96.0141 120.705 96.2692 120.651 96.5264 120.652H96.7108C97.2296 120.655 97.7258 120.884 98.0906 121.288C98.4553 121.693 98.6586 122.239 98.6559 122.808V122.959C98.6559 122.985 98.6456 123.011 98.6271 123.029C98.6087 123.047 98.5837 123.058 98.5576 123.058L94.655 123.039Z" fill="white"/>
<path d="M133.977 120.723L133.707 120.723C132.671 120.725 131.833 121.568 131.835 122.605L131.839 124.743C131.841 125.781 132.682 126.62 133.717 126.618L133.987 126.618C135.022 126.616 135.86 125.773 135.858 124.736L135.855 122.598C135.853 121.561 135.012 120.721 133.977 120.723Z" fill="white"/>
<path d="M142.51 120.702L142.239 120.703C141.209 120.709 140.378 121.55 140.384 122.582L140.395 124.769C140.401 125.802 141.24 126.634 142.27 126.629L142.541 126.628C143.571 126.622 144.401 125.781 144.396 124.748L144.385 122.561C144.379 121.529 143.54 120.696 142.51 120.702Z" fill="white"/>
<path d="M44.9601 126.535C43.6848 127.012 41.8226 126.695 42.2405 124.81C42.471 123.772 45.0369 124.04 45.8236 124.037C45.9116 124.037 45.969 124.08 45.9956 124.166C46.3685 125.345 46.0233 126.134 44.9601 126.535Z" fill="white"/>
<path d="M81.1093 125.282C80.9863 127.006 77.3849 127.284 77.1974 125.534C76.9885 123.551 79.8371 124.037 80.9495 124.05C81.0519 124.052 81.1062 124.104 81.1123 124.207C81.1369 124.576 81.1359 124.935 81.1093 125.282Z" fill="white"/>
</g>
<defs>
<clipPath id="clip0_718_812">
<rect width="295" height="154" fill="white"/>
</clipPath>
</defs>
</svg>
