<svg width="290" height="94" viewBox="0 0 290 94" fill="none" xmlns="http://www.w3.org/2000/svg">
<g clip-path="url(#clip0_718_1009)">
<path d="M203.518 0.395091C190.507 2.35342 179.761 11.4923 175.424 24.2215C166.62 50.0715 190.248 76.1826 216.723 69.9159C233.424 65.934 245.399 49.4187 243.781 32.3812C241.969 12.2104 223.261 -2.60769 203.518 0.395091ZM217.241 16.9756C221.513 18.934 225.009 22.5243 227.145 27.0937C229.475 32.1201 229.475 39.0395 227.21 43.8048C225.203 47.9173 221.254 51.8993 217.176 53.9882C212.386 56.3382 204.942 56.2729 199.893 53.727C192.707 50.202 188.759 43.8048 188.759 35.6451C188.694 31.6631 189.018 30.0312 190.377 27.0937C195.297 16.584 206.884 12.2104 217.241 16.9756Z" fill="white"/>
<path d="M73.7952 1.89397C62.5318 5.74536 54.1814 14.4926 50.88 25.7856C49.5854 30.1592 49.5207 39.9509 50.7506 44.4551C53.9872 56.5968 64.4738 67.0412 76.4492 69.9134C84.7349 71.8717 93.9269 70.762 101.177 66.7801C103.313 65.6704 107.262 62.6023 109.98 59.9912L114.9 55.2912L109.592 49.9384L104.284 44.5204L100.076 48.5676C94.4448 54.0509 91.1434 55.5523 84.476 55.5523C80.0742 55.5523 78.7796 55.2259 75.9314 53.7245C68.8756 50.0037 65.2506 44.2593 64.8622 36.1648C64.6032 31.9218 64.8622 30.6162 66.2215 27.6134C70.2997 18.6051 78.909 13.8398 88.0363 15.537C92.8912 16.4509 96.0631 18.2134 100.53 22.4565L104.284 26.112L109.527 20.7592L114.835 15.4717L110.434 11.3592C101.371 2.93841 95.351 0.392578 84.5407 0.392578C79.4916 0.392578 77.0318 0.784245 73.7952 1.89397Z" fill="white"/>
<path d="M260.094 1.24154C258.353 1.83556 251.77 4.16598 247.931 10.8831C246.216 13.8924 245.335 17.3978 245.335 21.3471C245.335 25.5901 245.594 26.8957 247.342 30.2901C250.643 36.9485 256.534 41.061 264.625 42.3013C267.021 42.6276 269.545 43.0846 270.322 43.2151C271.034 43.3457 272.458 44.2596 273.364 45.1735C275.824 47.654 275.759 51.179 273.235 54.0513C272.885 54.4495 272.277 55.2067 271.202 55.7876C270.93 55.9378 269.739 56.5514 268.082 56.5514C267.752 56.5514 266.192 56.5253 264.515 55.5526C263.693 55.0761 262.625 54.4495 260.152 50.1999C259.052 48.3068 258.081 46.7401 257.887 46.7401C257.498 46.7401 246.559 52.354 245.458 53.1374C244.811 53.5943 245.135 54.6388 247.077 57.9026C250.313 63.386 253.679 66.7151 258.21 68.804C259.758 69.5156 260.994 69.9268 261.376 70.0443C262.224 70.3054 264.612 70.9843 267.797 71.0104C270.814 71.0365 273.202 70.4752 274.594 70.0639C275.332 69.842 276.478 69.4764 277.76 68.8693C282.679 66.5193 286.369 62.9943 288.505 58.6207C290.059 55.4221 290.318 54.1165 290.318 49.3513C290.318 44.8471 290.059 43.2804 288.829 40.9957C285.01 33.7499 278.795 29.5721 270.121 28.3971C264.684 27.679 262.353 26.4388 260.994 23.6318C258.016 17.561 266.949 11.7513 272.322 16.3207L274.135 17.8874L280.802 14.4929L287.534 11.0985L285.333 8.22626C284.039 6.46376 281.579 4.50542 278.989 3.06931C276.957 1.94001 275.339 1.33292 274.911 1.18931C274.096 0.908619 271.772 0.17098 268.665 0.0273691C266.904 -0.0509643 263.706 0.00125798 260.088 1.24154H260.094Z" fill="white"/>
<path d="M0 36.2964V70.8937H50.4911V56.5326L32.5603 56.402L14.5647 56.2062V43.8034L25.4397 43.6076L36.25 43.477V29.1159H14.2411V16.7131H50.4911V1.69922H0V36.2964Z" fill="white"/>
<path d="M115.87 36.2953V70.8925H130.759V42.1703H156.004V70.8925H170.892V1.63281L163.642 1.82865L156.328 2.02448L156.134 16.1898L156.004 30.4203H130.759L130.629 16.1898L130.435 2.02448L123.185 1.82865L115.87 1.63281V36.2953Z" fill="white"/>
<path d="M80.9152 77.4121H0V79.3443H80.9152V77.4121Z" fill="white"/>
<path d="M290.119 77.4141H242.932V79.3463H290.119V77.4141Z" fill="white"/>
<path d="M117.53 74.8188H117.929V77.1738C117.929 77.384 117.891 77.5626 117.813 77.7095C117.736 77.8564 117.627 77.968 117.487 78.0441C117.346 78.1203 117.181 78.1583 116.99 78.1583C116.81 78.1583 116.649 78.1256 116.509 78.0602C116.368 77.9937 116.258 77.8993 116.177 77.7771C116.097 77.6548 116.057 77.5095 116.057 77.3411H116.449C116.449 77.4344 116.472 77.5159 116.518 77.5856C116.566 77.6543 116.63 77.7079 116.711 77.7465C116.793 77.7851 116.886 77.8044 116.99 77.8044C117.104 77.8044 117.202 77.7803 117.283 77.732C117.363 77.6838 117.424 77.613 117.466 77.5197C117.509 77.4253 117.53 77.31 117.53 77.1738V74.8188ZM120.891 74.8188H121.29V77.0001C121.29 77.2253 121.237 77.4264 121.13 77.6033C121.025 77.7792 120.877 77.9181 120.685 78.02C120.493 78.1208 120.268 78.1712 120.009 78.1712C119.751 78.1712 119.526 78.1208 119.334 78.02C119.142 77.9181 118.993 77.7792 118.886 77.6033C118.781 77.4264 118.729 77.2253 118.729 77.0001V74.8188H119.128V76.9679C119.128 77.1288 119.163 77.272 119.234 77.3974C119.305 77.5218 119.405 77.62 119.536 77.6918C119.668 77.7626 119.826 77.798 120.009 77.798C120.193 77.798 120.35 77.7626 120.482 77.6918C120.614 77.62 120.715 77.5218 120.785 77.3974C120.855 77.272 120.891 77.1288 120.891 76.9679V74.8188ZM123.103 78.1133H122.086V74.8188H123.148C123.468 74.8188 123.741 74.8847 123.968 75.0166C124.196 75.1475 124.37 75.3357 124.491 75.5813C124.612 75.8258 124.673 76.1185 124.673 76.4596C124.673 76.8028 124.612 77.0982 124.49 77.346C124.367 77.5926 124.189 77.7824 123.956 77.9154C123.722 78.0473 123.438 78.1133 123.103 78.1133ZM122.485 77.7594H123.077C123.35 77.7594 123.575 77.7068 123.755 77.6017C123.934 77.4966 124.067 77.347 124.155 77.1529C124.243 76.9588 124.287 76.7277 124.287 76.4596C124.287 76.1936 124.244 75.9647 124.157 75.7727C124.07 75.5796 123.94 75.4316 123.767 75.3287C123.595 75.2247 123.38 75.1727 123.122 75.1727H122.485V77.7594ZM125.741 74.8188V78.1133H125.342V74.8188H125.741ZM129.192 75.8483H128.793C128.77 75.7335 128.728 75.6327 128.669 75.5459C128.611 75.459 128.541 75.3861 128.457 75.3271C128.374 75.267 128.283 75.222 128.182 75.192C128.081 75.1619 127.976 75.1469 127.867 75.1469C127.667 75.1469 127.486 75.1973 127.325 75.2981C127.164 75.3989 127.036 75.5475 126.94 75.7437C126.846 75.94 126.799 76.1807 126.799 76.466C126.799 76.7513 126.846 76.992 126.94 77.1883C127.036 77.3846 127.164 77.5331 127.325 77.6339C127.486 77.7347 127.667 77.7851 127.867 77.7851C127.976 77.7851 128.081 77.7701 128.182 77.7401C128.283 77.71 128.374 77.6655 128.457 77.6066C128.541 77.5465 128.611 77.473 128.669 77.3862C128.728 77.2982 128.77 77.1974 128.793 77.0837H129.192C129.162 77.2521 129.107 77.4028 129.028 77.5358C128.949 77.6688 128.85 77.7819 128.732 77.8752C128.614 77.9674 128.482 78.0377 128.335 78.0859C128.189 78.1342 128.033 78.1583 127.867 78.1583C127.586 78.1583 127.336 78.0897 127.117 77.9524C126.898 77.8151 126.726 77.62 126.601 77.3669C126.475 77.1138 126.412 76.8135 126.412 76.466C126.412 76.1185 126.475 75.8183 126.601 75.5652C126.726 75.3121 126.898 75.1169 127.117 74.9796C127.336 74.8423 127.586 74.7737 127.867 74.7737C128.033 74.7737 128.189 74.7978 128.335 74.8461C128.482 74.8944 128.614 74.9651 128.732 75.0584C128.85 75.1507 128.949 75.2633 129.028 75.3963C129.107 75.5282 129.162 75.6788 129.192 75.8483ZM130.236 74.8188V78.1133H129.837V74.8188H130.236ZM131.171 78.1133H130.753L131.962 74.8188H132.374L133.584 78.1133H133.166L132.181 75.34H132.155L131.171 78.1133ZM131.325 76.8264H133.011V77.1803H131.325V76.8264ZM134.496 74.8188V78.1133H134.097V74.8188H134.496ZM135.296 78.1133V74.8188H136.409C136.666 74.8188 136.878 74.8627 137.043 74.9507C137.208 75.0375 137.33 75.1571 137.41 75.3094C137.489 75.4617 137.529 75.6349 137.529 75.829C137.529 76.0231 137.489 76.1952 137.41 76.3454C137.33 76.4955 137.209 76.6135 137.044 76.6993C136.88 76.784 136.671 76.8264 136.415 76.8264H135.515V76.466H136.403C136.578 76.466 136.72 76.4403 136.827 76.3888C136.936 76.3373 137.014 76.2644 137.062 76.17C137.111 76.0746 137.136 75.9609 137.136 75.829C137.136 75.6971 137.111 75.5818 137.062 75.4831C137.013 75.3845 136.934 75.3083 136.826 75.2547C136.717 75.2 136.574 75.1727 136.396 75.1727H135.695V78.1133H135.296ZM136.847 76.6333L137.657 78.1133H137.194L136.396 76.6333H136.847ZM138.193 78.1133V74.8188H140.182V75.1727H138.592V76.2858H140.079V76.6398H138.592V77.7594H140.207V78.1133H138.193ZM142.703 75.6424C142.683 75.4794 142.605 75.3528 142.468 75.2627C142.33 75.1727 142.162 75.1276 141.963 75.1276C141.817 75.1276 141.689 75.1512 141.58 75.1984C141.471 75.2456 141.387 75.3105 141.326 75.393C141.265 75.4756 141.235 75.5695 141.235 75.6746C141.235 75.7625 141.256 75.8381 141.298 75.9014C141.341 75.9636 141.396 76.0156 141.462 76.0574C141.529 76.0982 141.598 76.132 141.671 76.1588C141.744 76.1845 141.811 76.2054 141.872 76.2215L142.207 76.3116C142.293 76.3341 142.388 76.3652 142.493 76.4049C142.6 76.4446 142.701 76.4987 142.797 76.5674C142.895 76.6349 142.975 76.7218 143.039 76.828C143.102 76.9341 143.134 77.0644 143.134 77.2189C143.134 77.3969 143.087 77.5578 142.994 77.7015C142.901 77.8452 142.766 77.9594 142.588 78.0441C142.411 78.1288 142.196 78.1712 141.943 78.1712C141.707 78.1712 141.503 78.1331 141.33 78.057C141.159 77.9808 141.024 77.8747 140.925 77.7385C140.827 77.6023 140.772 77.4441 140.759 77.2639H141.171C141.182 77.3883 141.224 77.4913 141.297 77.5728C141.371 77.6532 141.464 77.7133 141.576 77.7529C141.69 77.7915 141.812 77.8109 141.943 77.8109C142.096 77.8109 142.232 77.7862 142.353 77.7369C142.475 77.6865 142.571 77.6167 142.641 77.5277C142.712 77.4376 142.748 77.3325 142.748 77.2124C142.748 77.103 142.717 77.014 142.656 76.9454C142.595 76.8768 142.514 76.821 142.415 76.7781C142.315 76.7352 142.207 76.6977 142.091 76.6655L141.686 76.5497C141.428 76.4757 141.225 76.37 141.075 76.2328C140.924 76.0955 140.849 75.9159 140.849 75.6939C140.849 75.5094 140.899 75.3485 140.999 75.2113C141.1 75.0729 141.235 74.9657 141.404 74.8895C141.575 74.8123 141.765 74.7737 141.975 74.7737C142.188 74.7737 142.376 74.8118 142.542 74.8879C142.707 74.963 142.838 75.0659 142.934 75.1968C143.032 75.3276 143.083 75.4762 143.089 75.6424H142.703ZM146.428 76.2891V76.643H144.986V76.2891H146.428ZM150.673 75.8483C150.638 75.74 150.591 75.6429 150.533 75.5571C150.477 75.4703 150.409 75.3963 150.329 75.3351C150.251 75.274 150.162 75.2274 150.062 75.1952C149.962 75.163 149.853 75.1469 149.734 75.1469C149.539 75.1469 149.361 75.1973 149.201 75.2981C149.042 75.3989 148.915 75.5475 148.82 75.7437C148.726 75.94 148.679 76.1807 148.679 76.466C148.679 76.7513 148.726 76.992 148.822 77.1883C148.917 77.3846 149.047 77.5331 149.21 77.6339C149.373 77.7347 149.556 77.7851 149.76 77.7851C149.948 77.7851 150.115 77.7449 150.258 77.6645C150.403 77.583 150.516 77.4682 150.596 77.3202C150.678 77.1711 150.718 76.9958 150.718 76.7942L150.841 76.8199H149.85V76.466H151.105V76.8199C151.105 77.0912 151.047 77.3272 150.931 77.5277C150.816 77.7283 150.657 77.8838 150.455 77.9942C150.253 78.1036 150.021 78.1583 149.76 78.1583C149.468 78.1583 149.212 78.0897 148.991 77.9524C148.771 77.8151 148.599 77.62 148.476 77.3669C148.354 77.1138 148.293 76.8135 148.293 76.466C148.293 76.2054 148.327 75.9711 148.397 75.763C148.468 75.5539 148.568 75.3759 148.696 75.229C148.825 75.082 148.977 74.9694 149.153 74.8911C149.329 74.8129 149.523 74.7737 149.734 74.7737C149.908 74.7737 150.07 74.8 150.22 74.8525C150.371 74.904 150.506 74.9775 150.624 75.0729C150.743 75.1673 150.842 75.2804 150.921 75.4123C151.001 75.5432 151.055 75.6885 151.085 75.8483H150.673ZM152.187 74.8188V78.1133H151.788V74.8188H152.187ZM152.987 78.1133V74.8188H154.1C154.357 74.8188 154.569 74.8627 154.734 74.9507C154.899 75.0375 155.021 75.1571 155.1 75.3094C155.18 75.4617 155.219 75.6349 155.219 75.829C155.219 76.0231 155.18 76.1952 155.1 76.3454C155.021 76.4955 154.899 76.6135 154.735 76.6993C154.571 76.784 154.362 76.8264 154.106 76.8264H153.205V76.466H154.093C154.269 76.466 154.411 76.4403 154.518 76.3888C154.626 76.3373 154.705 76.2644 154.753 76.17C154.802 76.0746 154.827 75.9609 154.827 75.829C154.827 75.6971 154.802 75.5818 154.753 75.4831C154.704 75.3845 154.625 75.3083 154.516 75.2547C154.408 75.2 154.265 75.1727 154.087 75.1727H153.386V78.1133H152.987ZM154.537 76.6333L155.348 78.1133H154.885L154.087 76.6333H154.537ZM158.664 76.466C158.664 76.8135 158.601 77.1138 158.476 77.3669C158.35 77.62 158.178 77.8151 157.959 77.9524C157.741 78.0897 157.491 78.1583 157.21 78.1583C156.929 78.1583 156.679 78.0897 156.46 77.9524C156.241 77.8151 156.069 77.62 155.944 77.3669C155.818 77.1138 155.756 76.8135 155.756 76.466C155.756 76.1185 155.818 75.8183 155.944 75.5652C156.069 75.3121 156.241 75.1169 156.46 74.9796C156.679 74.8423 156.929 74.7737 157.21 74.7737C157.491 74.7737 157.741 74.8423 157.959 74.9796C158.178 75.1169 158.35 75.3121 158.476 75.5652C158.601 75.8183 158.664 76.1185 158.664 76.466ZM158.278 76.466C158.278 76.1807 158.23 75.94 158.135 75.7437C158.04 75.5475 157.912 75.3989 157.75 75.2981C157.589 75.1973 157.409 75.1469 157.21 75.1469C157.01 75.1469 156.83 75.1973 156.668 75.2981C156.507 75.3989 156.379 75.5475 156.283 75.7437C156.189 75.94 156.142 76.1807 156.142 76.466C156.142 76.7513 156.189 76.992 156.283 77.1883C156.379 77.3846 156.507 77.5331 156.668 77.6339C156.83 77.7347 157.01 77.7851 157.21 77.7851C157.409 77.7851 157.589 77.7347 157.75 77.6339C157.912 77.5331 158.04 77.3846 158.135 77.1883C158.23 76.992 158.278 76.7513 158.278 76.466ZM161.947 74.8188V78.1133H161.561L159.766 75.5266H159.734V78.1133H159.335V74.8188H159.721L161.523 77.4119H161.555V74.8188H161.947ZM163.762 78.1133H162.746V74.8188H163.807C164.127 74.8188 164.4 74.8847 164.628 75.0166C164.855 75.1475 165.029 75.3357 165.151 75.5813C165.272 75.8258 165.332 76.1185 165.332 76.4596C165.332 76.8028 165.271 77.0982 165.149 77.346C165.027 77.5926 164.849 77.7824 164.615 77.9154C164.381 78.0473 164.097 78.1133 163.762 78.1133ZM163.145 77.7594H163.737C164.009 77.7594 164.235 77.7068 164.414 77.6017C164.593 77.4966 164.726 77.347 164.814 77.1529C164.902 76.9588 164.946 76.7277 164.946 76.4596C164.946 76.1936 164.903 75.9647 164.816 75.7727C164.729 75.5796 164.599 75.4316 164.427 75.3287C164.254 75.2247 164.039 75.1727 163.782 75.1727H163.145V77.7594ZM166.4 74.8188V78.1133H166.002V74.8188H166.4ZM169.813 74.8188V78.1133H169.427L167.631 75.5266H167.599V78.1133H167.2V74.8188H167.586L169.388 77.4119H169.42V74.8188H169.813ZM172.413 75.6424C172.394 75.4794 172.315 75.3528 172.178 75.2627C172.041 75.1727 171.872 75.1276 171.673 75.1276C171.527 75.1276 171.399 75.1512 171.29 75.1984C171.182 75.2456 171.097 75.3105 171.036 75.393C170.976 75.4756 170.946 75.5695 170.946 75.6746C170.946 75.7625 170.967 75.8381 171.008 75.9014C171.051 75.9636 171.106 76.0156 171.173 76.0574C171.239 76.0982 171.309 76.132 171.382 76.1588C171.455 76.1845 171.522 76.2054 171.583 76.2215L171.917 76.3116C172.003 76.3341 172.099 76.3652 172.204 76.4049C172.31 76.4446 172.411 76.4987 172.508 76.5674C172.605 76.6349 172.686 76.7218 172.749 76.828C172.812 76.9341 172.844 77.0644 172.844 77.2189C172.844 77.3969 172.797 77.5578 172.704 77.7015C172.612 77.8452 172.477 77.9594 172.299 78.0441C172.122 78.1288 171.907 78.1712 171.654 78.1712C171.418 78.1712 171.213 78.1331 171.041 78.057C170.869 77.9808 170.734 77.8747 170.635 77.7385C170.538 77.6023 170.482 77.4441 170.47 77.2639H170.881C170.892 77.3883 170.934 77.4913 171.007 77.5728C171.081 77.6532 171.174 77.7133 171.287 77.7529C171.4 77.7915 171.523 77.8109 171.654 77.8109C171.806 77.8109 171.943 77.7862 172.064 77.7369C172.185 77.6865 172.281 77.6167 172.352 77.5277C172.422 77.4376 172.458 77.3325 172.458 77.2124C172.458 77.103 172.427 77.014 172.366 76.9454C172.305 76.8768 172.225 76.821 172.125 76.7781C172.025 76.7352 171.917 76.6977 171.802 76.6655L171.396 76.5497C171.139 76.4757 170.935 76.37 170.785 76.2328C170.635 76.0955 170.56 75.9159 170.56 75.6939C170.56 75.5094 170.61 75.3485 170.709 75.2113C170.81 75.0729 170.945 74.9657 171.115 74.8895C171.285 74.8123 171.475 74.7737 171.686 74.7737C171.898 74.7737 172.087 74.8118 172.252 74.8879C172.417 74.963 172.548 75.0659 172.644 75.1968C172.742 75.3276 172.794 75.4762 172.799 75.6424H172.413Z" fill="white"/>
</g>
<defs>
<clipPath id="clip0_718_1009">
<rect width="290" height="94" fill="white"/>
</clipPath>
</defs>
</svg>
