<svg width="382" height="140" viewBox="0 0 382 140" fill="none" xmlns="http://www.w3.org/2000/svg">
<path d="M75.4865 7.91639C54.8087 12.0831 42.6843 29.4997 53.3139 39.7497C62.8639 48.9997 83.3756 45.4997 95.6661 32.5831L99.2369 28.9164L94.3374 32.8331C88.5243 37.4997 82.6283 40.6664 76.8152 42.1664C61.6183 46.2497 48.8296 38.9997 51.57 27.8331C53.3969 20.5831 61.8674 13.7497 73.4935 10.3331C83.7078 7.24973 100.233 8.83306 104.22 13.2497C105.465 14.7497 105.465 15.0831 103.887 18.2497C101.728 22.4997 101.728 24.2497 103.887 26.9164C107.458 31.5831 116.095 31.5831 127.306 27.0831C129.88 25.9997 132.039 25.2497 132.039 25.3331C132.039 25.4997 129.133 27.8331 125.645 30.4164C115.181 38.2497 101.313 52.5831 85.5348 71.6664C63.2791 98.6664 53.563 107.666 41.7709 111.833C35.6256 114 25.5774 114.666 20.0965 113.333C14.2004 112 8.88565 108.333 7.14173 104.583C5.56391 101.25 6.3113 98.9164 8.30434 101.25C9.96521 103.25 13.8683 102.833 15.4461 100.416C17.0239 97.9997 16.3596 95.4164 13.6191 93.6664C10.7956 91.7497 6.8926 93.4164 5.31478 97.0831C2.65739 103.5 8.13825 110.833 17.7713 114C30.643 118.25 47.1687 114.666 63.113 104C75.4865 95.7497 85.867 84.7497 97.9913 67.0831C108.87 51.2497 115.098 43.5831 124.897 33.7497C132.62 25.9997 144.579 16.0831 149.478 13.3331C150.143 12.9164 150.475 12.4164 150.143 12.0831C149.893 11.7497 146.655 13.5831 143.084 16.1664C131.043 24.5831 117.756 29.9164 112.275 28.3331C109.95 27.7497 109.867 27.4164 110.863 21.2497C111.361 18.3331 111.112 17.4997 109.202 15.1664C103.223 7.99973 89.6039 5.08306 75.4865 7.91639Z" fill="white"/>
<path d="M196.232 7.91719C185.603 10.8339 177.88 16.5005 158.198 35.8339C142.503 51.2505 136.109 56.5839 128.884 59.9172L124.566 62.0005L122.24 59.8339C117.341 55.1672 111.445 54.3339 109.203 57.8339C106.296 62.1672 111.611 65.5005 119.168 64.0839C123.486 63.2505 124.566 63.5839 124.566 65.6672C124.566 68.1672 121.742 71.8339 111.362 82.7505C98.9882 95.8339 95.4173 101.001 94.836 106.667C94.5039 110.417 94.67 111.001 97.0782 113.417C99.4865 115.834 100.068 116.001 104.137 115.667C112.358 115.001 123.154 108.751 138.102 96.0005L146.572 88.7505L141.506 94.5839C129.797 108.001 127.887 115.834 136.358 115.834C140.427 115.834 150.89 108.584 165.506 95.4172C172.98 88.7505 173.976 88.1672 177.381 88.0005C179.374 88.0005 181.035 88.2505 181.035 88.5839C181.035 89.0005 177.713 92.8339 173.561 97.0839C169.492 101.334 165.755 105.834 165.257 107.084C161.686 116.501 169.243 118.667 180.122 111.417C183.277 109.334 191 103.334 197.395 98.0005C210.35 87.3339 213.92 84.9172 215.581 85.5839C218.156 86.5839 216.661 89.7505 210.848 95.4172C204.204 102.001 200.135 107.751 200.135 110.584C200.135 111.667 200.966 113.334 201.879 114.251C205.948 118.334 214.751 114.251 227.789 102.501C230.861 99.6672 233.353 97.7505 233.353 98.2505C233.353 98.6672 232.937 99.3339 232.522 99.5839C231.027 100.501 226.709 108.667 226.709 110.584C226.709 113.667 229.533 115.834 233.602 115.834C238.003 115.834 244.148 113.001 252.536 107.084C256.106 104.584 259.428 102.501 259.843 102.501C260.259 102.501 260.84 103.084 261.089 103.834C261.587 105.167 264.411 105.167 267.483 103.834C268.646 103.334 268.729 103.917 268.397 107.917C268.065 111.584 268.314 112.917 269.476 114.167C272.715 117.751 280.936 115.251 289.324 108.334C291.566 106.501 293.476 105.084 293.642 105.167C293.725 105.334 293.393 107.001 292.895 109.001C291.732 113.334 292.646 115.251 295.967 115.667C298.957 116.001 301.199 114.501 318.472 100.084C333.254 87.8339 339.98 83.3339 341.475 84.8339C343.219 86.5839 340.811 89.8339 328.603 102.251L316.147 115.001H320.382C322.79 115.001 324.7 114.667 324.7 114.334C324.7 113.334 347.371 93.4172 353.184 89.3339C359.413 85.0005 364.229 83.5005 366.056 85.3339C366.637 85.9172 366.803 86.5005 366.803 86.5005C366.97 87.5839 365.641 88.5839 365.143 89.0005C362.983 90.7505 361.572 93.2505 359.496 95.0005C354.181 99.5005 346.79 110.584 349.946 114.167C352.188 116.667 354.679 116.167 360.741 112.084C367.551 107.584 377.101 99.8339 376.52 99.3339C376.353 99.1672 374.194 100.667 371.786 102.751C365.475 108.084 355.26 115.001 353.6 115.001C352.852 115.001 351.773 114.417 351.191 113.751C350.942 113.501 350.859 113.167 350.776 112.917C350.361 111.001 355.26 106.751 359.08 102.834C362.651 99.1672 360.824 100.334 365.973 94.5005C368.132 92.0839 369.627 90.5839 369.461 88.5005C369.212 86.3339 367.136 84.7505 366.886 84.5839C366.886 84.5839 365.475 83.5839 363.648 83.3339C361.156 83.0005 357.586 84.3339 346.707 92.9172C343.551 95.4172 340.894 97.5005 340.728 97.5005C340.645 97.5005 341.392 95.9172 342.472 94.0005C345.129 89.4172 345.129 86.2505 342.555 84.5839C339.067 82.2505 335.745 84.3339 317.143 100.001C300.286 114.167 295.967 116.751 294.971 113.667C294.39 112.001 301.199 102.917 309.67 93.9172L318.14 85.0005H314.486C311.33 85.0005 310.5 85.3339 308.922 87.5839C307.51 89.5005 306.846 89.9172 306.348 89.0839C305.85 88.4172 305.268 89.0839 304.272 91.2505C301.697 97.5005 283.594 113.001 277.116 114.584C273.463 115.501 270.639 114.417 270.639 112.251C270.639 107.167 285.67 91.3339 294.805 86.7505C298.791 84.7505 300.452 84.0839 301.78 84.4172C303.026 84.7505 303.856 85.8339 303.856 85.8339C304.106 86.1672 304.853 87.0005 305.102 87.8339C305.434 88.7505 305.185 89.6672 305.268 89.6672C305.268 89.6672 305.268 89.4172 305.434 89.2505C305.517 89.0839 305.766 88.9172 305.933 88.9172C306.016 88.9172 306.099 89.0005 306.099 89.0005C306.265 88.9172 305.683 86.0839 303.358 84.4172C302.611 83.8339 301.863 83.5839 301.614 83.5839C300.535 83.3339 299.289 83.5005 296.632 84.0839C287.248 86.1672 280.272 90.2505 271.968 98.4172C266.902 103.501 263.913 104.917 261.92 103.251C260.093 101.751 260.259 101.167 264.743 96.5005C269.975 91.0005 273.13 85.4172 271.719 84.0005C269.476 81.7505 262.916 89.5839 260.591 97.0005C259.76 99.6672 258.266 101.334 253.781 104.917C246.473 110.584 237.92 114.917 234.017 114.917C231.11 114.917 229.117 113.751 229.117 111.917C229.117 111.417 234.349 105.001 240.66 97.7505L252.203 84.5005L248.383 84.2505C244.646 84.0005 244.563 84.0005 239 90.0839C231.941 97.9172 220.564 107.751 213.92 111.834C207.858 115.584 203.955 115.834 203.54 112.501C203.291 110.834 204.703 109.084 210.682 103.334C220.896 93.5839 223.055 87.8339 217.906 84.4172C215.996 83.1672 215.664 83.1672 212.343 85.1672C210.35 86.3339 203.706 91.5005 197.561 96.6672C185.935 106.334 175.388 113.751 172.15 114.584C171.153 114.834 169.575 114.917 168.745 114.751C165.34 114.084 166.835 111.501 176.717 101.334C182.281 95.6672 186.765 90.6672 186.765 90.3339C186.765 89.9172 186.018 88.7505 185.021 87.7505C183.526 86.1672 182.945 86.0839 180.537 86.7505C177.713 87.6672 173.478 87.0839 173.478 85.8339C173.478 85.4172 174.226 84.9172 175.222 84.6672C176.551 84.3339 176.883 83.6672 176.634 81.8339C176.385 79.8339 175.97 79.5005 173.893 79.5005C171.651 79.5005 171.402 79.8339 171.153 82.2505C170.987 83.7505 171.236 85.5005 171.734 86.0839C172.482 86.9172 171.236 88.5005 166.669 92.9172C153.88 105.084 140.344 114.917 136.275 114.917C133.95 114.917 133.202 113.167 134.448 110.751C135.195 109.251 146.24 96.1672 154.627 86.7505L156.288 84.9172H152.634C149.23 84.9172 148.399 85.4172 139.43 93.3339C128.303 103.084 120.496 108.501 113.355 111.417C103.888 115.334 96.9952 114.584 98.1578 109.751C98.8221 107.167 101.729 103.501 112.69 91.5005C123.32 79.7505 126.642 73.7505 125.894 67.1672L125.313 62.7505L131.209 60.7505C142.669 56.8339 149.146 52.0005 167.665 33.4172C185.935 15.0005 191.665 10.5839 198.973 9.08385C206.114 7.58385 211.844 9.25052 207.609 11.5839C203.623 13.6672 205.367 19.9172 210.017 19.9172C212.924 19.9172 215 18.0005 215 15.2505C215 11.9172 213.505 9.91719 209.768 8.16719C205.782 6.41719 202.211 6.33385 196.232 7.91719ZM120.081 59.5839C121.161 60.2505 122.074 61.2505 122.074 61.6672C122.074 62.5839 113.936 62.8339 111.777 62.0005C110.199 61.4172 110.033 58.6672 111.528 58.0005C113.106 57.2505 117.922 58.1672 120.081 59.5839Z" fill="white"/>
<path d="M162.931 67.7512C160.606 70.1678 160.606 70.9178 163.014 73.1678L164.924 75.0012L167.332 72.5012L169.74 70.0012L167.747 67.9178C165.339 65.3345 165.173 65.3345 162.931 67.7512Z" fill="white"/>
<path d="M199.885 52.584C199.47 54.0006 198.723 56.0007 198.307 56.9173C197.477 57.084 195.235 57.584 193.076 57.584C186.266 57.584 182.778 53.0006 182.778 48.0006C182.778 42.1673 187.18 38.084 193.574 38.084C196.065 38.084 198.058 38.584 198.972 38.7507C199.055 40.0007 199.304 41.7506 199.553 43.1673L198.64 43.334C198.058 41.4173 197.394 40.2506 195.899 39.6673C195.152 39.334 193.989 39.084 192.91 39.084C188.176 39.084 185.685 42.584 185.685 47.334C185.685 52.834 188.508 56.4173 193.159 56.4173C196.065 56.4173 197.477 55.084 198.972 52.1673L199.885 52.584Z" fill="white"/>
<path d="M222.224 39.3333C219.816 39.5833 219.65 39.6667 219.65 42.0833V53.5833C219.65 56 219.899 56.0833 222.224 56.3333V57.1667H214.584V56.3333C216.993 56.0833 217.159 56 217.159 53.5833V47.8333H207.36V53.5833C207.36 56 207.609 56.0833 209.934 56.3333V57.1667H202.294V56.3333C204.619 56.0833 204.868 56 204.868 53.5833V42.0833C204.868 39.6667 204.619 39.5 202.294 39.3333V38.5H209.934V39.3333C207.609 39.5 207.36 39.75 207.36 42.0833V46.6667H217.159V42.0833C217.159 39.6667 216.827 39.5 214.584 39.3333V38.5H222.224V39.3333Z" fill="white"/>
<path d="M234.432 57.168V56.3346C236.259 56.0846 236.508 55.8346 236.093 54.7513C235.761 53.668 235.179 52.168 234.515 50.418H228.37C227.871 51.668 227.456 52.8346 227.124 54.0013C226.46 55.8346 226.875 56.0846 229.2 56.418V57.2513H222.64V56.418C224.467 56.168 224.882 56.0013 225.878 53.418L231.774 38.3346L232.688 38.168C234.515 43.0846 236.425 48.5013 238.252 53.418C239.165 55.918 239.414 56.168 241.491 56.3346V57.168H234.432ZM236.425 37.0013L232.273 35.168L228.121 37.0013L227.705 36.2513C229.034 35.2513 231.11 33.668 231.941 32.918H232.605C233.518 33.7513 235.511 35.2513 236.84 36.2513L236.425 37.0013ZM231.525 41.918C230.612 44.418 229.615 47.0013 228.785 49.2513H234.1L231.525 41.918Z" fill="white"/>
<path d="M257.268 43.0006C257.019 42.084 256.687 41.1673 256.355 40.584C255.857 39.834 255.607 39.584 254.03 39.584H251.206V53.584C251.206 55.834 251.455 56.1673 254.113 56.334V57.1673H245.808V56.334C248.466 56.1673 248.715 55.834 248.715 53.584V39.6673H246.14C244.563 39.6673 244.147 39.834 243.649 40.6673C243.317 41.2506 243.068 41.9173 242.736 43.0006H241.905C242.071 41.2506 242.237 39.4173 242.32 37.834H242.985C243.4 38.5007 243.732 38.5007 244.563 38.5007H255.857C256.687 38.5007 256.853 38.4173 257.351 37.834H258.016C258.016 39.1673 258.099 41.2506 258.265 42.9173L257.268 43.0006Z" fill="white"/>
<path d="M275.123 52.5846C274.957 53.3346 274.209 56.2513 273.877 57.168H260.009V56.3346C262.666 56.168 262.832 55.8346 262.832 53.5013V42.2513C262.832 39.668 262.5 39.5846 260.341 39.3346V38.5013H269.061C271.718 38.5013 272.881 38.5013 273.213 38.418C273.213 39.168 273.379 41.2513 273.462 42.8346L272.631 43.0013C272.382 42.0013 272.05 41.418 271.801 40.8346C271.303 39.918 270.721 39.668 268.977 39.668H266.237C265.324 39.668 265.324 39.7513 265.324 40.5846V46.918H268.479C270.638 46.918 270.804 46.5013 271.137 44.5013H272.05V50.418H271.137C270.804 48.3346 270.555 48.0846 268.479 48.0846H265.324V53.7513C265.324 55.7513 265.988 55.918 267.4 55.918H270.057C271.801 55.918 272.05 55.668 272.714 54.918C273.296 54.3346 273.877 53.168 274.292 52.2513L275.123 52.5846Z" fill="white"/>
<path d="M286.749 57.168V56.3346C288.576 56.0846 288.825 55.8346 288.41 54.7513C288.078 53.668 287.497 52.168 286.832 50.418H280.687C280.189 51.668 279.774 52.8346 279.441 54.0013C278.777 55.8346 279.192 56.0846 281.517 56.418V57.2513H274.957V56.418C276.784 56.168 277.199 56.0013 278.196 53.418L284.092 38.3346L285.005 38.168C286.832 43.0846 288.742 48.5013 290.569 53.418C291.483 55.918 291.732 56.168 293.808 56.3346V57.168H286.749ZM283.843 41.918C282.929 44.418 281.933 47.0013 281.102 49.2513H286.417L283.843 41.918Z" fill="white"/>
<path d="M313.987 39.3333C312.16 39.4167 311.496 39.9167 311.496 41.25C311.496 41.9167 311.413 43.0833 311.413 45.75V48.8333C311.413 51.75 311.08 54 309.42 55.75C308.091 57.1667 306.098 57.5833 304.188 57.5833C302.527 57.5833 300.783 57.25 299.537 56.25C297.793 54.9167 296.963 52.9167 296.963 49.5833V42.25C296.963 39.6667 296.714 39.5 294.472 39.3333V38.5H301.946V39.3333C299.62 39.5 299.454 39.6667 299.454 42.25V49.4167C299.454 53.5833 301.447 55.9167 304.852 55.9167C308.921 55.9167 310.167 53.4167 310.167 48.6667V45.75C310.167 43.0833 310.084 42 310.001 41.25C309.918 40 309.253 39.5 307.177 39.3333V38.5H314.07V39.3333H313.987Z" fill="white"/>
</svg>
