<?xml version="1.0" encoding="UTF-8" standalone="no"?>
<!DOCTYPE svg PUBLIC "-//W3C//DTD SVG 1.1//EN" "http://www.w3.org/Graphics/SVG/1.1/DTD/svg11.dtd">
<svg xmlns="http://www.w3.org/2000/svg" version="1.1" viewBox="0.00 0.00 256.00 256.00">
<path stroke="#808080" stroke-width="2.00" fill="none" stroke-linecap="butt" vector-effect="non-scaling-stroke" d="
  M 202.92 76.55
  C 203.28 78.43 202.77 81.15 202.77 82.81
  Q 202.74 143.53 202.80 204.25
  C 202.81 219.41 194.41 220.83 181.71 221.04
  A 0.74 0.74 0.0 0 0 180.98 221.78
  L 180.98 224.64
  A 0.66 0.65 -0.4 0 0 181.64 225.28
  L 239.66 225.29
  Q 240.36 225.29 240.36 224.59
  L 240.36 221.64
  Q 240.36 221.10 239.82 221.06
  Q 236.65 220.79 233.53 220.36
  C 223.41 218.96 221.18 210.67 221.18 201.74
  Q 221.19 117.09 221.19 32.39
  Q 221.19 31.89 220.69 31.89
  L 203.05 31.79
  A 0.98 0.97 11.3 0 0 202.15 32.38
  L 129.63 201.91
  A 0.37 0.37 0.0 0 1 128.95 201.91
  L 56.19 32.40
  Q 55.96 31.85 55.36 31.85
  L 16.11 31.82
  A 0.59 0.58 88.2 0 0 15.53 32.45
  L 15.72 35.17
  A 0.56 0.56 0.0 0 0 16.24 35.68
  C 30.80 36.33 36.96 41.56 36.96 56.75
  Q 36.97 140.75 36.97 224.78
  A 0.51 0.51 0.0 0 0 37.48 225.29
  L 54.77 225.33
  Q 55.31 225.33 55.31 224.80
  Q 55.35 152.00 55.29 79.20
  Q 55.29 78.53 55.05 77.86
  Q 54.67 76.75 54.71 76.49
  Q 55.20 73.62 56.35 76.33
  L 119.57 224.42
  A 1.47 1.47 0.0 0 0 120.92 225.31
  L 137.55 225.33
  A 1.24 1.23 11.5 0 0 138.69 224.58
  L 202.00 76.45
  Q 202.62 75.01 202.92 76.55"
/>
<path fill="#ffffff" d="
  M 0.00 0.00
  L 256.00 0.00
  L 256.00 256.00
  L 0.00 256.00
  L 0.00 0.00
  Z
  M 202.92 76.55
  C 203.28 78.43 202.77 81.15 202.77 82.81
  Q 202.74 143.53 202.80 204.25
  C 202.81 219.41 194.41 220.83 181.71 221.04
  A 0.74 0.74 0.0 0 0 180.98 221.78
  L 180.98 224.64
  A 0.66 0.65 -0.4 0 0 181.64 225.28
  L 239.66 225.29
  Q 240.36 225.29 240.36 224.59
  L 240.36 221.64
  Q 240.36 221.10 239.82 221.06
  Q 236.65 220.79 233.53 220.36
  C 223.41 218.96 221.18 210.67 221.18 201.74
  Q 221.19 117.09 221.19 32.39
  Q 221.19 31.89 220.69 31.89
  L 203.05 31.79
  A 0.98 0.97 11.3 0 0 202.15 32.38
  L 129.63 201.91
  A 0.37 0.37 0.0 0 1 128.95 201.91
  L 56.19 32.40
  Q 55.96 31.85 55.36 31.85
  L 16.11 31.82
  A 0.59 0.58 88.2 0 0 15.53 32.45
  L 15.72 35.17
  A 0.56 0.56 0.0 0 0 16.24 35.68
  C 30.80 36.33 36.96 41.56 36.96 56.75
  Q 36.97 140.75 36.97 224.78
  A 0.51 0.51 0.0 0 0 37.48 225.29
  L 54.77 225.33
  Q 55.31 225.33 55.31 224.80
  Q 55.35 152.00 55.29 79.20
  Q 55.29 78.53 55.05 77.86
  Q 54.67 76.75 54.71 76.49
  Q 55.20 73.62 56.35 76.33
  L 119.57 224.42
  A 1.47 1.47 0.0 0 0 120.92 225.31
  L 137.55 225.33
  A 1.24 1.23 11.5 0 0 138.69 224.58
  L 202.00 76.45
  Q 202.62 75.01 202.92 76.55
  Z"
/>
<path fill="#000000" d="
  M 202.92 76.55
  Q 202.62 75.01 202.00 76.45
  L 138.69 224.58
  A 1.24 1.23 11.5 0 1 137.55 225.33
  L 120.92 225.31
  A 1.47 1.47 0.0 0 1 119.57 224.42
  L 56.35 76.33
  Q 55.20 73.62 54.71 76.49
  Q 54.67 76.75 55.05 77.86
  Q 55.29 78.53 55.29 79.20
  Q 55.35 152.00 55.31 224.80
  Q 55.31 225.33 54.77 225.33
  L 37.48 225.29
  A 0.51 0.51 0.0 0 1 36.97 224.78
  Q 36.97 140.75 36.96 56.75
  C 36.96 41.56 30.80 36.33 16.24 35.68
  A 0.56 0.56 0.0 0 1 15.72 35.17
  L 15.53 32.45
  A 0.59 0.58 88.2 0 1 16.11 31.82
  L 55.36 31.85
  Q 55.96 31.85 56.19 32.40
  L 128.95 201.91
  A 0.37 0.37 0.0 0 0 129.63 201.91
  L 202.15 32.38
  A 0.98 0.97 11.3 0 1 203.05 31.79
  L 220.69 31.89
  Q 221.19 31.89 221.19 32.39
  Q 221.19 117.09 221.18 201.74
  C 221.18 210.67 223.41 218.96 233.53 220.36
  Q 236.65 220.79 239.82 221.06
  Q 240.36 221.10 240.36 221.64
  L 240.36 224.59
  Q 240.36 225.29 239.66 225.29
  L 181.64 225.28
  A 0.66 0.65 -0.4 0 1 180.98 224.64
  L 180.98 221.78
  A 0.74 0.74 0.0 0 1 181.71 221.04
  C 194.41 220.83 202.81 219.41 202.80 204.25
  Q 202.74 143.53 202.77 82.81
  C 202.77 81.15 203.28 78.43 202.92 76.55
  Z"
/>
</svg>
